<svg width="741" height="843" viewBox="0 0 741 843" fill="none" xmlns="http://www.w3.org/2000/svg">
<g clip-path="url(#clip0)">
<path opacity="0.18" d="M734.718 415.282C742.089 444.476 742.982 474.931 737.335 504.507C731.688 534.084 719.638 562.066 702.029 586.49C675.738 622.28 638.257 649.042 614.916 686.732C564.466 768.099 591.546 879.209 545.273 963.031C506.595 1033.15 426.464 1067.6 352.059 1097.16C293.634 1120.36 234.624 1143.71 172.692 1153.06C110.761 1162.4 44.1558 1156.47 -9.50815 1124.25C-53.7656 1097.75 -86.2795 1055.74 -116.31 1013.78C-190.131 910.559 -256.853 798.163 -279.522 673.292C-302.192 548.421 -273.914 408.357 -180.958 321.964C-135.708 279.893 -76.4348 250.881 -44.5051 197.97C-10.998 142.459 -10.5306 65.0059 41.5559 26.3233C60.778 12.0365 84.674 5.40436 108.395 2.24898C165.503 -5.10279 223.464 6.04839 273.769 34.0657C324.804 62.6686 366.695 108.129 422.287 126.419C494.238 150.113 586.58 131.912 634.401 202.031C672.816 258.419 717.658 349.603 734.718 415.282Z" fill="#40A9FF"/>
<path d="M428.569 375.373C427.735 377.135 426.597 378.737 425.209 380.106C414.075 391.868 399.663 400.011 383.844 403.479C378.258 404.766 372.544 405.413 366.813 405.407C363.453 383.729 360.035 362.021 357.406 340.255C355.332 323.251 353.784 306.276 353.053 289.213C352.557 278.52 329.391 241.24 334.123 231.248C339.353 220.263 377.008 257.864 381.244 265.022C404.76 304.464 413.203 334.966 429.328 368.887C429.939 371.064 429.666 373.395 428.569 375.373Z" fill="#40A9FF"/>
<path d="M387.641 399.506C386.514 400.973 385.241 402.324 383.844 403.537C378.258 404.824 372.544 405.471 366.813 405.466C363.453 383.787 360.035 362.079 357.406 340.313C358.399 323.212 360.201 306.179 362.811 289.214C361.7 296.313 370.435 311.798 372.801 318.751L383.055 349.049C388.401 364.855 399.823 384.079 387.641 399.506Z" fill="url(#paint0_linear)"/>
<path d="M375.051 436.581C377.388 450.839 380.367 465.272 387.408 477.893C391.03 484.379 396.434 490.748 403.767 491.888C407.845 492.273 411.955 491.662 415.744 490.106C423.597 487.404 431.001 483.544 437.712 478.653C444.124 473.735 450.168 468.355 455.795 462.555C464.164 454.654 471.91 446.117 478.961 437.019C482.203 432.637 485.154 428.021 488.689 423.843C503.295 406.459 526.665 398.658 543.229 383.144C547.699 378.996 556.755 360.005 556.083 353.928C550.006 350.422 537.532 364.534 530.814 366.579C524.095 368.624 517.814 371.954 511.066 373.854C502.986 376.107 494.458 376.218 486.322 374.175C483.576 373.474 480.304 330.146 477.558 331.139C476.176 331.719 474.939 332.597 473.936 333.71C468.269 339.553 465.172 389.426 460.469 395.912C454.013 404.677 445.074 411.338 436.222 417.707C435.434 418.263 434.44 418.847 433.564 418.409C433.275 418.194 433.033 417.922 432.852 417.611C432.671 417.299 432.556 416.955 432.512 416.597C430.204 408.037 427.604 399.535 424.771 391.15C422.784 385.306 419.98 378.879 414.108 377.126C408.879 375.577 403.445 378.528 398.771 381.362C392.754 385.043 386.677 388.666 380.689 392.377C377.358 394.422 373.327 396.409 371.75 400.178C369.821 404.706 371.457 410.958 372.012 415.604C372.889 422.645 373.911 429.628 375.051 436.581Z" fill="#98646A"/>
<path d="M428.364 833.954C428.364 842.894 427.926 851.688 427.137 860.424C420.322 935.182 385.055 1004.47 328.622 1053.96C272.19 1103.46 198.903 1129.38 123.904 1126.38C48.9051 1123.38 -22.0764 1091.69 -74.3758 1037.84C-126.675 983.994 -156.296 912.115 -157.12 837.051C-157.12 836.057 -157.12 835.093 -157.12 834.129C-157.506 795.433 -150.219 757.044 -135.68 721.182C-121.141 685.319 -99.6384 652.695 -72.4151 625.195C-45.1917 597.695 -12.7879 575.865 22.923 560.966C58.6339 546.068 96.9434 538.397 135.637 538.397C174.33 538.397 212.64 546.068 248.351 560.966C284.061 575.865 316.465 597.695 343.689 625.195C370.912 652.695 392.415 685.319 406.954 721.182C421.493 757.044 428.78 795.433 428.393 834.129L428.364 833.954Z" fill="#40A9FF"/>
<path d="M428.364 833.954C428.364 842.894 427.926 851.688 427.137 860.424C359.772 906.264 260.624 935.189 150.053 935.189C21.5168 935.189 -91.4201 896.126 -157.12 836.905C-157.12 835.911 -157.12 834.947 -157.12 833.983C-157.506 795.287 -150.219 756.898 -135.68 721.035C-121.141 685.173 -99.6384 652.549 -72.4151 625.049C-45.1917 597.549 -12.7879 575.719 22.923 560.82C58.6339 545.922 96.9434 538.251 135.637 538.251C174.33 538.251 212.64 545.922 248.351 560.82C284.061 575.719 316.465 597.549 343.689 625.049C370.912 652.549 392.415 685.173 406.954 721.035C421.493 756.898 428.78 795.287 428.393 833.983L428.364 833.954Z" fill="url(#paint1_linear)"/>
<path d="M269.855 719.484C281.54 723.691 294.248 726.7 303.83 734.676C312.331 741.718 317.501 751.914 321.679 762.111C335.607 796.33 340.632 833.522 336.285 870.211C335.117 879.97 333.364 890.02 335.905 899.428C338.447 908.836 347.123 917.659 356.88 916.49C370.406 889.611 370.698 858.233 370.727 828.14C370.727 806.169 370.727 783.731 363.366 763.016C357.348 745.954 346.714 730.878 335.73 716.533C295.679 663.943 247.215 614.889 185.518 591.253C182.959 589.944 180.021 589.582 177.221 590.23C164.514 594.876 166.588 617.489 171.525 626.576C178.535 639.128 186.341 651.219 194.895 662.775C213.66 688.739 239.767 708.491 269.855 719.484Z" fill="url(#paint2_linear)"/>
<path d="M154.318 653.455C154.492 649.523 155 645.614 155.838 641.768C156.287 639.86 157.252 638.113 158.628 636.716C160.004 635.32 161.737 634.328 163.637 633.851C165.242 633.807 166.842 633.661 168.428 633.412C171.671 632.419 173.044 628.65 173.979 625.407L184.349 589.179C186.336 582.167 188.351 574.804 186.832 567.704C184.437 556.602 174.242 549.094 164.309 543.659C157.094 539.686 148.973 536.151 140.939 537.641C128.494 539.949 121.279 552.804 116.634 564.578C111.228 577.194 107.903 590.603 106.789 604.284C105.971 620.09 104.627 658.801 114.414 672.621C127.969 692.02 152.157 670.985 154.318 653.455Z" fill="url(#paint3_linear)"/>
<path d="M311.893 607.731C338.389 616.7 366.637 620.469 392.17 631.893C392.992 632.142 393.754 632.559 394.408 633.117C395.062 633.675 395.592 634.362 395.967 635.136C396.19 636.401 396.027 637.704 395.5 638.876C373.938 703.009 361.776 769.927 359.393 837.547C374.67 840.297 390.282 840.642 405.666 838.57C407.394 838.462 409.07 837.93 410.544 837.021C411.962 835.78 413.03 834.188 413.641 832.405C438.355 776.914 460.537 720.38 480.188 662.804C483.664 652.607 487.111 641.943 485.709 631.25C483.693 615.678 471.979 603.407 460.849 592.334L374.116 505.795C371.91 503.307 369.202 501.316 366.17 499.951C362.681 498.913 358.993 498.733 355.42 499.426C321.212 503.662 274.5 504.977 211.634 502.347C203.484 501.997 243.768 548.422 247.128 557.333C249.815 564.403 258.316 573.518 263.516 579.011C276.545 592.684 294.131 601.712 311.893 607.731Z" fill="#525263"/>
<path d="M311.893 607.731C338.389 616.7 366.637 620.469 392.17 631.893C392.992 632.142 393.754 632.559 394.408 633.117C395.062 633.675 395.592 634.362 395.967 635.136C396.19 636.401 396.027 637.704 395.5 638.876C373.938 703.009 361.776 769.927 359.393 837.547C374.67 840.297 390.282 840.642 405.666 838.57C407.394 838.462 409.07 837.93 410.544 837.021C411.962 835.78 413.03 834.188 413.641 832.405C438.355 776.914 460.537 720.38 480.188 662.804C483.664 652.607 487.111 641.943 485.709 631.25C483.693 615.678 471.979 603.407 460.849 592.334L374.116 505.795C371.91 503.307 369.202 501.316 366.17 499.951C362.681 498.913 358.993 498.733 355.42 499.426C321.212 503.662 274.5 504.977 211.634 502.347C203.484 501.997 243.768 548.422 247.128 557.333C249.815 564.403 258.316 573.518 263.516 579.011C276.545 592.684 294.131 601.712 311.893 607.731Z" fill="url(#paint4_linear)"/>
<path d="M363.628 839.739C361.414 851.296 360.26 863.031 360.181 874.799C360.181 879.97 360.532 885.696 364.242 889.407C367.753 892.198 372.23 893.48 376.687 892.971C382.06 892.773 387.362 891.677 392.374 889.728C393.486 889.382 394.491 888.758 395.295 887.917C395.888 887.087 396.296 886.141 396.493 885.141C400.951 868.416 403.316 851.203 403.533 833.896C403.817 831.182 403.256 828.447 401.927 826.065C399.151 822.18 393.396 822.355 388.722 823.29C382.739 824.571 376.875 826.36 371.195 828.637C365.819 830.506 364.709 834.188 363.628 839.739Z" fill="#F5BCBA"/>
<path d="M102.699 370.669C100.143 377.101 98.4346 383.838 97.6163 390.711C94.8374 408.507 93.0623 426.445 92.2995 444.44C90.8389 478.799 93.0591 513.216 92.0951 547.574C91.1018 583.306 86.8952 620.352 99.7488 653.688C101.75 659.738 105.131 665.239 109.623 669.757C111.896 671.981 114.698 673.588 117.765 674.426C120.832 675.264 124.063 675.307 127.15 674.549C129.945 673.473 132.453 671.766 134.48 669.562C136.506 667.357 137.997 664.715 138.836 661.84C140.446 656.082 141.155 650.11 140.939 644.135L141.406 611.471C141.406 610.799 141.406 610.01 142.078 609.718C142.36 609.62 142.662 609.599 142.954 609.655C143.246 609.711 143.518 609.844 143.743 610.039C146.257 612.211 148.646 614.523 150.9 616.963C153.5 619.067 157.649 620.09 159.956 617.665C160.595 616.814 161.048 615.839 161.285 614.802C161.521 613.765 161.536 612.689 161.329 611.646C159.927 597.505 147.599 587.309 140.267 575.125C129.692 557.596 129.692 535.508 132.35 515.115C135.651 489.58 142.546 464.658 149.411 439.824L155.253 418.818C159.664 402.865 164.017 385.452 157.59 370.172C155.01 364.303 151.08 359.127 146.12 355.065C141.16 351.004 135.311 348.171 129.049 346.799C116.838 344.549 107.11 360.735 102.699 370.669Z" fill="#98646A"/>
<path d="M373.911 503.516C370.143 513.654 348.876 501.821 336.723 507.898C313.528 519.585 287.062 507.577 261.208 507.898C233.69 508.395 214.701 535.508 187.387 538.955C185.402 539.365 183.355 539.365 181.37 538.955C177.601 537.845 175.381 534.076 173.774 530.541C171.417 525.087 169.73 519.368 168.75 513.508C165.361 494.108 168.75 473.306 172.372 453.585C175.41 436.873 178.439 420.152 181.457 403.42C184.963 383.943 188.497 364.348 192.061 344.637C194.14 331.633 197.067 318.78 200.825 306.159C201.526 303.968 202.257 301.835 203.045 299.731C209.841 282.597 218.038 266.053 227.555 250.268C233.398 240.13 239.24 229.816 248.267 222.133C258.345 213.631 271.345 209.394 284.403 207.349C296.147 205.135 308.254 205.838 319.663 209.394C326.177 211.673 328.631 218.568 333.802 222.805C340.357 227.661 346.206 233.403 351.184 239.867C356.24 247.671 359.851 256.32 361.846 265.402C380.163 336.632 353.667 413.471 371.078 484.905C373.064 493.29 376.92 495.511 373.911 503.516Z" fill="#40A9FF"/>
<path d="M349.022 253.306L351.301 268.236L342.537 263.357V302.916L332.546 258.974L342.215 244.892L349.022 253.306Z" fill="url(#paint5_linear)"/>
<path d="M274.821 252.342L280.343 255.264L289.106 262.89L265.736 325.588C265.736 325.588 299.681 273.349 300.792 246.704C301.479 230.314 299.435 213.924 294.745 198.204L274.821 252.342Z" fill="url(#paint6_linear)"/>
<path d="M199.978 432.053C198.123 446.406 198.123 460.939 199.978 475.293C201.176 484.321 203.104 493.32 202.49 502.377C202.518 504.146 201.953 505.874 200.884 507.285C199.512 508.401 197.828 509.064 196.064 509.184C186.93 510.625 177.786 512.096 168.633 513.596C165.244 494.196 168.633 473.394 172.255 453.673C175.293 436.961 178.322 420.239 181.34 403.508C184.846 384.031 188.381 364.436 191.945 344.725C194.023 331.721 196.951 318.868 200.708 306.247C201.409 304.055 202.14 301.923 202.929 299.819C211.985 294.794 224.575 291.054 230.184 299.176C236.027 307.941 228.344 328.393 226.065 337.158C217.769 368.916 204.155 399.272 199.978 432.053Z" fill="url(#paint7_linear)"/>
<path d="M410.106 178.746C410.41 182.379 410.302 186.035 409.785 189.644C409.49 191.443 408.592 193.088 407.238 194.309C405.884 195.531 404.155 196.255 402.336 196.364C393.221 195.692 386.648 204.427 379.403 210.037C373.719 214.297 366.972 216.907 359.901 217.583C352.831 218.258 345.711 216.971 339.323 213.864C338.054 213.408 336.658 213.456 335.424 214C334.19 214.544 333.212 215.541 332.692 216.786C331.781 219.363 331.579 222.138 332.108 224.82L335.467 256.783C336.11 262.948 336.168 270.486 330.939 273.816C325.71 277.147 319.517 274.255 315.194 270.486C308.397 263.949 303.483 255.704 300.967 246.616C295.254 228.202 294.435 208.618 298.589 189.791C302.743 170.965 311.728 153.544 324.659 139.245C329.513 133.819 335.203 129.203 341.514 125.572C348.121 122.143 355.215 119.748 362.548 118.473C369.11 116.923 375.894 116.548 382.588 117.362C391.576 118.997 399.749 123.619 405.783 130.481C410.223 135.33 414.546 149.793 419.221 152.159C415.744 160.982 410.252 168.783 410.106 178.746Z" fill="#98646A"/>
<path d="M340.58 53.2908C336.296 52.2888 331.826 52.4197 327.609 53.6706C319.371 56.5922 314.755 65.2111 311.776 73.4209C308.796 81.6307 306.342 90.6002 299.857 96.4142C294.277 101.439 286.361 103.455 281.336 109.007C275.493 115.463 274.938 125.017 275.493 133.694C275.494 140.205 277.326 146.583 280.781 152.101C283.878 156.308 288.639 159.23 291.064 163.787C293.81 169.017 294.745 177.11 300.646 177.461C303.106 177.336 305.431 176.294 307.16 174.539C313.125 169.383 317.62 162.74 320.189 155.285C321.621 151.137 322.555 146.52 325.71 143.599C328.865 140.677 335.292 140.502 336.724 144.651C337.126 147.29 336.718 149.99 335.555 152.393C334.795 154.964 335.117 158.441 337.629 159.317C342.362 152.013 345.02 143.423 350.629 136.791C353.812 133.061 357.806 130.109 362.305 128.161C366.804 126.213 371.69 125.32 376.587 125.551C381.485 125.783 386.264 127.132 390.56 129.495C394.856 131.859 398.554 135.174 401.372 139.187C404.293 143.365 406.279 148.332 410.369 151.312C414.222 153.66 418.625 154.95 423.135 155.052C433.184 156.045 443.818 156.425 452.874 151.955C461.93 147.485 468.62 136.645 465.143 127.15C462.397 119.7 454.568 115.463 446.973 113.068C439.377 110.672 431.256 109.474 424.567 105.208C415.481 99.3651 410.632 88.9641 405.345 79.5272C400.057 70.0902 392.9 60.3904 382.325 58.1699C378.008 57.4979 373.613 57.4979 369.296 58.1699C365.083 59.0637 360.771 59.3977 356.471 59.1633C351.213 58.0823 346.13 54.5179 340.58 53.2908Z" fill="#2E2E3F"/>
<path d="M340.579 293.362C347.251 327.161 349.217 361.72 346.422 396.058C344.114 424.632 338.622 453.001 338.827 481.662C339.256 489.722 339.012 497.805 338.096 505.824C336.811 513.771 283.527 510.732 275.756 510.645C262.669 510.47 279.262 528.175 269.417 519.643C253.963 506.175 247.069 485.168 245.17 464.775C242.454 435.705 248.413 406.605 254.898 378.119C259.397 358.398 264.188 338.618 272.251 320.066C282.241 297.131 298.046 267.944 303.129 243.431C303.859 239.838 291.443 226.778 296.789 226.953C300.266 226.953 298.63 232.358 299.243 235.046C300.339 239.139 302.438 242.895 305.349 245.973C309.423 250.732 314.943 254.025 321.065 255.352C325.009 256.082 329.508 255.907 332.371 258.712C335.847 262.101 335.292 268.704 336.285 273.32C337.717 279.923 339.236 286.613 340.579 293.362Z" fill="#F2F2F2"/>
<path d="M222.297 206.443C208.158 212.929 196.005 222.98 184.525 233.498C175.022 242.062 166.047 251.194 157.649 260.844C150.229 269.609 143.451 278.696 135.622 286.964C124.813 298.329 111.317 309.314 109.185 324.945C108.532 333.096 109.959 341.279 113.333 348.727C116.113 356.332 120.217 363.385 125.456 369.559C132.104 376.913 140.873 382.018 150.55 384.167C153.583 384.957 156.749 385.097 159.84 384.576C164.192 383.337 168.194 381.095 171.525 378.031C179.14 372.268 186.353 365.991 193.113 359.245C200.007 352.087 205.85 343.936 212.569 336.603C218.411 330.292 224.634 324.595 230.476 318.401C237.458 310.98 243.681 302.887 249.903 294.794C258.707 283.817 266.778 272.271 274.062 260.231C280.146 249.605 284.979 238.311 288.464 226.573C290.713 218.919 294.306 209.219 286.536 203.697C270.031 192.069 238.744 198.759 222.297 206.443Z" fill="#40A9FF"/>
<path d="M222.297 206.443C208.158 212.929 196.005 222.98 184.525 233.498C175.022 242.062 166.047 251.194 157.649 260.844C150.229 269.609 143.451 278.696 135.622 286.964C124.813 298.329 111.317 309.314 109.185 324.945C108.532 333.096 109.959 341.279 113.333 348.727C116.113 356.332 120.217 363.385 125.456 369.559C132.104 376.913 140.873 382.018 150.55 384.167C153.583 384.957 156.749 385.097 159.84 384.576C164.192 383.337 168.194 381.095 171.525 378.031C179.14 372.268 186.353 365.991 193.113 359.245C200.007 352.087 205.85 343.936 212.569 336.603C218.411 330.292 224.634 324.595 230.476 318.401C237.458 310.98 243.681 302.887 249.903 294.794C258.707 283.817 266.778 272.271 274.062 260.231C280.146 249.605 284.979 238.311 288.464 226.573C290.713 218.919 294.306 209.219 286.536 203.697C270.031 192.069 238.744 198.759 222.297 206.443Z" fill="#40A9FF"/>
<path d="M467.188 339.846C464.029 341.841 461.771 344.989 460.893 348.621C460.015 352.254 460.586 356.085 462.485 359.304C467.389 367.836 473.967 375.29 481.824 381.216C486.498 386.241 497.014 387.059 506.362 381.567C515.711 376.074 560.319 351.795 582.608 335.931C584.243 334.806 585.632 333.361 586.69 331.682C587.748 330.003 588.453 328.127 588.762 326.166C589.071 324.206 588.977 322.203 588.487 320.281C587.996 318.358 587.119 316.555 585.909 314.982L567.242 291.609C565.03 288.843 561.874 286.991 558.381 286.409C554.887 285.827 551.302 286.555 548.312 288.454L467.188 339.846Z" fill="#3D3D54"/>
<path d="M170.707 591.662C174.003 603.764 179.849 615.021 187.855 624.676C196.619 634.902 208.538 642.206 219.989 649.16L268.219 678.522C275.292 682.59 282.059 687.17 288.464 692.225C304.268 705.255 314.756 723.428 324.951 741.192L395.295 863.813C398.859 870.095 403.855 877.194 411.07 876.96C414.955 876.456 418.609 874.832 421.587 872.286C430.614 865.946 440.312 858.729 443 848.007C444.87 840.527 443 832.668 440.751 825.247C429.942 788.698 412.998 754.281 395.996 720.068C368.984 665.92 341.573 611.88 313.762 557.946C306.371 543.63 297.403 521.338 285.192 510.82C285.192 510.82 171.729 503.925 168.867 515.173C162.49 540.36 163.127 566.811 170.707 591.662Z" fill="#525263"/>
<path d="M170.707 591.662C174.003 603.764 179.849 615.021 187.855 624.676C196.619 634.902 208.538 642.206 219.989 649.16L268.219 678.522C275.292 682.59 282.059 687.17 288.464 692.225C304.268 705.255 314.756 723.428 324.951 741.192L395.295 863.813C398.859 870.095 403.855 877.194 411.07 876.96C414.955 876.456 418.609 874.832 421.587 872.286C430.614 865.946 440.312 858.729 443 848.007C444.87 840.527 443 832.668 440.751 825.247C429.942 788.698 412.998 754.281 395.996 720.068C368.984 665.92 341.573 611.88 313.762 557.946C306.371 543.63 297.403 521.338 285.192 510.82C285.192 510.82 171.729 503.925 168.867 515.173C162.49 540.36 163.127 566.811 170.707 591.662Z" fill="url(#paint8_linear)"/>
<path d="M298.309 190.433L282.271 196.773L272.543 251.203L304.882 249.742L298.309 190.433Z" fill="#40A9FF"/>
<path d="M332.254 248.427C332.254 250.882 332.254 253.336 332.254 255.79C332.253 256.854 332.312 257.917 332.429 258.975C332.604 260.048 332.838 261.111 333.13 262.159L337.162 278.053L338.827 252.226C343.588 254.534 348.467 256.637 353.433 258.478C353.058 254.607 352.072 250.821 350.512 247.259C347.591 239.779 344.903 232.271 341.748 224.937C341.011 222.979 339.944 221.16 338.593 219.562C337.912 218.769 337.056 218.145 336.093 217.739C335.13 217.334 334.086 217.157 333.043 217.224C330.121 218.451 331.962 229.408 331.991 231.832L332.254 248.427Z" fill="#40A9FF"/>
<path d="M568.586 327.049L509.225 364.592C508.185 365.153 506.984 365.344 505.821 365.131C504.658 364.919 503.602 364.316 502.828 363.423L483.956 342.154C483.568 341.791 483.268 341.346 483.077 340.85C482.886 340.355 482.811 339.823 482.856 339.294C482.901 338.765 483.065 338.253 483.337 337.797C483.608 337.341 483.98 336.952 484.424 336.661L543.901 299.147C544.941 298.585 546.142 298.395 547.305 298.608C548.468 298.82 549.524 299.422 550.299 300.316L569.17 321.556C569.552 321.926 569.845 322.379 570.027 322.88C570.208 323.38 570.273 323.915 570.217 324.445C570.16 324.974 569.984 325.484 569.702 325.935C569.419 326.386 569.038 326.767 568.586 327.049Z" fill="#40A9FF"/>
</g>
<defs>
<linearGradient id="paint0_linear" x1="304.472" y1="348.26" x2="424.362" y2="346.42" gradientUnits="userSpaceOnUse">
<stop offset="0.01"/>
<stop offset="0.13" stop-opacity="0.69"/>
<stop offset="1" stop-opacity="0"/>
</linearGradient>
<linearGradient id="paint1_linear" x1="224305" y1="34127.1" x2="110997" y2="208713" gradientUnits="userSpaceOnUse">
<stop offset="0.01"/>
<stop offset="0.13" stop-opacity="0.69"/>
<stop offset="1" stop-opacity="0"/>
</linearGradient>
<linearGradient id="paint2_linear" x1="61056" y1="68137.2" x2="34284" y2="85519.6" gradientUnits="userSpaceOnUse">
<stop offset="0.01"/>
<stop offset="0.13" stop-opacity="0.69"/>
<stop offset="1" stop-opacity="0"/>
</linearGradient>
<linearGradient id="paint3_linear" x1="13839.3" y1="28163" x2="25990.6" y2="32479.2" gradientUnits="userSpaceOnUse">
<stop offset="0.01"/>
<stop offset="0.13" stop-opacity="0.69"/>
<stop offset="1" stop-opacity="0"/>
</linearGradient>
<linearGradient id="paint4_linear" x1="62678.8" y1="80417.4" x2="88656.7" y2="80417.4" gradientUnits="userSpaceOnUse">
<stop offset="0.01"/>
<stop offset="0.13" stop-opacity="0.69"/>
<stop offset="1" stop-opacity="0"/>
</linearGradient>
<linearGradient id="paint5_linear" x1="4087.01" y1="4947.73" x2="4907.69" y2="5168.41" gradientUnits="userSpaceOnUse">
<stop offset="0.01"/>
<stop offset="0.13" stop-opacity="0.69"/>
<stop offset="1" stop-opacity="0"/>
</linearGradient>
<linearGradient id="paint6_linear" x1="9937.84" y1="11074.2" x2="7876.35" y2="11299.8" gradientUnits="userSpaceOnUse">
<stop offset="0.01"/>
<stop offset="0.13" stop-opacity="0.69"/>
<stop offset="1" stop-opacity="0"/>
</linearGradient>
<linearGradient id="paint7_linear" x1="12434.1" y1="32020" x2="16572.3" y2="31977.4" gradientUnits="userSpaceOnUse">
<stop offset="0.01"/>
<stop offset="0.13" stop-opacity="0.69"/>
<stop offset="1" stop-opacity="0"/>
</linearGradient>
<linearGradient id="paint8_linear" x1="67604.2" y1="92107.8" x2="88849.1" y2="85332.6" gradientUnits="userSpaceOnUse">
<stop offset="0.01"/>
<stop offset="0.13" stop-opacity="0.69"/>
<stop offset="1" stop-opacity="0"/>
</linearGradient>
<clipPath id="clip0">
<rect width="1028" height="1157" fill="white" transform="translate(-287)"/>
</clipPath>
</defs>
</svg>
