<?xml version="1.0" encoding="UTF-8"?>
<svg xmlns="http://www.w3.org/2000/svg" xmlns:xlink="http://www.w3.org/1999/xlink" version="1.1" id="Layer_1" x="0px" y="0px" viewBox="0 0 24 24" style="enable-background:new 0 0 24 24;" xml:space="preserve">
<g>
	<path style="fill:#303C42;" d="M21.946,23.277c-1.274-2.547-1.947-5.398-1.947-8.247v-3.506c0-1.222,0.037-2.444,0.074-3.666   c0.073-2.423,0.148-4.93-0.076-7.402c-0.025-0.275-0.287-0.479-0.543-0.453c-0.198,0.018-0.355,0.151-0.42,0.326   c-0.001-0.001-0.002-0.002-0.003-0.004l-1.274,3.397C16.802,3.112,14.692,2,11.999,2c-2.631,0-4.705,1.061-5.69,1.679l-0.825-3.3   C5.482,0.382,5.481,0.382,5.479,0.385C5.43,0.182,5.263,0.022,5.044,0.002C4.791-0.023,4.525,0.179,4.501,0.455   c-0.333,3.666-0.502,7.39-0.502,11.068v3.506c0,2.847-0.673,5.699-1.946,8.248c-0.077,0.155-0.069,0.339,0.022,0.487   c0.09,0.147,0.251,0.237,0.424,0.237l19-0.001c0.173,0,0.334-0.09,0.426-0.237C22.016,23.615,22.023,23.431,21.946,23.277z"/>
	<path style="fill:#5C6671;" d="M3.289,23c1.121-2.496,1.71-5.234,1.71-7.97v-3.506c0-2.626,0.09-5.276,0.262-7.911l0.252,1.009   C5.555,4.788,5.677,4.92,5.838,4.975c0.054,0.017,0.107,0.026,0.161,0.026c0.112,0,0.223-0.038,0.312-0.109   c0.024-0.019,2.402-1.891,5.688-1.891c3.271,0,5.664,1.872,5.688,1.891c0.089,0.071,0.2,0.109,0.312,0.109   c0.045,0,0.089-0.006,0.133-0.018c0.154-0.042,0.279-0.156,0.335-0.306l0.658-1.754c0.04,1.643-0.003,3.292-0.051,4.905   c-0.038,1.231-0.075,2.463-0.075,3.696v3.506c0,2.735,0.589,5.474,1.71,7.971L3.289,23z"/>
	<path style="opacity:0.1;enable-background:new    ;" d="M18.09,7.828c-0.032,1.231-0.064,2.463-0.064,3.696v3.506   c0,2.735,0.507,5.474,1.472,7.971h1.21c-1.121-2.497-1.71-5.236-1.71-7.971v-3.506c0-1.232,0.037-2.464,0.074-3.696   c0.049-1.613,0.091-3.263,0.051-4.905l-0.658,1.754c-0.055,0.146-0.177,0.257-0.327,0.301C18.132,5.935,18.115,6.888,18.09,7.828z"/>
	<path style="opacity:0.2;fill:#FFFFFF;enable-background:new    ;" d="M4.499,23c0.965-2.496,1.472-5.234,1.472-7.97v-3.506   c0-2.182,0.066-4.379,0.169-6.572C6.092,4.967,6.05,5.001,5.999,5.001c-0.054,0-0.107-0.009-0.16-0.026   C5.678,4.921,5.556,4.788,5.514,4.622L5.262,3.613c-0.173,2.635-0.263,5.284-0.263,7.911v3.506c0,2.736-0.589,5.474-1.71,7.97h8.71   H4.499z"/>
	<path style="fill:#303C42;" d="M17.436,13.005l-4,0.5c-0.109,0.014-0.213,0.064-0.291,0.143l-1.146,1.146l-1.146-1.146   c-0.078-0.079-0.182-0.129-0.291-0.143l-4-0.5c-0.148-0.018-0.286,0.026-0.394,0.121c-0.107,0.095-0.169,0.232-0.169,0.375v2.5   c0,1.879,1.511,6,6,6s6-4.121,6-6v-2.5c0-0.144-0.062-0.28-0.169-0.375C17.723,13.031,17.587,12.987,17.436,13.005z"/>
	<path style="fill:#FEE8D7;" d="M16.999,16.001c0,0.992-0.89,5-5,5s-5-4.008-5-5v-1.934l3.268,0.409l1.379,1.378   c0.195,0.195,0.512,0.195,0.707,0l1.379-1.378l3.267-0.408V16.001z"/>
	<path style="opacity:0.1;enable-background:new    ;" d="M7.466,16.468v-1.934l3.268,0.409l1.379,1.378   c0.195,0.195,0.512,0.195,0.707,0l1.379-1.378L17,14.593v-0.525l-3.268,0.409l-1.379,1.378c-0.195,0.195-0.512,0.195-0.707,0   l-1.379-1.378l-3.268-0.409v1.933c0,0.656,0.395,2.624,1.845,3.886C7.775,18.65,7.466,17.047,7.466,16.468z"/>
	<path style="fill:#303C42;" d="M12.999,17.001h-2c-0.276,0-0.5,0.224-0.5,0.5s0.224,0.5,0.5,0.5h2c0.276,0,0.5-0.224,0.5-0.5   S13.275,17.001,12.999,17.001z"/>
	<path style="fill:#303C42;" d="M15.249,12.001c1.047,0,1.75-0.402,1.75-1v-0.5c0-0.15-0.067-0.292-0.183-0.387   c-0.116-0.095-0.269-0.132-0.415-0.104l-2.5,0.5c-0.234,0.047-0.402,0.252-0.402,0.49C13.499,11.599,14.202,12.001,15.249,12.001z"/>
	<path style="fill:#303C42;" d="M8.749,12.001c1.047,0,1.75-0.402,1.75-1c0-0.238-0.168-0.443-0.402-0.49l-2.5-0.5   c-0.146-0.029-0.299,0.009-0.415,0.104c-0.116,0.095-0.183,0.236-0.183,0.386v0.5C6.999,11.599,7.702,12.001,8.749,12.001z"/>
	
		<linearGradient id="SVGID_1_" gradientUnits="userSpaceOnUse" x1="1.2133" y1="16.5612" x2="24.4813" y2="5.7111" gradientTransform="matrix(1 0 0 -1 0 24)">
		<stop offset="0" style="stop-color:#FFFFFF;stop-opacity:0.2"/>
		<stop offset="1" style="stop-color:#FFFFFF;stop-opacity:0"/>
	</linearGradient>
	<path style="fill:url(#SVGID_1_);" d="M21.946,23.277c-1.274-2.547-1.947-5.398-1.947-8.247v-3.506   c0-1.222,0.037-2.444,0.074-3.666c0.073-2.423,0.148-4.93-0.076-7.402c-0.025-0.275-0.287-0.479-0.543-0.453   c-0.198,0.018-0.355,0.151-0.42,0.326c-0.001-0.001-0.002-0.002-0.003-0.004l-1.274,3.397C16.802,3.112,14.692,2,11.999,2   c-2.631,0-4.705,1.061-5.69,1.679l-0.825-3.3C5.482,0.382,5.481,0.382,5.479,0.385C5.43,0.182,5.263,0.022,5.044,0.002   C4.791-0.023,4.525,0.179,4.501,0.455c-0.333,3.666-0.502,7.39-0.502,11.068v3.506c0,2.847-0.673,5.699-1.946,8.248   c-0.077,0.155-0.069,0.339,0.022,0.487c0.09,0.147,0.251,0.237,0.424,0.237l19-0.001c0.173,0,0.334-0.09,0.426-0.237   C22.016,23.615,22.023,23.431,21.946,23.277z"/>
</g>

	<metadata>
		<rdf:RDF xmlns:rdf="http://www.w3.org/1999/02/22-rdf-syntax-ns#" xmlns:rdfs="http://www.w3.org/2000/01/rdf-schema#" xmlns:dc="http://purl.org/dc/elements/1.1/">
			<rdf:Description about="https://iconscout.com/legal#licenses" dc:title="people; avatar; head; comic; batman; bat; man" dc:description="people; avatar; head; comic; batman; bat; man" dc:publisher="Iconscout" dc:date="2017-03-22" dc:format="image/svg+xml" dc:language="en">
				<dc:creator>
					<rdf:Bag>
						<rdf:li>Alpár - Etele Méder</rdf:li>
					</rdf:Bag>
				</dc:creator>
			</rdf:Description>
		</rdf:RDF>
    </metadata></svg>
