<svg width="78" height="79" viewBox="0 0 78 79" fill="none" xmlns="http://www.w3.org/2000/svg">
<circle cx="39.0625" cy="39.5982" r="38.0893" fill="#91D5FF" stroke="#91D5FF" stroke-width="1.41071"/>
<path fill-rule="evenodd" clip-rule="evenodd" d="M36.153 15.8805C36.153 13.7827 37.8465 12.0892 39.9443 12.0892C42.0422 12.0892 43.7356 13.7827 43.7356 15.8805V18.8377C51.672 20.5565 57.637 27.6335 57.637 36.1008V51.2659L62.6921 56.321V58.8485H17.1965V56.321L22.2516 51.2659V36.1008C22.2516 27.6335 28.2166 20.5565 36.153 18.8377V15.8805ZM39.9443 23.4632C46.9202 23.4632 52.5819 29.1248 52.5819 36.1008V53.7935H27.3066V36.1008C27.3066 29.1248 32.9683 23.4632 39.9443 23.4632ZM34.9145 61.4014C34.9145 64.1817 37.164 66.4312 39.9443 66.4312C42.7246 66.4312 44.9741 64.1817 44.9741 61.4014H34.9145ZM37.4168 28.5183H42.4719V38.6284H37.4168V28.5183ZM42.4719 43.6835H37.4168V48.7385H42.4719V43.6835Z" fill="#1890FF"/>
</svg>
