<svg width="25" height="32" viewBox="0 0 25 32" fill="none" xmlns="http://www.w3.org/2000/svg">
<circle cx="12.2387" cy="15.7731" r="12.0162" fill="#91D5FF" stroke="#91D5FF" stroke-width="0.445043"/>
<path d="M11.0403 17.7369C11.0509 17.1055 11.1225 16.6068 11.2552 16.2407C11.3878 15.8746 11.6584 15.4687 12.067 15.023L13.1095 13.9486C13.5552 13.4445 13.7781 12.9033 13.7781 12.325C13.7781 11.7679 13.6322 11.3328 13.3403 11.0198C13.0485 10.7014 12.6241 10.5422 12.067 10.5422C11.5258 10.5422 11.0907 10.6855 10.7617 10.972C10.4328 11.2585 10.2683 11.6432 10.2683 12.126H8.79592C8.80653 11.2665 9.11161 10.5741 9.71117 10.0488C10.316 9.51822 11.1013 9.25293 12.067 9.25293C13.0698 9.25293 13.8497 9.52352 14.4068 10.0647C14.9692 10.6006 15.2504 11.3381 15.2504 12.2772C15.2504 13.2058 14.8207 14.121 13.9611 15.023L13.0936 15.8825C12.7063 16.3123 12.5126 16.9304 12.5126 17.7369H11.0403ZM10.9766 20.2598C10.9766 20.0211 11.0482 19.8221 11.1915 19.6629C11.3401 19.4985 11.5576 19.4162 11.8441 19.4162C12.1306 19.4162 12.3482 19.4985 12.4967 19.6629C12.6453 19.8221 12.7196 20.0211 12.7196 20.2598C12.7196 20.4986 12.6453 20.6976 12.4967 20.8567C12.3482 21.0106 12.1306 21.0875 11.8441 21.0875C11.5576 21.0875 11.3401 21.0106 11.1915 20.8567C11.0482 20.6976 10.9766 20.4986 10.9766 20.2598Z" fill="#1890FF"/>
</svg>
