<svg width="359" height="326" viewBox="0 0 359 326" fill="none" xmlns="http://www.w3.org/2000/svg">
<g clip-path="url(#clip0)">
<path opacity="0.24" d="M17.4055 240.177C13.4085 234.583 10.865 228.081 8.51823 221.64C1.37208 201.983 -4.21463 179.529 5.04357 160.78C11.8566 147.013 25.4374 137.979 39.0711 130.895C75.7556 111.843 116.922 102.166 152.69 81.4437C160.117 77.142 167.497 72.3035 175.824 70.4437C184.454 68.5234 193.455 69.9371 202.123 71.6911C215.111 74.3161 227.933 77.7091 240.518 81.852C246.643 83.8705 252.805 86.1159 258.043 89.8809C264.803 94.7421 269.58 101.796 274.879 108.214C293.115 130.267 318.324 145.388 338.763 165.422C348.059 174.555 356.749 185.426 358.331 198.362C359.77 209.793 355.341 221.428 348.15 230.44C340.958 239.451 331.208 246.089 321.034 251.517C306.461 259.289 289.33 266.222 282.918 281.433C280.382 287.481 279.89 294.179 277.332 300.19C272.79 310.91 262.131 318.077 250.927 321.298C239.723 324.518 227.869 324.322 216.211 324.178L171.547 323.468C156.453 323.233 139.95 322.47 128.655 312.475C122.781 307.281 110.82 280.851 65.4679 268.074C47.7161 263.069 28.6698 255.97 17.4055 240.177Z" fill="#40A9FF"/>
<path d="M165.976 255.343L166.483 312.989L173.637 313.496L179.254 256.363L165.976 255.343Z" fill="url(#paint0_linear)"/>
<path d="M194.576 255.343L195.09 312.989L202.237 313.496L207.854 256.363L194.576 255.343Z" fill="url(#paint1_linear)"/>
<path opacity="0.24" d="M329.406 0.300293H43.4013C30.9843 0.300293 20.9182 10.3532 20.9182 22.754V190.734C20.9182 203.134 30.9843 213.187 43.4013 213.187H329.406C341.823 213.187 351.889 203.134 351.889 190.734V22.754C351.889 10.3532 341.823 0.300293 329.406 0.300293Z" fill="#40A9FF"/>
<path opacity="0.24" d="M351.874 24.3947V182.879C351.874 188.684 349.569 194.253 345.463 198.363C341.358 202.473 335.787 204.789 329.974 204.803H42.8185C37.0053 204.789 31.435 202.473 27.3295 198.363C23.2239 194.253 20.9182 188.684 20.9183 182.879V24.3947C20.9166 23.4951 20.9697 22.5964 21.0772 21.7033C21.7507 16.4166 24.3292 11.5559 28.3306 8.03009C32.332 4.50424 37.4823 2.55462 42.8185 2.54578H329.974C335.315 2.55556 340.469 4.50942 344.471 8.04144C348.473 11.5735 351.049 16.4414 351.715 21.7335C351.822 22.6166 351.875 23.5052 351.874 24.3947Z" fill="#40A9FF"/>
<path d="M351.715 21.7335H21.0771C21.7438 16.4414 24.3194 11.5735 28.3214 8.04144C32.3235 4.50942 37.4776 2.55556 42.8184 2.54578H329.974C335.315 2.55556 340.469 4.50942 344.471 8.04144C348.473 11.5735 351.049 16.4414 351.715 21.7335Z" fill="#40A9FF"/>
<path opacity="0.65" d="M185.938 18.6035C189.734 18.6035 192.812 15.5301 192.812 11.7389C192.812 7.94767 189.734 4.87427 185.938 4.87427C182.142 4.87427 179.064 7.94767 179.064 11.7389C179.064 15.5301 182.142 18.6035 185.938 18.6035Z" fill="white"/>
<path d="M342.699 26.3148H188.224V112.622H342.699V26.3148Z" fill="white"/>
<path d="M184.878 26.3148H30.4033V197.674H184.878V26.3148Z" fill="white"/>
<path d="M63.0306 127.969C74.469 122.632 88.3979 121.883 101.729 121.369C116.112 120.817 131.585 120.613 143.523 126.835C149.504 129.95 154.038 134.441 158.467 138.848C160.065 140.273 161.426 141.942 162.501 143.792C163.667 146.113 163.675 148.676 163.667 151.171L163.584 185.283C163.584 187.513 163.584 189.819 162.418 191.868C159.231 197.651 170.268 197.523 162.161 197.523C125.877 197.523 30.4414 197.696 30.4414 197.696C32.5459 197.515 34.7639 178.252 34.7185 176.286C34.5595 169.482 32.5913 163.751 35.8843 157.386C41.577 146.174 49.306 134.357 63.0306 127.969Z" fill="#40A9FF"/>
<path d="M147.497 162.315C146.74 168.189 144.234 173.655 142.955 179.476C141.676 185.298 141.994 191.966 146.036 196.26C150.079 200.554 161.752 210.201 162.819 211.622C164.954 214.472 189.625 209.831 196.529 210.518C200.351 210.904 204.099 197.938 208.141 189.932C209.231 187.785 211.063 186.152 212.403 184.118C215.704 179.159 215.658 172.627 214.356 166.79C213.054 160.954 210.647 155.405 209.587 149.523C208.292 142.371 208.944 134.622 205.514 128.226C199.458 116.999 175.105 110.346 163.061 114.058C142.191 120.492 149.465 146.869 147.497 162.315Z" fill="url(#paint2_linear)"/>
<path d="M342.699 116.5H188.224V202.807H342.699V116.5Z" fill="white"/>
<path opacity="0.18" d="M322.162 191.92C319.316 188.564 315.758 185.804 313.328 182.138C310.739 178.229 309.543 173.436 306.401 169.943C301.617 164.583 293.532 163.6 286.416 164.742C279.3 165.883 272.578 168.726 265.454 169.701C256.726 170.888 246.779 169.542 240.102 175.28C236.635 178.305 234.659 182.803 230.889 185.404C227.604 187.672 223.448 188.148 219.474 188.533C215.499 188.919 211.351 189.35 208.013 191.558C204.674 193.765 202.547 198.362 204.417 201.839C206.635 206.005 212.456 206.164 217.165 205.771C238.028 204.024 258.937 202.467 279.883 202.217C290.33 202.096 300.792 202.293 311.216 202.973C313.714 203.132 324.433 205.506 325.992 203.782C328.559 200.932 323.873 193.947 322.162 191.92Z" fill="#40A9FF"/>
<path d="M157.202 156.698C156.445 162.572 153.939 168.038 152.66 173.859C151.381 179.681 151.699 186.341 155.741 190.643C159.783 194.945 171.456 204.584 172.524 206.005C174.659 208.855 199.329 204.213 206.226 204.901C210.056 205.287 213.796 192.321 217.846 184.315C218.936 182.168 220.768 180.535 222.108 178.501C225.408 173.542 225.363 167.01 224.061 161.173C222.759 155.337 220.352 149.788 219.292 143.906C217.997 136.746 218.648 129.005 215.219 122.609C209.163 111.382 184.81 104.729 172.766 108.441C151.895 114.882 159.17 141.26 157.202 156.698Z" fill="#40A9FF"/>
<path d="M189.345 67.3893C192.899 68.0224 196.211 69.6197 198.917 72.0066C201.624 74.3934 203.621 77.4777 204.689 80.922C206.476 86.9701 205.174 93.5172 205.53 99.8224C205.826 104.986 207.233 110.024 209.655 114.595C211.132 117.37 212.971 119.955 214.137 122.866C215.678 126.969 215.847 131.46 214.619 135.667C213.391 139.874 210.831 143.571 207.324 146.204C203.887 148.661 199.754 149.984 195.969 151.844C191.064 154.308 186.744 157.791 183.296 162.058C177.717 162.171 173.637 156.448 172.698 150.952C171.76 145.456 172.918 139.793 172.312 134.244C171.26 124.62 165.037 115.018 168.323 105.908C169.754 101.947 172.925 98.4465 172.789 94.243C172.554 86.9853 165.098 82.7213 169.761 75.1007C173.319 69.3549 183.1 66.3687 189.345 67.3893Z" fill="#606161"/>
<path d="M163.417 196.169L212.199 197.296C212.199 197.296 214.243 209.883 213.221 217.3C212.199 224.717 211.707 241.803 211.707 241.803L208.898 257.762L163.44 258.662C163.44 258.662 162.91 209.211 163.417 196.169Z" fill="#606161"/>
<path d="M168.542 309.3C167.952 309.279 167.367 309.414 166.847 309.693C166.492 309.997 166.227 310.393 166.082 310.836C165.936 311.28 165.915 311.755 166.021 312.21C166.158 313.133 166.551 314.002 166.657 314.932C166.748 315.733 166.657 316.671 167.255 317.2C167.688 317.536 168.221 317.717 168.769 317.714C169.822 317.828 170.874 317.896 171.934 317.918C172.331 317.958 172.733 317.896 173.099 317.737C173.925 317.291 173.932 316.142 173.902 315.212C173.872 314.282 174.878 310.056 174.401 309.398C173.614 308.4 169.708 309.247 168.542 309.3Z" fill="#40A9FF"/>
<path d="M197.142 309.3C196.554 309.278 195.971 309.414 195.454 309.693C195.096 309.995 194.829 310.39 194.683 310.834C194.536 311.279 194.514 311.755 194.621 312.21C194.765 313.133 195.151 314.002 195.257 314.932C195.348 315.733 195.257 316.671 195.855 317.2C196.288 317.535 196.821 317.716 197.369 317.714C198.414 317.828 199.474 317.896 200.526 317.918C200.926 317.958 201.33 317.896 201.699 317.737C202.517 317.291 202.532 316.142 202.456 315.212C202.381 314.282 203.44 310.056 202.956 309.398C202.214 308.4 198.315 309.247 197.142 309.3Z" fill="#40A9FF"/>
<path d="M169.632 316.641C168.542 316.497 167.316 316.361 166.445 317.034C166.277 317.196 166.089 317.336 165.885 317.45C165.629 317.535 165.36 317.576 165.09 317.571C164.513 317.667 163.976 317.927 163.542 318.318C163.107 318.709 162.794 319.215 162.637 319.778C162.339 320.914 162.408 322.116 162.834 323.211C162.964 323.709 163.226 324.163 163.591 324.526C163.959 324.799 164.383 324.985 164.833 325.07C166.642 325.506 168.486 325.777 170.344 325.879C171.494 325.962 172.766 325.985 173.667 325.267C174.689 324.458 174.871 322.999 174.977 321.698C175.114 320.692 175.083 319.671 174.886 318.674C174.099 315.552 171.918 316.973 169.632 316.641Z" fill="#606161"/>
<path d="M198.179 316.641C197.089 316.497 195.863 316.361 194.992 317.034C194.824 317.196 194.636 317.336 194.432 317.45C194.176 317.535 193.907 317.576 193.637 317.571C193.06 317.667 192.523 317.927 192.089 318.318C191.654 318.709 191.34 319.215 191.184 319.778C190.89 320.915 190.958 322.115 191.381 323.211C191.508 323.71 191.77 324.165 192.138 324.526C192.502 324.799 192.924 324.985 193.372 325.07C195.183 325.507 197.03 325.777 198.891 325.879C200.041 325.962 201.305 325.985 202.206 325.267C203.228 324.458 203.41 322.999 203.516 321.698C203.653 320.692 203.622 319.671 203.425 318.674C202.645 315.552 200.465 316.973 198.179 316.641Z" fill="#606161"/>
<path d="M95.9679 140.111C100.003 143.18 105.37 145.357 110.442 144.488C117.338 143.293 121.358 136.928 122.213 130.781C123.069 124.635 121.653 118.33 122.009 112.123C122.229 108.237 123.137 104.306 122.07 100.48C120.465 94.7117 114.219 90.1756 107.55 89.3667C104.341 88.9927 101.088 89.3758 98.0534 90.4853C95.019 91.5948 92.2875 93.3997 90.0784 95.755C83.9467 102.559 85.8089 110.702 85.491 118.806C85.1882 126.653 88.9959 134.773 95.9679 140.111Z" fill="url(#paint3_linear)"/>
<path d="M87.126 111.337C87.126 111.337 94.0223 131.235 107.24 131.235C120.457 131.235 122.38 124.537 122.38 124.537L121.812 113.824L87.126 111.337Z" fill="url(#paint4_linear)"/>
<path d="M134.719 87.5145C134.386 93.3812 133.765 99.2857 131.85 104.835C129.935 110.384 126.619 115.601 121.751 118.897C114.938 123.516 105.748 123.826 98.1783 120.628C90.6082 117.43 84.643 111.095 80.8806 103.776C77.0212 96.5 74.6317 88.5369 73.848 80.3399C73.3333 74.2237 74.325 67.4876 77.1637 62.0745C80.1918 56.2683 86.0586 52.3143 92.3039 50.3487C98.5492 48.383 105.226 48.2016 111.774 48.3755C117.073 48.5191 122.592 48.9349 127.338 51.3542C132.796 54.1288 136.051 59.179 135.143 65.2044C134.068 72.4546 135.128 80.1963 134.719 87.5145Z" fill="url(#paint5_linear)"/>
<path d="M82.4173 84.6114C80.7216 83.7571 79.8132 81.4588 77.9207 81.2849C77.3367 81.275 76.7633 81.4405 76.2746 81.76C75.786 82.0795 75.4048 82.5382 75.1803 83.0767C74.7544 84.1671 74.6647 85.3598 74.9229 86.5014C75.4031 89.2263 76.7869 91.7106 78.8518 93.5551C79.7148 94.3111 80.7368 95.0671 81.1228 96.118C81.3339 96.9233 81.3597 97.7659 81.1985 98.5826L80.4415 104.427C77.4741 103.474 75.3317 100.775 74.2114 97.8719C73.091 94.9688 72.7958 91.8238 72.3794 88.7241C72.0993 86.6375 71.7511 84.5509 71.4861 82.4567C70.9562 78.2155 70.7973 73.9289 70.6383 69.6498L70.4869 65.2195C70.2825 59.7838 70.0857 54.2724 71.2969 48.9727C71.5376 47.5898 72.0888 46.2794 72.9093 45.1397C73.9625 44.0206 75.239 43.1346 76.6565 42.539L88.0646 36.8386C91.1531 35.1799 94.3831 33.7986 97.7164 32.7108C100.288 32.0286 102.903 31.5234 105.544 31.1988C109.67 30.5713 113.932 29.9589 117.982 31.0022C123.144 32.3328 127.384 36.2414 132.592 37.3754C135.15 37.9273 137.891 37.7912 140.313 38.6833C145.499 40.5507 148.133 46.4401 148.64 51.9212C148.989 55.3913 148.64 59.1865 146.369 61.8477C144.424 64.1611 141.366 65.2573 139.253 67.4196C136.899 69.8312 135.87 73.3921 133.197 75.4258C130.169 77.6938 125.817 77.3763 122.327 75.8643C118.837 74.3522 115.892 71.8423 112.622 69.8993C111.017 68.9391 109.162 68.0848 107.323 68.4704C104.681 69.0223 103.205 71.8498 100.866 73.1955C98.7763 74.3976 96.1949 74.3144 93.833 73.8381C91.0169 73.2636 87.7012 72.7117 85.7784 75.3502C84.0373 77.7921 83.1213 81.7385 82.4173 84.6114Z" fill="#606161"/>
<path opacity="0.5" d="M79.5636 87.4692C79.3289 87.008 79.1926 86.5015 78.9201 86.063C78.7986 85.8321 78.6155 85.6392 78.391 85.5058C78.1666 85.3724 77.9095 85.3036 77.6483 85.307C77.3909 85.3617 77.157 85.4953 76.9793 85.6891C76.8015 85.8829 76.6887 86.1272 76.6567 86.3881C76.5835 86.8964 76.6328 87.4147 76.8005 87.9001C77.0883 88.9128 77.4736 89.8951 77.9511 90.8335C78.2395 91.4606 78.6574 92.0197 79.1775 92.4741C79.7836 92.9018 80.4805 93.1838 81.2138 93.2981C81.3448 93.3444 81.484 93.3623 81.6224 93.3505C81.7608 93.3388 81.8951 93.2977 82.0163 93.2301C82.1553 93.0979 82.2504 92.9264 82.2888 92.7387C82.5462 91.8466 82.8717 89.9943 82.1374 89.2232C81.7967 88.8754 81.3047 88.9359 80.8808 88.7696C80.292 88.5194 79.8209 88.0543 79.5636 87.4692Z" fill="url(#paint6_linear)"/>
<path d="M232.873 105.394C238.558 96.0045 249.073 90.5914 260.057 90.8258C263.842 90.9014 267.665 91.1131 271.412 91.0979C282.268 91.045 298.604 87.3179 307.938 92.8821C311.806 95.1502 315.038 105.485 316.954 109.56C317.34 110.376 317.65 111.412 317.09 112.115C316.53 112.818 315.697 112.773 314.917 112.765C295.689 112.561 276.499 112.818 257.271 112.614C252.926 112.569 230.269 112.516 230.269 112.516C230.329 110.422 231.344 107.919 232.873 105.394Z" fill="#40A9FF"/>
<path d="M270.693 95.6342C271.579 96.3091 272.579 96.8211 273.645 97.1462C275.774 98.018 278.093 98.3228 280.375 98.0307C282.646 97.6225 284.788 96.0878 285.379 93.8802C285.608 92.7288 285.626 91.5452 285.432 90.3874L284.977 86.2217C284.758 84.1729 284.508 82.0561 283.463 80.2946C282.54 78.8614 281.145 77.7939 279.52 77.2753C277.894 76.7566 276.138 76.8191 274.553 77.4519C272.475 78.4628 270.834 80.1928 269.936 82.3207C267.755 86.94 266.098 91.8692 270.693 95.6342Z" fill="url(#paint7_linear)"/>
<path d="M283.448 80.287C283.448 80.287 279.043 92.9125 272.722 92.9125C266.401 92.9125 268.028 86.7887 268.028 86.7887L283.448 80.287Z" fill="url(#paint8_linear)"/>
<path d="M259.292 75.2141C259.83 77.3989 260.882 79.4251 261.609 81.557C261.873 82.5521 262.262 83.5098 262.767 84.4072C263.682 85.679 264.987 86.6185 266.484 87.0835C269.685 88.2328 273.203 88.1219 276.325 86.7736C280.572 84.9213 283.592 80.9069 285.19 76.5598C286.787 72.2127 289.558 67.858 289.679 63.2312C289.732 61.2429 287.294 58.8387 286.598 56.9789C285.841 54.9528 284.327 53.3198 282.767 51.7926C281.451 50.3776 279.918 49.1807 278.225 48.2469C274.054 46.1905 268.906 47.3624 264.962 49.8194C263.633 50.6005 262.464 51.6268 261.518 52.8435C259.247 55.9507 259.603 59.7006 259.565 63.3143C259.535 67.359 258.278 71.1164 259.292 75.2141Z" fill="url(#paint9_linear)"/>
<path d="M253.97 54.0682C252.744 51.8682 252.328 49.328 251.927 46.8407C251.766 46.2438 251.798 45.6116 252.017 45.0338C252.434 44.2097 253.486 43.9527 254.129 43.2798C255.484 41.8585 254.417 39.5527 254.493 37.587C254.584 35.319 256.4 33.3911 258.49 32.4763C260.579 31.5615 262.926 31.4557 265.204 31.365C268.233 31.2365 271.601 31.2591 273.721 33.3911C274.879 34.5554 275.477 36.2035 276.749 37.2392C279.383 39.409 283.365 37.9953 286.688 38.7513C288.111 39.1078 289.398 39.8692 290.396 40.9428C291.393 42.0165 292.056 43.3563 292.305 44.7994C292.775 47.6647 291.624 50.9383 293.297 53.3197C293.827 54.0757 294.614 54.6654 294.932 55.5349C295.18 56.5118 295.087 57.544 294.667 58.4606C293.407 62.2197 291.675 65.804 289.512 69.128C289.141 69.8059 288.598 70.3744 287.937 70.7762C287.249 71.1164 286.075 75.1913 285.666 74.5563C285.068 73.7322 285.666 68.3645 286.31 67.5631C286.953 66.7617 287.778 66.0511 288.127 65.1287C288.358 64.4979 288.349 63.8044 288.103 63.1794C287.856 62.5544 287.389 62.0415 286.789 61.7378C286.189 61.434 285.498 61.3605 284.848 61.5313C284.197 61.702 283.632 62.105 283.259 62.6641C284.016 58.0448 281.526 52.6015 276.953 51.6338C274.251 51.0668 271.495 52.1177 268.99 53.2895C263.721 55.7163 258.043 61.3638 253.97 54.0682Z" fill="#E08142"/>
<path d="M285.046 63.4958C285.086 63.3932 285.148 63.3001 285.226 63.2221C285.304 63.1441 285.397 63.0828 285.5 63.0421C285.621 63.0322 285.743 63.0464 285.859 63.0841C285.975 63.1217 286.082 63.182 286.174 63.2614C286.55 63.4461 286.844 63.7641 286.999 64.1535C287.052 64.4535 287.02 64.7623 286.908 65.0456C286.764 65.6509 286.532 66.2317 286.219 66.7693C286.058 67.0404 285.838 67.2724 285.576 67.4489C285.315 67.6253 285.017 67.7418 284.705 67.7899C284.433 67.7899 283.994 67.1171 284.001 66.8676C284.009 66.6181 284.266 66.4593 284.395 66.2099C284.834 65.3782 284.584 64.3727 285.046 63.4958Z" fill="url(#paint10_linear)"/>
<path d="M261.563 128.967C266.105 127.319 271.124 127.553 275.946 128.211C278.649 128.574 281.404 129.08 283.751 130.479C288.164 133.087 290.345 138.281 291.382 143.293C292.419 148.306 292.638 153.53 294.493 158.308C296.643 163.834 300.897 168.469 302.32 174.184C302.956 176.749 302.997 179.425 302.439 182.007C301.88 184.59 300.739 187.011 299.1 189.086C297.462 191.16 295.371 192.833 292.986 193.977C290.601 195.121 287.986 195.705 285.341 195.685C281.654 195.685 278.051 194.468 274.364 194.483C266.734 194.483 259.444 199.692 251.972 198.158C245.84 196.895 241.465 191.353 238.966 185.653C237.415 182.1 236.37 178.093 237.574 174.381C239.224 169.338 244.568 166.382 246.953 161.634C249.981 155.677 247.71 148.616 250.291 142.59C252.63 137.041 255.439 131.182 261.563 128.967Z" fill="#606161"/>
<path d="M287.862 177.723C291.957 178.531 296.567 178.161 299.906 180.558C301.915 182.123 303.28 184.368 303.744 186.87C304.173 189.318 304.292 191.81 304.1 194.287L303.835 201.62C303.862 201.891 303.784 202.162 303.615 202.376C303.373 202.553 303.073 202.631 302.775 202.595L239.413 202.815C238.854 200.822 238.711 198.735 238.992 196.684C239.273 194.633 239.973 192.662 241.048 190.892C242.88 187.868 244.576 184.844 247.438 182.644C251.291 179.734 260.254 179.484 264.485 177.087C265.583 176.468 264.591 175.575 265.825 175.265C267.059 174.956 266.522 173.474 267.733 173.466C271.192 173.466 275.507 173.02 278.861 173.935C282.033 174.842 284.478 177.05 287.862 177.723Z" fill="white"/>
<path d="M263.122 179.862C262.785 180.87 262.577 181.917 262.502 182.977C262.492 184.176 262.796 185.356 263.384 186.401C263.973 187.446 264.824 188.32 265.855 188.934C266.897 189.529 268.064 189.87 269.262 189.931C270.46 189.991 271.655 189.769 272.752 189.282C275.158 188.088 277.004 186.006 277.899 183.476C278.776 180.966 279.209 178.324 279.179 175.666C279.273 172.127 279.066 168.586 278.558 165.082C278.603 164.759 278.575 164.43 278.476 164.119C278.377 163.808 278.209 163.523 277.986 163.285C277.762 163.047 277.488 162.863 277.184 162.744C276.879 162.626 276.552 162.578 276.226 162.602C271.813 162.239 267.899 164.076 266.082 168.333C265.655 169.619 265.363 170.947 265.212 172.294C264.689 174.842 263.834 177.344 263.122 179.862Z" fill="url(#paint11_linear)"/>
<path d="M264.674 174.494C264.674 174.494 264.296 177.745 265.764 178.955C267.233 180.164 273.039 182.977 275.848 179.023C277.594 176.441 278.73 173.496 279.171 170.412L264.674 174.494Z" fill="url(#paint12_linear)"/>
<path d="M256.643 163.827C257.4 166.193 261.858 174.562 268.036 176.09C281.306 179.378 285.341 156.032 284.69 151.141C284.22 147.58 281.276 142.825 278.581 140.474C275.378 137.654 270.443 137.45 266.514 139.105C256.067 143.551 253.312 153.674 256.643 163.827Z" fill="url(#paint13_linear)"/>
<path d="M252.343 150.808C252.461 151.307 252.717 151.763 253.083 152.123C253.448 152.482 253.908 152.732 254.41 152.842C255.507 153.001 256.522 152.298 257.581 151.965C258.853 151.579 260.261 151.731 261.51 151.262C262.759 150.793 263.781 149.228 263.024 148.162C262.661 149.788 264.796 150.861 266.454 150.695C268.111 150.529 269.815 149.803 271.367 150.4L271.995 147.172C271.917 147.844 272.067 148.523 272.421 149.1C272.775 149.677 273.313 150.119 273.948 150.355C275.232 150.802 276.626 150.823 277.922 150.415C278.498 150.271 279.217 149.818 278.997 149.258C280.33 150.884 282.918 150.203 284.856 149.379C285.165 149.281 285.432 149.081 285.613 148.812C285.742 148.482 285.742 148.115 285.613 147.784C284.781 144.654 283.925 141.471 282.245 138.712C280.564 135.953 277.922 133.571 274.728 133.012C272.875 132.773 270.995 132.873 269.179 133.306C264.348 134.06 259.952 136.527 256.794 140.254C254.463 142.764 251.366 147.263 252.343 150.808Z" fill="#606161"/>
</g>
<defs>
<linearGradient id="paint0_linear" x1="165.976" y1="284.419" x2="179.254" y2="284.419" gradientUnits="userSpaceOnUse">
<stop stop-color="#E5C6D6"/>
<stop offset="0.42" stop-color="#EAD4D0"/>
<stop offset="1" stop-color="#F0E9CB"/>
</linearGradient>
<linearGradient id="paint1_linear" x1="3604.08" y1="22109.8" x2="3836.97" y2="22109.8" gradientUnits="userSpaceOnUse">
<stop stop-color="#E5C6D6"/>
<stop offset="0.42" stop-color="#EAD4D0"/>
<stop offset="1" stop-color="#F0E9CB"/>
</linearGradient>
<linearGradient id="paint2_linear" x1="139.549" y1="116.689" x2="338.429" y2="366.376" gradientUnits="userSpaceOnUse">
<stop stop-color="#010101" stop-opacity="0"/>
<stop offset="0.95" stop-color="#010101"/>
</linearGradient>
<linearGradient id="paint3_linear" x1="3617.85" y1="10532.1" x2="5563.96" y2="10869.1" gradientUnits="userSpaceOnUse">
<stop stop-color="#E5C6D6"/>
<stop offset="0.42" stop-color="#EAD4D0"/>
<stop offset="1" stop-color="#F0E9CB"/>
</linearGradient>
<linearGradient id="paint4_linear" x1="5425.61" y1="3594.55" x2="5405.73" y2="1821.92" gradientUnits="userSpaceOnUse">
<stop stop-color="#010101" stop-opacity="0"/>
<stop offset="0.95" stop-color="#010101"/>
</linearGradient>
<linearGradient id="paint5_linear" x1="6854.52" y1="8674.3" x2="11863.8" y2="8674.3" gradientUnits="userSpaceOnUse">
<stop stop-color="#E5C6D6"/>
<stop offset="0.42" stop-color="#EAD4D0"/>
<stop offset="1" stop-color="#F0E9CB"/>
</linearGradient>
<linearGradient id="paint6_linear" x1="773.574" y1="1062.96" x2="837.02" y2="1037.02" gradientUnits="userSpaceOnUse">
<stop stop-color="#010101" stop-opacity="0"/>
<stop offset="0.95" stop-color="#010101"/>
</linearGradient>
<linearGradient id="paint7_linear" x1="6244.12" y1="4006.26" x2="6661.23" y2="4123.72" gradientUnits="userSpaceOnUse">
<stop stop-color="#E5C6D6"/>
<stop offset="0.42" stop-color="#EAD4D0"/>
<stop offset="1" stop-color="#F0E9CB"/>
</linearGradient>
<linearGradient id="paint8_linear" x1="6119.4" y1="1652.16" x2="6229.21" y2="915.557" gradientUnits="userSpaceOnUse">
<stop stop-color="#010101" stop-opacity="0"/>
<stop offset="0.95" stop-color="#010101"/>
</linearGradient>
<linearGradient id="paint9_linear" x1="11178.5" y1="3792.32" x2="12431.3" y2="3792.32" gradientUnits="userSpaceOnUse">
<stop stop-color="#E5C6D6"/>
<stop offset="0.42" stop-color="#EAD4D0"/>
<stop offset="1" stop-color="#F0E9CB"/>
</linearGradient>
<linearGradient id="paint10_linear" x1="1466.22" y1="488.005" x2="1434.59" y2="485.659" gradientUnits="userSpaceOnUse">
<stop stop-color="#010101" stop-opacity="0"/>
<stop offset="0.95" stop-color="#010101"/>
</linearGradient>
<linearGradient id="paint11_linear" x1="6265.93" y1="6620.61" x2="6634.32" y2="6620.61" gradientUnits="userSpaceOnUse">
<stop stop-color="#E5C6D6"/>
<stop offset="0.42" stop-color="#EAD4D0"/>
<stop offset="1" stop-color="#F0E9CB"/>
</linearGradient>
<linearGradient id="paint12_linear" x1="5599.39" y1="2730.73" x2="5904.69" y2="2156.58" gradientUnits="userSpaceOnUse">
<stop stop-color="#010101" stop-opacity="0"/>
<stop offset="0.95" stop-color="#010101"/>
</linearGradient>
<linearGradient id="paint13_linear" x1="9814.69" y1="9551.28" x2="10935" y2="9732.59" gradientUnits="userSpaceOnUse">
<stop stop-color="#E5C6D6"/>
<stop offset="0.42" stop-color="#EAD4D0"/>
<stop offset="1" stop-color="#F0E9CB"/>
</linearGradient>
<clipPath id="clip0">
<rect width="358.413" height="325.624" fill="white" transform="translate(0.191162 0.300293)"/>
</clipPath>
</defs>
</svg>
