<svg width="27" height="25" viewBox="0 0 27 25" fill="none" xmlns="http://www.w3.org/2000/svg">
<path d="M13.5128 0.395935C6.42891 0.395935 0.689392 5.85342 0.689392 12.5892C0.689392 19.3251 6.42891 24.7825 13.5128 24.7825C20.5967 24.7825 26.3363 19.3251 26.3363 12.5892C26.3363 5.85342 20.5967 0.395935 13.5128 0.395935ZM13.5128 22.4225C7.79916 22.4225 3.17135 18.0221 3.17135 12.5892C3.17135 7.15633 7.79916 2.75593 13.5128 2.75593C19.2265 2.75593 23.8543 7.15633 23.8543 12.5892C23.8543 18.0221 19.2265 22.4225 13.5128 22.4225ZM16.7083 17.2896L12.3184 14.256C12.1581 14.1429 12.065 13.9659 12.065 13.7791V5.70592C12.065 5.38142 12.3442 5.11592 12.6855 5.11592H14.3401C14.6814 5.11592 14.9606 5.38142 14.9606 5.70592V12.6728L18.4147 15.0623C18.6939 15.2541 18.7508 15.6228 18.5491 15.8883L17.577 17.1617C17.3754 17.4223 16.9876 17.4813 16.7083 17.2896Z" fill="#595959"/>
</svg>
