<svg width="283" height="241" viewBox="0 0 283 241" fill="none" xmlns="http://www.w3.org/2000/svg">
<g clip-path="url(#clip0)">
<path opacity="0.18" d="M236.46 26.4078C233.733 21.5625 230.239 17.1921 226.114 13.467C216.371 4.83983 203.171 0.923097 190.178 0.155279C177.185 -0.612539 164.218 1.50112 151.381 3.60615C144.207 4.83983 136.905 6.03038 130.456 9.43812C120.032 14.9768 113.609 25.3466 108.677 35.6906C103.745 46.0346 100.624 57.5087 89.0798 62.4348C81.8117 65.5492 73.2072 66.5672 65.6373 69.1985C50.9803 74.3058 36.7459 81.2766 24.7875 91.3272C13.1826 101.076 6.57839 121.203 2.92277 135.533C-0.732849 149.863 -1.3105 165.366 3.26764 179.531C10.6392 202.316 30.6848 219.294 52.8858 228.232C75.0867 237.169 99.4432 239.085 123.343 239.853C144.035 240.517 165.641 241.845 186.281 240.258C194.403 239.637 201.904 238.904 210.207 238.809C220.063 238.831 229.872 237.434 239.331 234.659C254.445 230.009 268.464 220.519 276.128 206.716C286.475 187.995 283.793 164.615 276.766 144.393C269.74 124.171 258.799 105.372 253.005 84.7619C249.513 72.3215 247.953 59.4067 244.59 46.9232C242.771 39.7638 240.039 32.8686 236.46 26.4078Z" fill="#40A9FF"/>
<path opacity="0.18" d="M94.5029 215.852C91.6577 217.085 88.6573 219.907 89.7954 222.797C102.28 227.343 115.893 227.343 129.18 227.283C161.382 227.136 193.584 226.998 225.743 226.705C228.424 226.705 231.226 226.627 233.58 225.342C235.934 224.056 237.624 221.123 236.598 218.647C235.632 216.335 232.89 215.42 230.45 214.834C222.396 212.891 214.2 211.599 205.939 210.969C199.231 210.451 191.653 209.994 187.299 204.861C185.652 202.92 184.669 200.478 182.988 198.58C172.926 187.235 149.26 192.291 140.672 201.953C127.593 216.706 110.798 208.769 94.5029 215.852Z" fill="#40A9FF"/>
<path d="M125.981 127.699C124.067 133.178 122.411 138.846 122.377 144.652C122.342 150.458 124.101 156.471 128.197 160.578C134.189 166.617 143.517 167.281 151.993 167.617L163.201 168.066C167.607 168.238 172.055 168.411 176.375 167.531C180.694 166.651 184.919 164.572 187.583 161.035C189.297 158.525 190.444 155.673 190.946 152.675C193.981 137.931 189.058 122.221 179.806 110.35C177.117 106.745 173.834 103.623 170.098 101.119C163.873 97.1592 145.345 91.2237 139.258 97.858C136.491 100.869 134.741 106.968 132.99 110.661C130.353 116.212 128.013 121.899 125.981 127.699Z" fill="white"/>
<path d="M131.732 124.559C130.18 128.993 128.843 133.574 128.817 138.276C128.792 142.978 130.214 147.835 133.525 151.157C138.37 156.014 145.923 156.575 152.769 156.851L161.847 157.213C165.401 157.495 168.976 157.347 172.495 156.773C175.987 156.057 179.393 154.383 181.531 151.519C182.923 149.494 183.853 147.188 184.255 144.764C186.712 132.833 182.729 120.133 175.245 110.531C173.071 107.612 170.415 105.085 167.391 103.06C162.356 99.8595 147.371 95.0628 142.448 100.42C140.215 102.862 138.793 107.796 137.387 110.773C135.258 115.264 133.37 119.866 131.732 124.559Z" fill="url(#paint0_linear)"/>
<path d="M142.569 203.204C141.707 204.705 140.75 206.146 139.931 207.656C138.681 210.003 137.819 212.772 138.646 215.291C138.762 215.73 138.998 216.127 139.327 216.438C139.768 216.749 140.282 216.936 140.819 216.982C142.562 217.255 144.323 217.399 146.087 217.413C148.501 217.413 151.105 217.129 152.898 215.507C156.493 212.237 156.252 204.188 154.191 200.237C153.992 199.734 153.648 199.301 153.203 198.994C152.758 198.687 152.232 198.519 151.691 198.511C150.062 198.194 148.396 198.104 146.742 198.244C144.888 198.451 144.397 198.899 143.75 200.668C143.424 201.543 143.029 202.391 142.569 203.204Z" fill="#40A9FF"/>
<path d="M147.302 203.549C147.735 203.627 148.173 203.67 148.613 203.679C149.958 203.739 151.484 203.731 152.441 202.773C153.398 201.815 153.415 200.409 153.415 199.106V194.051C153.415 190.712 150.294 191.169 147.846 191.584C147.277 191.651 146.732 191.855 146.259 192.179C145.397 192.86 145.302 194.103 145.268 195.19L145.095 200.513C145.019 201.15 145.115 201.796 145.371 202.385C145.584 202.712 145.869 202.987 146.203 203.189C146.538 203.391 146.914 203.514 147.302 203.549Z" fill="#FDBAAC"/>
<path d="M174.116 203.204C174.978 204.705 175.935 206.146 176.703 207.656C177.961 210.003 178.824 212.772 177.987 215.291C177.871 215.73 177.636 216.127 177.306 216.438C176.867 216.751 176.352 216.939 175.815 216.982C174.074 217.255 172.317 217.399 170.555 217.413C168.141 217.413 165.529 217.129 163.744 215.507C160.14 212.237 160.382 204.188 162.442 200.237C162.615 199.863 162.855 199.524 163.149 199.236C163.669 198.836 164.29 198.591 164.942 198.528C166.575 198.211 168.243 198.121 169.9 198.261C171.745 198.468 172.237 198.917 172.883 200.685C173.223 201.558 173.636 202.4 174.116 203.204Z" fill="#40A9FF"/>
<path d="M169.383 203.549C168.95 203.626 168.512 203.67 168.072 203.679C166.719 203.739 165.201 203.731 164.244 202.773C163.287 201.815 163.261 200.409 163.261 199.106V194.051C163.261 190.712 166.391 191.169 168.831 191.584C169.403 191.649 169.95 191.854 170.426 192.179C171.288 192.86 171.374 194.103 171.409 195.19L171.581 200.513C171.66 201.149 171.568 201.796 171.314 202.385C171.101 202.712 170.816 202.987 170.482 203.189C170.147 203.391 169.772 203.514 169.383 203.549Z" fill="#FDBAAC"/>
<path d="M167.003 72.5718C167.003 72.5718 177.522 77.1269 178.755 78.1622C179.858 79.0853 176.866 142.271 176.634 145.359C176.401 148.448 159.571 148.939 152.294 147.551C147.439 146.561 142.688 145.117 138.103 143.237C138.103 143.237 135.801 77.9724 137.241 76.8077C138.681 75.643 152.588 71.3381 152.588 71.3381L167.003 72.5718Z" fill="#40A9FF"/>
<path d="M132.404 150.501C131.62 153.382 131.145 156.626 132.645 159.197C133.645 160.772 135.141 161.968 136.896 162.596C138.641 163.211 140.458 163.597 142.302 163.744C153.599 165.033 165.033 164.412 176.125 161.906C177.672 161.695 179.125 161.039 180.306 160.017C181.287 158.819 181.855 157.336 181.927 155.789C182.585 150.307 181.45 144.759 178.694 139.976C178.503 139.584 178.204 139.255 177.832 139.027C177.475 138.869 177.083 138.803 176.694 138.837L147.992 138.932C145.909 138.984 143.824 138.906 141.75 138.699C140.138 138.509 138.301 137.483 137.146 138.863C134.689 141.744 133.37 146.912 132.404 150.501Z" fill="#473F47"/>
<path d="M132.404 150.501C131.62 153.382 131.145 156.626 132.645 159.197C133.645 160.772 135.141 161.968 136.896 162.596C138.641 163.211 140.458 163.597 142.302 163.744C153.599 165.033 165.033 164.412 176.125 161.906C177.672 161.695 179.125 161.039 180.306 160.017C181.287 158.819 181.855 157.336 181.927 155.789C182.585 150.307 181.45 144.759 178.694 139.976C178.503 139.584 178.204 139.255 177.832 139.027C177.475 138.869 177.083 138.803 176.694 138.837L147.992 138.932C145.909 138.984 143.824 138.906 141.75 138.699C140.138 138.509 138.301 137.483 137.146 138.863C134.689 141.744 133.37 146.912 132.404 150.501Z" fill="url(#paint1_linear)"/>
<path d="M166.607 195.932L168.288 196.096C173.375 196.605 175.427 192.265 175.935 187.175C176.056 186.114 176.306 185.044 176.487 183.992L179.841 164.442L181.393 155.384C181.548 154.469 181.712 153.564 181.858 152.649C182.307 149.992 181.505 147.43 180.996 144.764C180.694 143.151 180.306 141.417 179.065 140.347C177.823 139.277 176.108 139.182 174.504 139.104C170.245 138.915 165.925 138.716 161.778 139.708C161.523 139.741 161.288 139.863 161.114 140.053C160.998 140.273 160.959 140.525 161.002 140.77C161.304 144.824 161.951 148.845 161.865 152.899L161.132 185.476C160.614 190.54 161.52 195.423 166.607 195.932Z" fill="#473F47"/>
<path d="M150.699 197.226L148.975 197.39C143.897 197.899 141.836 193.559 141.328 188.469L135.853 156.549C135.413 154.012 135.042 151.571 134.853 148.991C134.642 147.247 134.7 145.481 135.025 143.755C135.193 142.892 135.555 142.08 136.084 141.379C136.613 140.678 137.295 140.106 138.077 139.708C138.904 139.394 139.779 139.225 140.664 139.208C143.576 139.018 146.5 139.157 149.38 139.622C150.415 139.71 151.41 140.064 152.269 140.649C153.118 141.475 153.716 142.525 153.993 143.677C154.855 146.161 155.967 148.905 155.717 151.562C155.511 153.259 155.413 154.968 155.424 156.678L155.674 167.98L156.097 186.468C156.088 186.571 156.088 186.675 156.097 186.778C156.657 191.808 155.752 196.691 150.699 197.226Z" fill="#473F47"/>
<path d="M239.176 130.607V132.47C239.177 132.828 239.107 133.182 238.971 133.513C238.835 133.844 238.636 134.144 238.383 134.397C238.131 134.651 237.831 134.852 237.501 134.989C237.171 135.126 236.817 135.196 236.46 135.196H77.3111C76.9538 135.196 76.5999 135.126 76.2698 134.989C75.9398 134.852 75.64 134.651 75.3877 134.397C75.1354 134.144 74.9355 133.844 74.7995 133.513C74.6636 133.182 74.5942 132.828 74.5953 132.47V130.607C74.5953 129.886 74.8814 129.195 75.3908 128.685C75.9001 128.175 76.5909 127.889 77.3111 127.889H236.46C237.18 127.889 237.871 128.175 238.38 128.685C238.89 129.195 239.176 129.886 239.176 130.607Z" fill="#473F47"/>
<path d="M189.67 99.0054C189.67 99.0054 196.498 113.24 195.765 117.122C195.257 119.857 190.023 122.256 187.954 123.498C185.885 124.74 183.807 126.267 181.66 127.113C179.513 127.958 177.065 127.63 174.883 127.561L163.675 127.199C163.141 127.199 162.425 127.001 162.425 126.457C162.425 126.138 162.701 125.888 162.968 125.707C163.807 125.122 164.78 124.76 165.796 124.654C168.218 124.501 170.61 124.043 172.918 123.291L185.816 114.405L182.703 108.633L189.67 99.0054Z" fill="#FDBAAC"/>
<path d="M137.853 76.4971C135.611 77.472 134.077 78.8178 133.542 81.1213C132.68 84.6843 130.913 87.6693 129.231 90.9045C128.228 92.8688 127.364 94.9012 126.645 96.9867C126.366 97.6205 126.264 98.3183 126.352 99.0054C126.501 99.525 126.753 100.009 127.093 100.429C129.088 103.213 131.163 105.936 133.318 108.599C134.619 107.997 135.863 107.278 137.034 106.451C137.491 105.726 137.31 103.983 137.379 103.138C137.505 101.412 137.62 99.6668 137.724 97.9011L137.853 76.4971Z" fill="#40A9FF"/>
<path d="M163.166 64.652C163.25 65.0618 163.305 65.4769 163.33 65.8943C163.442 67.568 163.27 69.2848 163.77 70.8808C163.963 71.4559 164.224 72.0061 164.546 72.52C165.744 74.418 164.261 77.5151 163.21 79.2405C161.873 81.4232 159.761 83.5541 157.079 83.8129C153.708 84.1149 152.243 80.3621 151.622 77.6963C151.26 76.1606 150.949 75.0564 151.527 73.538C152.105 72.0196 153.001 70.5702 153.458 68.9656C153.842 67.1165 154.061 65.2371 154.114 63.3493C154.136 62.8465 154.269 62.3547 154.502 61.9086C154.699 61.6168 154.953 61.3683 155.25 61.1784C155.546 60.9886 155.879 60.8612 156.226 60.8043C156.906 60.6849 157.6 60.6645 158.286 60.7439C159.348 60.7414 160.394 61.0022 161.33 61.5031C161.829 61.8802 162.248 62.3527 162.564 62.8933C162.879 63.4338 163.084 64.0316 163.166 64.652Z" fill="#FDBAAC"/>
<path d="M153.812 67.4904C153.812 67.4904 155.183 76.0744 158.83 74.5301C162.477 72.9859 163.365 68.0598 163.365 68.0598L153.812 67.4904Z" fill="#DEA095"/>
<path d="M164.649 72.4596C164.649 72.4596 161.425 82.3981 158.028 83.7267C158.028 83.7267 157.123 84.322 159.795 85.616C162.468 86.9101 168.883 78.6539 167.365 73.167C167.193 72.4653 166.843 71.8196 166.349 71.2923C165.856 70.765 165.235 70.3737 164.546 70.1562L164.649 72.4596Z" fill="white"/>
<path d="M151.881 71.4934C151.881 71.4934 151.389 78.6367 154.665 83.2349C154.665 83.2349 153.622 85.1502 152.605 85.2451C151.587 85.34 148.509 79.4735 149.156 74.8148C149.458 72.1318 151.303 70.8204 151.881 71.4934Z" fill="white"/>
<path d="M149.044 48.338C149.044 48.338 149.216 61.6153 150.553 65.0748C151.889 68.5343 155.209 71.3122 158.243 71.0361C161.278 70.7601 165.624 67.8096 167.245 63.0646C168.865 58.3197 168.865 47.0612 168.219 45.586C167.572 44.1107 164.089 39.5901 156.053 41.0567C150.527 42.0661 148.863 46.3107 149.044 48.338Z" fill="#FDBAAC"/>
<path d="M189.928 92.1209C191.049 93.7083 191.842 94.8558 192.032 95.1232C192.324 95.4864 192.543 95.9023 192.679 96.3483C192.729 96.7571 192.694 97.1719 192.577 97.5668C192.46 97.9616 192.263 98.328 191.998 98.6431C190.799 100.369 189.032 101.542 187.488 102.957C185.751 104.677 184.194 106.57 182.841 108.607C181.795 107.86 180.84 106.991 179.996 106.019C179.187 105.406 178.554 104.59 178.161 103.654C177.767 102.718 177.627 101.695 177.754 100.688L177.599 89.5587L177.513 83.9942C177.513 83.0365 176.28 78.7057 176.875 77.9551C178.289 76.1866 186.049 86.7031 189.928 92.1209Z" fill="#40A9FF"/>
<path d="M147.363 53.2555C147.264 53.2255 147.159 53.2255 147.061 53.2555C146.965 53.3174 146.888 53.4038 146.837 53.5057C146.487 54.1292 146.368 54.8563 146.501 55.559C146.646 56.1374 146.866 56.6942 147.156 57.2154C147.451 58.0619 147.976 58.809 148.673 59.3722C148.813 59.4727 148.985 59.5187 149.156 59.5016C149.281 59.4798 149.395 59.4195 149.484 59.3291C149.931 58.8003 150.165 58.1234 150.139 57.4311C150.325 56.464 150.147 55.4621 149.639 54.6186C149.384 54.2372 149.047 53.9172 148.654 53.6815C148.26 53.4458 147.819 53.3003 147.363 53.2555Z" fill="#FDBAAC"/>
<path d="M169.978 53.0398C170.077 53.0184 170.18 53.0184 170.279 53.0398C170.373 53.1038 170.45 53.1896 170.504 53.29C170.85 53.9181 170.968 54.6464 170.84 55.3519C170.684 55.9268 170.464 56.4824 170.185 57.0083C169.889 57.8519 169.363 58.5959 168.667 59.1565C168.525 59.2607 168.351 59.3097 168.176 59.2945C168.056 59.2669 167.945 59.2073 167.857 59.122C167.411 58.5924 167.177 57.9161 167.201 57.224C167.009 56.257 167.188 55.2529 167.701 54.4116C167.956 54.0286 168.292 53.7069 168.685 53.4697C169.079 53.2325 169.52 53.0856 169.978 53.0398Z" fill="#FDBAAC"/>
<path d="M146.768 47.113C146.492 45.3876 146.432 43.3947 147.63 42.1265C147.88 41.859 148.182 41.6434 148.44 41.3845C148.699 41.1257 149.096 40.5995 149.432 40.2026C150.435 39.1165 151.654 38.2534 153.012 37.6693C154.37 37.0852 155.835 36.7932 157.312 36.8121C160.26 36.8714 163.176 37.4345 165.934 38.4772C167.486 38.9833 169.026 39.5326 170.555 40.125C171.149 40.3122 171.698 40.6207 172.167 41.0308C172.5 41.3986 172.723 41.8515 172.813 42.339C172.903 42.8265 172.855 43.3294 172.676 43.7915C172.418 44.5248 171.883 45.146 171.667 45.8879C171.538 46.4739 171.486 47.0743 171.512 47.6737C171.458 49.2686 171.039 50.8298 170.288 52.2375C169.873 53.1334 169.181 53.8716 168.314 54.3426C168.382 52.1871 168.091 50.0353 167.451 47.9757C165.624 49.4507 163.401 50.3513 161.063 50.5639C158.734 50.7642 156.389 50.4973 154.165 49.7788C153.623 49.5446 153.024 49.4727 152.441 49.5717C151.881 49.727 151.432 50.4344 151.751 50.9003C151.642 50.8305 151.519 50.7832 151.391 50.761C151.263 50.7389 151.132 50.7424 151.005 50.7712C150.879 50.8001 150.759 50.8538 150.653 50.9293C150.547 51.0048 150.458 51.1005 150.389 51.2109C150.137 51.673 150.015 52.1947 150.036 52.7206L149.889 56.0162C147.915 53.6955 147.251 50.1239 146.768 47.113Z" fill="#FC682D"/>
<path d="M126.334 99.0054C124.92 101.947 123.618 104.958 122.463 108.012C121.597 110.13 120.91 112.318 120.411 114.552C120.23 115.414 119.808 116.596 120.127 117.468C120.618 118.805 122.644 119.849 123.782 120.539C127.409 122.762 131.186 124.731 135.085 126.431C136.597 127.155 138.197 127.678 139.845 127.984C141.137 128.142 142.442 128.18 143.742 128.096L151.225 127.837C151.906 127.837 152.794 127.604 152.855 126.923C152.855 126.448 152.45 126.06 152.044 125.81C150.71 124.965 149.257 124.322 147.734 123.903C146.242 123.498 144.397 123.774 142.992 123.274C141.405 122.713 139.638 120.936 138.232 119.961L130.188 114.405L133.301 108.633L126.334 99.0054Z" fill="#FDBAAC"/>
<path d="M178.375 124.852H136.43L132.749 96.5725L181.35 97.2455L178.375 124.852Z" fill="#40A9FF"/>
<path d="M88.1056 127.889L86.8985 135.196L72.9658 221.037C72.9067 221.587 72.6647 222.101 72.2785 222.497C71.8923 222.893 71.3843 223.147 70.8362 223.219C69.8533 223.219 69.2153 222.236 69.4136 221.037L83.3464 135.196L84.5275 127.889H88.1056Z" fill="#473F47"/>
<path d="M226.941 127.889L228.123 135.196L242.09 221.037C242.149 221.587 242.391 222.101 242.777 222.497C243.163 222.893 243.671 223.147 244.219 223.219C245.202 223.219 245.84 222.236 245.642 221.037L231.709 135.196L230.528 127.889H226.941Z" fill="#473F47"/>
<path d="M178.375 124.844H136.224V127.924H178.375V124.844Z" fill="#40A9FF"/>
<path d="M178.375 124.844H136.224V127.924H178.375V124.844Z" fill="url(#paint2_linear)"/>
<path d="M103.599 127.889H82.7773C83.5355 125.732 84.9443 123.864 86.8091 122.542C88.6739 121.22 90.9028 120.51 93.1881 120.51C95.4734 120.51 97.7023 121.22 99.5671 122.542C101.432 123.864 102.841 125.732 103.599 127.889Z" fill="#40A9FF"/>
<path d="M81.8245 88.3254C81.5432 87.5001 80.6466 87.0593 79.8219 87.3407C78.9971 87.6221 78.5565 88.5193 78.8378 89.3445L90.0412 122.219C90.3225 123.044 91.219 123.485 92.0438 123.203C92.8685 122.922 93.3091 122.025 93.0279 121.199L81.8245 88.3254Z" fill="#40A9FF"/>
<path d="M79.8734 87.2943C79.0421 87.5556 78.5799 88.4418 78.841 89.2736C79.1022 90.1055 79.9878 90.568 80.8191 90.3067L113.935 79.8969C114.766 79.6356 115.228 78.7494 114.967 77.9176C114.706 77.0857 113.82 76.6232 112.989 76.8845L79.8734 87.2943Z" fill="#40A9FF"/>
<path d="M103.599 127.889H82.7773C83.5355 125.732 84.9443 123.864 86.8091 122.542C88.6739 121.22 90.9028 120.51 93.1881 120.51C95.4734 120.51 97.7023 121.22 99.5671 122.542C101.432 123.864 102.841 125.732 103.599 127.889Z" fill="url(#paint3_linear)"/>
<path d="M81.8245 88.3254C81.5432 87.5001 80.6466 87.0593 79.8219 87.3407C78.9971 87.6221 78.5565 88.5193 78.8378 89.3445L90.0412 122.219C90.3225 123.044 91.219 123.485 92.0438 123.203C92.8685 122.922 93.3091 122.025 93.0279 121.199L81.8245 88.3254Z" fill="url(#paint4_linear)"/>
<path d="M79.8734 87.2943C79.0421 87.5556 78.5799 88.4418 78.841 89.2736C79.1022 90.1055 79.9878 90.568 80.8191 90.3067L113.935 79.8969C114.766 79.6356 115.228 78.7494 114.967 77.9176C114.706 77.0857 113.82 76.6232 112.989 76.8845L79.8734 87.2943Z" fill="url(#paint5_linear)"/>
<path d="M127.024 81.0868C124.351 84.9173 121.187 87.3674 119.834 86.7031C119.773 86.6708 119.715 86.6332 119.661 86.5909L119.48 86.4788C115.531 83.7095 111.884 76.385 114.652 72.4251C117.419 68.4652 125.55 69.3711 129.499 72.1404L129.671 72.2698C129.729 72.3051 129.784 72.3456 129.835 72.3906C130.921 73.4345 129.705 77.2477 127.024 81.0868Z" fill="#40A9FF"/>
<path d="M127.024 81.0868C124.351 84.9172 121.187 87.3673 119.834 86.703L119.713 86.634C119.692 86.6253 119.674 86.6102 119.661 86.5909C118.463 85.6333 119.661 81.7597 122.403 77.8516C125.145 73.9435 128.36 71.4761 129.671 72.2698H129.731L129.835 72.3561C130.921 73.4345 129.705 77.2477 127.024 81.0868Z" fill="#40A9FF"/>
<path d="M127.024 81.0868C124.351 84.9172 121.187 87.3673 119.834 86.703L119.713 86.634C119.692 86.6253 119.674 86.6102 119.661 86.5909C118.463 85.6333 119.661 81.7597 122.403 77.8516C125.145 73.9435 128.36 71.4761 129.671 72.2698H129.731L129.835 72.3561C130.921 73.4345 129.705 77.2477 127.024 81.0868Z" fill="white"/>
<path d="M215.975 98.9968H210.922C209.77 98.9968 208.836 99.9315 208.836 101.085V126.034C208.836 127.187 209.77 128.122 210.922 128.122H215.975C217.127 128.122 218.061 127.187 218.061 126.034V101.085C218.061 99.9315 217.127 98.9968 215.975 98.9968Z" fill="#40A9FF"/>
<path d="M224.929 98.859L219.889 99.2063C218.739 99.2856 217.871 100.282 217.95 101.433L219.664 126.323C219.743 127.474 220.739 128.342 221.889 128.263L226.929 127.915C228.079 127.836 228.946 126.839 228.867 125.689L227.154 100.798C227.075 99.648 226.079 98.7797 224.929 98.859Z" fill="#40A9FF"/>
<path d="M178.418 124.852H136.474L132.792 96.5725L181.393 97.2455L178.418 124.852Z" fill="url(#paint6_linear)"/>
<path d="M134.628 95.1749L132.792 96.5725L181.393 97.2455L179.72 95.6063L134.628 95.1749Z" fill="url(#paint7_linear)"/>
<path d="M223.165 48.6314C222.912 51.7766 221.577 54.7368 219.389 57.0084C217.423 58.9478 216.025 61.3881 215.345 64.0654C215.156 64.885 215.052 65.7304 214.906 66.6535H202.835C202.749 66.041 202.688 65.4285 202.568 64.8332C202.06 62.2447 200.831 59.8524 199.024 57.9315C197.427 56.3038 196.169 54.374 195.326 52.2548C194.608 50.2606 194.337 48.1333 194.531 46.0228C194.726 43.9124 195.38 41.8703 196.449 40.0406C197.518 38.2109 198.975 36.6382 200.717 35.4334C202.46 34.2287 204.445 33.4212 206.534 33.068C206.922 33.0076 207.301 32.9644 207.672 32.9299C209.77 32.7552 211.88 33.0431 213.855 33.7734C215.829 34.5038 217.62 35.6587 219.1 37.1568C220.579 38.6549 221.713 40.4596 222.42 42.4437C223.127 44.4279 223.39 46.543 223.191 48.64L223.165 48.6314Z" fill="white"/>
<path d="M220.803 48.6313C220.556 51.7765 219.224 54.738 217.035 57.0083C215.067 58.9473 213.666 61.3875 212.983 64.0654C212.793 64.8849 212.698 65.7304 212.543 66.6535H202.844C202.757 66.041 202.697 65.4284 202.576 64.8332C202.068 62.2447 200.84 59.8523 199.033 57.9314C197.435 56.3038 196.178 54.374 195.334 52.2548C194.617 50.2606 194.346 48.1332 194.54 46.0228C194.734 43.9124 195.389 41.8703 196.458 40.0406C197.526 38.2109 198.984 36.6382 200.726 35.4334C202.469 34.2286 204.454 33.4212 206.542 33.0679C206.93 33.0075 207.31 32.9644 207.68 32.9299C209.579 33.0858 211.427 33.6175 213.118 34.4941C214.81 35.3706 216.31 36.5747 217.533 38.0362C218.755 39.4978 219.675 41.1878 220.239 43.0081C220.804 44.8284 221.001 46.7427 220.82 48.64L220.803 48.6313Z" fill="url(#paint8_linear)"/>
<path d="M215.181 66.6276H203.214C202.348 66.6276 201.645 67.3306 201.645 68.1978V68.2064C201.645 69.0736 202.348 69.7765 203.214 69.7765H215.181C216.048 69.7765 216.751 69.0736 216.751 68.2064V68.1978C216.751 67.3306 216.048 66.6276 215.181 66.6276Z" fill="#40A9FF"/>
<path d="M214.267 69.2675H203.577C202.8 69.2675 202.171 69.8971 202.171 70.6738C202.171 71.4504 202.8 72.08 203.577 72.08H214.267C215.044 72.08 215.673 71.4504 215.673 70.6738C215.673 69.8971 215.044 69.2675 214.267 69.2675Z" fill="#40A9FF"/>
<path d="M213.569 71.571H204.284C203.612 71.571 203.068 72.1156 203.068 72.7874V72.796C203.068 73.4679 203.612 74.0125 204.284 74.0125H213.569C214.241 74.0125 214.785 73.4679 214.785 72.796V72.7874C214.785 72.1156 214.241 71.571 213.569 71.571Z" fill="#40A9FF"/>
<path d="M215.181 66.6276H203.214C202.348 66.6276 201.645 67.3306 201.645 68.1978V68.2064C201.645 69.0736 202.348 69.7765 203.214 69.7765H215.181C216.048 69.7765 216.751 69.0736 216.751 68.2064V68.1978C216.751 67.3306 216.048 66.6276 215.181 66.6276Z" fill="url(#paint9_linear)"/>
<path d="M214.267 69.2675H203.577C202.8 69.2675 202.171 69.8971 202.171 70.6738C202.171 71.4504 202.8 72.08 203.577 72.08H214.267C215.044 72.08 215.673 71.4504 215.673 70.6738C215.673 69.8971 215.044 69.2675 214.267 69.2675Z" fill="url(#paint10_linear)"/>
<path d="M213.569 71.571H204.284C203.612 71.571 203.068 72.1156 203.068 72.7874V72.796C203.068 73.4679 203.612 74.0125 204.284 74.0125H213.569C214.241 74.0125 214.785 73.4679 214.785 72.796V72.7874C214.785 72.1156 214.241 71.571 213.569 71.571Z" fill="url(#paint11_linear)"/>
<path d="M205.879 66.5845C205.786 64.3777 205.497 62.1835 205.016 60.0279C204.648 58.2383 204.38 56.4295 204.215 54.61C204.025 51.8579 204.568 49.9341 205.879 48.7263C206.105 48.4853 206.412 48.3351 206.741 48.3035C206.918 48.302 207.094 48.3355 207.258 48.4021C207.422 48.4687 207.572 48.5671 207.698 48.6918C207.741 48.64 207.775 48.5882 207.818 48.5451C208.04 48.2636 208.34 48.0536 208.681 47.9412C208.853 47.891 209.034 47.8774 209.212 47.9011C209.391 47.9249 209.562 47.9855 209.715 48.0792C209.937 48.2091 210.128 48.3857 210.276 48.5969C210.457 48.4809 210.659 48.4022 210.87 48.3651C211.082 48.3281 211.299 48.3336 211.509 48.3812C212.293 48.5796 212.836 49.3215 213.069 50.5207C213.629 53.4022 213.017 56.3095 212.422 59.1479C211.798 61.5163 211.528 63.9643 211.621 66.412L210.758 66.4896C210.655 63.958 210.931 61.425 211.577 58.9753C212.181 56.1197 212.75 53.4281 212.224 50.7191C212.129 50.236 211.888 49.3992 211.302 49.2525C211.091 49.2143 210.874 49.2608 210.698 49.3819C210.759 49.5333 210.808 49.689 210.845 49.8478C211.05 50.695 211.151 51.5642 211.146 52.4359C211.154 52.5727 211.133 52.7096 211.084 52.8375C211.035 52.9655 210.959 53.0815 210.862 53.1779C210.773 53.2577 210.665 53.3125 210.549 53.3367C210.432 53.361 210.311 53.3538 210.198 53.3159C210.005 53.2316 209.836 53.1021 209.704 52.9384C209.572 52.7747 209.481 52.5817 209.439 52.3756C209.17 51.5723 209.119 50.7116 209.293 49.8823C209.365 49.6307 209.482 49.394 209.638 49.1835C209.547 49.0362 209.423 48.9121 209.276 48.8212C209.224 48.7877 209.165 48.7658 209.104 48.7569C209.043 48.748 208.981 48.7522 208.922 48.7694C208.745 48.8353 208.592 48.9524 208.482 49.1059C208.413 49.1835 208.362 49.2611 208.301 49.3388C209.012 50.3037 209.321 51.5066 209.163 52.6948C209.077 53.29 208.724 53.8594 208.103 53.8594C207.889 53.8362 207.686 53.7513 207.519 53.615C207.352 53.4787 207.229 53.2969 207.163 53.0916C206.905 52.5147 206.776 51.888 206.787 51.2559C206.797 50.6238 206.946 50.0017 207.224 49.4337H207.18C206.974 49.2353 206.844 49.1921 206.792 49.2008C206.674 49.2347 206.566 49.3003 206.482 49.3905C205.387 50.3999 204.922 52.1512 205.094 54.5669C205.26 56.3511 205.522 58.1251 205.879 59.8812C206.366 62.0882 206.654 64.3345 206.741 66.5931L205.879 66.5845ZM207.844 50.1929C207.567 51.0115 207.607 51.9043 207.956 52.6948C207.998 52.7974 208.063 52.8889 208.146 52.9622C208.247 52.8465 208.307 52.7012 208.318 52.5481C208.409 51.7428 208.239 50.9298 207.836 50.2274L207.844 50.1929ZM210.06 50.2791C209.999 50.9045 210.067 51.5357 210.258 52.134C210.246 51.5221 210.177 50.9127 210.051 50.3137L210.06 50.2791Z" fill="#40A9FF"/>
</g>
<defs>
<linearGradient id="paint0_linear" x1="158.588" y1="174.95" x2="152.753" y2="47.4239" gradientUnits="userSpaceOnUse">
<stop offset="0.01"/>
<stop offset="0.08" stop-opacity="0.69"/>
<stop offset="0.21" stop-opacity="0.32"/>
<stop offset="1" stop-opacity="0"/>
</linearGradient>
<linearGradient id="paint1_linear" x1="14208.4" y1="7500.06" x2="14151.9" y2="5407.22" gradientUnits="userSpaceOnUse">
<stop offset="0.01"/>
<stop offset="0.08" stop-opacity="0.69"/>
<stop offset="0.21" stop-opacity="0.32"/>
<stop offset="1" stop-opacity="0"/>
</linearGradient>
<linearGradient id="paint2_linear" x1="7836.49" y1="542.725" x2="7836.34" y2="640.775" gradientUnits="userSpaceOnUse">
<stop offset="0.01"/>
<stop offset="0.08" stop-opacity="0.69"/>
<stop offset="0.21" stop-opacity="0.32"/>
<stop offset="1" stop-opacity="0"/>
</linearGradient>
<linearGradient id="paint3_linear" x1="4085.09" y1="1812.9" x2="4587.93" y2="1812.9" gradientUnits="userSpaceOnUse">
<stop offset="0.01"/>
<stop offset="0.08" stop-opacity="0.69"/>
<stop offset="0.21" stop-opacity="0.32"/>
<stop offset="1" stop-opacity="0"/>
</linearGradient>
<linearGradient id="paint4_linear" x1="676.218" y1="7945.57" x2="728.79" y2="7945.57" gradientUnits="userSpaceOnUse">
<stop offset="0.01"/>
<stop offset="0.08" stop-opacity="0.69"/>
<stop offset="0.21" stop-opacity="0.32"/>
<stop offset="1" stop-opacity="0"/>
</linearGradient>
<linearGradient id="paint5_linear" x1="687.182" y1="6971.33" x2="819.936" y2="6971.33" gradientUnits="userSpaceOnUse">
<stop offset="0.01"/>
<stop offset="0.08" stop-opacity="0.69"/>
<stop offset="0.21" stop-opacity="0.32"/>
<stop offset="1" stop-opacity="0"/>
</linearGradient>
<linearGradient id="paint6_linear" x1="8635.49" y1="2980.27" x2="9424.91" y2="6843.83" gradientUnits="userSpaceOnUse">
<stop offset="0.01"/>
<stop offset="0.08" stop-opacity="0.69"/>
<stop offset="0.21" stop-opacity="0.32"/>
<stop offset="1" stop-opacity="0"/>
</linearGradient>
<linearGradient id="paint7_linear" x1="9016.52" y1="308.915" x2="9016.27" y2="400.804" gradientUnits="userSpaceOnUse">
<stop offset="0.01"/>
<stop offset="0.08" stop-opacity="0.69"/>
<stop offset="0.21" stop-opacity="0.32"/>
<stop offset="1" stop-opacity="0"/>
</linearGradient>
<linearGradient id="paint8_linear" x1="249.513" y1="77.748" x2="184.757" y2="35.3484" gradientUnits="userSpaceOnUse">
<stop offset="0.01"/>
<stop offset="0.13" stop-opacity="0.69"/>
<stop offset="0.25" stop-opacity="0.32"/>
<stop offset="1" stop-opacity="0"/>
</linearGradient>
<linearGradient id="paint9_linear" x1="3867.09" y1="293.507" x2="3867.06" y2="336.836" gradientUnits="userSpaceOnUse">
<stop offset="0.01"/>
<stop offset="0.13" stop-opacity="0.69"/>
<stop offset="0.25" stop-opacity="0.32"/>
<stop offset="1" stop-opacity="0"/>
</linearGradient>
<linearGradient id="paint10_linear" x1="3479.42" y1="281.355" x2="3478.91" y2="320.875" gradientUnits="userSpaceOnUse">
<stop offset="0.01"/>
<stop offset="0.13" stop-opacity="0.69"/>
<stop offset="0.25" stop-opacity="0.32"/>
<stop offset="1" stop-opacity="0"/>
</linearGradient>
<linearGradient id="paint11_linear" x1="3044.9" y1="264.961" x2="3044.66" y2="292.401" gradientUnits="userSpaceOnUse">
<stop offset="0.01"/>
<stop offset="0.13" stop-opacity="0.69"/>
<stop offset="0.25" stop-opacity="0.32"/>
<stop offset="1" stop-opacity="0"/>
</linearGradient>
<clipPath id="clip0">
<rect width="283" height="241" fill="white"/>
</clipPath>
</defs>
</svg>
