<svg width="25" height="25" viewBox="0 0 25 25" fill="none" xmlns="http://www.w3.org/2000/svg">
<path d="M6.25 9.96094C6.25 10.3161 6.3911 10.6568 6.64227 10.908C6.89343 11.1591 7.23409 11.3002 7.58929 11.3002C7.94449 11.3002 8.28514 11.1591 8.5363 10.908C8.78747 10.6568 8.92857 10.3161 8.92857 9.96094C8.92857 9.60574 8.78747 9.26508 8.5363 9.01392C8.28514 8.76275 7.94449 8.62165 7.58929 8.62165C7.23409 8.62165 6.89343 8.76275 6.64227 9.01392C6.3911 9.26508 6.25 9.60574 6.25 9.96094ZM16.0714 9.96094C16.0714 10.3161 16.2125 10.6568 16.4637 10.908C16.7149 11.1591 17.0555 11.3002 17.4107 11.3002C17.7659 11.3002 18.1066 11.1591 18.3577 10.908C18.6089 10.6568 18.75 10.3161 18.75 9.96094C18.75 9.60574 18.6089 9.26508 18.3577 9.01392C18.1066 8.76275 17.7659 8.62165 17.4107 8.62165C17.0555 8.62165 16.7149 8.76275 16.4637 9.01392C16.2125 9.26508 16.0714 9.60574 16.0714 9.96094ZM12.5 0C5.5971 0 0 5.5971 0 12.5C0 19.4029 5.5971 25 12.5 25C19.4029 25 25 19.4029 25 12.5C25 5.5971 19.4029 0 12.5 0ZM19.8382 19.8382C18.8839 20.7924 17.7734 21.5402 16.5374 22.0647C15.2623 22.606 13.9035 22.8795 12.5 22.8795C11.0965 22.8795 9.73772 22.606 8.45982 22.0647C7.22564 21.5435 6.10458 20.7873 5.15904 19.8382C4.2048 18.8839 3.45703 17.7734 2.93248 16.5374C2.39397 15.2623 2.12054 13.9035 2.12054 12.5C2.12054 11.0965 2.39397 9.73772 2.93527 8.45982C3.4565 7.22564 4.21271 6.10458 5.16183 5.15904C6.11607 4.2048 7.22656 3.45703 8.46261 2.93248C9.73772 2.39397 11.0965 2.12054 12.5 2.12054C13.9035 2.12054 15.2623 2.39397 16.5402 2.93527C17.7744 3.4565 18.8954 4.21271 19.841 5.16183C20.7952 6.11607 21.543 7.22656 22.0675 8.46261C22.606 9.73772 22.8795 11.0965 22.8795 12.5C22.8795 13.9035 22.606 15.2623 22.0647 16.5402C21.5441 17.7739 20.7878 18.8941 19.8382 19.8382ZM12.5 13.0859C10.1144 13.0859 8.15848 14.9637 8.03571 17.3158C8.0342 17.3461 8.03885 17.3763 8.04939 17.4047C8.05993 17.4331 8.07613 17.459 8.09701 17.4809C8.11789 17.5029 8.14301 17.5203 8.17085 17.5322C8.19868 17.5441 8.22865 17.5503 8.25893 17.5502H9.601C9.71819 17.5502 9.81864 17.4609 9.82701 17.3437C9.93304 15.9626 11.091 14.8717 12.5 14.8717C13.909 14.8717 15.0698 15.9626 15.173 17.3437C15.1814 17.4609 15.2818 17.5502 15.399 17.5502H16.7411C16.7713 17.5503 16.8013 17.5441 16.8291 17.5322C16.857 17.5203 16.8821 17.5029 16.903 17.4809C16.9239 17.459 16.9401 17.4331 16.9506 17.4047C16.9611 17.3763 16.9658 17.3461 16.9643 17.3158C16.8415 14.9637 14.8856 13.0859 12.5 13.0859Z" fill="#404040"/>
</svg>
