<svg width="18" height="20" viewBox="0 0 18 20" fill="none" xmlns="http://www.w3.org/2000/svg">
<path fill-rule="evenodd" clip-rule="evenodd" d="M11.3004 1.91209H15.2967C16.3484 1.91209 17.2088 2.77253 17.2088 3.82418V17.2088C17.2088 18.2604 16.3484 19.1209 15.2967 19.1209H1.91209C1.77824 19.1209 1.65396 19.1113 1.52967 19.0922C1.15681 19.0157 0.822198 18.8245 0.564066 18.5664C0.391978 18.3847 0.248572 18.184 0.152967 17.9545C0.0573627 17.7251 0 17.4669 0 17.2088V3.82418C0 3.55648 0.0573627 3.30791 0.152967 3.08802C0.248572 2.85857 0.391978 2.64824 0.564066 2.47615C0.822198 2.21802 1.15681 2.02681 1.52967 1.95033C1.65396 1.92165 1.77824 1.91209 1.91209 1.91209H5.90835C6.30989 0.803077 7.36154 0 8.6044 0C9.84726 0 10.8989 0.803077 11.3004 1.91209ZM3.8241 5.73626H13.3845V7.64835H3.8241V5.73626ZM13.3845 9.56047H3.8241V11.4726H13.3845V9.56047ZM10.5164 13.3846H3.8241V15.2967H10.5164V13.3846ZM8.60433 1.67312C8.99631 1.67312 9.32136 1.99817 9.32136 2.39015C9.32136 2.78213 8.99631 3.10718 8.60433 3.10718C8.21235 3.10718 7.8873 2.78213 7.8873 2.39015C7.8873 1.99817 8.21235 1.67312 8.60433 1.67312ZM1.9121 17.2088H15.2967V3.82421H1.9121V17.2088Z" fill="#595959"/>
</svg>
