<svg width="20" height="20" viewBox="0 0 20 20" fill="none" xmlns="http://www.w3.org/2000/svg">
<path fill-rule="evenodd" clip-rule="evenodd" d="M0 9.86806C0 4.5907 4.28308 0.307617 9.56044 0.307617C14.8378 0.307617 19.1209 4.5907 19.1209 9.86806C19.1209 15.1454 14.8378 19.4285 9.56044 19.4285C4.28308 19.4285 0 15.1454 0 9.86806ZM10.5166 15.6045H8.60447V13.6924H10.5166V15.6045ZM9.56046 17.5166C5.3443 17.5166 1.9121 14.0844 1.9121 9.86822C1.9121 5.65206 5.3443 2.21986 9.56046 2.21986C13.7766 2.21986 17.2088 5.65206 17.2088 9.86822C17.2088 14.0844 13.7766 17.5166 9.56046 17.5166ZM5.73631 7.95614C5.73631 5.84329 7.44763 4.13197 9.56049 4.13197C11.6733 4.13197 13.3847 5.84329 13.3847 7.95614C13.3847 9.18267 12.6294 9.84272 11.894 10.4854C11.1963 11.0951 10.5165 11.6891 10.5165 12.7364H8.60445C8.60445 10.9951 9.50515 10.3048 10.2971 9.69775C10.9183 9.22157 11.4726 8.79671 11.4726 7.95614C11.4726 6.9045 10.6121 6.04406 9.56049 6.04406C8.50884 6.04406 7.6484 6.9045 7.6484 7.95614H5.73631Z" fill="#595959"/>
</svg>
