<svg width="20" height="20" viewBox="0 0 20 20" fill="none" xmlns="http://www.w3.org/2000/svg">
<path fill-rule="evenodd" clip-rule="evenodd" d="M0 10C0 4.48 4.48 0 10 0C15.52 0 20 4.48 20 10C20 15.52 15.52 20 10 20C4.48 20 0 15.52 0 10ZM11 14V16H9V14H11ZM10 18C5.59 18 2 14.41 2 10C2 5.59 5.59 2 10 2C14.41 2 18 5.59 18 10C18 14.41 14.41 18 10 18ZM6 7.99999C6 5.78999 7.79 3.99999 10 3.99999C12.21 3.99999 14 5.78999 14 7.99999C14 9.28291 13.21 9.97331 12.4408 10.6455C11.711 11.2833 11 11.9046 11 13H9C9 11.1787 9.94212 10.4566 10.7704 9.82167C11.4202 9.3236 12 8.87921 12 7.99999C12 6.89999 11.1 5.99999 10 5.99999C8.9 5.99999 8 6.89999 8 7.99999H6Z" fill="#595959"/>
</svg>
