<svg width="713" height="552" viewBox="0 0 713 552" fill="none" xmlns="http://www.w3.org/2000/svg">
<g clip-path="url(#clip0)">
<path opacity="0.18" d="M85.0628 70.076C47.4954 113.834 31.3043 171.787 20.3844 228.434C9.13329 287.037 2.412 346.42 0.280229 406.056C-0.980999 441.057 1.06715 480.328 26.4965 504.381C36.0043 513.387 47.959 519.308 59.8921 524.701C81.1605 534.344 103.281 542.854 126.489 545.464C164.951 549.778 203.166 537.709 239.978 525.726C304.829 504.618 372.256 483.068 439.921 491.61C471.301 495.569 501.527 505.923 532.713 511.219C563.898 516.515 597.671 516.267 625.052 500.433C644.1 489.399 658.469 471.699 669.809 452.824C695.26 410.468 707.28 361.144 711.128 311.842C713.025 287.498 712.993 262.831 708.282 238.875C702.892 211.501 691.552 185.712 680.104 160.278C666.09 129.075 651.57 97.785 631.53 70.0544C611.491 42.3239 585.339 18.0665 553.528 5.54404C492.979 -18.2604 426.769 2.79364 365.584 12.3715C334.322 17.2359 301.983 20.3746 270.787 13.3314C255.771 9.94468 243.719 2.97699 228.315 2.42691C212.07 1.85526 194.66 5.66268 179.159 10.1388C142.972 20.5904 109.651 41.4179 85.0628 70.076Z" fill="white"/>
<path d="M345.436 229.038H294.017V271.06H345.436V229.038Z" fill="#676869"/>
<path d="M345.436 229.038H294.017V271.06H345.436V229.038Z" fill="url(#paint0_linear)"/>
<path d="M388.706 142.827H257.442C248.881 142.827 241.94 149.771 241.94 158.337V230.095C241.94 238.661 248.881 245.606 257.442 245.606H388.706C397.268 245.606 404.208 238.661 404.208 230.095V158.337C404.208 149.771 397.268 142.827 388.706 142.827Z" fill="white"/>
<path d="M472.562 270.586H199.436V279.29H472.562V270.586Z" fill="white"/>
<path d="M472.562 275.655H199.436V279.29H472.562V275.655Z" fill="#D9DBE2"/>
<path opacity="0.18" d="M353.596 481.083C514.626 481.083 645.167 466.036 645.167 447.474C645.167 428.913 514.626 413.865 353.596 413.865C192.567 413.865 62.0264 428.913 62.0264 447.474C62.0264 466.036 192.567 481.083 353.596 481.083Z" fill="#676869"/>
<path d="M570.852 343.401C570.852 343.401 600.841 440.194 597.585 442.567C594.33 444.94 592.271 438.49 592.271 438.49L562.023 348.535L570.852 343.401Z" fill="#676869"/>
<path d="M506.388 354.575L506.108 355.276L471.936 442.998C471.419 444.353 470.639 445.592 469.64 446.644C469.446 446.877 469.206 447.069 468.936 447.206C468.665 447.343 468.368 447.423 468.065 447.442C467.762 447.46 467.459 447.416 467.173 447.312C466.888 447.208 466.627 447.047 466.406 446.838C463.323 444.314 495.425 354.284 495.425 354.284L506.388 354.575Z" fill="#676869"/>
<path d="M531.969 348.136C531.969 348.136 530.891 449.459 527.086 450.721C523.28 451.983 523.28 445.209 523.28 445.209L521.987 350.293L531.969 348.136Z" fill="#676869"/>
<path d="M565.494 344.577C565.494 344.577 598.135 438.414 594.869 440.744C591.602 443.074 592.271 438.479 592.271 438.479L562.023 348.524L565.494 344.577Z" fill="url(#paint1_linear)"/>
<path d="M506.098 355.276L471.926 442.998C471.409 444.353 470.629 445.592 469.63 446.644C469.748 436.591 498.832 355.115 498.832 355.115L506.098 355.276Z" fill="url(#paint2_linear)"/>
<path d="M531.969 348.136C531.969 348.136 530.891 449.459 527.085 450.721C523.28 451.983 525.63 443.084 525.63 443.084L526.978 349.247L531.969 348.136Z" fill="url(#paint3_linear)"/>
<path d="M598.286 320.244C591.128 336.757 575.023 348.147 557.765 353.259C544.312 357.239 530.136 357.854 516.036 357.045C512.091 356.837 508.138 356.538 504.179 356.15C497.28 355.449 490.284 354.554 483.826 352.03C477.369 349.506 471.354 345.149 468.077 338.99C466.08 334.936 464.977 330.5 464.843 325.982C464.164 314.398 467.829 302.08 476.701 294.703C483.665 288.879 492.752 286.613 499.975 281.21C508.059 275.137 516.36 269.712 524.919 264.254C533.478 258.797 542.166 253.285 551.739 249.812C561.311 246.339 571.983 245.034 581.663 248.108C585.016 249.186 590.179 251.786 595.235 264.168C602.576 281.868 605.896 302.674 598.286 320.244Z" fill="#2F3653"/>
<path d="M545.282 202.958C541.843 207.671 531.365 212.223 531.365 212.223C530.158 207.564 532.734 205.838 532.734 205.838C535.418 206.075 538.943 199.528 537.79 197.468C536.367 194.901 534.394 195.818 533.079 196.918C531.723 195.861 530.6 194.534 529.782 193.021C528.963 191.508 528.467 189.842 528.325 188.127C528.153 186.11 531.635 180.416 524.962 177.946C518.289 175.476 508.889 177.946 508.889 177.946C508.889 177.946 506.464 171.722 514.279 168.745C531.818 162.036 552.666 173.48 551.502 193.143C551.189 198.471 550.833 204.522 554.52 208.373C556.536 210.465 559.382 211.479 562.066 212.536C565.569 213.895 569.126 215.545 571.584 218.403C574.042 221.262 575.088 225.641 573.137 228.866C572.209 230.408 570.603 231.886 570.981 233.644C571.25 234.433 571.713 235.141 572.328 235.704C576.357 240.027 578.945 245.496 579.734 251.354C580.104 254.27 579.842 257.232 578.964 260.037C578.085 262.843 576.613 265.425 574.646 267.609C569.256 273.271 560.632 274.749 552.903 273.584C546.651 272.635 540.463 270.046 536.216 265.354C529.748 258.203 528.94 247.817 527.139 238.39C527.032 237.226 526.565 236.125 525.803 235.24C523.916 233.471 520.887 234.906 518.311 234.841C513.859 234.744 510.873 229.858 510.765 225.414C510.657 220.97 512.457 216.786 513.363 212.374C514.268 207.963 513.988 202.872 510.614 199.97C509.353 198.892 507.779 198.212 506.421 197.241C500.406 192.927 500.761 182.972 505.893 177.622C511.024 172.272 519.259 170.956 526.557 172.229C532.421 173.308 545.659 176.543 548.375 181.936C551.092 187.329 548.742 198.234 545.282 202.958Z" fill="#FC682D"/>
<path d="M500.643 231.055L472.368 260.177L434.833 240.374C430.197 237.518 424.827 236.082 419.385 236.243C418.825 236.243 418.07 236.567 418.2 237.106C418.329 237.645 418.954 237.689 419.051 238.185C419.148 238.681 418.545 238.983 418.049 239.091L409.08 241.086C407.765 241.388 406.169 242.003 406.094 243.351C406.134 243.8 406.276 244.234 406.509 244.619C406.743 245.004 407.062 245.331 407.441 245.573C413.36 250.502 421.66 251.581 429.335 250.869C430.079 250.761 430.834 250.761 431.577 250.869C432.308 251.051 433.006 251.346 433.647 251.743C436.545 253.35 439.355 255.11 442.066 257.017C449.429 262.194 456.015 268.418 463.485 273.444C464.989 274.632 466.783 275.396 468.681 275.655C470.369 275.629 472.03 275.228 473.543 274.479C484.322 270.165 495.372 265.559 503.575 257.341C504.303 256.685 504.896 255.893 505.321 255.011C505.618 254.117 505.76 253.18 505.742 252.239C505.85 248.291 505.799 244.336 505.591 240.374C505.623 238.571 505.228 236.786 504.437 235.165C504.02 234.364 503.35 233.724 502.531 233.343C501.712 232.963 500.791 232.864 499.91 233.061" fill="#FDBAAC"/>
<path d="M482.76 261.774C481.84 262.478 480.846 263.078 479.795 263.564C477.51 264.524 474.934 264.341 472.454 264.276C468.698 264.18 464.94 264.404 461.222 264.945C460.292 265.01 459.39 265.294 458.591 265.775C458.2 266.026 457.901 266.397 457.738 266.833C457.575 267.268 457.556 267.745 457.686 268.191C457.936 268.676 458.308 269.089 458.764 269.388C461.771 271.815 465.005 274.339 468.843 274.781C473.435 275.385 477.833 272.948 481.779 270.596L490.036 265.84C491.271 265.237 492.349 264.354 493.184 263.262C494.337 261.482 494.607 256.51 491.804 255.992C489.508 255.539 484.538 260.447 482.76 261.774Z" fill="#DEA095"/>
<path d="M504.804 223.775C505.347 223.599 505.907 223.483 506.475 223.43C509.321 223.16 512.555 223.861 515.411 223.991C519.432 224.163 523.464 224.26 527.495 224.131C535.181 223.904 547.793 223.052 554.671 231.465C563.198 241.852 555.846 260.112 549.896 273.811C547.74 278.923 546.597 295.479 547.74 307.581C547.74 307.581 523.809 315.962 502.756 311.594L495.533 284.478C495.134 283.076 493.884 281.587 493.27 280.25C491.602 276.623 490.386 272.805 489.648 268.881C488.785 264.351 487.492 256.812 489.432 252.454C489.723 251.786 490.726 251.268 490.812 250.567C490.93 249.596 489.648 247.978 489.249 247.105C487.935 244.279 486.878 241.34 486.09 238.325C485.914 237.863 485.891 237.356 486.026 236.88C486.214 236.505 486.496 236.185 486.845 235.952C490.003 233.417 493.173 230.883 496.547 228.596C498.843 227.011 501.893 224.659 504.804 223.775Z" fill="white"/>
<path d="M531.462 204.587C529.867 209.667 523.194 218.608 515.562 216.548C516.459 218.173 516.879 220.019 516.772 221.872C516.665 223.725 516.036 225.511 514.958 227.021C514.958 227.021 517.438 233.353 534.189 223.991C534.189 223.991 529.662 223.613 530.891 214.283C531.259 211.085 532.39 208.022 534.189 205.353C533.984 205.552 533.729 205.695 533.451 205.765C533.173 205.836 532.882 205.832 532.606 205.754C532.33 205.677 532.079 205.528 531.878 205.323C531.677 205.119 531.534 204.865 531.462 204.587Z" fill="#FDBAAC"/>
<path d="M530.697 207.143C530.697 207.143 527.021 222.772 520.79 222.114C514.56 221.456 514.959 211.943 514.959 211.943L530.697 207.143Z" fill="#DEA095"/>
<path d="M563.23 237.128C563.66 232.333 562.232 227.557 559.242 223.786C555.749 219.709 550.391 217.875 545.4 215.89C543.244 215.049 541.002 213.96 540.108 211.867C539.515 210.487 539.644 208.912 539.407 207.423C539.17 205.935 538.329 204.317 536.798 204.112C536.334 204.085 535.87 204.15 535.431 204.304C534.993 204.457 534.589 204.697 534.243 205.007C531.074 207.445 530.061 211.921 530.783 215.858C531.505 219.795 533.672 223.279 535.914 226.579C538.156 229.88 540.528 233.18 541.8 236.966C542.759 239.846 543.04 242.909 543.74 245.864C545.293 252.336 550.736 256.219 557.129 252.53C561.538 249.974 562.917 241.669 563.23 237.128Z" fill="#FC682D"/>
<path d="M514.226 168.767C514.226 168.767 504.071 169.36 501.053 184.083C498.034 198.805 512.706 198.557 512.706 198.557L521.62 173.016L514.226 168.767Z" fill="#FC682D"/>
<path d="M520.995 217.303C511.8 218.069 506.216 209.484 505.181 198.266C505.073 197.037 505.03 195.785 505.03 194.502C505.013 190.845 505.433 187.198 506.281 183.641C510.302 166.383 534.804 173.318 534.804 173.318C554.003 181.936 536.971 215.977 520.995 217.303Z" fill="#FDBAAC"/>
<path d="M514.419 172.93C516.813 181.246 520.014 193.067 528.131 197.63C529.058 198.148 530.772 199.021 531.883 198.795C532.993 198.568 532.961 197.554 533.974 196.638C534.289 196.324 534.693 196.115 535.131 196.039C535.569 195.964 536.019 196.026 536.421 196.217C536.752 196.467 537.016 196.794 537.191 197.17C537.366 197.547 537.445 197.96 537.423 198.374C537.427 199.394 537.166 200.398 536.668 201.288C536.169 202.178 535.449 202.925 534.578 203.454C533.774 203.822 533.005 204.263 532.281 204.77C531.474 205.567 530.99 206.636 530.923 207.769C530.784 209.294 531.084 210.827 531.787 212.188C532.489 213.548 533.566 214.679 534.89 215.448C535.055 215.552 535.245 215.612 535.44 215.621C535.675 215.573 535.888 215.447 536.044 215.265L539.676 211.943C541.407 210.473 542.965 208.812 544.322 206.992C545.99 204.522 546.891 201.614 546.91 198.633C546.91 197.285 546.371 195.926 546.392 194.631C546.619 192.925 547.073 191.257 547.74 189.67C548.553 187.609 548.97 185.414 548.968 183.198C548.677 178.884 545.088 175.454 541.218 173.491C535.095 170.46 528.023 170.115 521.189 170.04C519.826 169.952 518.46 170.136 517.168 170.579C515.993 171.237 515.508 172.531 514.419 172.93Z" fill="#FC682D"/>
<path d="M530.697 277.704L537.714 293.128C537.714 293.128 552.806 274.296 558.552 253.965C563.575 235.995 554.671 231.476 554.671 231.476C547.858 228.974 543.234 238.692 536.539 258.322C532.853 269.076 530.697 277.704 530.697 277.704Z" fill="#FDBAAC"/>
<path d="M537.714 293.096C537.714 293.096 537.984 280.552 531.872 278.06C525.76 275.569 482.921 268.849 482.921 268.849L478.9 273.487C478.9 273.487 520.963 297.755 537.714 293.096Z" fill="#FDBAAC"/>
<path d="M468.293 326.241L468.81 325.702C466.73 328.042 465.339 329.725 464.908 330.242C465.965 328.847 467.093 327.514 468.293 326.241Z" fill="#DC9ED5"/>
<path d="M550.294 328.7C549.044 336.002 544.064 342.28 537.995 346.54C531.926 350.8 524.833 353.303 517.729 355.46C513.535 356.743 510.927 362.126 507.143 364.358C505.765 365.035 504.571 366.034 503.661 367.27C502.281 369.503 502.971 372.394 503.661 374.918C506.874 386.085 510.108 397.248 513.363 408.408C514.969 413.952 516.597 419.83 515.066 425.406C513.535 430.983 507.671 435.782 502.206 433.938C491.52 416.681 480.833 399.423 470.147 382.166C470.147 382.166 464.876 361.327 475.936 343.606C480.711 335.97 518.117 304.453 518.117 304.453C527.678 303.062 537.402 302.415 546.64 301.886C547.729 310.882 551.847 319.769 550.294 328.7Z" fill="#676869"/>
<path d="M518.149 304.421C518.149 304.421 479.978 335.506 475.968 343.574C464.768 366.084 470.179 382.133 470.179 382.133C460.837 397.169 451.495 412.204 442.152 427.24C435.684 427.38 426.964 425.622 426.64 419.129C426.679 417.3 427.113 415.5 427.912 413.855C434.955 396.302 441.994 378.757 449.03 361.22C453.201 350.779 457.524 340.122 464.208 331.17L464.8 330.393V330.329L464.887 330.221C465.318 329.703 466.708 328.064 468.789 325.68V325.615C474.858 318.831 486.705 306.686 497.657 301.886C497.657 301.886 510.366 305.392 518.031 304.453L518.149 304.421Z" fill="#676869"/>
<path d="M518.149 304.421C518.149 304.421 479.978 335.506 475.968 343.574C464.768 366.084 470.179 382.133 470.179 382.133C460.837 397.169 451.495 412.204 442.152 427.24C435.684 427.38 426.964 425.622 426.64 419.129C426.679 417.3 427.113 415.5 427.912 413.855C434.955 396.302 441.994 378.757 449.03 361.22C453.201 350.779 457.524 340.122 464.208 331.17L464.8 330.393V330.329L464.887 330.221C465.318 329.703 466.708 328.064 468.789 325.68V325.615C474.858 318.831 486.705 306.686 497.657 301.886C497.657 301.886 510.366 305.392 518.031 304.453L518.149 304.421Z" fill="url(#paint4_linear)"/>
<path d="M498.552 443.807C496.051 446.115 492.72 448.423 492.838 451.832C492.826 452.169 492.921 452.501 493.108 452.781C493.455 453.125 493.924 453.318 494.412 453.32C502.109 454.172 509.267 449.48 515.249 444.551C516.758 443.311 518.332 441.887 518.688 439.967C519.044 438.047 518.03 436.117 517.157 434.348C515.74 431.473 514.582 428.477 513.697 425.396C513.967 426.312 510.097 429.57 509.439 430.141C508.059 431.349 506.022 432.223 504.944 433.69C503.866 435.157 503.64 436.926 502.788 438.382C501.667 440.4 500.237 442.23 498.552 443.807Z" fill="#EB9D80"/>
<path d="M419.105 429.376C416.399 430.335 413.263 430.853 411.559 433.151C411.226 433.559 411.027 434.06 410.988 434.585C410.988 436.009 412.637 436.742 414.028 437.066C419.579 438.198 425.314 437.4 430.92 436.591C431.798 436.606 432.65 436.289 433.306 435.703C433.961 435.118 434.372 434.306 434.456 433.431L436.665 426.614C436.759 426.416 436.785 426.193 436.741 425.978C436.647 425.769 436.488 425.595 436.288 425.482C434.772 424.421 433.159 423.507 431.47 422.753C429.195 421.674 429.044 421.771 427.524 423.573C425.27 426.207 422.368 428.207 419.105 429.376Z" fill="#EB9D80"/>
<path d="M478.329 267.997C473.899 267.296 468.918 266.724 465.339 269.41C463.639 270.872 462.247 272.657 461.243 274.663C460.543 275.86 459.831 277.294 460.402 278.546C460.974 279.797 462.375 280.185 463.636 280.498C467.722 281.49 472.12 282.418 476.033 280.886C478.922 279.808 481.261 277.359 484.29 276.636C484.803 276.566 485.297 276.398 485.746 276.14C486.159 275.796 486.451 275.327 486.576 274.803C488.397 268.72 482.382 268.569 478.329 267.997Z" fill="#FDBAAC"/>
<path d="M430.866 441.768C430.711 442.085 430.472 442.354 430.176 442.545C429.729 442.702 429.242 442.702 428.796 442.545C426.295 442.208 423.768 442.121 421.25 442.286C416.088 442.205 410.938 441.736 405.846 440.884C403.625 440.56 401.157 440.097 399.874 438.263C399.708 438.055 399.603 437.805 399.572 437.54C399.586 437.14 399.743 436.757 400.014 436.462C402.248 433.786 405.181 431.784 408.487 430.681C409.71 430.162 411.018 429.876 412.346 429.839C413.01 429.827 413.67 429.96 414.277 430.23C414.884 430.501 415.425 430.901 415.86 431.403C416.777 432.568 416.938 434.24 417.941 435.286C418.943 436.332 420.668 436.462 422.177 436.365C423.929 436.302 425.673 436.103 427.395 435.771C428.699 435.523 430.628 434.628 431.922 434.963C434.951 435.793 431.717 440.248 430.866 441.768Z" fill="#676869"/>
<path d="M520.618 443.915C520.678 444.313 520.626 444.72 520.467 445.09C520.145 445.528 519.686 445.843 519.162 445.986C516.557 447.256 514.09 448.792 511.8 450.57C506.884 453.76 501.734 456.576 496.396 458.993C494.089 460.072 491.448 461.226 489.065 460.309C488.778 460.218 488.521 460.05 488.322 459.824C488.083 459.437 487.992 458.978 488.063 458.53C488.465 454.576 489.958 450.811 492.375 447.658C493.207 446.391 494.272 445.293 495.512 444.422C496.132 443.988 496.839 443.696 497.584 443.566C498.329 443.435 499.093 443.47 499.824 443.667C501.43 444.184 502.615 445.684 504.265 446.018C505.914 446.352 507.607 445.403 508.997 444.389C510.618 443.21 512.146 441.908 513.568 440.496C514.646 439.417 515.885 437.368 517.341 436.85C520.682 435.653 520.499 441.909 520.618 443.915Z" fill="#676869"/>
<path d="M561.279 237.592C562.339 240.886 563.062 244.279 563.435 247.72L564.093 252.357C564.326 253.319 564.273 254.327 563.942 255.259C563.176 256.888 560.082 256.219 558.552 256.467C555.814 256.909 553.086 257.341 550.348 257.761C544.872 258.603 539.396 259.408 533.92 260.177C533.631 257.394 533.7 254.584 534.125 251.818C534.632 249.186 535.763 246.716 536.41 244.117C536.938 241.96 537.132 239.803 537.682 237.646C538.84 233.213 541.48 229.311 545.163 226.59C550.931 222.373 559.393 232.587 561.161 237.182L561.279 237.592Z" fill="white"/>
<path d="M598.286 320.244C591.128 336.757 575.023 348.147 557.765 353.26C544.312 357.24 530.137 357.854 516.037 357.045C516.037 356.085 516.597 355.503 517.772 355.449C531.279 354.77 536.874 337.005 540.927 327.967C544.98 318.928 547.751 307.57 574.129 297.097C599.827 286.916 596.691 267.76 597.973 271.621C604.042 289.785 605.896 302.674 598.286 320.244Z" fill="#2F3653"/>
<path d="M600.129 320.999C592.971 337.501 576.866 348.891 559.608 354.014C546.155 357.984 528.088 358.663 513.988 357.843C513.988 356.894 516.597 355.503 517.772 355.449C531.279 354.769 537.175 333.672 541.229 324.634C545.282 315.595 549.001 310.288 574.128 297.097C611.674 277.402 584.509 250.61 584.035 248.895C593.036 251.797 598.049 270.1 599.321 273.962C605.39 292.125 607.74 303.418 600.129 320.999Z" fill="white"/>
<path opacity="0.23" d="M549.13 351.124C537.714 354.036 525.63 354.144 514.516 358.081C518.041 356.829 525.425 358.771 529.349 358.652C534.741 358.488 540.114 357.922 545.422 356.959C554.811 355.255 567.251 352.645 574.991 346.853C569.946 342.56 554.714 349.7 549.13 351.124Z" fill="#676869"/>
<path d="M555.975 451.875C555.801 451.984 555.612 452.067 555.415 452.123C555.063 452.218 554.696 452.236 554.337 452.177C550.337 451.681 530.708 358.156 530.708 358.156L533.392 356.592C533.586 356.484 533.812 356.366 534.006 356.279C534.69 355.991 535.424 355.843 536.166 355.846C536.908 355.848 537.642 356.001 538.323 356.294C539.005 356.587 539.62 357.015 540.132 357.552C540.644 358.088 541.043 358.723 541.304 359.418V359.526C541.416 359.808 541.499 360.101 541.552 360.4L556.989 446.05C556.989 446.05 557.905 450.559 555.975 451.875Z" fill="#676869"/>
<path d="M556.417 444.174C556.417 444.174 556.256 449.567 555.975 451.875C555.803 452.953 555.641 453.385 555.415 452.123C553.485 440.809 537.456 371.358 533.995 356.301C534.679 356.012 535.414 355.865 536.155 355.867C536.897 355.87 537.631 356.022 538.312 356.315C538.994 356.609 539.609 357.036 540.121 357.573C540.634 358.11 541.032 358.745 541.293 359.44V359.548L556.417 444.174Z" fill="url(#paint5_linear)"/>
<path d="M142.573 343.401C142.573 343.401 112.637 440.194 115.871 442.567C119.105 444.94 121.175 438.49 121.175 438.49L151.444 348.535L142.573 343.401Z" fill="#676869"/>
<path d="M207.035 354.575L207.316 355.276L241.487 442.998C242.004 444.353 242.785 445.592 243.783 446.644C243.978 446.877 244.217 447.069 244.488 447.206C244.759 447.343 245.055 447.423 245.358 447.442C245.662 447.46 245.965 447.416 246.25 447.312C246.536 447.208 246.797 447.047 247.017 446.838C250.144 444.314 218.041 354.327 218.041 354.327L207.035 354.575Z" fill="#676869"/>
<path d="M181.52 348.136C181.52 348.136 182.598 449.459 186.392 450.721C190.187 451.983 190.251 445.209 190.251 445.209L191.545 350.293L181.52 348.136Z" fill="#676869"/>
<path d="M147.93 344.577C147.93 344.577 115.289 438.414 118.555 440.744C121.822 443.074 121.153 438.479 121.153 438.479L151.444 348.535L147.93 344.577Z" fill="url(#paint6_linear)"/>
<path d="M207.316 355.276L241.488 442.998C242.005 444.353 242.785 445.592 243.784 446.644C243.676 436.591 214.581 355.115 214.581 355.115L207.316 355.276Z" fill="url(#paint7_linear)"/>
<path d="M181.52 348.136C181.52 348.136 182.598 449.459 186.392 450.721C190.187 451.983 187.847 443.084 187.847 443.084L186.5 349.247L181.52 348.136Z" fill="url(#paint8_linear)"/>
<path d="M115.138 320.244C122.296 336.757 138.401 348.147 155.659 353.259C169.112 357.239 183.288 357.854 197.388 357.045C201.333 356.837 205.268 356.535 209.191 356.139C216.09 355.449 223.087 354.554 229.544 352.03C236.001 349.506 242.016 345.149 245.293 338.99C247.294 334.937 248.397 330.5 248.527 325.982C249.206 314.398 245.541 302.08 236.669 294.703C229.705 288.879 220.618 286.613 213.396 281.21C205.311 275.137 197.01 269.712 188.451 264.254C179.892 258.797 171.204 253.285 161.631 249.812C152.059 246.339 141.387 245.034 131.707 248.108C128.354 249.186 123.191 251.786 118.135 264.168C110.859 281.868 107.528 302.674 115.138 320.244Z" fill="#2F3653"/>
<path d="M140.783 260.123C142.073 262.89 143.078 265.781 143.78 268.752C144.427 272.376 145.537 275.935 146.173 279.592C147.453 286.924 148.063 294.357 147.995 301.8C147.995 304.745 147.995 308.067 150.097 310.105C151.52 311.475 153.557 311.917 155.487 312.262C159.292 313.028 162.731 314.538 166.536 315.185C170.683 315.787 174.873 316.04 179.062 315.94C191.416 315.94 214.398 314.56 213.633 297.324C212.895 277.864 211.183 258.454 208.501 239.166C207.574 232.63 207.423 225.091 205.408 218.803C203.748 213.507 197.582 213.464 192.472 214.003L191.502 214.111C190.51 214.208 189.518 214.337 188.559 214.456C181.756 215.164 174.91 215.366 168.077 215.06C160.391 214.823 148.081 214.057 140.524 221.305C139.999 221.802 139.506 222.331 139.048 222.89C131.534 232.069 135.566 246.965 140.783 260.123Z" fill="white"/>
<path opacity="0.43" d="M169.436 258.214C170.093 266.843 167.646 276.043 172.174 283.259C172.381 283.665 172.709 283.996 173.112 284.208C173.762 284.336 174.435 284.26 175.041 283.993C175.739 283.853 176.458 283.863 177.151 284.023C177.845 284.182 178.496 284.487 179.063 284.918C179.629 285.348 180.098 285.894 180.438 286.519C180.778 287.144 180.981 287.834 181.035 288.544C182.109 287.734 182.998 286.704 183.643 285.523C184.288 284.342 184.674 283.037 184.775 281.695C184.872 280.196 184.775 278.373 186.026 277.553C187.643 276.475 189.734 278.384 190.079 280.282C190.424 282.181 189.885 284.187 190.424 286.042C191.114 288.469 193.539 290.054 195.997 290.572C198.499 290.941 201.041 290.941 203.543 290.572C205.359 290.3 207.214 290.497 208.933 291.144C210.593 291.931 211.876 293.818 211.369 295.587C210.765 297.691 208.221 298.424 206.065 298.823L176.464 304.346L161.233 307.193C157.902 307.808 152.016 310.752 151.908 305.823C151.752 298.45 150.599 291.132 148.48 284.068C147.628 281.221 147.531 278.308 146.701 275.547C145.688 272.193 143.823 268.979 142.681 265.624C140.378 258.88 138.827 251.903 138.056 244.818C137.517 239.835 137.862 233.827 142.131 231.228C145.214 229.362 149.364 230.149 152.264 232.307C155.8 234.928 157.427 239.048 160.694 241.809C164.488 245.045 167.442 248.69 168.714 253.619C169.086 255.127 169.328 256.665 169.436 258.214Z" fill="#D9DBE2"/>
<path d="M184.527 227.464C184.283 227.789 184.097 228.154 183.978 228.542C183.953 228.967 184.039 229.39 184.226 229.772C188.387 240.213 190.995 251.193 193.582 262.129C195.868 271.75 198.164 281.447 198.638 291.327C198.709 292.05 198.654 292.78 198.476 293.484C197.722 295.922 194.542 296.72 193.151 298.823L188.527 293.538C188.224 293.226 187.983 292.86 187.815 292.459C187.675 291.9 187.675 291.315 187.815 290.755C189.378 280.196 187.643 269.421 185.174 259.023C183.018 250.092 180.356 241.151 180.517 231.972C180.517 230.894 180.517 229.578 179.687 228.855C179.216 228.536 178.7 228.289 178.157 228.122C177.539 227.819 176.988 227.396 176.536 226.878C176.084 226.36 175.739 225.758 175.523 225.105C175.306 224.452 175.221 223.763 175.274 223.077C175.326 222.391 175.515 221.723 175.828 221.111C176.81 221.093 177.773 220.846 178.642 220.388C179.52 219.931 180.531 219.798 181.498 220.011C183.633 220.744 185.746 225.457 184.527 227.464Z" fill="#676869"/>
<path d="M140.535 221.326C148.081 214.078 160.402 214.855 168.088 215.081C174.921 215.387 181.767 215.186 188.57 214.477C189.529 214.359 190.521 214.229 191.512 214.132C187.449 212.471 181.681 213.582 177.348 213.722C170.779 213.938 164.215 214.337 157.653 214.92C151.444 215.491 144.567 216.559 140.535 221.326Z" fill="white"/>
<path d="M163.841 194.211C165.566 199.604 172.53 204.802 180.679 202.559C180.679 202.559 177.445 212.266 181.488 218.188C181.488 218.188 178.847 224.95 160.931 214.952C160.931 214.952 165.771 214.553 164.456 204.608C164.067 201.189 162.858 197.914 160.931 195.063C161.152 195.277 161.427 195.428 161.725 195.502C162.024 195.575 162.338 195.568 162.633 195.482C162.929 195.395 163.196 195.232 163.408 195.009C163.62 194.786 163.77 194.51 163.841 194.211Z" fill="#98646A"/>
<path d="M172.627 206.755C182.07 209.537 189.767 201.75 193.27 190.231C193.647 188.98 193.971 187.664 194.24 186.326C195.053 182.502 195.414 178.596 195.318 174.688C194.768 155.824 167.614 157.744 167.614 157.744C145.688 162.63 156.188 201.923 172.627 206.755Z" fill="#98646A"/>
<path d="M231.354 324.191L230.794 323.609C233.015 326.111 234.513 327.923 234.966 328.463C233.845 326.996 232.627 325.561 231.354 324.191Z" fill="#DC9ED5"/>
<path d="M150.485 159.06C152.12 155.647 154.848 152.879 158.236 151.197C161.34 149.557 165.868 149.881 168.412 147.324C169.781 145.955 170.05 143.873 170.837 142.104C171.644 140.324 172.995 138.847 174.696 137.887C175.806 137.255 177.045 136.886 178.318 136.808C182.253 136.625 185.799 139.666 187.319 143.28C188.397 141.5 190.629 140.81 192.709 140.853C197.495 140.95 201.883 144.337 203.856 148.705C204.665 150.413 205.036 152.297 204.934 154.184C204.825 156.088 204.001 157.879 202.627 159.2C202.338 159.503 201.96 159.707 201.549 159.782C201.348 159.817 201.142 159.78 200.967 159.677C200.791 159.574 200.657 159.413 200.589 159.221C199.231 162.084 197.541 164.778 195.555 167.246C194.886 168.166 194.002 168.907 192.979 169.403C191.962 169.766 190.862 169.83 189.81 169.587C188.366 169.319 186.984 168.785 185.735 168.012C185.514 167.832 185.231 167.747 184.948 167.775C184.668 167.85 184.517 168.13 184.377 168.389C183.99 169.147 183.45 169.817 182.791 170.355C182.133 170.894 181.369 171.289 180.55 171.517C179.114 171.711 177.655 171.657 176.238 171.355C174.294 171.113 172.328 171.113 170.384 171.355C169.197 171.458 168.047 171.826 167.021 172.434C166.399 172.901 165.893 173.507 165.545 174.203C165.197 174.9 165.016 175.668 165.016 176.446C165.016 177.061 165.62 182.131 164.876 182.249C163.679 182.454 163.442 180.47 162.397 179.855C161.351 179.24 160.338 180.038 159.799 180.933C159.357 181.709 159.166 182.603 159.253 183.491C159.34 184.38 159.7 185.22 160.284 185.895C160.646 186.204 160.927 186.596 161.103 187.038C161.165 187.485 161.089 187.94 160.888 188.343L159.044 192.981C156.575 187.146 153.615 181.531 150.194 176.198C148.739 174.041 147.046 171.636 147.693 169.144C148.34 166.653 151.035 164.83 150.474 162.403C150.367 161.939 150.14 161.508 150.075 161.033C150.024 160.35 150.166 159.666 150.485 159.06Z" fill="#2C2C2C"/>
<path d="M166.051 302.242C166.051 302.242 177.553 330.965 186.78 333.974C196.008 336.984 253.291 354.284 253.291 354.284L277.643 436.839L283.938 432.978C286.32 431.511 292.012 429.397 293.457 427.013C295.375 423.875 292.486 415.634 291.937 412.064L289.447 395.885C286.098 374.011 282.738 352.134 279.368 330.253C279.369 329.171 279.037 328.114 278.415 327.228C277.794 326.342 276.914 325.669 275.896 325.302C264.628 319.264 253.053 313.817 241.218 308.983C235.419 306.61 229.565 304.41 223.669 302.318C222.504 301.908 213.87 297.184 213.633 297.367C213.557 297.399 207.434 302.005 166.051 302.242Z" fill="#2F3653"/>
<path d="M270.808 439.87C268.156 434.003 267.93 427.391 267.154 421.006C266.583 416.195 265.666 411.439 264.75 406.682L252.224 341.233C252.173 339.84 251.691 338.498 250.842 337.392C249.994 336.287 248.823 335.473 247.492 335.064C227.377 325.238 207.607 314.926 187.664 304.712C187.664 304.712 166.105 296.882 150.097 307.819C150.097 307.819 147.941 334.017 157.168 337.027C177.556 343.678 198.106 349.754 218.818 355.255C219.791 355.452 220.71 355.857 221.513 356.441C222.418 357.346 223.047 358.491 223.324 359.742C230.869 382.727 238.415 405.722 245.303 428.89C246.123 431.623 246.931 434.351 247.729 437.077C248.343 439.158 248.807 444.627 250.327 446.072C252.343 448.111 255.005 446.072 257.7 444.994L272.404 439.061L224.843 323.782L217.923 320.222" fill="#4C516C"/>
<path d="M303.934 428.782C306.371 428.84 308.8 429.081 311.2 429.505C313.444 429.752 315.575 430.619 317.355 432.007C318.364 432.89 319.037 434.094 319.263 435.416C319.362 436.074 319.312 436.747 319.116 437.384C318.92 438.02 318.583 438.605 318.131 439.094C317.265 439.84 316.246 440.388 315.145 440.701C312.58 441.607 310.011 442.502 307.438 443.386C301.929 445.285 296.335 447.205 290.514 447.517C290.169 447.565 289.817 447.528 289.49 447.41C289.238 447.282 289.012 447.111 288.821 446.903C285.329 443.483 282.03 439.471 281.189 434.65C281.146 434.487 281.146 434.316 281.189 434.154C281.283 433.974 281.425 433.825 281.599 433.722C285.113 431.343 288.975 429.524 293.047 428.329C296.734 427.261 300.205 428.707 303.934 428.782Z" fill="#2F3653"/>
<path d="M276.069 439.849C278.505 439.906 280.934 440.148 283.334 440.571C285.578 440.819 287.709 441.685 289.49 443.074C290.498 443.957 291.172 445.16 291.398 446.482C291.497 447.141 291.446 447.813 291.25 448.45C291.054 449.087 290.718 449.671 290.266 450.16C289.399 450.906 288.38 451.455 287.28 451.767C284.714 452.673 282.145 453.568 279.572 454.453C274.064 456.351 268.469 458.271 262.648 458.584C262.285 458.64 261.914 458.603 261.57 458.476C261.319 458.349 261.092 458.177 260.902 457.969C257.409 454.55 254.111 450.537 253.27 445.716C253.227 445.554 253.227 445.383 253.27 445.22C253.363 445.041 253.505 444.891 253.679 444.789C257.194 442.41 261.056 440.59 265.127 439.396C268.868 438.328 272.285 439.762 276.069 439.849Z" fill="#2F3653"/>
<path d="M115.138 320.244C122.296 336.757 138.401 348.147 155.659 353.26C169.112 357.24 183.288 357.854 197.387 357.045C197.387 356.085 196.827 355.503 195.652 355.449C182.145 354.77 176.55 337.005 172.497 327.967C168.444 318.928 165.673 307.57 139.295 297.097C113.597 286.916 116.733 267.76 115.451 271.621C109.403 289.785 107.528 302.674 115.138 320.244Z" fill="#2F3653"/>
<path d="M113.295 320.999C120.453 337.501 136.558 348.891 153.816 354.014C167.269 357.984 185.336 358.663 199.436 357.843C199.436 356.894 196.827 355.503 195.652 355.449C182.145 354.769 176.249 333.672 172.195 324.634C168.142 315.595 164.38 310.288 139.296 297.119C101.75 277.424 128.915 250.632 129.389 248.917C120.388 251.818 115.375 270.122 114.103 273.983C108.034 292.125 105.684 303.418 113.295 320.999Z" fill="white"/>
<path opacity="0.23" d="M164.294 351.124C175.709 354.036 187.793 354.144 198.907 358.081C195.382 356.829 187.998 358.771 184.074 358.652C178.686 358.488 173.317 357.922 168.013 356.959C158.613 355.255 146.184 352.645 138.433 346.853C143.478 342.56 158.71 349.7 164.294 351.124Z" fill="#676869"/>
<path d="M157.449 451.875C157.623 451.984 157.812 452.067 158.009 452.123C158.361 452.217 158.728 452.236 159.087 452.177C163.087 451.681 182.716 358.156 182.716 358.156L180.032 356.592C179.838 356.484 179.612 356.366 179.418 356.279C178.734 355.991 178 355.843 177.258 355.846C176.516 355.848 175.782 356.001 175.101 356.294C174.419 356.587 173.804 357.015 173.292 357.552C172.78 358.088 172.381 358.723 172.12 359.418V359.526C172 359.806 171.913 360.099 171.861 360.4L156.425 446.05C156.425 446.05 155.519 450.559 157.449 451.875Z" fill="#676869"/>
<path d="M157.007 444.174C157.007 444.174 157.169 449.567 157.449 451.875C157.621 452.953 157.783 453.385 158.009 452.123C159.939 440.809 175.968 371.358 179.429 356.301C178.745 356.012 178.011 355.865 177.269 355.867C176.527 355.87 175.793 356.022 175.112 356.315C174.43 356.609 173.815 357.036 173.303 357.573C172.79 358.11 172.392 358.745 172.131 359.44V359.548L157.007 444.174Z" fill="url(#paint9_linear)"/>
<path d="M178.976 312.597C178.738 314.008 177.995 315.285 176.885 316.188C175.689 317.177 174.253 317.832 172.724 318.087C169.802 318.55 166.816 317.742 163.992 316.857C154.947 314.052 146.152 310.494 137.7 306.222C134.919 304.82 132.062 303.245 130.392 300.614C128.548 297.658 128.527 293.937 128.624 290.464C129.041 275.918 130.298 261.409 132.386 247.008C133.291 240.633 133.216 230.764 137.032 224.681C137.966 223.083 139.292 221.75 140.883 220.806C142.475 219.863 144.281 219.34 146.13 219.288C152.188 218.921 157.201 224.681 158.311 230.635C159.421 236.588 157.697 242.693 156.155 248.561C153.999 257.017 152.124 265.592 150.765 274.22C150.129 278.06 149.633 282.224 151.477 285.664C152.348 287.15 153.438 288.495 154.711 289.655C159.837 294.651 165.486 299.081 171.559 302.868C175.235 305.187 179.612 308.315 178.976 312.597Z" fill="white"/>
<path d="M264.373 262.194C264.077 263.71 263.453 265.143 262.544 266.391C261.635 267.64 260.464 268.674 259.112 269.421C256.408 270.895 253.502 271.967 250.488 272.603L238.113 275.838C231.646 277.543 223.852 278.891 219.055 274.22C218.199 273.433 217.554 272.445 217.178 271.345C216.801 270.245 216.705 269.068 216.899 267.922C217.033 267.34 217.286 266.793 217.643 266.314C218.554 265.31 219.653 264.493 220.877 263.909C224.445 261.794 227.55 258.98 230.007 255.636C222.677 252.897 215.045 250.103 208.911 245.347C207.769 244.488 206.688 243.551 205.677 242.542C201.167 237.999 198.106 232.218 196.881 225.932C196.342 223.3 195.426 218.9 196.385 216.289C197.689 212.719 200.147 214.37 203.64 215.373C216.996 219.212 229.349 226.062 240.388 234.399C246.751 239.269 252.77 244.574 258.401 250.276C261.646 253.522 265.009 257.61 264.373 262.194Z" fill="white"/>
<path opacity="0.38" d="M234.955 259.724C230.643 262.712 226.202 265.592 221.717 268.353C220.413 269.162 218.602 269.949 217.492 268.871C217.185 268.586 216.983 268.206 216.92 267.792C217.055 267.211 217.308 266.663 217.664 266.185C218.576 265.181 219.674 264.364 220.898 263.78C224.466 261.664 227.572 258.851 230.029 255.507C222.677 252.897 215.045 250.103 208.911 245.347C208.911 245.055 208.911 244.764 208.911 244.441C208.911 243.362 208.685 235.51 208.07 235.132L235.623 252.196C236.694 252.7 237.555 253.562 238.06 254.633C238.76 256.629 236.755 258.495 234.955 259.724Z" fill="#D9DBE2"/>
<path d="M208.254 275.774C207.464 277.792 207.044 279.937 207.014 282.105C206.7 285.052 207.173 288.029 208.383 290.734C209.741 293.355 212.555 295.393 215.487 295.048C216.489 294.899 217.447 294.533 218.293 293.974C219.138 293.415 219.851 292.677 220.381 291.812C221.434 290.071 221.996 288.077 222.008 286.042C223.356 285.697 224.1 284.251 224.434 282.892C224.613 281.51 225.044 280.171 225.706 278.945C226.525 277.79 227.937 277.143 228.627 275.903C228.911 275.316 229.049 274.669 229.028 274.017C229.008 273.365 228.829 272.728 228.509 272.16C226.741 268.741 221.211 265.786 217.589 267.371C213.967 268.957 209.935 271.923 208.254 275.774Z" fill="#98646A"/>
<path d="M173.5 315.832C175.775 319.219 180.582 319.672 184.614 319.068C188.728 318.474 192.705 317.159 196.364 315.185C197.335 314.781 198.131 314.043 198.606 313.104C198.811 312.443 198.811 311.736 198.606 311.076C198.274 309.974 197.721 308.952 196.979 308.073C196.237 307.194 195.324 306.476 194.294 305.963C192.228 304.951 190.034 304.225 187.772 303.806C184.118 302.976 180.227 302.145 176.702 303.375C173.177 304.604 172.519 304.453 172.131 307.991C171.926 310.558 172.023 313.665 173.5 315.832Z" fill="#98646A"/>
<path d="M162.45 210.443L169.77 214.24C172.351 215.442 174.77 216.964 176.971 218.77C175.637 221.736 174.768 224.89 174.394 228.122C172.469 225.721 170.232 223.588 167.743 221.779C165.426 220.248 162.731 219.299 160.564 217.541C158.009 215.47 161.146 212.558 162.45 210.443Z" fill="white"/>
<path d="M185.412 217.649L188.829 222.2C189.061 222.461 189.224 222.776 189.303 223.117C186.672 221.883 183.898 220.977 181.046 220.42C180.889 220.415 180.736 220.375 180.596 220.305C180.457 220.234 180.334 220.134 180.237 220.011C180.137 219.783 180.117 219.528 180.183 219.288C180.397 217.578 180.109 215.843 179.353 214.294C179.043 213.811 178.841 213.266 178.76 212.698C178.62 210.174 181.304 212.827 181.93 213.442C183.192 214.757 184.356 216.163 185.412 217.649Z" fill="white"/>
<path opacity="0.41" d="M404.208 220.42V230.128C404.209 232.164 403.809 234.181 403.032 236.062C402.254 237.944 401.113 239.654 399.674 241.094C398.236 242.535 396.528 243.677 394.648 244.457C392.767 245.237 390.752 245.638 388.717 245.638H257.442C253.334 245.624 249.4 243.979 246.504 241.065C243.608 238.15 241.986 234.205 241.994 230.095V220.388L404.208 220.42Z" fill="#676869"/>
<path opacity="0.43" d="M176.885 316.188C175.689 317.177 174.253 317.832 172.724 318.087C169.802 318.55 166.816 317.742 163.992 316.857C154.947 314.052 146.152 310.494 137.7 306.222C134.919 304.82 132.062 303.245 130.392 300.614C128.548 297.658 128.527 293.937 128.624 290.464C129.041 275.918 130.298 261.409 132.386 247.008C133.291 240.633 133.216 230.764 137.032 224.681C138.156 225.006 139.257 225.402 140.33 225.867C141.794 226.359 143.05 227.327 143.899 228.618C144.826 230.322 144.438 232.436 143.996 234.356C139.978 252.681 137.208 271.257 135.706 289.957C135.506 290.83 135.577 291.743 135.911 292.574C136.244 293.405 136.823 294.114 137.571 294.606C141.242 297.925 145.159 300.961 149.288 303.688C155.756 308.002 163.604 312.942 171.301 314.366C173.489 314.786 175.278 314.808 176.885 316.188Z" fill="#D9DBE2"/>
<path d="M518.462 64.8987H395.303C381.569 64.8987 370.435 76.0392 370.435 89.7817V100.179C370.435 113.922 381.569 125.062 395.303 125.062H518.462C532.196 125.062 543.331 113.922 543.331 100.179V89.7817C543.331 76.0392 532.196 64.8987 518.462 64.8987Z" fill="white"/>
<path d="M475.785 144.93L460.197 122.787H475.785V144.93Z" fill="white"/>
</g>
<defs>
<linearGradient id="paint0_linear" x1="319.996" y1="213.41" x2="319.306" y2="308.347" gradientUnits="userSpaceOnUse">
<stop offset="0.01"/>
<stop offset="0.08" stop-opacity="0.69"/>
<stop offset="0.21" stop-opacity="0.32"/>
<stop offset="1" stop-opacity="0"/>
</linearGradient>
<linearGradient id="paint1_linear" x1="18319.6" y1="40033.6" x2="19334.7" y2="40033.6" gradientUnits="userSpaceOnUse">
<stop offset="0.01"/>
<stop offset="0.08" stop-opacity="0.69"/>
<stop offset="0.21" stop-opacity="0.32"/>
<stop offset="1" stop-opacity="0"/>
</linearGradient>
<linearGradient id="paint2_linear" x1="17534.4" y1="33659.8" x2="17644.6" y2="48468.5" gradientUnits="userSpaceOnUse">
<stop offset="0.01"/>
<stop offset="0.08" stop-opacity="0.69"/>
<stop offset="0.21" stop-opacity="0.32"/>
<stop offset="1" stop-opacity="0"/>
</linearGradient>
<linearGradient id="paint3_linear" x1="4321.65" y1="42483.8" x2="3410.43" y2="42495" gradientUnits="userSpaceOnUse">
<stop offset="0.01"/>
<stop offset="0.08" stop-opacity="0.69"/>
<stop offset="0.21" stop-opacity="0.32"/>
<stop offset="1" stop-opacity="0"/>
</linearGradient>
<linearGradient id="paint4_linear" x1="-347735" y1="48973.4" x2="-376992" y2="48026.7" gradientUnits="userSpaceOnUse">
<stop offset="0.01"/>
<stop offset="0.08" stop-opacity="0.69"/>
<stop offset="0.21" stop-opacity="0.32"/>
<stop offset="1" stop-opacity="0"/>
</linearGradient>
<linearGradient id="paint5_linear" x1="13019.4" y1="39068.8" x2="10499.2" y2="39420.1" gradientUnits="userSpaceOnUse">
<stop offset="0.01"/>
<stop offset="0.08" stop-opacity="0.69"/>
<stop offset="0.21" stop-opacity="0.32"/>
<stop offset="1" stop-opacity="0"/>
</linearGradient>
<linearGradient id="paint6_linear" x1="-126339" y1="40033.6" x2="-127356" y2="40033.6" gradientUnits="userSpaceOnUse">
<stop offset="0.01"/>
<stop offset="0.08" stop-opacity="0.69"/>
<stop offset="0.21" stop-opacity="0.32"/>
<stop offset="1" stop-opacity="0"/>
</linearGradient>
<linearGradient id="paint7_linear" x1="-137122" y1="33659.8" x2="-137232" y2="48468.5" gradientUnits="userSpaceOnUse">
<stop offset="0.01"/>
<stop offset="0.08" stop-opacity="0.69"/>
<stop offset="0.21" stop-opacity="0.32"/>
<stop offset="1" stop-opacity="0"/>
</linearGradient>
<linearGradient id="paint8_linear" x1="-23570.6" y1="42483.8" x2="-22661.3" y2="42494.9" gradientUnits="userSpaceOnUse">
<stop offset="0.01"/>
<stop offset="0.08" stop-opacity="0.69"/>
<stop offset="0.21" stop-opacity="0.32"/>
<stop offset="1" stop-opacity="0"/>
</linearGradient>
<linearGradient id="paint9_linear" x1="-84641.6" y1="39068.8" x2="-82121.2" y2="39420.1" gradientUnits="userSpaceOnUse">
<stop offset="0.01"/>
<stop offset="0.08" stop-opacity="0.69"/>
<stop offset="0.21" stop-opacity="0.32"/>
<stop offset="1" stop-opacity="0"/>
</linearGradient>
<clipPath id="clip0">
<rect width="712.303" height="551.752" fill="white"/>
</clipPath>
</defs>
</svg>
