<svg width="49" height="82" viewBox="0 0 49 82" fill="none" xmlns="http://www.w3.org/2000/svg">
<path d="M4.80728 3.44669C4.80728 3.44669 -2.31191 11.8663 2.43421 19.0826C7.18034 26.2989 15.6008 31.6659 18.8055 37.1251C22.0102 42.5844 16.1958 48.5051 14.1776 49.6126C12.1595 50.7201 -6.22638 64.141 5.16216 77.9241H43.6007C43.6007 77.9241 56.0575 65.4366 35.295 50.3544C35.295 50.3544 20.4652 42.8613 34.3451 32.2196C48.225 21.578 50.7163 11.4475 44.1348 3.53898L4.80728 3.44669Z" fill="#40A9FF"/>
<path d="M4.80728 3.44669C4.80728 3.44669 -2.31191 11.8663 2.43421 19.0826C7.18034 26.2989 15.6008 31.6659 18.8055 37.1251C22.0102 42.5844 16.1958 48.5051 14.1776 49.6126C12.1595 50.7201 -6.22638 64.141 5.16216 77.9241H43.6007C43.6007 77.9241 56.0575 65.4366 35.295 50.3544C35.295 50.3544 20.4652 42.8613 34.3451 32.2196C48.225 21.578 50.7163 11.4475 44.1348 3.53898L4.80728 3.44669Z" fill="url(#paint0_linear)"/>
<path d="M46.3141 0H1.82102C0.815299 0 0 0.807311 0 1.80318V1.80674C0 2.80261 0.815299 3.60992 1.82102 3.60992H46.3141C47.3199 3.60992 48.1352 2.80261 48.1352 1.80674V1.80318C48.1352 0.807311 47.3199 0 46.3141 0Z" fill="#40A9FF"/>
<path d="M46.3141 78.0661H1.82102C0.815299 78.0661 0 78.8734 0 79.8692V79.8728C0 80.8687 0.815299 81.676 1.82102 81.676H46.3141C47.3199 81.676 48.1352 80.8687 48.1352 79.8728V79.8692C48.1352 78.8734 47.3199 78.0661 46.3141 78.0661Z" fill="#40A9FF"/>
<path d="M46.3141 0H1.82102C0.815299 0 0 0.807311 0 1.80318V1.80674C0 2.80261 0.815299 3.60992 1.82102 3.60992H46.3141C47.3199 3.60992 48.1352 2.80261 48.1352 1.80674V1.80318C48.1352 0.807311 47.3199 0 46.3141 0Z" fill="url(#paint1_linear)"/>
<path d="M46.3141 78.0661H1.82102C0.815299 78.0661 0 78.8734 0 79.8692V79.8728C0 80.8687 0.815299 81.676 1.82102 81.676H46.3141C47.3199 81.676 48.1352 80.8687 48.1352 79.8728V79.8692C48.1352 78.8734 47.3199 78.0661 46.3141 78.0661Z" fill="url(#paint2_linear)"/>
<path d="M40.3565 58.7527C33.8432 55.3096 12.292 54.7381 8.2019 57.6879C12.0196 52.6829 17.264 49.7368 17.264 49.7368C22.4259 46.5422 28.2977 49.3179 28.2977 49.3179C28.2977 49.3179 35.7645 53.1018 40.3565 58.7527Z" fill="url(#paint3_linear)"/>
<path d="M40.2202 77.6471H8.00818L6.76429 76.5396C3.08641 70.3066 3.98975 64.8012 6.40582 60.421C6.93551 59.4737 7.53456 58.5661 8.19817 57.7055C12.2883 54.7381 33.8394 55.3096 40.3528 58.7704C41.0195 59.5851 41.6188 60.4517 42.1451 61.3616C42.4931 61.9629 42.7974 62.5881 43.0556 63.2322C46.2675 71.265 40.2202 77.6471 40.2202 77.6471Z" fill="#40A9FF"/>
<path d="M8.12659 23.6154C8.12659 23.6154 19.1602 32.2195 19.8736 33.8843C20.587 35.5491 26.326 36.5216 28.1184 35.0415C29.9107 33.5613 34.4633 30.7394 38.9728 24.3537C43.4823 17.968 28.6525 22.1352 23.6698 23.0616C18.6871 23.9881 10.1448 17.9715 8.12659 23.6154Z" fill="#40A9FF"/>
<path d="M8.1267 23.6153C8.1267 23.6153 12.3996 26.3911 16.1958 25.557C19.992 24.7228 22.4834 22.3197 27.7027 22.7812C32.922 23.2426 38.1413 25.4647 39.8046 23.0616C41.4678 20.6585 39.6863 18.7098 34.4634 19.3594C29.2405 20.009 20.5835 20.0977 16.4324 19.8208C12.2813 19.544 4.68898 20.1935 8.1267 23.6153Z" fill="#40A9FF"/>
<path d="M8.1267 23.6153C8.1267 23.6153 12.3996 26.3911 16.1958 25.557C19.992 24.7228 22.4834 22.3197 27.7027 22.7812C32.922 23.2426 38.1413 25.4647 39.8046 23.0616C41.4678 20.6585 39.6863 18.7098 34.4634 19.3594C29.2405 20.009 20.5835 20.0977 16.4324 19.8208C12.2813 19.544 4.68898 20.1935 8.1267 23.6153Z" fill="url(#paint4_linear)"/>
<path d="M23.5551 37.9273C23.2518 38.1247 23.0049 38.396 22.8381 38.7153C22.7782 38.8133 22.7395 38.9227 22.7247 39.0364C22.7099 39.1501 22.7192 39.2656 22.7521 39.3755C22.8028 39.4961 22.8892 39.5986 22.9999 39.6696C23.1106 39.7405 23.2404 39.7766 23.3722 39.773C23.5973 39.7518 23.8113 39.6668 23.9888 39.5281C24.3473 39.2974 24.7416 39.0028 24.6878 38.6443C24.6341 38.2858 24.0748 38.0302 23.5945 37.8882" fill="#40A9FF"/>
<path d="M25.5553 41.2106C25.4345 41.2412 25.3211 41.2955 25.222 41.3704C25.1718 41.413 25.1431 41.4591 25.1825 41.5053C25.2638 41.5655 25.3645 41.5946 25.4657 41.5869C25.5617 41.5812 25.6568 41.5645 25.7489 41.5372C25.9138 41.4875 26.1074 41.4272 26.0679 41.3562C26.0285 41.2852 25.7883 41.2319 25.5697 41.2036" fill="#40A9FF"/>
<path d="M23.6267 42.2507C23.5059 42.2813 23.3925 42.3356 23.2934 42.4105C23.2432 42.453 23.2181 42.5027 23.2539 42.5453C23.3352 42.6056 23.4359 42.6346 23.5371 42.627C23.6333 42.623 23.7286 42.6063 23.8203 42.5773C23.9852 42.5311 24.1788 42.4708 24.1429 42.3963C24.1071 42.3217 23.8598 42.272 23.6411 42.2436" fill="#40A9FF"/>
<path d="M26.6917 47.0959C26.5363 47.0303 26.3695 46.9953 26.2006 46.9929C26.1074 46.9929 26.0249 47.0142 26.0034 47.0817C26.0056 47.1374 26.021 47.1918 26.0484 47.2405C26.0758 47.2893 26.1145 47.3309 26.1611 47.3621C26.2547 47.4321 26.3587 47.4872 26.4694 47.5254C26.6738 47.6035 26.9032 47.6815 26.9713 47.5999C27.0394 47.5183 26.8709 47.284 26.7096 47.0959" fill="#40A9FF"/>
<path d="M20.9991 53.407C20.8448 53.3418 20.6793 53.3068 20.5116 53.304C20.4148 53.304 20.3323 53.3289 20.3144 53.3928C20.2965 53.4567 20.3503 53.5773 20.4686 53.6732C20.5627 53.7442 20.6681 53.7994 20.7804 53.8365C20.9812 53.9146 21.2142 53.9927 21.2787 53.911C21.3432 53.8294 21.1783 53.5951 21.0206 53.407" fill="#40A9FF"/>
<defs>
<linearGradient id="paint0_linear" x1="0.803182" y1="40.6854" x2="47.612" y2="40.6854" gradientUnits="userSpaceOnUse">
<stop offset="0.02" stop-color="white" stop-opacity="0"/>
<stop offset="0.32" stop-color="white" stop-opacity="0.39"/>
<stop offset="0.68" stop-color="white" stop-opacity="0.68"/>
<stop offset="1" stop-color="white"/>
</linearGradient>
<linearGradient id="paint1_linear" x1="12205.2" y1="501.706" x2="12205.4" y2="430.804" gradientUnits="userSpaceOnUse">
<stop offset="0.01"/>
<stop offset="0.13" stop-opacity="0.69"/>
<stop offset="1" stop-opacity="0"/>
</linearGradient>
<linearGradient id="paint2_linear" x1="12230.7" y1="1250.09" x2="12230.7" y2="1419.47" gradientUnits="userSpaceOnUse">
<stop offset="0.01" stop-color="#40A9FF"/>
<stop offset="0.13" stop-opacity="0.69"/>
<stop offset="1" stop-opacity="0"/>
</linearGradient>
<linearGradient id="paint3_linear" x1="8823.71" y1="2958.86" x2="8799" y2="3333.91" gradientUnits="userSpaceOnUse">
<stop offset="0.02" stop-color="white" stop-opacity="0"/>
<stop offset="0.32" stop-color="white" stop-opacity="0.39"/>
<stop offset="0.68" stop-color="white" stop-opacity="0.68"/>
<stop offset="1" stop-color="white"/>
</linearGradient>
<linearGradient id="paint4_linear" x1="8888.93" y1="1405.04" x2="8887.45" y2="1172.68" gradientUnits="userSpaceOnUse">
<stop offset="0.01"/>
<stop offset="0.13" stop-opacity="0.69"/>
<stop offset="1" stop-opacity="0"/>
</linearGradient>
</defs>
</svg>
