<svg width="20" height="23" viewBox="0 0 20 23" fill="none" xmlns="http://www.w3.org/2000/svg">
<path d="M19.0975 6.10704C18.6107 5.03983 17.909 4.07356 17.0318 3.26275C16.1517 2.44462 15.1142 1.79528 13.9759 1.35018C12.7918 0.883094 11.5353 0.647095 10.24 0.647095C8.94474 0.647095 7.68825 0.883094 6.50415 1.34772C5.35883 1.79759 4.33244 2.44167 3.44824 3.2603C2.57161 4.07156 1.86992 5.03772 1.38253 6.10458C0.878388 7.21083 0.622437 8.38591 0.622437 9.59541C0.622437 11.331 1.05936 13.0592 1.91771 14.7259C2.608 16.0657 3.57234 17.3711 4.78747 18.6126C6.86352 20.7316 9.0404 22.0272 9.6583 22.3738C9.83369 22.4723 10.0337 22.5241 10.2374 22.5238C10.4391 22.5238 10.6382 22.4746 10.8165 22.3738C11.4344 22.0272 13.6113 20.7316 15.6874 18.6126C16.9025 17.3736 17.8668 16.0657 18.5571 14.7259C19.4207 13.0616 19.8576 11.3359 19.8576 9.59787C19.8576 8.38837 19.6016 7.21329 19.0975 6.10704ZM10.24 20.6382C8.53625 19.6082 2.4839 15.5298 2.4839 9.59787C2.4839 7.68283 3.28795 5.88333 4.74869 4.52634C6.21459 3.16688 8.16396 2.41709 10.24 2.41709C12.3161 2.41709 14.2654 3.16688 15.7313 4.52879C17.1921 5.88333 17.9961 7.68283 17.9961 9.59787C17.9961 15.5298 11.9438 19.6082 10.24 20.6382ZM10.24 5.46542C7.72703 5.46542 5.68976 7.40258 5.68976 9.79207C5.68976 12.1816 7.72703 14.1187 10.24 14.1187C12.753 14.1187 14.7903 12.1816 14.7903 9.79207C14.7903 7.40258 12.753 5.46542 10.24 5.46542ZM12.2876 11.7391C12.0191 11.9952 11.6999 12.1983 11.3485 12.3366C10.9971 12.475 10.6204 12.546 10.24 12.5454C9.46698 12.5454 8.74049 12.2578 8.1924 11.7391C7.92306 11.4837 7.70948 11.1802 7.56395 10.8461C7.41842 10.5119 7.3438 10.1537 7.3444 9.79207C7.3444 9.05703 7.64688 8.36624 8.1924 7.84508C8.74049 7.32391 9.46698 7.03875 10.24 7.03875C11.013 7.03875 11.7395 7.32391 12.2876 7.84508C12.8357 8.36624 13.1356 9.05703 13.1356 9.79207C13.1356 10.5271 12.8357 11.2179 12.2876 11.7391Z" fill="#595959"/>
</svg>
