<svg width="101" height="40" viewBox="0 0 101 40" fill="none" xmlns="http://www.w3.org/2000/svg">
<path d="M41.7376 6.51344C44.5 6.51344 46.6856 7.37858 48.2944 9.10885C49.9336 10.8391 50.7532 13.1006 50.7532 15.8933C50.7532 18.7164 49.9336 21.0083 48.2944 22.7689C46.6552 24.4992 44.4696 25.3643 41.7376 25.3643C38.9753 25.3643 36.7745 24.4992 35.1353 22.7689C33.4961 21.0386 32.6765 18.7771 32.6765 15.9844C32.6765 13.1917 33.4961 10.915 35.1353 9.15438C36.8048 7.39375 39.0056 6.51344 41.7376 6.51344ZM46.8374 10.3838C45.6231 9.04814 43.9232 8.38031 41.7376 8.38031C39.552 8.38031 37.8369 9.07849 36.5923 10.4749C35.3478 11.8409 34.7255 13.647 34.7255 15.8933C34.7255 18.17 35.3478 20.0065 36.5923 21.4029C37.8369 22.7689 39.552 23.4519 41.7376 23.4519C43.9232 23.4519 45.6231 22.7537 46.8374 21.3574C48.082 19.961 48.7042 18.1093 48.7042 15.8023C48.7042 13.5256 48.082 11.7194 46.8374 10.3838ZM65.0646 25.3643C62.0291 25.3643 60.5113 23.5126 60.5113 19.8092V2.27883H62.5148V6.87771H68.252V8.88118H62.5148V19.8092C62.5148 22.2377 63.4254 23.4519 65.2468 23.4519C65.8842 23.4519 66.5065 23.2394 67.1136 22.8144C67.7208 22.3591 68.1913 21.8582 68.5252 21.3118L69.9822 22.4046C68.9502 24.3777 67.311 25.3643 65.0646 25.3643ZM87.6944 6.51344C90.4568 6.51344 92.6424 7.37858 94.2512 9.10885C95.8904 10.8391 96.71 13.1006 96.71 15.8933C96.71 18.7164 95.8904 21.0083 94.2512 22.7689C92.612 24.4992 90.4264 25.3643 87.6944 25.3643C84.9321 25.3643 82.7313 24.4992 81.0921 22.7689C79.4529 21.0386 78.6333 18.7771 78.6333 15.9844C78.6333 13.1917 79.4529 10.915 81.0921 9.15438C82.7616 7.39375 84.9624 6.51344 87.6944 6.51344ZM92.7942 10.3838C91.5799 9.04814 89.88 8.38031 87.6944 8.38031C85.5088 8.38031 83.7937 9.07849 82.5491 10.4749C81.3046 11.8409 80.6823 13.647 80.6823 15.8933C80.6823 18.17 81.3046 20.0065 82.5491 21.4029C83.7937 22.7689 85.5088 23.4519 87.6944 23.4519C89.88 23.4519 91.5799 22.7537 92.7942 21.3574C94.0387 19.961 94.661 18.1093 94.661 15.8023C94.661 13.5256 94.0387 11.7194 92.7942 10.3838Z" fill="#40A9FF"/>
<path d="M48.2944 9.10885L47.4918 9.85512L47.4989 9.86254L48.2944 9.10885ZM48.2944 22.7689L49.09 23.5226L49.0965 23.5156L48.2944 22.7689ZM35.1353 22.7689L35.9308 22.0152L35.1353 22.7689ZM35.1353 9.15438L34.34 8.40028L34.3332 8.40762L35.1353 9.15438ZM46.8374 10.3838L46.0264 11.121L46.0356 11.1309L46.8374 10.3838ZM36.5923 10.4749L37.4025 11.213L37.4104 11.204L36.5923 10.4749ZM36.5923 21.4029L35.7742 22.1321L35.7823 22.141L36.5923 21.4029ZM46.8374 21.3574L46.0192 20.6281L46.0104 20.6383L46.8374 21.3574ZM41.7376 7.60933C44.2517 7.60933 46.1258 8.38588 47.4919 9.85509L49.097 8.36261C47.2454 6.37127 44.7482 5.41755 41.7376 5.41755V7.60933ZM47.4989 9.86254C48.9125 11.3547 49.6574 13.3295 49.6574 15.8933H51.8491C51.8491 12.8717 50.9548 10.3235 49.09 8.35515L47.4989 9.86254ZM49.6574 15.8933C49.6574 18.4906 48.9105 20.499 47.4924 22.0221L49.0965 23.5156C50.9568 21.5176 51.8491 18.9423 51.8491 15.8933H49.6574ZM47.4989 22.0152C46.0976 23.4943 44.2169 24.2684 41.7376 24.2684V26.4602C44.7224 26.4602 47.2129 25.504 49.09 23.5226L47.4989 22.0152ZM41.7376 24.2684C39.224 24.2684 37.3297 23.4918 35.9308 22.0152L34.3397 23.5226C36.2192 25.5065 38.7265 26.4602 41.7376 26.4602V24.2684ZM35.9308 22.0152C34.5172 20.523 33.7723 18.5482 33.7723 15.9844H31.5806C31.5806 19.006 32.4749 21.5542 34.3397 23.5226L35.9308 22.0152ZM33.7723 15.9844C33.7723 13.4211 34.5171 11.4265 35.9373 9.90114L34.3332 8.40762C32.475 10.4035 31.5806 12.9623 31.5806 15.9844H33.7723ZM35.9305 9.90845C37.3661 8.39456 39.2647 7.60933 41.7376 7.60933V5.41755C38.7466 5.41755 36.2436 6.39294 34.3401 8.40031L35.9305 9.90845ZM47.6483 9.64661C46.1832 8.03504 44.1614 7.28442 41.7376 7.28442V9.4762C43.685 9.4762 45.0631 10.0612 46.0265 11.121L47.6483 9.64661ZM41.7376 7.28442C39.2974 7.28442 37.2624 8.07604 35.7742 9.74568L37.4104 11.204C38.4114 10.0809 39.8066 9.4762 41.7376 9.4762V7.28442ZM35.7823 9.73678C34.316 11.3461 33.6296 13.4358 33.6296 15.8933H35.8214C35.8214 13.8582 36.3795 12.3356 37.4024 11.2129L35.7823 9.73678ZM33.6296 15.8933C33.6296 18.3778 34.3138 20.4936 35.7742 22.1321L37.4104 20.6737C36.3817 19.5195 35.8214 17.9623 35.8214 15.8933H33.6296ZM35.7823 22.141C37.2726 23.7767 39.3052 24.5478 41.7376 24.5478V22.356C39.7989 22.356 38.4012 21.7611 37.4024 20.6648L35.7823 22.141ZM41.7376 24.5478C44.1772 24.5478 46.2038 23.7561 47.6643 22.0765L46.0104 20.6383C45.0425 21.7513 43.6693 22.356 41.7376 22.356V24.5478ZM47.6555 22.0865C49.1182 20.4454 49.8001 18.3128 49.8001 15.8023H47.6084C47.6084 17.9058 47.0457 19.4766 46.0193 20.6282L47.6555 22.0865ZM49.8001 15.8023C49.8001 13.32 49.1165 11.2221 47.6391 9.63669L46.0356 11.1309C47.0474 12.2167 47.6084 13.7312 47.6084 15.8023H49.8001ZM60.5113 2.27883V1.18294C59.906 1.18294 59.4154 1.67358 59.4154 2.27883H60.5113ZM62.5148 2.27883H63.6106C63.6106 1.67358 63.12 1.18294 62.5148 1.18294V2.27883ZM62.5148 6.87771H61.4189C61.4189 7.48295 61.9095 7.9736 62.5148 7.9736V6.87771ZM68.252 6.87771H69.3479C69.3479 6.27246 68.8572 5.78182 68.252 5.78182V6.87771ZM68.252 8.88118V9.97707C68.8572 9.97707 69.3479 9.48642 69.3479 8.88118H68.252ZM62.5148 8.88118V7.78529C61.9095 7.78529 61.4189 8.27594 61.4189 8.88118H62.5148ZM67.1136 22.8144L67.7421 23.7122C67.7519 23.7053 67.7616 23.6983 67.7712 23.6911L67.1136 22.8144ZM68.5252 21.3118L69.1827 20.4351C68.9357 20.2499 68.6221 20.1774 68.3189 20.2355C68.0157 20.2936 67.7511 20.4769 67.5901 20.7404L68.5252 21.3118ZM69.9822 22.4046L70.9533 22.9126C71.2023 22.4366 71.0695 21.8502 70.6398 21.5279L69.9822 22.4046ZM65.0646 24.2684C63.7796 24.2684 62.9941 23.887 62.4972 23.2808C61.9661 22.6329 61.6072 21.5391 61.6072 19.8092H59.4154C59.4154 21.7828 59.8154 23.4665 60.8021 24.6702C61.8229 25.9157 63.3141 26.4602 65.0646 26.4602V24.2684ZM61.6072 19.8092V2.27883H59.4154V19.8092H61.6072ZM60.5113 3.37472H62.5148V1.18294H60.5113V3.37472ZM61.4189 2.27883V6.87771H63.6106V2.27883H61.4189ZM62.5148 7.9736H68.252V5.78182H62.5148V7.9736ZM67.1561 6.87771V8.88118H69.3479V6.87771H67.1561ZM68.252 7.78529H62.5148V9.97707H68.252V7.78529ZM61.4189 8.88118V19.8092H63.6106V8.88118H61.4189ZM61.4189 19.8092C61.4189 21.1288 61.6607 22.3183 62.321 23.1988C63.0258 24.1385 64.0687 24.5478 65.2468 24.5478V22.356C64.6035 22.356 64.2804 22.1582 64.0745 21.8837C63.8241 21.5499 63.6106 20.9181 63.6106 19.8092H61.4189ZM65.2468 24.5478C66.144 24.5478 66.9816 24.2445 67.7421 23.7122L66.4852 21.9166C66.0314 22.2343 65.6245 22.356 65.2468 22.356V24.5478ZM67.7712 23.6911C68.4692 23.1676 69.0419 22.5678 69.4603 21.8833L67.5901 20.7404C67.3406 21.1486 66.9723 21.5505 66.4561 21.9377L67.7712 23.6911ZM67.8676 22.1885L69.3247 23.2813L70.6398 21.5279L69.1827 20.4351L67.8676 22.1885ZM69.0112 21.8967C68.5728 22.7347 68.0344 23.3118 67.4137 23.6854C66.7924 24.0593 66.0237 24.2684 65.0646 24.2684V26.4602C66.3518 26.4602 67.5259 26.176 68.5439 25.5633C69.5624 24.9504 70.3596 24.0477 70.9533 22.9126L69.0112 21.8967ZM94.2512 9.10885L93.4486 9.85512L93.4557 9.86254L94.2512 9.10885ZM94.2512 22.7689L95.0468 23.5226L95.0533 23.5156L94.2512 22.7689ZM81.0921 22.7689L81.8876 22.0152L81.0921 22.7689ZM81.0921 9.15438L80.2968 8.40028L80.29 8.40762L81.0921 9.15438ZM92.7942 10.3838L91.9832 11.121L91.9924 11.1309L92.7942 10.3838ZM82.5491 10.4749L83.3593 11.213L83.3672 11.204L82.5491 10.4749ZM82.5491 21.4029L81.731 22.1321L81.7391 22.141L82.5491 21.4029ZM92.7942 21.3574L91.976 20.6281L91.9672 20.6383L92.7942 21.3574ZM87.6944 7.60933C90.2085 7.60933 92.0826 8.38588 93.4487 9.85509L95.0538 8.36261C93.2022 6.37127 90.705 5.41755 87.6944 5.41755V7.60933ZM93.4557 9.86254C94.8693 11.3547 95.6142 13.3295 95.6142 15.8933H97.8059C97.8059 12.8717 96.9116 10.3235 95.0468 8.35515L93.4557 9.86254ZM95.6142 15.8933C95.6142 18.4906 94.8673 20.499 93.4492 22.0221L95.0533 23.5156C96.9136 21.5176 97.8059 18.9423 97.8059 15.8933H95.6142ZM93.4557 22.0152C92.0544 23.4943 90.1737 24.2684 87.6944 24.2684V26.4602C90.6792 26.4602 93.1697 25.504 95.0468 23.5226L93.4557 22.0152ZM87.6944 24.2684C85.1808 24.2684 83.2865 23.4918 81.8876 22.0152L80.2965 23.5226C82.176 25.5065 84.6833 26.4602 87.6944 26.4602V24.2684ZM81.8876 22.0152C80.474 20.523 79.7291 18.5482 79.7291 15.9844H77.5374C77.5374 19.006 78.4317 21.5542 80.2965 23.5226L81.8876 22.0152ZM79.7291 15.9844C79.7291 13.4211 80.4739 11.4265 81.8941 9.90114L80.29 8.40762C78.4318 10.4035 77.5374 12.9623 77.5374 15.9844H79.7291ZM81.8873 9.90845C83.3228 8.39456 85.2215 7.60933 87.6944 7.60933V5.41755C84.7034 5.41755 82.2004 6.39294 80.2969 8.40031L81.8873 9.90845ZM93.6051 9.64661C92.14 8.03504 90.1182 7.28442 87.6944 7.28442V9.4762C89.6418 9.4762 91.0199 10.0612 91.9833 11.121L93.6051 9.64661ZM87.6944 7.28442C85.2542 7.28442 83.2192 8.07604 81.731 9.74568L83.3672 11.204C84.3682 10.0809 85.7634 9.4762 87.6944 9.4762V7.28442ZM81.7391 9.73678C80.2728 11.3461 79.5864 13.4358 79.5864 15.8933H81.7782C81.7782 13.8582 82.3363 12.3356 83.3592 11.2129L81.7391 9.73678ZM79.5864 15.8933C79.5864 18.3778 80.2706 20.4936 81.731 22.1321L83.3672 20.6737C82.3385 19.5195 81.7782 17.9623 81.7782 15.8933H79.5864ZM81.7391 22.141C83.2294 23.7767 85.262 24.5478 87.6944 24.5478V22.356C85.7557 22.356 84.358 21.7611 83.3592 20.6648L81.7391 22.141ZM87.6944 24.5478C90.134 24.5478 92.1606 23.7561 93.6211 22.0765L91.9672 20.6383C90.9993 21.7513 89.6261 22.356 87.6944 22.356V24.5478ZM93.6123 22.0865C95.075 20.4454 95.7569 18.3128 95.7569 15.8023H93.5651C93.5651 17.9058 93.0025 19.4766 91.9761 20.6282L93.6123 22.0865ZM95.7569 15.8023C95.7569 13.32 95.0733 11.2221 93.5959 9.63669L91.9924 11.1309C93.0042 12.2167 93.5651 13.7312 93.5651 15.8023H95.7569Z" fill="#40A9FF"/>
<path d="M27.4719 6.44049C27.5162 6.29906 27.4905 6.145 27.4027 6.02558C27.3149 5.90617 27.1756 5.83564 27.0274 5.83564H25.067C24.8628 5.83564 24.6824 5.96872 24.6221 6.16387L20.0291 21.026L15.4085 6.16312C15.3479 5.96835 15.1677 5.83564 14.9637 5.83564H13.124C12.9203 5.83564 12.7403 5.96798 12.6795 6.16237L8.03242 21.0217L3.49628 6.16538C3.43646 5.96947 3.25567 5.83564 3.05083 5.83564H1C0.85192 5.83564 0.712663 5.90605 0.624889 6.02532C0.537114 6.14458 0.511282 6.29847 0.555305 6.43986L6.52683 25.6179C6.58744 25.8126 6.76763 25.9452 6.97152 25.9452H8.99219C9.19495 25.9452 9.37442 25.814 9.43597 25.6209L13.9986 11.2994L18.5613 25.6209C18.6228 25.814 18.8023 25.9452 19.005 25.9452H21.0257C21.2294 25.9452 21.4094 25.8129 21.4702 25.6186L27.4719 6.44049Z" fill="#40A9FF" stroke="#40A9FF" stroke-width="0.931507" stroke-linecap="round" stroke-linejoin="round"/>
<path d="M54.9727 33.4247C57.5754 36.2557 65.3288 40.2192 75.5206 33.4247" stroke="#40A9FF" stroke-width="4.10959" stroke-linecap="round" stroke-linejoin="bevel"/>
</svg>
