<svg width="144" height="56" viewBox="0 0 144 56" fill="none" xmlns="http://www.w3.org/2000/svg">
<path d="M59.6015 8.86062C63.5074 8.86062 66.5978 10.0839 68.8727 12.5304C71.1904 14.977 72.3493 18.1747 72.3493 22.1235C72.3493 26.1152 71.1904 29.3558 68.8727 31.8452C66.5549 34.2918 63.4645 35.5151 59.6015 35.5151C55.6957 35.5151 52.5838 34.2918 50.2661 31.8452C47.9483 29.3987 46.7894 26.201 46.7894 22.2522C46.7894 18.3034 47.9483 15.0843 50.2661 12.5948C52.6268 10.1054 55.7386 8.86062 59.6015 8.86062ZM66.8124 14.3332C65.0955 12.4446 62.6919 11.5003 59.6015 11.5003C56.5112 11.5003 54.0861 12.4875 52.3263 14.4619C50.5665 16.3934 49.6866 18.9472 49.6866 22.1235C49.6866 25.3426 50.5665 27.9394 52.3263 29.9138C54.0861 31.8452 56.5112 32.811 59.6015 32.811C62.6919 32.811 65.0955 31.8238 66.8124 29.8494C68.5722 27.875 69.4521 25.2568 69.4521 21.9947C69.4521 18.7756 68.5722 16.2217 66.8124 14.3332ZM92.5851 35.5151C88.2929 35.5151 86.1468 32.8968 86.1468 27.6604V2.87303H88.9797V9.37568H97.0919V12.2085H88.9797V27.6604C88.9797 31.0941 90.2673 32.811 92.8426 32.811C93.744 32.811 94.6239 32.5105 95.4823 31.9096C96.3408 31.2658 97.006 30.5576 97.4782 29.785L99.5384 31.3302C98.0791 34.1201 95.7613 35.5151 92.5851 35.5151ZM124.583 8.86062C128.489 8.86062 131.579 10.0839 133.854 12.5304C136.172 14.977 137.331 18.1747 137.331 22.1235C137.331 26.1152 136.172 29.3558 133.854 31.8452C131.536 34.2918 128.446 35.5151 124.583 35.5151C120.677 35.5151 117.565 34.2918 115.247 31.8452C112.93 29.3987 111.771 26.201 111.771 22.2522C111.771 18.3034 112.93 15.0843 115.247 12.5948C117.608 10.1054 120.72 8.86062 124.583 8.86062ZM131.794 14.3332C130.077 12.4446 127.673 11.5003 124.583 11.5003C121.492 11.5003 119.067 12.4875 117.308 14.4619C115.548 16.3934 114.668 18.9472 114.668 22.1235C114.668 25.3426 115.548 27.9394 117.308 29.9138C119.067 31.8452 121.492 32.811 124.583 32.811C127.673 32.811 130.077 31.8238 131.794 29.8494C133.553 27.875 134.433 25.2568 134.433 21.9947C134.433 18.7756 133.553 16.2217 131.794 14.3332Z" fill="white"/>
<path d="M68.8727 12.5304L67.7379 13.5856C67.7411 13.5891 67.7444 13.5926 67.7478 13.5961L68.8727 12.5304ZM68.8727 31.8452L69.9976 32.911L70.0068 32.9011L68.8727 31.8452ZM50.2661 31.8452L51.391 30.7796L50.2661 31.8452ZM50.2661 12.5948L49.1417 11.5286C49.1384 11.532 49.1352 11.5355 49.1319 11.5389L50.2661 12.5948ZM66.8124 14.3332L65.6658 15.3755C65.6701 15.3802 65.6744 15.3849 65.6787 15.3895L66.8124 14.3332ZM52.3263 14.4619L53.4717 15.5055C53.4755 15.5014 53.4793 15.4972 53.4831 15.4929L52.3263 14.4619ZM52.3263 29.9138L51.1695 30.9448C51.1733 30.949 51.1771 30.9532 51.1809 30.9574L52.3263 29.9138ZM66.8124 29.8494L65.6557 28.8184C65.6514 28.8231 65.6473 28.8278 65.6431 28.8326L66.8124 29.8494ZM59.6015 10.4102C63.1564 10.4102 65.8062 11.5082 67.7379 13.5856L70.0074 11.4753C67.3894 8.6596 63.8584 7.31107 59.6015 7.31107V10.4102ZM67.7478 13.5961C69.7466 15.706 70.7998 18.4983 70.7998 22.1235H73.8989C73.8989 17.851 72.6343 14.2479 69.9976 11.4647L67.7478 13.5961ZM70.7998 22.1235C70.7998 25.7959 69.7437 28.6357 67.7386 30.7894L70.0068 32.9011C72.6371 30.0759 73.8989 26.4345 73.8989 22.1235H70.7998ZM67.7478 30.7796C65.7664 32.871 63.1071 33.9655 59.6015 33.9655V37.0646C63.8219 37.0646 67.3434 35.7126 69.9976 32.9109L67.7478 30.7796ZM59.6015 33.9655C56.0473 33.9655 53.3689 32.8674 51.391 30.7796L49.1412 32.9109C51.7987 35.7162 55.344 37.0646 59.6015 37.0646V33.9655ZM51.391 30.7796C49.3921 28.6697 48.3389 25.8774 48.3389 22.2522H45.2398C45.2398 26.5247 46.5044 30.1277 49.1412 32.9109L51.391 30.7796ZM48.3389 22.2522C48.3389 18.6278 49.392 15.8076 51.4002 13.6507L49.1319 11.5389C46.5045 14.361 45.2398 17.979 45.2398 22.2522H48.3389ZM51.3904 13.6611C53.4203 11.5205 56.1049 10.4102 59.6015 10.4102V7.31107C55.3723 7.31107 51.8332 8.69024 49.1417 11.5286L51.3904 13.6611ZM67.959 13.2908C65.8874 11.0121 63.0287 9.95076 59.6015 9.95076V13.0499C62.3551 13.0499 64.3036 13.8771 65.6658 15.3755L67.959 13.2908ZM59.6015 9.95076C56.1512 9.95076 53.2737 11.0701 51.1695 13.4309L53.4831 15.4929C54.8984 13.9049 56.8712 13.0499 59.6015 13.0499V9.95076ZM51.1809 13.4183C49.1076 15.6938 48.1371 18.6487 48.1371 22.1235H51.2362C51.2362 19.2458 52.0254 17.093 53.4717 15.5055L51.1809 13.4183ZM48.1371 22.1235C48.1371 25.6364 49.1046 28.628 51.1695 30.9448L53.4831 28.8827C52.0284 27.2507 51.2362 25.0488 51.2362 22.1235H48.1371ZM51.1809 30.9574C53.2882 33.2702 56.1621 34.3605 59.6015 34.3605V31.2614C56.8602 31.2614 54.884 30.4203 53.4717 28.8702L51.1809 30.9574ZM59.6015 34.3605C63.051 34.3605 65.9165 33.2411 67.9817 30.8662L65.6431 28.8326C64.2745 30.4065 62.3328 31.2614 59.6015 31.2614V34.3605ZM67.9692 30.8804C70.0374 28.5599 71.0016 25.5444 71.0016 21.9947H67.9026C67.9026 24.9691 67.107 27.19 65.6557 28.8184L67.9692 30.8804ZM71.0016 21.9947C71.0016 18.4848 70.035 15.5186 67.9461 13.2768L65.6787 15.3895C67.1094 16.9249 67.9026 19.0663 67.9026 21.9947H71.0016ZM86.1468 2.87303V1.32348C85.291 1.32348 84.5973 2.01724 84.5973 2.87303H86.1468ZM88.9797 2.87303H90.5292C90.5292 2.01724 89.8355 1.32348 88.9797 1.32348V2.87303ZM88.9797 9.37568H87.4301C87.4301 10.2315 88.1239 10.9252 88.9797 10.9252V9.37568ZM97.0919 9.37568H98.6414C98.6414 8.51989 97.9477 7.82613 97.0919 7.82613V9.37568ZM97.0919 12.2085V13.7581C97.9477 13.7581 98.6414 13.0643 98.6414 12.2085H97.0919ZM88.9797 12.2085V10.659C88.1239 10.659 87.4301 11.3527 87.4301 12.2085H88.9797ZM95.4823 31.9096L96.3709 33.1791C96.3848 33.1694 96.3985 33.1594 96.4121 33.1493L95.4823 31.9096ZM97.4782 29.785L98.4079 28.5454C98.0587 28.2834 97.6152 28.181 97.1865 28.2632C96.7578 28.3453 96.3836 28.6045 96.156 28.977L97.4782 29.785ZM99.5384 31.3302L100.911 32.0484C101.264 31.3753 101.076 30.5463 100.468 30.0905L99.5384 31.3302ZM92.5851 33.9655C90.7682 33.9655 89.6574 33.4263 88.9548 32.5691C88.2038 31.6529 87.6964 30.1063 87.6964 27.6604H84.5973C84.5973 30.4509 85.1629 32.8316 86.558 34.5337C88.0015 36.2947 90.1099 37.0646 92.5851 37.0646V33.9655ZM87.6964 27.6604V2.87303H84.5973V27.6604H87.6964ZM86.1468 4.42258H88.9797V1.32348H86.1468V4.42258ZM87.4301 2.87303V9.37568H90.5292V2.87303H87.4301ZM88.9797 10.9252H97.0919V7.82613H88.9797V10.9252ZM95.5423 9.37568V12.2085H98.6414V9.37568H95.5423ZM97.0919 10.659H88.9797V13.7581H97.0919V10.659ZM87.4301 12.2085V27.6604H90.5292V12.2085H87.4301ZM87.4301 27.6604C87.4301 29.5262 87.7721 31.2082 88.7058 32.4531C89.7023 33.7818 91.1769 34.3605 92.8426 34.3605V31.2614C91.9331 31.2614 91.4762 30.9818 91.1851 30.5936C90.8311 30.1216 90.5292 29.2282 90.5292 27.6604H87.4301ZM92.8426 34.3605C94.1113 34.3605 95.2957 33.9318 96.3709 33.1791L94.5937 30.6402C93.9521 31.0893 93.3767 31.2614 92.8426 31.2614V34.3605ZM96.4121 33.1493C97.399 32.4091 98.2089 31.5609 98.8004 30.593L96.156 28.977C95.8032 29.5542 95.2825 30.1225 94.5526 30.67L96.4121 33.1493ZM96.5485 31.0246L98.6087 32.5698L100.468 30.0905L98.4079 28.5454L96.5485 31.0246ZM98.1654 30.612C97.5456 31.7969 96.7842 32.613 95.9066 33.1412C95.0281 33.6699 93.9412 33.9655 92.5851 33.9655V37.0646C94.4052 37.0646 96.0653 36.6628 97.5046 35.7965C98.9447 34.9298 100.072 33.6534 100.911 32.0484L98.1654 30.612ZM133.854 12.5304L132.719 13.5856C132.722 13.5891 132.726 13.5926 132.729 13.5961L133.854 12.5304ZM133.854 31.8452L134.979 32.911L134.988 32.9011L133.854 31.8452ZM115.247 31.8452L116.372 30.7796L115.247 31.8452ZM115.247 12.5948L114.123 11.5286C114.12 11.532 114.116 11.5355 114.113 11.5389L115.247 12.5948ZM131.794 14.3332L130.647 15.3755C130.651 15.3802 130.656 15.3849 130.66 15.3895L131.794 14.3332ZM117.308 14.4619L118.453 15.5055C118.457 15.5014 118.461 15.4972 118.464 15.4929L117.308 14.4619ZM117.308 29.9138L116.151 30.9448C116.155 30.949 116.158 30.9532 116.162 30.9574L117.308 29.9138ZM131.794 29.8494L130.637 28.8184C130.633 28.8231 130.629 28.8278 130.624 28.8326L131.794 29.8494ZM124.583 10.4102C128.138 10.4102 130.787 11.5082 132.719 13.5856L134.989 11.4753C132.371 8.6596 128.84 7.31107 124.583 7.31107V10.4102ZM132.729 13.5961C134.728 15.706 135.781 18.4983 135.781 22.1235H138.88C138.88 17.851 137.616 14.2479 134.979 11.4647L132.729 13.5961ZM135.781 22.1235C135.781 25.7959 134.725 28.6357 132.72 30.7894L134.988 32.9011C137.618 30.0759 138.88 26.4345 138.88 22.1235H135.781ZM132.729 30.7796C130.748 32.871 128.088 33.9655 124.583 33.9655V37.0646C128.803 37.0646 132.325 35.7126 134.979 32.9109L132.729 30.7796ZM124.583 33.9655C121.029 33.9655 118.35 32.8674 116.372 30.7796L114.122 32.9109C116.78 35.7162 120.325 37.0646 124.583 37.0646V33.9655ZM116.372 30.7796C114.373 28.6697 113.32 25.8774 113.32 22.2522H110.221C110.221 26.5247 111.486 30.1277 114.122 32.9109L116.372 30.7796ZM113.32 22.2522C113.32 18.6278 114.373 15.8076 116.381 13.6507L114.113 11.5389C111.486 14.361 110.221 17.979 110.221 22.2522H113.32ZM116.372 13.6611C118.402 11.5205 121.086 10.4102 124.583 10.4102V7.31107C120.354 7.31107 116.814 8.69024 114.123 11.5286L116.372 13.6611ZM132.94 13.2908C130.869 11.0121 128.01 9.95076 124.583 9.95076V13.0499C127.336 13.0499 129.285 13.8771 130.647 15.3755L132.94 13.2908ZM124.583 9.95076C121.132 9.95076 118.255 11.0701 116.151 13.4309L118.464 15.4929C119.88 13.9049 121.852 13.0499 124.583 13.0499V9.95076ZM116.162 13.4183C114.089 15.6938 113.118 18.6487 113.118 22.1235H116.217C116.217 19.2458 117.007 17.093 118.453 15.5055L116.162 13.4183ZM113.118 22.1235C113.118 25.6364 114.086 28.628 116.151 30.9448L118.464 28.8827C117.01 27.2507 116.217 25.0488 116.217 22.1235H113.118ZM116.162 30.9574C118.269 33.2702 121.143 34.3605 124.583 34.3605V31.2614C121.841 31.2614 119.865 30.4203 118.453 28.8702L116.162 30.9574ZM124.583 34.3605C128.032 34.3605 130.898 33.2411 132.963 30.8662L130.624 28.8326C129.256 30.4065 127.314 31.2614 124.583 31.2614V34.3605ZM132.95 30.8804C135.019 28.5599 135.983 25.5444 135.983 21.9947H132.884C132.884 24.9691 132.088 27.19 130.637 28.8184L132.95 30.8804ZM135.983 21.9947C135.983 18.4848 135.016 15.5186 132.927 13.2768L130.66 15.3895C132.091 16.9249 132.884 19.0663 132.884 21.9947H135.983Z" fill="white"/>
<path d="M39.4303 9.10654C39.4929 8.90655 39.4566 8.68873 39.3325 8.51987C39.2084 8.35102 39.0113 8.25129 38.8018 8.25129H36.0299C35.7411 8.25129 35.486 8.43947 35.4007 8.71541L28.9065 29.7299L22.3731 8.71434C22.2874 8.43894 22.0326 8.25129 21.7442 8.25129H19.1429C18.8549 8.25129 18.6003 8.43842 18.5144 8.71328L11.9436 29.7238L5.52965 8.71753C5.44507 8.44053 5.18943 8.25129 4.89979 8.25129H2C1.79062 8.25129 1.59372 8.35086 1.46961 8.51949C1.3455 8.68812 1.30897 8.90572 1.37122 9.10564L9.81474 36.2228C9.90044 36.498 10.1552 36.6855 10.4435 36.6855H13.3007C13.5874 36.6855 13.8411 36.5 13.9282 36.2269L20.3796 15.9769L26.831 36.2269C26.918 36.5 27.1718 36.6855 27.4585 36.6855H30.3156C30.6036 36.6855 30.8581 36.4985 30.9441 36.2237L39.4303 9.10654Z" fill="white" stroke="white" stroke-width="1.31712" stroke-linecap="round" stroke-linejoin="round"/>
<path d="M78.3153 47.2612C81.9955 51.2642 92.9586 56.8684 107.369 47.2612" stroke="white" stroke-width="5.81081" stroke-linecap="round" stroke-linejoin="bevel"/>
</svg>
