<svg id="Layer_1" data-name="Layer 1" xmlns="http://www.w3.org/2000/svg" xmlns:xlink="http://www.w3.org/1999/xlink" viewBox="0 0 393.7 295.14"><defs><linearGradient id="linear-gradient" x1="252.53" y1="305.05" x2="271.7" y2="305.05" gradientUnits="userSpaceOnUse"><stop offset="0" stop-opacity="0"/><stop offset="0.99"/></linearGradient><linearGradient id="linear-gradient-2" x1="226.87" y1="273.85" x2="282.84" y2="273.85" xlink:href="#linear-gradient"/><linearGradient id="linear-gradient-3" x1="245.3" y1="264.59" x2="304.04" y2="264.59" xlink:href="#linear-gradient"/><linearGradient id="linear-gradient-4" x1="319.66" y1="287.4" x2="343.54" y2="287.4" gradientUnits="userSpaceOnUse"><stop offset="0" stop-color="#e5c5d5"/><stop offset="0.42" stop-color="#ead4d1"/><stop offset="1" stop-color="#f0e9cb"/></linearGradient><linearGradient id="linear-gradient-5" x1="334.51" y1="287.76" x2="355.27" y2="287.76" xlink:href="#linear-gradient-4"/><linearGradient id="linear-gradient-6" x1="321.3" y1="227.31" x2="349.79" y2="227.31" xlink:href="#linear-gradient-4"/><linearGradient id="linear-gradient-7" x1="113.1" y1="145.64" x2="132.58" y2="145.64" xlink:href="#linear-gradient-4"/><linearGradient id="linear-gradient-8" x1="118.84" y1="156.13" x2="125.18" y2="123.86" xlink:href="#linear-gradient"/><linearGradient id="linear-gradient-9" x1="238.77" y1="177.61" x2="259.96" y2="177.61" xlink:href="#linear-gradient-4"/><linearGradient id="linear-gradient-10" x1="277.91" y1="241.28" x2="324.77" y2="241.28" xlink:href="#linear-gradient"/><linearGradient id="linear-gradient-11" x1="107.29" y1="120.4" x2="140.72" y2="120.4" xlink:href="#linear-gradient-4"/><linearGradient id="linear-gradient-12" x1="166.6" y1="178.3" x2="202.25" y2="178.3" xlink:href="#linear-gradient-4"/><linearGradient id="linear-gradient-13" x1="146.64" y1="30" x2="146.42" y2="13.18" xlink:href="#linear-gradient"/><linearGradient id="linear-gradient-14" x1="162.08" y1="2.99" x2="151.46" y2="27.27" xlink:href="#linear-gradient"/><linearGradient id="linear-gradient-15" x1="353.63" y1="176.09" x2="376.17" y2="176.09" xlink:href="#linear-gradient-4"/><linearGradient id="linear-gradient-16" x1="111.52" y1="237.24" x2="105.89" y2="326.96" xlink:href="#linear-gradient"/><linearGradient id="linear-gradient-17" x1="122.97" y1="131.97" x2="93.1" y2="120.28" xlink:href="#linear-gradient-4"/><linearGradient id="linear-gradient-18" x1="107.73" y1="128.47" x2="119.5" y2="127.04" xlink:href="#linear-gradient"/><linearGradient id="linear-gradient-19" x1="373.42" y1="241.28" x2="419.34" y2="241.28" xlink:href="#linear-gradient"/></defs><title>Online Presentation</title><path d="M27.41,186.85c-6.87,40.38,6.38,85,38.26,110.77,29.6,23.88,69.76,28.85,107.65,32,57.61,4.82,118.28,7.07,170.31-18.13C355,306,365.94,299.19,378.17,296c7-1.84,14.57-2.62,20.19-7.12s8-11.61,9.82-18.48c6.08-23.41,6.41-50.53-8.78-69.35-17.85-22.12-50.79-25.61-71.86-44.67-10.69-9.68-17.65-22.77-27.36-33.42C269.9,89.69,219.83,85.84,174.9,84.26,138.53,83,101,71.63,74.43,99.62,51.35,123.93,32.86,153.26,27.41,186.85Z" transform="translate(-25.64 -37.55)" fill="#40a9fe" opacity="0.18" style="isolation:isolate"/><path d="M271.7,305.92a2.88,2.88,0,0,1-.2,1.34,3.37,3.37,0,0,1-2.49,1.46l-.75-1.05c-1.95,1.82-4.91,1.87-7.57,1.77-2.33-.08-4.65-.2-7-.32a1.31,1.31,0,0,1-1.06-.39,1.15,1.15,0,0,1-.08-.84,5.39,5.39,0,0,1,4.58-4.25c1.78-.19,3.61.54,5.36.15,2.28-.51,3.95-3.1,6.33-3.15S271.64,304.09,271.7,305.92Z" transform="translate(-25.64 -37.55)" fill="#3e3e54"/><path d="M271.7,305.92a2.88,2.88,0,0,1-.2,1.34,3.37,3.37,0,0,1-2.49,1.46l-.75-1.05c-1.95,1.82-4.91,1.87-7.57,1.77-2.33-.08-4.65-.2-7-.32a1.31,1.31,0,0,1-1.06-.39,1.15,1.15,0,0,1-.08-.84,5.39,5.39,0,0,1,4.58-4.25c1.78-.19,3.61.54,5.36.15,2.28-.51,3.95-3.1,6.33-3.15S271.64,304.09,271.7,305.92Z" transform="translate(-25.64 -37.55)" fill="url(#linear-gradient)"/><path d="M239.24,249.8a35.3,35.3,0,0,0-9.23,3.94,7.77,7.77,0,0,0-2.12,2,7.52,7.52,0,0,0-1.13,4.05c-.23,7.74,5.58,14.18,11,19.7l17.86,18.15c2.06,2.1,4.21,4.25,6.94,5.33s6.22.83,8.14-1.4q-9.41-11.92-18.28-24.26a2.19,2.19,0,0,1-.59-1.92c.33-.91,1.58-1,2.55-.87a29.77,29.77,0,0,0,25.27-11c1.93-2.44,3.52-5.5,2.93-8.56-.52-2.71-2.66-4.82-4.94-6.38C265.2,240.05,252,245.72,239.24,249.8Z" transform="translate(-25.64 -37.55)" fill="#3e3e54"/><path d="M239.35,249.81a35.45,35.45,0,0,0-9.23,3.94,7.77,7.77,0,0,0-2.12,2,7.43,7.43,0,0,0-1.12,4c-.24,7.74,5.58,14.18,11,19.7l17.86,18.15c2.07,2.09,4.21,4.24,6.94,5.33s6.23.83,8.14-1.4q-9.39-11.94-18.27-24.26a2.2,2.2,0,0,1-.6-1.92c.33-.91,1.59-.95,2.55-.87a29.74,29.74,0,0,0,25.27-11c1.93-2.45,3.53-5.51,2.94-8.56-.53-2.72-2.67-4.83-5-6.38C265.31,240.05,252.15,245.73,239.35,249.81Z" transform="translate(-25.64 -37.55)" fill="url(#linear-gradient-2)"/><path d="M246.69,275.12a7.71,7.71,0,0,0,4.46.91l27.34,0a12.48,12.48,0,0,0,5.16-.74,13.34,13.34,0,0,0,3.62-2.83,100.89,100.89,0,0,1,15.83-12.56A2,2,0,0,0,304,259a1.57,1.57,0,0,0,.08-.65c-.17-3-3.4-5.07-6.41-5.17s-5.88,1.17-8.73,2.15c-13.23,4.58-28.75,3.47-39.95,11.88C246.87,268.76,243.32,272.78,246.69,275.12Z" transform="translate(-25.64 -37.55)" fill="#3e3e54"/><path d="M246.69,275.12a7.71,7.71,0,0,0,4.46.91l27.34,0a12.48,12.48,0,0,0,5.16-.74,13.34,13.34,0,0,0,3.62-2.83,100.89,100.89,0,0,1,15.83-12.56A2,2,0,0,0,304,259a1.57,1.57,0,0,0,.08-.65c-.17-3-3.4-5.07-6.41-5.17s-5.88,1.17-8.73,2.15c-13.23,4.58-28.75,3.47-39.95,11.88C246.87,268.76,243.32,272.78,246.69,275.12Z" transform="translate(-25.64 -37.55)" fill="url(#linear-gradient-3)"/><path d="M319.66,265c.52.47,17.59,39.84,17.79,42.08.18,2-1.4,3.57-2.63,5.13,1.59-.29,6.73-2.48,7.89-3.61a2.52,2.52,0,0,0,.8-1.23,3,3,0,0,0-.14-1.38c-1-3.64-6.53-27.92-7.32-32.6a25.48,25.48,0,0,0-1.4-5.66,8.68,8.68,0,0,0-3.67-4.41,5.3,5.3,0,0,0-5.55.16C324.35,263.42,320.68,264.62,319.66,265Z" transform="translate(-25.64 -37.55)" fill="url(#linear-gradient-4)"/><path d="M345.68,272.45c4.3,9.74,5.59,20.55,9.17,30.58a5,5,0,0,1,.42,1.93,3.79,3.79,0,0,1-.63,1.69,9.12,9.12,0,0,1-4.47,3.73c.31-6-2.61-11.57-5.44-16.83l-3.76-7a70.66,70.66,0,0,1-3.6-7.37c-.52-1.29-.95-2.62-1.34-3.95-.83-2.78-3.52-9.31,1.17-10.06C341.47,264.52,344.24,269.19,345.68,272.45Z" transform="translate(-25.64 -37.55)" fill="url(#linear-gradient-5)"/><path d="M335.66,225.62c-2.65.19-5.31-.35-8-.14s-5.49,1.47-6.41,4c1.51,1.39,3.82,1.32,5.86,1.13,5-.47,16.22-.15,21.23-.95,2-.31-2.2-1.6-.39-2.42a2.92,2.92,0,0,0,1.79-1.69C346.05,222.08,339.92,225.33,335.66,225.62Z" transform="translate(-25.64 -37.55)" fill="url(#linear-gradient-6)"/><path d="M382.38,230.13l.82,20.14c.09,2.07.14,4.26-.91,6-1.86,3.16-6.18,3.59-9.84,3.66l-24.74.47a13.37,13.37,0,0,0-5.27.81c-1.63.73.42,4.1.52,5.89,0,.67-3.18-.3-3.68.16a1.77,1.77,0,0,1-1.31.28l-12.23-.65a9.1,9.1,0,0,1-3.16-.55c-2.45-1.06-3.44-3.94-4.18-6.5a33.39,33.39,0,0,1-1.72-9.36c0-3.18,1.1-6.5,3.54-8.54,2.93-2.46,7.09-2.61,10.91-2.63l24.47-.17a2.74,2.74,0,0,0,2.08-.6c.5-.57.45-1.45.89-2.06a3.08,3.08,0,0,1,1.94-1l13.75-3.05a10,10,0,0,1,4.4-.3,3.42,3.42,0,0,1,2.8,3" transform="translate(-25.64 -37.55)" fill="#3e3e54"/><path d="M242.47,251.94l-18.83,9.41a45.18,45.18,0,0,0-8.32,4.94,2.84,2.84,0,0,0-1.21,3.78c2.86,8.77,11,14.57,18.63,19.74l9.23,6.25,15.35,10.39c1.12.76,2.38,1.55,3.71,1.32,1.93-.32,2.9-2.71,2.42-4.61s-1.94-3.35-3.34-4.71l-14.23-13.87c-3.39-3.3-6.84-6.68-9-10.88,10.23-4,21.4-4.72,32.13-7.09a17.66,17.66,0,0,0,7.26-2.88c2.07-1.61,3.46-4.36,2.74-6.89a8.63,8.63,0,0,0-3.8-4.43,17.93,17.93,0,0,0-9-3.32c-2.18-.12-4.35.32-6.52.2-1.93-.11-3.27-1.18-5-1.44C250.76,247.26,245.85,250.25,242.47,251.94Z" transform="translate(-25.64 -37.55)" fill="#3e3e54"/><rect x="125.43" y="192.42" width="212.83" height="4.49" fill="#40a9fe"/><rect x="58.58" y="29.67" width="180.01" height="122.73" fill="#40a9fe"/><path d="M138.66,126.91c-.91-1,2.55-.36,2-1.56-2.87-5.78-3.71-12.43-6.75-18.12-.48-.89-1-1.75-1.44-2.65a13,13,0,0,0,2.68-2.19A34,34,0,0,0,139,97.58c.17.17.45.29.61.54C149.22,112.88,138.71,124.64,138.66,126.91Z" transform="translate(-25.64 -37.55)" fill="#3e3e54"/><path d="M122.06,149.37c6.16-.1,12.77.39,17.64,4.17,3.49,2.72,5.63,6.8,7.4,10.86A102.45,102.45,0,0,1,154,187.05c.14.76,2.59,2.25,1.9,2.6-.24.12-3.81.44-4.08.45-20.63.64-40.39.46-61,1.09a2,2,0,0,1-1.29-.24,2,2,0,0,1-.62-1.24C87,182,85.16,174.07,86.58,166.29a12.3,12.3,0,0,1,1.4-4.14c1.66-2.78,4.41-3.59,7.06-5.07,2.43-1.37,4.53-3.08,7.12-4.2C108.4,150.19,115.33,149.48,122.06,149.37Z" transform="translate(-25.64 -37.55)" fill="#fff"/><path d="M113.8,133.67c-.93,2.44-.74,5.14-.53,7.74l1.19,15a3,3,0,0,0,2.1,3.08c2.84,1.54,5.91,3,9.14,2.81s6.56-2.41,6.86-5.62c.19-2.12-.92-4.13-2.21-5.82s-2.82-3.25-3.68-5.19c-1.41-3.21-.79-6.89-1.06-10.38a8.62,8.62,0,0,0-1.52-4.7C121.18,126.89,115.18,130.07,113.8,133.67Z" transform="translate(-25.64 -37.55)" fill="url(#linear-gradient-7)"/><path d="M119.09,146.2a19.32,19.32,0,0,0,7.15,4.48,1.84,1.84,0,0,0,1.9-.09c.61-.6.17-1.62-.26-2.37a21.64,21.64,0,0,1-2.37-6.27,6.51,6.51,0,0,0-1.12-3,4.91,4.91,0,0,0-1.26-.95c-2-1.16-7.39-4-8.89-.74C113,139.89,117.38,144.51,119.09,146.2Z" transform="translate(-25.64 -37.55)" fill="url(#linear-gradient-8)"/><path d="M240.07,175c-.62.78-1.6,1.61-1.22,2.52.21.49.76.73,1.19,1.05a5.5,5.5,0,0,1,1.83,3.74,12.9,12.9,0,0,0,1,4.14c.66,1.26,2.18,2.22,3.51,1.71.79-.31,1.52-1.1,2.33-.84.62.2.88.92,1.24,1.46a4.22,4.22,0,0,0,4.25,1.48,12.35,12.35,0,0,0,4.29-2,3.26,3.26,0,0,0,1.35-1.3,2.46,2.46,0,0,0,0-1.63c-.45-1.63-1.71-2.89-2.76-4.23a19.39,19.39,0,0,1-3.81-8.54c-.38-2.17-.48-4.6-2-6.16-2.09-2.12-6.61-1.66-8.77.26C240.08,168.7,242,172.52,240.07,175Z" transform="translate(-25.64 -37.55)" fill="url(#linear-gradient-9)"/><path d="M240.35,165.81a1.87,1.87,0,0,0,1.7,1.38c.78.1,1.57-.06,2.35,0a4.52,4.52,0,0,1,4,3.12c.61,2-.27,4.34.56,6.29.28.38.91.07,1.13-.35s.31-.94.69-1.22c.63-.46,1.53.13,1.89.83a3.58,3.58,0,0,1-1.54,4.67c.16.63,1,.81,1.63.66a6.47,6.47,0,0,1,1.9-.44c1.49.13,2.25,2.21,3.74,2.28,1,0,1.79-.9,2.38-1.74l1.71-2.47a1.58,1.58,0,0,0,.37-.86,1.7,1.7,0,0,0-.27-.81,8.7,8.7,0,0,1-.82-5.49c.42-2.28,1.75-4.4,1.64-6.72a8.14,8.14,0,0,0-2.6-5.1c-3.41-3.45-8.8-4.67-13.54-4.11a5.3,5.3,0,0,0-3.9,2.25C242.09,159.67,240.05,163.7,240.35,165.81Z" transform="translate(-25.64 -37.55)" fill="#3e3e54"/><path d="M255.92,185.7a41.15,41.15,0,0,0-4.49,2.88,3.64,3.64,0,0,0-1.09,1.18,1.73,1.73,0,0,0,0,1.68c.5.71,1.44.34,2.16,0,3.31-1.73,7-2.22,10.54-2.56a1.34,1.34,0,0,0,1.24-.68,1.77,1.77,0,0,0-.29-1.47C261.77,183.1,258.8,184,255.92,185.7Z" transform="translate(-25.64 -37.55)" fill="#40a9fe"/><path d="M249.57,232.48a66.36,66.36,0,0,1-5.49-16.09,22.67,22.67,0,0,0-4.36,5.16c-1.75,2.86-2.59,7.1.07,9.14a32.59,32.59,0,0,1-14.69,1,6.11,6.11,0,0,1-3.75-1.64,4.77,4.77,0,0,1-1-2.88c-.23-3.55,1.79-6.81,3.74-9.79l13.47-20.64a8.81,8.81,0,0,1,1.69-2.09,8.61,8.61,0,0,1,3.14-1.42,225.77,225.77,0,0,1,25.93-6.06,12.62,12.62,0,0,1,4-.25c3.74.55,6.2,4.08,8.08,7.35,9.86,17.1,16.85,36.51,15.75,56.22a11.08,11.08,0,0,1-.5,3.14,9.1,9.1,0,0,1-3.05,3.83c-4.4,3.47-10.19,4.76-15.79,4.81-8.36.08-19.39-2.44-25.63-8.45-3.53-3.39,0-5.44,1.69-8.8C255,240.79,251.46,236.32,249.57,232.48Z" transform="translate(-25.64 -37.55)" fill="#40a9fe"/><path d="M279,266.07c-3.36-16.88,1.28-28.49,8.89-43.94,2.56-5.19,6.16-10.48,11.71-12.11,2.57-.76,5.31-.64,7.95-1.09,5.14-.87,9.87-3.86,15.08-4a1.9,1.9,0,0,1,1.42.39,1.86,1.86,0,0,1,.44,1.1,19.41,19.41,0,0,1-.08,6.84c-.78,4.14-2.85,7.9-4.56,11.75a72.76,72.76,0,0,0-6.26,30.84,10.16,10.16,0,0,1-.38,3.85,8.52,8.52,0,0,1-2.24,3c-7,6.76-16.22,10.62-25.22,14.33a4.32,4.32,0,0,1-2.15.47,3.68,3.68,0,0,1-2.32-1.73,13.3,13.3,0,0,1-2.28-9.77" transform="translate(-25.64 -37.55)" fill="#3e3e54"/><path d="M279,266.07c-3.36-16.88,1.28-28.49,8.89-43.94,2.56-5.19,6.16-10.48,11.71-12.11,2.57-.76,5.31-.64,7.95-1.09,5.14-.87,9.87-3.86,15.08-4a1.9,1.9,0,0,1,1.42.39,1.86,1.86,0,0,1,.44,1.1,19.41,19.41,0,0,1-.08,6.84c-.78,4.14-2.85,7.9-4.56,11.75a72.76,72.76,0,0,0-6.26,30.84,10.16,10.16,0,0,1-.38,3.85,8.52,8.52,0,0,1-2.24,3c-7,6.76-16.22,10.62-25.22,14.33a4.32,4.32,0,0,1-2.15.47,3.68,3.68,0,0,1-2.32-1.73,13.3,13.3,0,0,1-2.28-9.77" transform="translate(-25.64 -37.55)" fill="url(#linear-gradient-10)"/><polygon points="221.05 237.57 207.42 278.14 211.55 278.14 225.5 238.48 221.05 237.57" fill="#40a9fe"/><polygon points="250.38 238.21 262.23 277.87 268.01 277.87 255.66 238.29 250.38 238.21" fill="#40a9fe"/><polygon points="278.75 230.77 292.52 275.39 287.56 275.39 273.79 233.25 278.75 230.77" fill="#40a9fe"/><path d="M140.24,122.19a33.37,33.37,0,0,1,.28,8.81,16.91,16.91,0,0,1-6.43,10.92,12.88,12.88,0,0,1-10.9,2.53c-4.9-1.35-8-6-10.36-10.57-2.6-5-4.82-10.34-5.4-16s.63-11.61,4.26-15.94a16.75,16.75,0,0,1,25.34-.39C140.52,105.52,139.6,116.94,140.24,122.19Z" transform="translate(-25.64 -37.55)" fill="url(#linear-gradient-11)"/><path d="M139,97.58a34,34,0,0,1-3.89,4.81,13,13,0,0,1-2.68,2.19c-3.43,2.16-7.69,3.06-11.29,4.83a7.26,7.26,0,0,0-2.85,2.18c-1.59,2.29-.74,5.79-2.68,7.79a5,5,0,0,0-1,1.14,2.93,2.93,0,0,0-.11,1.56,75.77,75.77,0,0,1,.08,16.83c-2.32-2.44-5.76-3.46-8.36-5.61-5.24-4.31-5.91-12-6-18.77a31.29,31.29,0,0,1,1.06-10c1-3.21,3.28-6.2,6.46-7.34a5.39,5.39,0,0,0,1.39-.61,4.48,4.48,0,0,0,1.14-1.81c3.39-7.41,12.35-9.5,19.62-7.08,3,1,6.2,2.88,7.52,5.91a9.77,9.77,0,0,1,.58,1.84c.75-.22,1.35-.24,1.55.12S139.52,96.71,139,97.58Z" transform="translate(-25.64 -37.55)" fill="#3e3e54"/><rect x="137.17" y="74.05" width="77.39" height="57.08" fill="#fff"/><path d="M202.25,167.67a1.35,1.35,0,0,1-.64,1,26.82,26.82,0,0,1-9.16,4.84c-1.56.47-2.92.72-3.71,2.18a27.78,27.78,0,0,0-1.49,4.43,52,52,0,0,1-3.83,8.79c-.19.35-.39.7-.61,1H166.6a5,5,0,0,1,1-1.3,46.16,46.16,0,0,0,6.37-8.52c.22-.37.43-.74.64-1.12.69-1.21,1.33-2.45,1.94-3.71s1.27-4.18,2.35-5.13c1.32-1.18,3.53-.76,5.12-.72a27.91,27.91,0,0,0,7.46-.77c3.18-.8,6.31-2.43,9.56-1.93C201.56,166.83,202.22,167.11,202.25,167.67Z" transform="translate(-25.64 -37.55)" fill="url(#linear-gradient-12)"/><rect x="145.85" y="86.14" width="6.42" height="35.74" fill="#40a9fe"/><rect x="156.56" y="97.76" width="6.42" height="24.12" fill="#40a9fe"/><rect x="167.74" y="93.62" width="6.42" height="28.26" fill="#40a9fe"/><rect x="179.29" y="97.76" width="6.42" height="24.12" fill="#40a9fe"/><rect x="139.79" y="23.07" width="13.08" height="5.65" fill="#40a9fe"/><rect x="145.36" y="13.81" width="2.3" height="11.28" fill="#40a9fe"/><rect x="145.36" y="13.81" width="2.3" height="11.28" fill="url(#linear-gradient-13)"/><rect x="163.8" y="42.24" width="27.05" height="12.19" transform="translate(6.16 -101.47) rotate(22.4)" fill="#40a9fe"/><polygon points="161.06 19.98 150.42 15.72 154.19 6.38 164.83 10.64 161.06 19.98" fill="url(#linear-gradient-14)"/><circle cx="158.91" cy="13.65" r="2.32" fill="#40a9fe"/><path d="M355.43,172.34a11.62,11.62,0,0,0-.57,1.3,13.49,13.49,0,0,1-.59,1.62,3,3,0,0,0-.6,2.07c.19,1,1.07,1.59,1.77,2.27A8.31,8.31,0,0,1,357.2,182c.54,1.14.89,2.49,1.94,3.19,1.4.94,3.39.3,4.87,1.11,2.16,1.18,1.13,5.69,3.53,5.74a17.39,17.39,0,0,0,6-1,4,4,0,0,0,2.3-1.59c.8-1.44-.17-3.18-.8-4.71-2.59-6.26.62-14.05-2.81-19.89a10,10,0,0,0-5.09-4.25,8.48,8.48,0,0,0-8.19,1.15c-2.48,2-1.4,5.42-2.4,8.13A23.84,23.84,0,0,1,355.43,172.34Z" transform="translate(-25.64 -37.55)" fill="url(#linear-gradient-15)"/><path d="M358,156a7.62,7.62,0,0,0,2.52,11c1.85,1,4.28,1.45,5.27,3.31a12.81,12.81,0,0,1,.73,3.56c.13.64.53,1.39,1.19,1.34,1.08-.09,1-2.1,2.05-2.32a2.74,2.74,0,0,1-.42,4.34c-.33.18-.76.38-.74.75s.47.51.8.68c1.49.8,1,3.24,2.27,4.41a3.17,3.17,0,0,0,2.4.65,8.08,8.08,0,0,0,5.87-3.55,12.09,12.09,0,0,0,2-6.7,6.06,6.06,0,0,1,.36-2.55,1.69,1.69,0,0,1,2.12-1c-.58,3-1.16,6.07-.37,9a10.1,10.1,0,0,0,7.06,7,10.17,10.17,0,0,1-1.4-4.77,20.34,20.34,0,0,1,.58-4.77l1.33-6.61a23.2,23.2,0,0,0,.68-5.79,7.84,7.84,0,0,0-2.15-5.3,4.8,4.8,0,0,0-5.38-1,5.23,5.23,0,0,0-2.48,3.73,15.5,15.5,0,0,0,.05,4.61,64.35,64.35,0,0,1-5.93-7.14,12.5,12.5,0,0,0-3.88-4.1c-1.9-1-4.18-.88-6.33-.72C363.2,154.28,360.26,153.75,358,156Z" transform="translate(-25.64 -37.55)" fill="#3e3e54"/><path d="M376.67,189.61c-1.54.08-3.09.24-4.61.47a12.2,12.2,0,0,0-3.59,1,9.3,9.3,0,0,0-3.2,2.78c-3.4,4.48-3.8,10.45-5.27,15.88a14.25,14.25,0,0,1-1.91,4.5c-2.06,2.94-5.69,4.31-9.16,5.21-1.54.39-3.24.84-4.07,2.18a5.38,5.38,0,0,0-.62,2.66c-.09,2,.23,4.38,2,5.29a5.51,5.51,0,0,0,1.93.46,32.63,32.63,0,0,0,11.47-.94c.73,1,0,2.47.49,3.6s2.08,1.38,3.37,1.41a104,104,0,0,0,16-1,4.4,4.4,0,0,0,1.68-.48,4.24,4.24,0,0,0,1.52-2.52,71.9,71.9,0,0,0,2.5-23.29A45.66,45.66,0,0,0,383.73,196c-.57-2-1.46-4.07-3.21-5.19-1.94-1.23-4.43-1-6.72-.76" transform="translate(-25.64 -37.55)" fill="#40a9fe"/><path d="M344.36,314.48c0,.49-.15,1.13-.64,1.16s-.72-.56-.75-1,0-1.05-.43-1.29-1,.19-1.48.52C338.12,316,330,317,326.33,316.91c-1.13-3.05,6.17-4,7.85-4.87,1.35-.67,2.8-1.15,4.1-1.92s2.21-2.22,3.53-2.56C344.79,306.79,344.39,312.77,344.36,314.48Z" transform="translate(-25.64 -37.55)" fill="#3e3e54"/><path d="M357.8,312.32a2.51,2.51,0,0,1-.05,1.36.86.86,0,0,1-1.12.49,5.14,5.14,0,0,0-.53-1.92,1,1,0,0,0-.36-.43c-.45-.24-.94.25-1.23.68a5.08,5.08,0,0,1-2.18,2.08,5.54,5.54,0,0,1-1.77.26l-3.09.1c-.1,0-7.26.91-7.35.86s-.63-.73,1.48-2.24c1.54-1.1,8.73-5.93,8.73-5.93-1.11,3,3.3-1.25,4.13-1.6C357.74,304.68,357.48,310.26,357.8,312.32Z" transform="translate(-25.64 -37.55)" fill="#3e3e54"/><rect x="121.08" y="198.08" width="57.88" height="72.73" fill="#40a9fe"/><path d="M81.54,251.84c-.51-2.8,0-6.63,2.77-7.11,1.81-.31,3.43,1.1,4.7,2.43a142,142,0,0,1,16.07,20.11A135.47,135.47,0,0,1,98.32,240c-.43-3.1-.71-6.45.79-9.21s5.5-4.32,7.89-2.29c1.32,1.12,1.76,2.94,2.14,4.63l3.67,16.59c.15-6.71-2-13.31-1.86-20s3.38-14.25,9.91-15.84a219.9,219.9,0,0,1-1.45,50.63c2.5-2.87,3.46-6.73,5.26-10.09s5.17-6.5,8.93-5.86c.81,7.66-3.63,14.77-7.89,21.19,2-1.88,4.23-3.84,7-4.33s6,1.19,6.2,4-2.53,4.63-4.89,6l-19.1,10.94a6.42,6.42,0,0,1-2.56,1,5.77,5.77,0,0,1-3.1-.89C96.38,279.64,84.18,266.33,81.54,251.84Z" transform="translate(-25.64 -37.55)" fill="#40a9fe"/><path d="M81.54,251.84c-.51-2.8,0-6.63,2.77-7.11,1.81-.31,3.43,1.1,4.7,2.43a142,142,0,0,1,16.07,20.11A135.47,135.47,0,0,1,98.32,240c-.43-3.1-.71-6.45.79-9.21s5.5-4.32,7.89-2.29c1.32,1.12,1.76,2.94,2.14,4.63l3.67,16.59c.15-6.71-2-13.31-1.86-20s3.38-14.25,9.91-15.84a219.9,219.9,0,0,1-1.45,50.63c2.5-2.87,3.46-6.73,5.26-10.09s5.17-6.5,8.93-5.86c.81,7.66-3.63,14.77-7.89,21.19,2-1.88,4.23-3.84,7-4.33s6,1.19,6.2,4-2.53,4.63-4.89,6l-19.1,10.94a6.42,6.42,0,0,1-2.56,1,5.77,5.77,0,0,1-3.1-.89C96.38,279.64,84.18,266.33,81.54,251.84Z" transform="translate(-25.64 -37.55)" fill="url(#linear-gradient-16)"/><rect x="73.57" y="247.74" width="25.97" height="25.24" fill="#40a9fe"/><path d="M111.29,122.55a2.84,2.84,0,0,0-1.26.18,3.07,3.07,0,0,0-1.64,2.34A7.56,7.56,0,0,0,111,132a5.11,5.11,0,0,0,2.4,1.33,2.61,2.61,0,0,0,2.52-.82,4.12,4.12,0,0,0,.51-2.94C116.13,126.3,115.19,122.75,111.29,122.55Z" transform="translate(-25.64 -37.55)" fill="url(#linear-gradient-17)"/><path d="M113.31,127.84a17.08,17.08,0,0,0-.75-1.63,3.35,3.35,0,0,0-.54-.59,1.47,1.47,0,0,0-1.27-.47,1.06,1.06,0,0,0-.67.65,2.18,2.18,0,0,0-.11,1,4.89,4.89,0,0,0,1.62,3.3,2.66,2.66,0,0,0,.72.48,3.39,3.39,0,0,0,1.27.16,1.68,1.68,0,0,0,.45,0,1.32,1.32,0,0,0,.62-1.61C114.39,128.52,113.63,128.44,113.31,127.84Z" transform="translate(-25.64 -37.55)" fill="url(#linear-gradient-18)"/><path d="M341.26,275.12a7.71,7.71,0,0,0,4.46.91l27.34,0a12.48,12.48,0,0,0,5.16-.74,13.54,13.54,0,0,0,3.63-2.83,100.36,100.36,0,0,1,15.82-12.56,1.93,1.93,0,0,0,.86-.86,1.57,1.57,0,0,0,.08-.65c-.17-3-3.4-5.07-6.41-5.17s-5.88,1.17-8.73,2.15c-13.23,4.58-28.75,3.47-40,11.88C341.44,268.76,337.89,272.78,341.26,275.12Z" transform="translate(-25.64 -37.55)" fill="#3e3e54"/><path d="M375.88,272.44a79.57,79.57,0,0,1,6.6-50.31c2.56-5.19,6.16-10.48,11.71-12.11,2.57-.76,5.31-.64,7.95-1.09,5.14-.87,9.87-3.86,15.08-4a1.9,1.9,0,0,1,1.42.39,1.86,1.86,0,0,1,.44,1.1,19.41,19.41,0,0,1-.08,6.84c-.78,4.14-2.85,7.9-4.56,11.75a72.91,72.91,0,0,0-6.26,30.84,10.16,10.16,0,0,1-.38,3.85,8.52,8.52,0,0,1-2.24,3c-7,6.76-16.22,10.62-25.22,14.33a4.32,4.32,0,0,1-2.15.47,3.68,3.68,0,0,1-2.32-1.73,13.3,13.3,0,0,1-2.28-9.77" transform="translate(-25.64 -37.55)" fill="#3e3e54"/><path d="M375.88,272.44a79.57,79.57,0,0,1,6.6-50.31c2.56-5.19,6.16-10.48,11.71-12.11,2.57-.76,5.31-.64,7.95-1.09,5.14-.87,9.87-3.86,15.08-4a1.9,1.9,0,0,1,1.42.39,1.86,1.86,0,0,1,.44,1.1,19.41,19.41,0,0,1-.08,6.84c-.78,4.14-2.85,7.9-4.56,11.75a72.91,72.91,0,0,0-6.26,30.84,10.16,10.16,0,0,1-.38,3.85,8.52,8.52,0,0,1-2.24,3c-7,6.76-16.22,10.62-25.22,14.33a4.32,4.32,0,0,1-2.15.47,3.68,3.68,0,0,1-2.32-1.73,13.3,13.3,0,0,1-2.28-9.77" transform="translate(-25.64 -37.55)" fill="url(#linear-gradient-19)"/><polygon points="315.62 237.57 301.99 278.14 306.12 278.14 320.08 238.48 315.62 237.57" fill="#40a9fe"/><polygon points="344.95 238.21 356.8 277.87 362.58 277.87 350.23 238.29 344.95 238.21" fill="#40a9fe"/><polygon points="373.32 230.77 387.09 275.39 382.13 275.39 368.36 233.25 373.32 230.77" fill="#40a9fe"/><path d="M264.91,308.63a3.08,3.08,0,0,1-.19,1.35,3.4,3.4,0,0,1-2.5,1.45l-.75-1.05c-1.94,1.82-4.91,1.87-7.57,1.78q-3.5-.14-7-.32a1.26,1.26,0,0,1-1.06-.4,1.15,1.15,0,0,1-.09-.84,5.38,5.38,0,0,1,4.58-4.24c1.78-.2,3.61.53,5.36.14,2.28-.51,4-3.1,6.33-3.15S264.85,306.81,264.91,308.63Z" transform="translate(-25.64 -37.55)" fill="#3e3e54"/></svg>