<svg width="18" height="17" viewBox="0 0 18 17" fill="none" xmlns="http://www.w3.org/2000/svg">
<path fill-rule="evenodd" clip-rule="evenodd" d="M8.73188 2.83331C7.17754 2.83331 5.9186 4.10123 5.9186 5.66665C5.9186 7.23206 7.17754 8.49998 8.73188 8.49998C10.2862 8.49998 11.5452 7.23206 11.5452 5.66665C11.5452 4.10123 10.2862 2.83331 8.73188 2.83331ZM10.209 5.66661C10.209 4.84494 9.54783 4.17911 8.73198 4.17911C7.91612 4.17911 7.255 4.84494 7.255 5.66661C7.255 6.48827 7.91612 7.15411 8.73198 7.15411C9.54783 7.15411 10.209 6.48827 10.209 5.66661ZM13.0221 12.0416C13.0221 11.5883 10.8207 10.5541 8.73187 10.5541C6.643 10.5541 4.4416 11.5883 4.4416 12.0416V12.8208H13.0221V12.0416ZM3.10535 12.0416C3.10535 10.1574 6.85405 9.20828 8.73192 9.20828C10.6098 9.20828 14.3585 10.1574 14.3585 12.0416V14.1666H3.10535V12.0416Z" fill="#595959"/>
</svg>
