<svg width="179" height="163" viewBox="0 0 179 163" fill="none" xmlns="http://www.w3.org/2000/svg">
<g clip-path="url(#clip0)">
<path opacity="0.18" d="M179 98.7653C179 102.265 178.613 105.754 177.844 109.169C171.016 139.699 134.616 163 90.7474 163C72.649 163 55.8241 159.033 41.8235 152.233C32.1622 147.54 23.843 141.498 17.3793 134.473C14.631 131.872 12.2123 128.944 10.1773 125.756C-8.38504 97.0241 -1.42452 45.7552 29.9801 46.1823C33.7263 46.256 37.4731 46.0648 41.1922 45.6101C50.0163 44.474 55.3685 41.8129 58.6099 38.9274C59.4056 38.2215 60.1308 37.4403 60.7755 36.5949C65.2867 30.6136 71.9381 26.5996 79.3433 25.3894C144.848 14.9232 168.702 47.4964 176.096 74.9418C178.105 82.3421 179.074 89.9849 178.975 97.6511C178.994 98.0207 179 98.393 179 98.7653Z" fill="#40A9FF"/>
<path opacity="0.05" d="M47.1454 140.441L12.1946 128.669C12.1946 128.669 -0.667003 112.755 0.0493589 85.9912L52.0611 107.228C52.0611 107.228 74.6773 100.745 88.1509 100.096C101.625 99.447 161.357 93.1914 161.357 93.1914C161.357 93.1914 172.885 106.373 167.758 110.406C162.631 114.439 125.728 115.118 125.728 115.118L100.066 100.115L78.4952 116.749L62.0271 132.228L47.1454 140.441Z" fill="#000405"/>
<path d="M104.443 81.3453L103.895 82.7361C103.895 82.7361 105.541 84.1898 104.443 84.814C104.443 84.814 110.158 84.4608 104.443 81.3453Z" fill="#3F3D56"/>
<path d="M39.131 126.383L38.4668 128.261L43.9122 130.805C43.9122 130.805 48.9734 131.44 50.5297 130.109C51.4738 129.279 52.1636 128.2 52.5196 126.996L39.131 126.383Z" fill="#333333"/>
<path d="M53.4115 108.763C53.4115 108.763 59.8285 108.651 61.7059 110.975C63.5833 113.3 56.8368 120.182 56.8368 120.182L41.2772 121.277L53.4115 108.763Z" fill="#40A9FF"/>
<path d="M53.4115 108.763C53.4115 108.763 59.8285 108.651 61.7059 110.975C63.5833 113.3 56.8368 120.182 56.8368 120.182L41.2772 121.277L53.4115 108.763Z" fill="url(#paint0_linear)"/>
<path d="M53.181 118.742C53.181 118.742 66.6629 119.955 69.0069 120.817C73.4368 122.479 72.1193 128.688 70.1047 129.351C68.4332 129.912 55.7199 134.553 51.655 136.039C51.318 136.161 50.9472 136.148 50.6188 136.005C50.2905 135.862 50.0297 135.599 49.8901 135.27L48.4958 131.954C48.4194 131.773 48.382 131.577 48.3862 131.381C48.3903 131.184 48.4359 130.99 48.5201 130.812C48.6042 130.634 48.7249 130.475 48.8744 130.347C49.0239 130.218 49.1988 130.122 49.3879 130.065L57.3859 127.692C57.3859 127.692 45.5124 128.885 43.1135 128.354C37.8026 127.194 32.5657 120.415 35.3543 114.496C38.1429 108.577 53.181 118.742 53.181 118.742Z" fill="#40A9FF"/>
<path d="M53.181 118.742C53.181 118.742 66.6629 119.955 69.0069 120.817C73.4368 122.479 72.1193 128.688 70.1047 129.351C68.4332 129.912 55.7199 134.553 51.655 136.039C51.318 136.161 50.9472 136.148 50.6188 136.005C50.2905 135.862 50.0297 135.599 49.8901 135.27L48.4958 131.954C48.4194 131.773 48.382 131.577 48.3862 131.381C48.3903 131.184 48.4359 130.99 48.5201 130.812C48.6042 130.634 48.7249 130.475 48.8744 130.347C49.0239 130.218 49.1988 130.122 49.3879 130.065L57.3859 127.692C57.3859 127.692 45.5124 128.885 43.1135 128.354C37.8026 127.194 32.5657 120.415 35.3543 114.496C38.1429 108.577 53.181 118.742 53.181 118.742Z" fill="url(#paint1_linear)"/>
<path d="M88.4007 85.2794L87.7777 87.7105L90.9725 90.5331C90.9725 90.5331 90.0585 90.5331 89.3257 91.9567L89.0348 95.0694C89.0348 95.0694 91.1811 99.7016 97.1041 95.6526L106.711 104.123L128.017 96.6381L128.473 93.7417L88.4007 85.2794Z" fill="#3F3D56"/>
<path d="M146.165 87.6037L135.565 83.4506C134.911 83.0851 134.178 82.8827 133.429 82.8608C132.68 82.8389 131.936 82.998 131.262 83.3247C130.665 83.6064 130.156 84.0455 129.791 84.5946C129.426 85.1437 129.218 85.7818 129.19 86.4402C128.825 90.4372 130.982 108.835 130.982 108.835C131.777 109.142 132.607 109.354 133.452 109.467C134.194 109.614 134.959 109.598 135.693 109.418C136.428 109.239 137.114 108.902 137.704 108.429L137.909 94.5903C137.909 94.5903 149.857 101.952 154.12 101.339C158.89 100.654 166.564 96.7504 161.379 87.6968C156.194 78.6432 146.165 87.6037 146.165 87.6037Z" fill="#40A9FF"/>
<path d="M146.165 87.6037L135.565 83.4506C134.911 83.0851 134.178 82.8827 133.429 82.8608C132.68 82.8389 131.936 82.998 131.262 83.3247C130.665 83.6064 130.156 84.0455 129.791 84.5946C129.426 85.1437 129.218 85.7818 129.19 86.4402C128.825 90.4372 130.982 108.835 130.982 108.835C131.777 109.142 132.607 109.354 133.452 109.467C134.194 109.614 134.959 109.598 135.693 109.418C136.428 109.239 137.114 108.902 137.704 108.429L137.909 94.5903C137.909 94.5903 149.857 101.952 154.12 101.339C158.89 100.654 166.564 96.7504 161.379 87.6968C156.194 78.6432 146.165 87.6037 146.165 87.6037Z" fill="url(#paint2_linear)"/>
<path d="M137.382 63.2601C137.382 63.2601 134.27 73.1432 133.43 75.2622C132.59 77.3811 117.873 79.1442 117.873 79.1442L118.422 85.4875L135.181 83.4123L140.22 76.1437L137.382 63.2601Z" fill="#40A9FF"/>
<path opacity="0.61" d="M137.382 63.2601C137.382 63.2601 134.27 73.1432 133.43 75.2622C132.59 77.3811 117.873 79.1442 117.873 79.1442L118.422 85.4875L135.181 83.4123L140.22 76.1437L137.382 63.2601Z" fill="url(#paint3_linear)"/>
<path d="M145.765 59.9803L149.176 61.8693C155.514 64.6919 157.817 70.9749 161.385 87.7406C161.385 87.7406 158.387 94.426 147.354 89.9307C147.354 89.9307 139.866 79.0183 138.631 74.9281C137.396 70.838 134.286 63.7994 140.004 61.1082C145.721 58.4171 145.765 59.9803 145.765 59.9803Z" fill="#40A9FF"/>
<path opacity="0.05" d="M153.079 74.3751L157.235 90.0156C157.235 90.0156 152.994 92.5945 147.326 89.9225C141.659 87.2505 143.665 84.5922 141.837 81.3453L147.389 78.3338L153.079 74.3751Z" fill="#000405"/>
<path d="M145.284 59.3041C145.071 59.7647 144.769 60.1788 144.395 60.5228C144.021 60.8668 143.583 61.1339 143.105 61.3088C142.628 61.4838 142.121 61.5631 141.612 61.5423C141.104 61.5215 140.605 61.401 140.144 61.1876L139.984 61.111C139.984 61.111 136.779 66.6877 141.357 66.0224C143.783 65.6692 145.907 62.0664 146.314 60.2404L145.284 59.3041Z" fill="#333333"/>
<path d="M145.49 54.8307C145.49 54.8937 145.345 57.645 145.232 59.6271C145.15 61.1608 144.49 62.6069 143.385 63.6762C142.744 64.3398 141.975 64.8662 141.123 65.223C140.918 65.2992 140.695 65.3173 140.48 65.2753C140.265 65.2333 140.066 65.1327 139.905 64.9848C139.743 64.8361 139.625 64.6459 139.564 64.4349C139.503 64.2239 139.501 64.0003 139.559 63.7884C139.669 63.375 139.778 62.8987 139.866 62.4004C140.047 61.3656 140.141 60.2459 139.847 59.4547C139.839 59.4249 139.829 59.3957 139.817 59.3671C139.652 58.9591 139.817 58.5129 140.204 58.0639C140.736 57.4342 141.67 56.7964 142.603 56.257C143.538 55.7287 144.502 55.2526 145.49 54.8307Z" fill="url(#paint4_linear)"/>
<path d="M140.478 62.1896C140.288 62.2857 140.086 62.3566 139.877 62.4004C140.058 61.3655 140.152 60.2458 139.858 59.4546L140.215 58.0639L140.489 57.029L142.625 56.257L144.785 55.4767C144.247 59.3041 142.196 61.3875 140.478 62.1896Z" fill="url(#paint5_linear)"/>
<path d="M139.932 43.9292C138.309 44.0258 136.79 44.761 135.709 45.9733C134.629 47.1857 134.075 48.7761 134.168 50.3956C134.168 50.5517 134.193 50.7077 134.215 50.8638C134.407 53.3485 135.047 55.7783 136.103 58.0366C138.104 61.4423 143.154 58.6389 143.953 57.2372C144.752 55.8355 147.771 49.4922 146.506 47.6881C145.669 46.4616 143.209 43.8005 139.932 43.9292Z" fill="url(#paint6_linear)"/>
<path d="M134.602 41.52L135.639 42.0511C135.02 42.0368 134.407 42.1696 133.849 42.4386C133.292 42.7075 132.807 43.1049 132.434 43.5979C131.486 44.5432 130.946 45.8203 130.93 47.1569L132.694 46.3356C132.694 46.3356 132.56 48.5039 135.897 48.6709C139.235 48.8379 142.773 48.972 142.773 48.972L141.648 47.4061C141.648 47.4061 143.72 48.2274 144.085 49.0049C144.412 50.2322 144.647 51.4823 144.787 52.7446C144.787 52.7446 145.611 50.6037 145.959 51.0718C146.308 51.54 145.597 53.481 145.161 53.9054C144.724 54.3297 144.798 55.6082 144.757 55.7122C144.716 55.8163 146.832 54.0696 146.926 53.4701C147.019 52.8705 149.121 46.7956 147.749 45.5307L148.572 45.4705C148.079 45.1359 147.516 44.9186 146.926 44.8354C146.926 44.8354 141.466 37.6379 134.602 41.52Z" fill="#333333"/>
<path d="M117.854 79.9381C116.797 79.7538 115.759 79.479 114.75 79.1168C113.132 78.698 111.477 78.4403 109.809 78.3475C109.809 78.3475 109.488 79.4426 110.358 79.6671C111.228 79.8916 112.225 80.2585 112.225 80.2585L108.596 80.6226L105.237 81.0798C105.237 81.0798 105.558 82.1748 106.461 82.1748C106.722 82.6465 107.073 83.0623 107.495 83.3986C108.134 83.975 108.727 84.6002 109.269 85.2684C109.724 85.6275 110.21 85.9472 110.72 86.2239C110.907 86.2239 117.98 85.4026 118.406 84.7291L117.854 79.9381Z" fill="url(#paint7_linear)"/>
<path d="M147.359 89.9308C147.359 89.9308 148.457 95.3815 150.085 96.7531C150.085 96.7531 139.413 105.059 138.917 111.069C138.222 119.375 164.481 106.494 164.481 106.494L162.664 101.905L151.279 106.94C151.279 106.94 158.206 102.27 161.659 97.5963C164.365 93.8895 162.894 90.4783 161.385 87.8282C161.357 87.7406 154.822 93.1284 147.359 89.9308Z" fill="#40A9FF"/>
<path d="M147.359 89.9308C147.359 89.9308 148.457 95.3815 150.085 96.7531C150.085 96.7531 139.413 105.059 138.917 111.069C138.222 119.375 164.481 106.494 164.481 106.494L162.664 101.905L151.279 106.94C151.279 106.94 158.206 102.27 161.659 97.5963C164.365 93.8895 162.894 90.4783 161.385 87.8282C161.357 87.7406 154.822 93.1284 147.359 89.9308Z" fill="url(#paint8_linear)"/>
<path d="M162.633 101.903L164.604 101.227L165.579 103.803L163.402 105.287L162.633 101.903Z" fill="url(#paint9_linear)"/>
<path d="M133.663 110.6L133.477 109.459C134.219 109.576 134.977 109.544 135.706 109.364C136.436 109.183 137.121 108.859 137.723 108.41L137.838 110.28C137.22 110.666 136.517 110.897 135.79 110.953C135.063 111.009 134.333 110.888 133.663 110.6Z" fill="url(#paint10_linear)"/>
<path d="M133.617 110.25L128.951 111.931C128.951 111.931 126.357 111.298 125.838 112.752C125.498 113.498 125.465 114.347 125.745 115.118C125.745 115.118 126.969 116.213 130.018 115.575C133.068 114.937 138.055 113.385 138.055 113.385L137.868 110.343C137.198 110.648 136.468 110.797 135.732 110.781C134.996 110.765 134.273 110.583 133.617 110.25Z" fill="#333333"/>
<path d="M164.977 100.635C164.977 100.635 163.805 101.114 163.94 101.424C164.074 101.733 164.489 101.051 165.537 103.814L164.865 104.304L166.325 107.416C165.941 107.705 165.637 108.086 165.44 108.523C165.242 108.961 165.159 109.441 165.197 109.919C165.342 110.677 166.69 110.781 167.769 110.409C168.847 110.036 169.314 107.646 169.314 107.646C169.314 107.646 168.609 101.916 167.157 100.961C165.705 100.005 164.977 100.635 164.977 100.635Z" fill="#333333"/>
<path d="M129.791 94.8121L107.762 101.736L97.6613 93.3693C93.5909 97.5197 88.6917 94.4069 89.3641 91.984C90.0365 89.5612 94.5515 90.4372 94.5515 90.4372L88.4309 85.3095L99.8817 82.4349C99.9531 82.8374 100.431 84.7894 103.211 84.9454C106.321 85.1234 107.026 82.5992 104.443 81.3645L111.706 79.4782L129.791 94.8121Z" fill="#40A9FF"/>
<path opacity="0.05" d="M123.906 92.0935C123.755 92.1338 123.613 92.2006 123.486 92.2906C123.369 92.4031 123.264 92.528 123.173 92.663C122.767 93.1667 122.105 93.3666 121.504 93.6047C120.825 93.8724 120.18 94.2198 119.583 94.6396C119.493 94.6904 119.423 94.7693 119.383 94.8641C119.292 95.157 119.748 95.3021 119.901 95.5677C119.947 95.6675 119.962 95.7784 119.946 95.8867C119.929 95.9951 119.881 96.0963 119.808 96.1782C119.66 96.3397 119.485 96.4732 119.289 96.5724C118.244 97.209 117.331 98.0398 116.6 99.0199C119.92 97.2969 123.382 95.859 126.947 94.7217C127.225 94.6526 127.485 94.5278 127.713 94.3549C127.825 94.2666 127.908 94.1461 127.95 94.0095C127.991 93.8729 127.99 93.7269 127.946 93.5911C127.886 93.4569 128.097 93.4213 127.987 93.3173C127.452 92.8409 126.552 92.0443 125.835 91.4611C125.846 91.4666 124.469 91.9074 123.906 92.0935Z" fill="#000405"/>
<path d="M153.175 64.8288C152.784 64.3693 152.277 64.0227 151.706 63.825C151.135 63.6273 150.522 63.5857 149.929 63.7044C149.337 63.8231 148.787 64.098 148.337 64.5003C147.887 64.9026 147.553 65.4178 147.37 65.9923C147.173 66.6247 146.964 67.383 146.758 68.3166C145.66 73.3622 140.69 84.3349 140.69 84.3349L126.253 92.1127L130.205 97.1583L147.112 88.8521C147.112 88.8521 154.6 72.3547 154.465 69.2091C154.509 67.6498 154.058 66.1165 153.175 64.8288Z" fill="#40A9FF"/>
<path opacity="0.61" d="M153.175 64.8288C152.784 64.3693 152.277 64.0227 151.706 63.825C151.135 63.6273 150.522 63.5857 149.929 63.7044C149.337 63.8231 148.787 64.098 148.337 64.5003C147.887 64.9026 147.553 65.4178 147.37 65.9923C147.173 66.6247 146.964 67.383 146.758 68.3166C145.66 73.3622 140.69 84.3349 140.69 84.3349L126.253 92.1127L130.205 97.1583L147.112 88.8521C147.112 88.8521 154.6 72.3547 154.465 69.2091C154.509 67.6498 154.058 66.1165 153.175 64.8288Z" fill="url(#paint11_linear)"/>
<path d="M127.488 92.819C126.445 93.0989 125.38 93.2894 124.304 93.3885C122.659 93.6862 121.047 94.1447 119.493 94.7573C119.493 94.7573 119.657 95.8798 120.53 95.7237C121.403 95.5677 122.468 95.4965 122.468 95.4965L119.358 97.3554L116.495 99.1814C116.495 99.1814 117.242 100.044 118.06 99.6578C118.499 99.9755 118.996 100.205 119.523 100.334C120.341 100.588 121.138 100.904 121.908 101.279C122.473 101.414 123.049 101.501 123.629 101.539C123.796 101.465 129.925 97.7277 129.966 96.9502L127.488 92.819Z" fill="url(#paint12_linear)"/>
<path d="M79.2527 90.815L84.5225 92.8902V96.0057C84.5225 96.0057 78.2097 96.1398 78.2097 98.8693C78.2097 101.599 84.163 103.74 88.1537 100.096L97.2386 105.297L96.9093 107.964L69.2868 117.932L53.4609 98.6722V95.5594L79.2527 90.815Z" fill="#3F3D56"/>
<path d="M79.2527 87.7406L84.5335 92.8793C84.5335 92.8793 78.2207 93.0161 78.2207 95.7456C78.2207 98.4751 84.1739 100.616 88.1647 96.9694L97.2496 105.276L69.5777 115.005L53.4609 95.6115L64.3189 92.2989C64.3189 92.2989 60.8661 89.9828 64.1844 88.436C64.7974 88.1355 65.4629 87.9561 66.1441 87.9076C68.7488 87.8036 69.1633 89.1423 69.5064 90.607V90.722L79.2527 87.7406Z" fill="#40A9FF"/>
<path opacity="0.05" d="M57.8497 94.2728C57.8497 94.2728 62.2412 103.794 64.3299 105.374C65.4937 106.256 73.5383 108.873 80.3698 109.243C81.0093 109.278 83.0075 107.43 83.9516 107.674C85.324 108.032 83.7019 109.262 84.0203 109.278C88.1373 109.472 90.4181 107.674 90.4181 107.674L68.7351 115.482L54.2075 94.7026L57.8497 94.2728Z" fill="#000405"/>
<path d="M79.0057 111.318C79.7413 110.358 80.5828 109.484 81.5143 108.711C82.2762 108.258 83.0961 107.909 83.9516 107.674C83.9516 107.674 84.3359 108.837 83.6771 109.056C83.0184 109.275 82.6397 110.425 82.6397 110.425C82.6397 110.425 87.4319 111.34 88.011 111.058C88.5901 110.776 88.645 111.671 87.5142 111.838C86.3834 112.005 86.4163 113.623 85.6478 113.754C84.8793 113.886 83.7403 114.617 82.6095 114.888C81.2989 115 79.9792 114.939 78.6846 114.707L79.0057 111.318Z" fill="url(#paint13_linear)"/>
<path d="M57.018 97.5005C57.6394 94.1293 57.2265 90.6496 55.8334 87.5162C54.4402 84.3829 52.1316 81.7417 49.2094 79.9381C48.1689 79.2271 46.9762 78.7687 45.7264 78.5994C40.7064 78.3092 35.3542 114.491 35.3542 114.491C35.3542 114.491 37.7723 121.499 45.0924 122.173C51.8553 122.797 53.1727 118.737 53.1727 118.737L57.018 97.5005Z" fill="#40A9FF"/>
<path opacity="0.61" d="M57.018 97.5005C57.6394 94.1293 57.2265 90.6496 55.8334 87.5162C54.4402 84.3829 52.1316 81.7417 49.2094 79.9381C48.1689 79.2271 46.9762 78.7687 45.7264 78.5994C40.7064 78.3092 35.3542 114.491 35.3542 114.491C35.3542 114.491 37.7723 121.499 45.0924 122.173C51.8553 122.797 53.1727 118.737 53.1727 118.737L57.018 97.5005Z" fill="url(#paint14_linear)"/>
<path d="M45.7264 78.594C45.7264 78.594 46.462 73.135 46.7639 69.5842C47.0658 66.0334 48.2351 61.278 54.2103 61.8995C60.1854 62.5209 60.1827 71.5362 58.5222 75.3142C56.8616 79.0922 54.6549 78.969 54.6549 78.969C54.6549 78.969 51.6797 78.3147 51.7812 81.8874L45.7264 78.594Z" fill="url(#paint15_linear)"/>
<path d="M47.9853 61.1329C47.1149 61.9654 46.4846 63.0159 46.1601 64.1744C45.8911 65.1143 45.7073 66.0763 45.6112 67.049L46.2233 66.3865C46.1886 68.0532 46.0603 69.7167 45.839 71.3691C45.6133 72.9097 45.5214 74.4668 45.5645 76.0232L46.6624 75.9712L48.0347 77.685L49.58 76.6447L50.741 76.0341L51.7785 73.4881C51.5258 73.3033 51.3405 73.0412 51.2509 72.7418C51.1612 72.4423 51.172 72.1218 51.2817 71.829C51.666 70.7915 52.6074 70.5505 52.827 71.1638C52.9951 71.9276 53.0871 72.7062 53.1014 73.4881L54.7482 68.834C54.7482 68.834 55.7857 67.3885 56.6887 68.3878C57.2293 68.9905 57.9138 69.4472 58.6786 69.7155L58.1297 68.1578L59.6228 68.5411L59.5075 66.767L60.6054 67.5445C60.6054 67.5445 61.1022 64.67 60.158 63.3915C59.2138 62.1129 55.5167 57.0318 47.9853 61.1329Z" fill="#333333"/>
<path d="M79.1594 110.395L66.9346 109.075C65.2825 108.759 63.7715 107.933 62.6141 106.715C61.4566 105.497 60.7109 103.948 60.4818 102.286L55.9614 88.529C55.6879 87.6659 55.1776 86.8963 54.4883 86.3075C53.7991 85.7187 52.9583 85.3341 52.0612 85.1973C51.3534 85.0916 50.6303 85.1669 49.9596 85.416C49.2889 85.665 48.6925 86.0798 48.2263 86.6214C47.7601 87.163 47.4393 87.8138 47.294 88.5127C47.1486 89.2117 47.1834 89.936 47.3952 90.6179L52.0612 107.228C52.2808 109.051 53.1218 110.744 54.4433 112.024C55.7648 113.303 57.4867 114.091 59.3208 114.255L78.4952 116.749L79.1594 110.395Z" fill="#40A9FF"/>
<path opacity="0.61" d="M79.1594 110.395L66.9346 109.075C65.2825 108.759 63.7715 107.933 62.6141 106.715C61.4566 105.497 60.7109 103.948 60.4818 102.286L55.9614 88.529C55.6879 87.6659 55.1776 86.8963 54.4883 86.3075C53.7991 85.7187 52.9583 85.3341 52.0612 85.1973C51.3534 85.0916 50.6303 85.1669 49.9596 85.416C49.2889 85.665 48.6925 86.0798 48.2263 86.6214C47.7601 87.163 47.4393 87.8138 47.294 88.5127C47.1486 89.2117 47.1834 89.936 47.3952 90.6179L52.0612 107.228C52.2808 109.051 53.1218 110.744 54.4433 112.024C55.7648 113.303 57.4867 114.091 59.3208 114.255L78.4952 116.749L79.1594 110.395Z" fill="url(#paint16_linear)"/>
<path d="M48.9816 130.586L45.3833 131.407L46.8243 135.56L50.59 134.692C50.59 134.692 51.5973 131.481 48.9816 130.586Z" fill="url(#paint17_linear)"/>
<path d="M43.9122 130.805C43.9122 130.805 46.2671 130.306 46.6569 131.106C47.0466 131.905 45.795 131.853 46.0448 132.987C46.2541 133.849 46.5134 134.698 46.8216 135.53L47.9826 135.27L48.2213 136.639C48.2726 136.874 48.404 137.084 48.5931 137.234C48.7822 137.384 49.0174 137.464 49.2588 137.46C51.9761 137.616 51.6138 140.074 50.6586 140.168L47.1427 140.441L45.2845 138.881C45.0621 138.727 44.8864 138.515 44.7768 138.268C44.0988 136.94 42.0156 131.998 43.9122 130.805Z" fill="#333333"/>
<path opacity="0.4" d="M101.114 46.1412C100.934 46.4005 100.778 46.6754 100.648 46.9625C99.8598 48.6434 97.1947 54.6554 96.805 59.8653C96.7276 61.133 96.1861 62.3283 95.2835 63.2241C94.3808 64.1199 93.1798 64.6539 91.9084 64.7247L87.1492 64.9985L85.5929 65.0806C84.3428 65.1543 83.1081 64.7744 82.1168 64.0111C81.1256 63.2478 80.4446 62.1525 80.1996 60.9275C79.2253 56.1311 77.1503 48.8022 73.1183 45.5635C73.1183 45.5635 55.341 29.3262 67.1953 11.2191C67.9921 9.99566 68.8832 8.83593 69.8604 7.7504C82.302 -5.98738 102.838 0.271003 107.773 13.0314C112.708 25.7919 103.077 43.3898 101.114 46.1412Z" fill="#40A9FF"/>
<path d="M97.4856 66.9669C97.0712 68.0045 96.5936 68.5027 97.0081 69.1899C97.4225 69.877 98.6164 71.725 92.5589 72.5463C91.3041 72.7191 90.0404 72.8197 88.774 72.8474H86.7923L85.6313 72.7954C84.3056 72.7133 83.2352 72.5792 82.5216 72.4642C82.1337 72.4075 81.7622 72.2699 81.4312 72.0605C81.1001 71.8511 80.817 71.5744 80.6003 71.2486C80.4942 71.0037 80.4585 70.7341 80.4973 70.4701C80.5361 70.2061 80.6478 69.9581 80.8199 69.7538C80.8971 69.6823 80.9594 69.5964 81.0033 69.5008C81.0471 69.4053 81.0717 69.302 81.0755 69.197C81.0793 69.092 81.0624 68.9873 81.0256 68.8888C80.9888 68.7903 80.9329 68.7001 80.8611 68.6232C80.7791 68.5378 80.6799 68.4706 80.5701 68.4261C80.2426 68.1188 80.0484 67.6961 80.0289 67.2481C80.0094 66.8001 80.1662 66.3622 80.4658 66.0278C80.6142 65.8747 80.7374 65.6991 80.8309 65.5077C80.9605 65.2116 81.0068 64.886 80.9647 64.5657C80.9226 64.2454 80.7938 63.9426 80.5921 63.6898L80.4247 63.4845C80.1935 63.1729 80.0248 62.8196 79.9279 62.4442C79.8269 62.1863 79.7969 61.9062 79.8408 61.6328C79.8847 61.3594 80.001 61.1027 80.1776 60.8892C80.4226 62.1134 81.1033 63.208 82.094 63.9708C83.0848 64.7336 84.3188 65.1132 85.5682 65.0395L87.1244 64.9464C87.1688 64.8862 87.2039 64.8198 87.2287 64.7493C87.5032 64.0868 86.8856 63.3175 87.1985 62.2854L88.3678 62.2334C91.2426 62.0619 94.0817 61.5095 96.8104 60.5908C97.1085 60.8368 97.3125 61.1778 97.3879 61.5562C97.4634 61.9347 97.4058 62.3276 97.2249 62.6687C97.1172 62.8985 97.0442 63.143 97.0081 63.3942C96.937 63.9203 97.027 64.4557 97.2661 64.93C97.2934 64.9877 97.3246 65.0435 97.3594 65.097C97.5258 65.377 97.6239 65.6921 97.6458 66.0169C97.6678 66.3417 97.6129 66.6671 97.4856 66.9669Z" fill="#40A9FF"/>
<path d="M80.1887 60.8837C85.6181 59.4802 91.3033 59.377 96.7803 60.5826C96.7803 60.5826 87.7887 64.2566 80.1887 60.8837Z" fill="#333333"/>
<path d="M88.151 72.7489C87.6992 72.8372 87.2382 72.8685 86.7786 72.842L85.6149 72.79C84.2892 72.7078 83.2215 72.5737 82.5051 72.4587C82.1173 72.402 81.7458 72.2645 81.4147 72.055C81.0837 71.8456 80.8006 71.569 80.5839 71.2432C80.4771 70.9985 80.4408 70.7291 80.4791 70.465C80.5174 70.2009 80.6288 69.9528 80.8007 69.7484C80.8982 69.6552 80.9712 69.5395 81.0133 69.4116C81.0554 69.2837 81.0654 69.1473 81.0422 69.0147C81.0174 68.8823 80.9593 68.7584 80.8733 68.6545C80.7874 68.5506 80.6765 68.4701 80.5509 68.4206C80.2232 68.1134 80.029 67.6904 80.01 67.2421C79.9911 66.7939 80.1488 66.3561 80.4494 66.0224C80.7552 65.7169 80.937 65.3094 80.9598 64.8783C80.9826 64.4472 80.8448 64.023 80.5729 63.6871C80.2683 63.328 80.0488 62.9051 79.9306 62.4497C79.8299 62.1919 79.7997 61.9121 79.8431 61.6388C79.8865 61.3656 80.002 61.1087 80.1777 60.8947C82.7792 61.8883 85.5571 62.3402 88.3404 62.2224L88.4748 62.2854C88.4748 62.2854 87.4374 62.6796 87.7063 63.5831C87.9753 64.4865 88.3705 66.1154 87.4785 67.1749C86.5865 68.2344 88.3019 68.5246 87.9781 69.7183V69.8332C87.8461 70.189 87.7451 70.5553 87.6761 70.9283C87.4895 71.8674 87.5773 72.6668 88.151 72.7489Z" fill="url(#paint18_linear)"/>
<path opacity="0.49" d="M88.3596 62.2115C85.5735 62.332 82.7924 61.88 80.1887 60.8837C79.2226 56.1174 77.1476 48.7886 73.1156 45.5526C73.1156 45.5526 55.3383 29.3153 67.1926 11.2081C67.9895 9.98474 68.8805 8.82501 69.8577 7.73948L71.4551 7.59438C71.4551 7.59438 82.088 2.00673 86.5975 8.12276C91.107 14.2388 81.2646 21.1515 80.7486 32.3213C80.2326 43.4911 93.042 45.5581 88.3596 62.2115Z" fill="white"/>
<path d="M96.0859 69.8415C95.3174 70.3398 92.559 71.2761 87.6432 70.9366C85.339 70.7538 83.0577 70.3504 80.8309 69.732C80.9082 69.6605 80.9705 69.5745 81.0143 69.479C81.0582 69.3834 81.0827 69.2802 81.0865 69.1752C81.0904 69.0702 81.0734 68.9654 81.0366 68.867C80.9998 68.7685 80.9439 68.6782 80.8721 68.6013C80.7901 68.516 80.691 68.4488 80.5812 68.4042C82.9683 69.22 85.4688 69.6579 87.9918 69.7019C90.8242 69.781 93.6523 69.4311 96.3796 68.6643C96.3796 68.6643 97.2359 69.0941 96.0859 69.8415Z" fill="url(#paint19_linear)"/>
<path d="M97.2578 64.941C96.3356 65.7103 92.8499 67.1312 87.8106 66.6439C85.4443 66.5583 83.0986 66.171 80.8309 65.4913C80.9606 65.1957 81.0069 64.8705 80.9648 64.5506C80.9227 64.2307 80.7939 63.9284 80.5921 63.6762L80.4247 63.4681C80.7568 63.5941 81.3167 63.7693 82.0715 63.9664C83.7723 64.3956 85.5085 64.6705 87.2589 64.7877H88.0659C91.1135 64.91 94.1554 64.4299 97.0163 63.3751C96.933 63.9094 97.0174 64.4564 97.2578 64.941Z" fill="url(#paint20_linear)"/>
<path d="M62.7434 90.0156L62.8065 92.7533L64.3298 92.2852C64.3298 92.2852 62.7434 91.1874 62.7434 90.0156Z" fill="#3F3D56"/>
<path d="M96.1325 34.5279L95.8004 34.3034C96.3008 32.7937 96.4775 31.1959 96.3191 29.6137C95.9239 26.2628 93.5525 24.2177 89.6495 23.8645C83.6661 23.2978 81.2975 26.3777 80.4192 28.2613C77.8831 33.5259 80.1776 42.0511 83.8336 45.8757C88.3403 50.5681 86.6002 59.4163 85.9634 62.0281C85.9417 62.0919 85.9278 62.1581 85.9223 62.2252V62.4004L86.8417 62.7125L86.9076 62.4552C87.4532 60.3647 87.7697 58.2213 87.8518 56.0626C88.0137 51.4085 86.8966 47.6442 84.6103 45.1803C81.2343 41.6514 79.0413 33.504 81.3716 28.6829C82.7851 25.7946 85.6368 24.4641 89.6248 24.8337C93.9642 25.2443 95.1636 27.7274 95.4051 29.7287C95.5309 31.0997 95.3807 32.4819 94.9632 33.7942C93.9944 33.306 92.8819 33.1817 91.8288 33.4438C89.773 34.0077 88.4748 36.1322 87.7475 37.8077C87.5656 38.2242 87.5095 38.6846 87.5861 39.1324C87.6626 39.5803 87.8685 39.9962 88.1784 40.3291C88.481 40.6548 88.8713 40.8866 89.3026 40.9968C89.7338 41.1071 90.1878 41.091 90.6102 40.9505C92.4628 40.2962 94.3951 38.0294 95.482 35.2643L95.589 35.3382C98.6082 37.4572 96.4536 40.7233 93.9752 44.5095C92.2103 47.1624 90.0201 50.464 89.784 53.7164C89.5096 56.6293 89.6358 58.9318 89.8334 61.8638L89.8472 62.0965H90.8352L90.8215 61.8228C90.6294 58.8962 90.5141 56.6211 90.7721 53.7903C90.9835 50.8117 93.0008 47.7482 94.7794 45.0297L94.859 44.9065C97.4335 40.956 99.868 37.2054 96.1325 34.5279ZM90.2479 40.0033C90.0091 40.0849 89.7516 40.0944 89.5074 40.0306C89.2633 39.9668 89.0435 39.8325 88.8755 39.6447C88.6945 39.453 88.5744 39.2121 88.5304 38.9524C88.4865 38.6927 88.5206 38.4258 88.6285 38.1855C89.15 36.9781 90.2918 34.8728 92.0676 34.38C92.3217 34.3114 92.5838 34.2764 92.8471 34.276C93.4531 34.2966 94.0472 34.4498 94.5872 34.725C93.5525 37.334 91.7931 39.4886 90.2479 40.0088V40.0033ZM95.2377 34.4923L95.2816 34.5224L95.2377 34.4923Z" fill="white"/>
</g>
<defs>
<linearGradient id="paint0_linear" x1="41.2772" y1="115.019" x2="62.0353" y2="115.019" gradientUnits="userSpaceOnUse">
<stop stop-opacity="0"/>
<stop offset="0.91" stop-opacity="0.8"/>
<stop offset="1"/>
</linearGradient>
<linearGradient id="paint1_linear" x1="12809.1" y1="5349.31" x2="11028.3" y2="2108.01" gradientUnits="userSpaceOnUse">
<stop stop-opacity="0"/>
<stop offset="0.91" stop-opacity="0.8"/>
<stop offset="1"/>
</linearGradient>
<linearGradient id="paint2_linear" x1="17168.2" y1="7263.45" x2="21898" y2="5876.82" gradientUnits="userSpaceOnUse">
<stop stop-opacity="0"/>
<stop offset="0.91" stop-opacity="0.8"/>
<stop offset="1"/>
</linearGradient>
<linearGradient id="paint3_linear" x1="146.039" y1="84.9043" x2="129.496" y2="75.2501" gradientUnits="userSpaceOnUse">
<stop offset="0.36" stop-color="#00272E"/>
<stop offset="1" stop-color="#69B9EB" stop-opacity="0"/>
</linearGradient>
<linearGradient id="paint4_linear" x1="139.529" y1="60.0652" x2="145.501" y2="60.0652" gradientUnits="userSpaceOnUse">
<stop stop-color="#ECC4D7"/>
<stop offset="0.42" stop-color="#EFD4D1"/>
<stop offset="1" stop-color="#F2EAC9"/>
</linearGradient>
<linearGradient id="paint5_linear" x1="3138.21" y1="2772.04" x2="2841.6" y2="2420.89" gradientUnits="userSpaceOnUse">
<stop stop-color="#ECC4D7"/>
<stop offset="0.42" stop-color="#EFD4D1"/>
<stop offset="1" stop-color="#F2EAC9"/>
</linearGradient>
<linearGradient id="paint6_linear" x1="7405.92" y1="6444" x2="7989.11" y2="6444" gradientUnits="userSpaceOnUse">
<stop stop-color="#ECC4D7"/>
<stop offset="0.42" stop-color="#EFD4D1"/>
<stop offset="1" stop-color="#F2EAC9"/>
</linearGradient>
<linearGradient id="paint7_linear" x1="6285.31" y1="2405.26" x2="6917.16" y2="2405.26" gradientUnits="userSpaceOnUse">
<stop stop-color="#ECC4D7"/>
<stop offset="0.42" stop-color="#EFD4D1"/>
<stop offset="1" stop-color="#F2EAC9"/>
</linearGradient>
<linearGradient id="paint8_linear" x1="15315.1" y1="6553.98" x2="17674.7" y2="5446.38" gradientUnits="userSpaceOnUse">
<stop stop-opacity="0"/>
<stop offset="0.91" stop-opacity="0.8"/>
<stop offset="1"/>
</linearGradient>
<linearGradient id="paint9_linear" x1="1907.74" y1="-826.473" x2="1939.34" y2="-826.473" gradientUnits="userSpaceOnUse">
<stop stop-color="#ECC4D7"/>
<stop offset="0.42" stop-color="#EFD4D1"/>
<stop offset="1" stop-color="#F2EAC9"/>
</linearGradient>
<linearGradient id="paint10_linear" x1="2629.05" y1="607.627" x2="2698.44" y2="607.627" gradientUnits="userSpaceOnUse">
<stop stop-color="#ECC4D7"/>
<stop offset="0.42" stop-color="#EFD4D1"/>
<stop offset="1" stop-color="#F2EAC9"/>
</linearGradient>
<linearGradient id="paint11_linear" x1="19586.5" y1="8624.32" x2="16256.5" y2="10074.2" gradientUnits="userSpaceOnUse">
<stop offset="0.36" stop-color="#00272E"/>
<stop offset="1" stop-color="#69B9EB" stop-opacity="0"/>
</linearGradient>
<linearGradient id="paint12_linear" x1="6991.51" y1="2194.41" x2="7652.67" y2="2194.41" gradientUnits="userSpaceOnUse">
<stop stop-color="#ECC4D7"/>
<stop offset="0.42" stop-color="#EFD4D1"/>
<stop offset="1" stop-color="#F2EAC9"/>
</linearGradient>
<linearGradient id="paint13_linear" x1="3704.14" y1="1484.43" x2="4049.07" y2="1484.43" gradientUnits="userSpaceOnUse">
<stop stop-color="#ECC4D7"/>
<stop offset="0.42" stop-color="#EFD4D1"/>
<stop offset="1" stop-color="#F2EAC9"/>
</linearGradient>
<linearGradient id="paint14_linear" x1="4170.28" y1="10416.1" x2="6000.28" y2="10305.3" gradientUnits="userSpaceOnUse">
<stop offset="0.36" stop-color="#00272E"/>
<stop offset="1" stop-color="#69B9EB" stop-opacity="0"/>
</linearGradient>
<linearGradient id="paint15_linear" x1="3516.62" y1="6746.04" x2="4204.97" y2="6746.04" gradientUnits="userSpaceOnUse">
<stop stop-color="#ECC4D7"/>
<stop offset="0.42" stop-color="#EFD4D1"/>
<stop offset="1" stop-color="#F2EAC9"/>
</linearGradient>
<linearGradient id="paint16_linear" x1="7234.21" y1="5160.49" x2="10513.2" y2="7479.8" gradientUnits="userSpaceOnUse">
<stop offset="0.36" stop-color="#00272E"/>
<stop offset="1" stop-color="#69B9EB" stop-opacity="0"/>
</linearGradient>
<linearGradient id="paint17_linear" x1="1401.58" y1="677.323" x2="1507.63" y2="677.323" gradientUnits="userSpaceOnUse">
<stop stop-color="#ECC4D7"/>
<stop offset="0.42" stop-color="#EFD4D1"/>
<stop offset="1" stop-color="#F2EAC9"/>
</linearGradient>
<linearGradient id="paint18_linear" x1="3653.98" y1="4256.41" x2="3130.78" y2="4270.19" gradientUnits="userSpaceOnUse">
<stop stop-opacity="0"/>
<stop offset="0.91" stop-opacity="0.8"/>
<stop offset="1"/>
</linearGradient>
<linearGradient id="paint19_linear" x1="88.0083" y1="59.5834" x2="89.8625" y2="86.9116" gradientUnits="userSpaceOnUse">
<stop stop-color="#68E1FD" stop-opacity="0"/>
<stop offset="0.02" stop-color="#66DAF6" stop-opacity="0.04"/>
<stop offset="0.18" stop-color="#58A1BC" stop-opacity="0.39"/>
<stop offset="0.35" stop-color="#4D758F" stop-opacity="0.66"/>
<stop offset="0.53" stop-color="#45566F" stop-opacity="0.85"/>
<stop offset="0.73" stop-color="#40435C" stop-opacity="0.96"/>
<stop offset="0.99" stop-color="#3F3D56"/>
</linearGradient>
<linearGradient id="paint20_linear" x1="6955.92" y1="1338.18" x2="6960.52" y2="1000.49" gradientUnits="userSpaceOnUse">
<stop stop-color="#68E1FD" stop-opacity="0"/>
<stop offset="0.02" stop-color="#66DAF6" stop-opacity="0.04"/>
<stop offset="0.18" stop-color="#58A1BC" stop-opacity="0.39"/>
<stop offset="0.35" stop-color="#4D758F" stop-opacity="0.66"/>
<stop offset="0.53" stop-color="#45566F" stop-opacity="0.85"/>
<stop offset="0.73" stop-color="#40435C" stop-opacity="0.96"/>
<stop offset="0.99" stop-color="#3F3D56"/>
</linearGradient>
<clipPath id="clip0">
<rect width="179" height="163" fill="white"/>
</clipPath>
</defs>
</svg>
