<svg width="386" height="402" viewBox="0 0 386 402" fill="none" xmlns="http://www.w3.org/2000/svg">
<path d="M200.16 233.059L198.593 237.026C198.593 237.026 203.294 241.173 200.16 242.954C200.16 242.954 216.473 241.946 200.16 233.059Z" fill="#3F3D56"/>
<path d="M13.7091 361.541L11.813 366.899L27.3584 374.154C27.3584 374.154 41.8068 375.966 46.2495 372.171C48.9446 369.803 50.9138 366.725 51.9301 363.291L13.7091 361.541Z" fill="#333333"/>
<path d="M54.4766 311.276C54.4766 311.276 72.7958 310.956 78.1552 317.586C83.5145 324.217 64.2552 343.851 64.2552 343.851L19.8364 346.975L54.4766 311.276Z" fill="#40A9FF"/>
<path d="M54.4766 311.276C54.4766 311.276 72.7958 310.956 78.1552 317.586C83.5145 324.217 64.2552 343.851 64.2552 343.851L19.8364 346.975L54.4766 311.276Z" fill="url(#paint0_linear)"/>
<path d="M53.8184 339.743C53.8184 339.743 92.3058 343.203 98.9972 345.663C111.644 350.404 107.883 368.117 102.131 370.007C97.3596 371.608 61.0662 384.846 49.462 389.087C48.5 389.433 47.4413 389.399 46.504 388.991C45.5668 388.582 44.8223 387.831 44.4238 386.892L40.4434 377.434C40.2251 376.917 40.1184 376.359 40.1303 375.797C40.1422 375.236 40.2725 374.683 40.5126 374.175C40.7527 373.667 41.0974 373.214 41.5241 372.848C41.9509 372.481 42.4503 372.208 42.9899 372.046L65.8222 365.274C65.8222 365.274 31.9264 368.679 25.0783 367.164C9.9168 363.853 -5.0331 344.515 2.92765 327.63C10.8884 310.745 53.8184 339.743 53.8184 339.743Z" fill="#40A9FF"/>
<path d="M53.8184 339.743C53.8184 339.743 92.3058 343.203 98.9972 345.663C111.644 350.404 107.883 368.117 102.131 370.007C97.3596 371.608 61.0662 384.846 49.462 389.087C48.5 389.433 47.4413 389.399 46.504 388.991C45.5668 388.582 44.8223 387.831 44.4238 386.892L40.4434 377.434C40.2251 376.917 40.1184 376.359 40.1303 375.797C40.1422 375.236 40.2725 374.683 40.5126 374.175C40.7527 373.667 41.0974 373.214 41.5241 372.848C41.9509 372.481 42.4503 372.208 42.9899 372.046L65.8222 365.274C65.8222 365.274 31.9264 368.679 25.0783 367.164C9.9168 363.853 -5.0331 344.515 2.92765 327.63C10.8884 310.745 53.8184 339.743 53.8184 339.743Z" fill="url(#paint1_linear)"/>
<path d="M154.362 244.282L152.583 251.217L161.704 259.269C161.704 259.269 159.095 259.269 157.003 263.33L156.172 272.21C156.172 272.21 162.299 285.425 179.208 273.874L206.632 298.038L267.458 276.685L268.759 268.422L154.362 244.282Z" fill="#3F3D56"/>
<path d="M319.265 250.912L289.005 239.065C287.138 238.022 285.046 237.445 282.906 237.382C280.767 237.319 278.644 237.773 276.719 238.705C275.014 239.509 273.562 240.762 272.52 242.328C271.477 243.894 270.884 245.715 270.804 247.593C269.761 258.996 275.92 311.479 275.92 311.479C278.191 312.355 280.558 312.961 282.972 313.283C285.089 313.703 287.273 313.656 289.37 313.145C291.467 312.633 293.426 311.67 295.109 310.323L295.697 270.843C295.697 270.843 329.804 291.845 341.972 290.095C355.59 288.143 377.498 277.006 362.697 251.178C347.896 225.35 319.265 250.912 319.265 250.912Z" fill="#40A9FF"/>
<path d="M319.265 250.912L289.005 239.065C287.138 238.022 285.046 237.445 282.906 237.382C280.767 237.319 278.644 237.773 276.719 238.705C275.014 239.509 273.562 240.762 272.52 242.328C271.477 243.894 270.884 245.715 270.804 247.593C269.761 258.996 275.92 311.479 275.92 311.479C278.191 312.355 280.558 312.961 282.972 313.283C285.089 313.703 287.273 313.656 289.37 313.145C291.467 312.633 293.426 311.67 295.109 310.323L295.697 270.843C295.697 270.843 329.804 291.845 341.972 290.095C355.59 288.143 377.498 277.006 362.697 251.178C347.896 225.35 319.265 250.912 319.265 250.912Z" fill="url(#paint2_linear)"/>
<path d="M294.192 181.466C294.192 181.466 285.307 209.66 282.909 215.705C280.511 221.75 238.498 226.779 238.498 226.779L240.065 244.875L287.908 238.955L302.294 218.22L294.192 181.466Z" fill="#40A9FF"/>
<path opacity="0.61" d="M294.192 181.466C294.192 181.466 285.307 209.66 282.909 215.705C280.511 221.75 238.498 226.779 238.498 226.779L240.065 244.875L287.908 238.955L302.294 218.22L294.192 181.466Z" fill="url(#paint3_linear)"/>
<path d="M318.121 172.109L327.861 177.498C345.953 185.55 352.527 203.474 362.713 251.303C362.713 251.303 354.156 270.375 322.658 257.551C322.658 257.551 301.283 226.42 297.757 214.752C294.231 203.084 285.354 183.004 301.675 175.327C317.996 167.65 318.121 172.109 318.121 172.109Z" fill="#40A9FF"/>
<path opacity="0.05" d="M339.002 213.174L350.865 257.793C350.865 257.793 338.76 265.15 322.579 257.527C306.399 249.905 312.127 242.321 306.909 233.059L322.76 224.468L339.002 213.174Z" fill="#000405"/>
<path d="M316.75 170.18C316.141 171.494 315.278 172.676 314.211 173.657C313.144 174.638 311.893 175.4 310.53 175.899C309.167 176.398 307.718 176.625 306.268 176.565C304.817 176.506 303.392 176.162 302.074 175.554L301.62 175.335C301.62 175.335 292.468 191.244 305.538 189.346C312.464 188.339 318.529 178.061 319.688 172.851L316.75 170.18Z" fill="#333333"/>
<path d="M317.338 157.419C317.338 157.598 316.923 165.447 316.601 171.102C316.367 175.477 314.483 179.602 311.328 182.653C309.499 184.546 307.303 186.048 304.872 187.066C304.285 187.283 303.65 187.335 303.036 187.215C302.422 187.095 301.853 186.808 301.393 186.386C300.931 185.962 300.594 185.419 300.42 184.817C300.246 184.215 300.241 183.578 300.406 182.973C300.719 181.794 301.032 180.435 301.283 179.013C301.8 176.061 302.067 172.867 301.228 170.61C301.204 170.525 301.176 170.442 301.142 170.36C300.672 169.196 301.142 167.923 302.247 166.642C303.767 164.846 306.431 163.026 309.095 161.488C311.765 159.981 314.517 158.622 317.338 157.419Z" fill="url(#paint4_linear)"/>
<path d="M303.031 178.412C302.487 178.686 301.91 178.888 301.315 179.013C301.832 176.061 302.098 172.867 301.26 170.61L302.278 166.642L303.062 163.69L309.158 161.488L315.324 159.262C313.789 170.18 307.935 176.124 303.031 178.412Z" fill="url(#paint5_linear)"/>
<path d="M301.471 126.319C296.837 126.595 292.501 128.692 289.416 132.151C286.332 135.609 284.749 140.147 285.017 144.767C285.017 145.212 285.088 145.657 285.15 146.102C285.698 153.19 287.524 160.122 290.541 166.564C296.253 176.28 310.67 168.283 312.95 164.284C315.23 160.285 323.849 142.189 320.237 137.043C317.847 133.544 310.827 125.952 301.471 126.319Z" fill="url(#paint6_linear)"/>
<path d="M286.255 119.447L289.217 120.962C287.45 120.921 285.698 121.3 284.107 122.067C282.515 122.834 281.13 123.968 280.065 125.374C277.36 128.071 275.819 131.714 275.771 135.527L280.809 133.184C280.809 133.184 280.425 139.37 289.953 139.846C299.481 140.323 309.581 140.705 309.581 140.705L306.368 136.238C306.368 136.238 312.284 138.581 313.326 140.799C314.26 144.301 314.931 147.867 315.332 151.468C315.332 151.468 317.683 145.36 318.678 146.696C319.673 148.031 317.644 153.569 316.398 154.779C315.152 155.99 315.363 159.637 315.246 159.934C315.128 160.231 321.169 155.248 321.436 153.537C321.702 151.827 327.704 134.497 323.786 130.888L326.137 130.716C324.73 129.762 323.121 129.142 321.436 128.905C321.436 128.905 305.851 108.372 286.255 119.447Z" fill="#333333"/>
<path d="M238.443 229.044C235.427 228.518 232.462 227.735 229.581 226.701C224.965 225.507 220.24 224.771 215.478 224.507C215.478 224.507 214.561 227.631 217.045 228.271C219.529 228.912 222.373 229.958 222.373 229.958L212.015 230.997L202.424 232.301C202.424 232.301 203.341 235.425 205.919 235.425C206.664 236.771 207.668 237.957 208.873 238.916C210.696 240.561 212.389 242.344 213.934 244.25C215.236 245.275 216.622 246.187 218.079 246.976C218.612 246.976 238.804 244.633 240.018 242.712L238.443 229.044Z" fill="url(#paint7_linear)"/>
<path d="M322.674 257.551C322.674 257.551 325.808 273.101 330.454 277.013C330.454 277.013 299.99 300.709 298.572 317.852C296.59 341.548 371.551 304.801 371.551 304.801L366.364 291.712L333.863 306.074C333.863 306.074 353.639 292.751 363.496 279.419C371.222 268.844 367.022 259.113 362.713 251.553C362.634 251.303 343.978 266.673 322.674 257.551Z" fill="#40A9FF"/>
<path d="M322.674 257.551C322.674 257.551 325.808 273.101 330.454 277.013C330.454 277.013 299.99 300.709 298.572 317.852C296.59 341.548 371.551 304.801 371.551 304.801L366.364 291.712L333.863 306.074C333.863 306.074 353.639 292.751 363.496 279.419C371.222 268.844 367.022 259.113 362.713 251.553C362.634 251.303 343.978 266.673 322.674 257.551Z" fill="url(#paint8_linear)"/>
<path d="M366.277 291.704L371.903 289.775L374.685 297.124L368.471 301.357L366.277 291.704Z" fill="url(#paint9_linear)"/>
<path d="M283.576 316.516L283.043 313.26C285.161 313.594 287.325 313.502 289.407 312.988C291.489 312.474 293.447 311.55 295.164 310.268L295.493 315.603C293.729 316.705 291.723 317.364 289.647 317.523C287.571 317.682 285.488 317.337 283.576 316.516V316.516Z" fill="url(#paint10_linear)"/>
<path d="M283.442 315.517L270.122 320.312C270.122 320.312 262.717 318.508 261.236 322.655C260.265 324.783 260.17 327.206 260.97 329.403C260.97 329.403 264.465 332.527 273.17 330.707C281.875 328.887 296.112 324.459 296.112 324.459L295.579 315.782C293.666 316.651 291.581 317.078 289.48 317.032C287.379 316.986 285.315 316.468 283.442 315.517V315.517Z" fill="#333333"/>
<path d="M372.969 288.088C372.969 288.088 369.623 289.455 370.007 290.337C370.391 291.22 371.574 289.275 374.567 297.155L372.648 298.553L376.816 307.433C375.721 308.258 374.851 309.344 374.289 310.591C373.726 311.839 373.487 313.208 373.596 314.572C374.011 316.735 377.858 317.032 380.938 315.97C384.017 314.908 385.349 308.089 385.349 308.089C385.349 308.089 383.335 291.743 379.19 289.017C375.045 286.292 372.969 288.088 372.969 288.088Z" fill="#333333"/>
<path d="M272.519 271.476L209.633 291.228L180.798 267.36C169.178 279.2 155.192 270.32 157.112 263.408C159.032 256.497 171.921 258.996 171.921 258.996L154.448 244.368L187.137 236.167C187.341 237.315 188.704 242.884 196.641 243.329C205.519 243.837 207.533 236.636 200.16 233.113L220.892 227.732L272.519 271.476Z" fill="#40A9FF"/>
<path opacity="0.05" d="M255.72 263.721C255.29 263.836 254.884 264.026 254.522 264.283C254.186 264.604 253.887 264.96 253.628 265.345C252.469 266.782 250.58 267.352 248.864 268.032C246.925 268.796 245.084 269.787 243.38 270.984C243.124 271.129 242.923 271.354 242.808 271.625C242.549 272.46 243.85 272.874 244.289 273.632C244.418 273.917 244.462 274.233 244.414 274.542C244.367 274.851 244.231 275.14 244.022 275.373C243.6 275.834 243.099 276.215 242.541 276.498C239.557 278.314 236.95 280.684 234.863 283.48C244.342 278.565 254.224 274.463 264.402 271.218C265.194 271.021 265.938 270.665 266.588 270.172C266.909 269.92 267.145 269.576 267.264 269.187C267.384 268.797 267.38 268.38 267.254 267.993C267.082 267.61 267.685 267.509 267.372 267.212C265.844 265.853 263.274 263.58 261.229 261.917C261.26 261.932 257.327 263.19 255.72 263.721Z" fill="#000405"/>
<path d="M339.277 185.941C338.16 184.63 336.712 183.642 335.082 183.078C333.453 182.514 331.701 182.395 330.01 182.733C328.319 183.072 326.749 183.856 325.465 185.004C324.18 186.152 323.227 187.621 322.705 189.26C322.141 191.064 321.546 193.228 320.958 195.891C317.824 210.285 303.634 241.587 303.634 241.587L262.42 263.776L273.703 278.169L321.969 254.474C321.969 254.474 343.344 207.411 342.96 198.437C343.086 193.989 341.797 189.615 339.277 185.941V185.941Z" fill="#40A9FF"/>
<path opacity="0.61" d="M339.277 185.941C338.16 184.63 336.712 183.642 335.082 183.078C333.453 182.514 331.701 182.395 330.01 182.733C328.319 183.072 326.749 183.856 325.465 185.004C324.18 186.152 323.227 187.621 322.705 189.26C322.141 191.064 321.546 193.228 320.958 195.891C317.824 210.285 303.634 241.587 303.634 241.587L262.42 263.776L273.703 278.169L321.969 254.474C321.969 254.474 343.344 207.411 342.96 198.437C343.086 193.989 341.797 189.615 339.277 185.941V185.941Z" fill="url(#paint11_linear)"/>
<path d="M265.946 265.79C262.968 266.589 259.927 267.132 256.857 267.415C252.161 268.264 247.56 269.572 243.121 271.32C243.121 271.32 243.591 274.522 246.083 274.077C248.575 273.632 251.615 273.429 251.615 273.429L242.737 278.732L234.565 283.941C234.565 283.941 236.696 286.401 239.031 285.3C240.285 286.206 241.703 286.861 243.207 287.229C245.542 287.953 247.819 288.854 250.016 289.923C251.63 290.31 253.273 290.559 254.929 290.665C255.407 290.454 272.903 279.794 273.021 277.576L265.946 265.79Z" fill="url(#paint12_linear)"/>
<path d="M128.247 260.074L143.291 265.994V274.881C143.291 274.881 125.269 275.264 125.269 283.051C125.269 290.837 142.264 296.945 153.657 286.549L179.592 301.388L178.652 308.995L99.7965 337.432L54.6177 282.488V273.608L128.247 260.074Z" fill="#3F3D56"/>
<path d="M128.247 251.303L143.322 265.962C143.322 265.962 125.301 266.353 125.301 274.139C125.301 281.926 142.296 288.033 153.688 277.63L179.623 301.326L100.627 329.083L54.6177 273.757L85.6144 264.307C85.6144 264.307 75.7575 257.699 85.2305 253.287C86.9805 252.43 88.8801 251.918 90.825 251.779C98.2607 251.483 99.4439 255.302 100.423 259.48V259.808L128.247 251.303Z" fill="#40A9FF"/>
<path opacity="0.05" d="M67.1463 269.938C67.1463 269.938 79.6829 297.101 85.6457 301.607C88.9679 304.122 111.933 311.588 131.436 312.643C133.261 312.744 138.965 307.472 141.661 308.168C145.578 309.191 140.948 312.697 141.857 312.744C153.61 313.299 160.121 308.168 160.121 308.168L98.2214 330.442L56.7488 271.164L67.1463 269.938Z" fill="#000405"/>
<path d="M127.541 318.563C129.641 315.824 132.044 313.33 134.703 311.128C136.878 309.833 139.218 308.838 141.661 308.168C141.661 308.168 142.758 311.487 140.877 312.112C138.997 312.736 137.916 316.017 137.916 316.017C137.916 316.017 151.596 318.625 153.249 317.821C154.903 317.016 155.059 319.57 151.831 320.047C148.603 320.523 148.697 325.139 146.503 325.513C144.309 325.888 141.058 327.974 137.829 328.747C134.088 329.068 130.321 328.894 126.625 328.231L127.541 318.563Z" fill="url(#paint13_linear)"/>
<path d="M64.7721 279.146C66.546 269.528 65.3673 259.602 61.3902 250.663C57.4131 241.724 50.8226 234.19 42.4805 229.044C39.5102 227.016 36.1051 225.708 32.5374 225.225C18.2065 224.397 2.92749 327.614 2.92749 327.614C2.92749 327.614 9.83046 347.608 30.7274 349.529C50.0338 351.31 53.7948 339.728 53.7948 339.728L64.7721 279.146Z" fill="#40A9FF"/>
<path opacity="0.61" d="M64.7721 279.146C66.546 269.528 65.3673 259.602 61.3902 250.663C57.4131 241.724 50.8226 234.19 42.4805 229.044C39.5102 227.016 36.1051 225.708 32.5374 225.225C18.2065 224.397 2.92749 327.614 2.92749 327.614C2.92749 327.614 9.83046 347.608 30.7274 349.529C50.0338 351.31 53.7948 339.728 53.7948 339.728L64.7721 279.146Z" fill="url(#paint14_linear)"/>
<path d="M32.5374 225.21C32.5374 225.21 34.6372 209.637 35.4991 199.507C36.361 189.377 39.6989 175.811 56.7565 177.584C73.8141 179.357 73.8063 205.076 69.0659 215.853C64.3255 226.631 58.0258 226.28 58.0258 226.28C58.0258 226.28 49.5323 224.413 49.8222 234.605L32.5374 225.21Z" fill="url(#paint15_linear)"/>
<path d="M38.9859 175.397C36.5011 177.773 34.7016 180.769 33.7754 184.074C33.0073 186.755 32.4828 189.5 32.2084 192.275L33.9556 190.385C33.8566 195.14 33.4904 199.885 32.8587 204.599C32.2142 208.994 31.9521 213.436 32.0752 217.876L35.2093 217.728L39.127 222.617L43.5383 219.649L46.8527 217.907L49.8144 210.644C49.0931 210.117 48.5642 209.369 48.3082 208.515C48.0522 207.661 48.0831 206.746 48.3962 205.911C49.4932 202.951 52.1807 202.264 52.8075 204.013C53.2877 206.192 53.5501 208.413 53.5911 210.644L58.2923 197.367C58.2923 197.367 61.2541 193.243 63.8319 196.094C65.375 197.813 67.3291 199.116 69.5126 199.882L67.9455 195.438L72.2079 196.531L71.8789 191.47L75.013 193.688C75.013 193.688 76.4312 185.488 73.7358 181.841C71.0405 178.193 60.4862 163.698 38.9859 175.397Z" fill="#333333"/>
<path d="M127.98 315.931L93.0815 312.166C88.3651 311.262 84.0516 308.908 80.7474 305.433C77.4432 301.959 75.3145 297.54 74.6605 292.797L61.7556 253.552C60.9749 251.09 59.5183 248.894 57.5505 247.215C55.5828 245.535 53.1826 244.438 50.6215 244.047C48.601 243.746 46.5367 243.961 44.6221 244.671C42.7074 245.382 41.005 246.565 39.6741 248.11C38.3432 249.655 37.4274 251.512 37.0124 253.506C36.5975 255.5 36.6969 257.566 37.3014 259.511L50.6215 306.894C51.2486 312.097 53.6493 316.927 57.4219 320.577C61.1945 324.226 66.1101 326.474 71.3461 326.943L126.084 334.058L127.98 315.931Z" fill="#40A9FF"/>
<path opacity="0.61" d="M127.98 315.931L93.0815 312.166C88.3651 311.262 84.0516 308.908 80.7474 305.433C77.4432 301.959 75.3145 297.54 74.6605 292.797L61.7556 253.552C60.9749 251.09 59.5183 248.894 57.5505 247.215C55.5828 245.535 53.1826 244.438 50.6215 244.047C48.601 243.746 46.5367 243.961 44.6221 244.671C42.7074 245.382 41.005 246.565 39.6741 248.11C38.3432 249.655 37.4274 251.512 37.0124 253.506C36.5975 255.5 36.6969 257.566 37.3014 259.511L50.6215 306.894C51.2486 312.097 53.6493 316.927 57.4219 320.577C61.1945 324.226 66.1101 326.474 71.3461 326.943L126.084 334.058L127.98 315.931Z" fill="url(#paint16_linear)"/>
<path d="M41.83 373.53L31.5579 375.873L35.6714 387.72L46.4216 385.245C46.4216 385.245 49.2972 376.083 41.83 373.53Z" fill="url(#paint17_linear)"/>
<path d="M27.3581 374.154C27.3581 374.154 34.0808 372.733 35.1935 375.013C36.3061 377.294 32.7332 377.146 33.4462 380.379C34.0436 382.838 34.784 385.261 35.6636 387.634L38.9779 386.892L39.6596 390.797C39.8061 391.469 40.181 392.069 40.7209 392.496C41.2608 392.923 41.9323 393.151 42.6214 393.14C50.3784 393.586 49.3442 400.599 46.6174 400.865L36.5803 401.646L31.2758 397.194C30.6408 396.754 30.1393 396.149 29.8262 395.444C27.8909 391.657 21.9438 377.559 27.3581 374.154Z" fill="#333333"/>
<path opacity="0.4" d="M190.655 132.63C190.142 133.37 189.696 134.154 189.323 134.973C187.074 139.768 179.466 156.919 178.353 171.781C178.133 175.398 176.587 178.808 174.01 181.363C171.433 183.919 168.005 185.442 164.375 185.644L150.789 186.425L146.346 186.659C142.777 186.87 139.252 185.786 136.423 183.608C133.593 181.431 131.649 178.306 130.949 174.812C128.168 161.129 122.244 140.221 110.734 130.982C110.734 130.982 59.9843 84.6608 93.8254 33.0054C96.1001 29.5153 98.6438 26.2069 101.434 23.1101C136.951 -16.0805 195.576 1.77319 209.664 38.1756C223.752 74.5781 196.257 124.781 190.655 132.63Z" fill="#40A9FF"/>
<path d="M180.297 192.04C179.114 195 177.751 196.422 178.934 198.382C180.117 200.343 183.525 205.614 166.233 207.957C162.651 208.45 159.043 208.737 155.428 208.816H149.771L146.456 208.668C142.672 208.434 139.616 208.051 137.579 207.723C136.471 207.561 135.411 207.169 134.466 206.571C133.521 205.974 132.713 205.185 132.094 204.255C131.791 203.557 131.689 202.788 131.8 202.034C131.911 201.281 132.229 200.574 132.721 199.991C132.941 199.787 133.119 199.542 133.244 199.269C133.369 198.997 133.44 198.702 133.45 198.403C133.461 198.103 133.413 197.804 133.308 197.523C133.203 197.242 133.043 196.985 132.838 196.766C132.604 196.522 132.321 196.33 132.008 196.203C131.073 195.327 130.518 194.121 130.463 192.843C130.407 191.565 130.855 190.315 131.71 189.362C132.134 188.925 132.485 188.424 132.752 187.878C133.122 187.033 133.254 186.104 133.134 185.19C133.014 184.277 132.646 183.413 132.07 182.692L131.592 182.106C130.932 181.217 130.451 180.209 130.174 179.138C129.886 178.403 129.8 177.604 129.926 176.824C130.051 176.044 130.383 175.311 130.887 174.702C131.587 178.195 133.53 181.317 136.358 183.493C139.187 185.67 142.709 186.753 146.276 186.542L150.719 186.277C150.845 186.105 150.946 185.915 151.016 185.714C151.8 183.824 150.037 181.63 150.93 178.685L154.268 178.537C162.475 178.048 170.58 176.472 178.37 173.851C179.221 174.553 179.803 175.526 180.018 176.605C180.234 177.685 180.069 178.806 179.553 179.779C179.245 180.435 179.037 181.132 178.934 181.848C178.731 183.35 178.988 184.877 179.67 186.23C179.748 186.394 179.837 186.554 179.937 186.706C180.412 187.505 180.692 188.404 180.755 189.331C180.817 190.257 180.661 191.185 180.297 192.04V192.04Z" fill="#40A9FF"/>
<path d="M130.918 174.687C146.418 170.683 162.648 170.389 178.283 173.828C178.283 173.828 152.615 184.309 130.918 174.687Z" fill="#333333"/>
<path d="M153.649 208.535C152.359 208.787 151.043 208.876 149.731 208.801L146.409 208.652C142.625 208.418 139.577 208.035 137.532 207.707C136.424 207.546 135.364 207.153 134.419 206.556C133.474 205.958 132.666 205.169 132.047 204.24C131.742 203.542 131.638 202.773 131.748 202.02C131.857 201.267 132.175 200.559 132.666 199.976C132.944 199.71 133.153 199.38 133.273 199.015C133.393 198.65 133.421 198.261 133.355 197.882C133.284 197.505 133.118 197.151 132.873 196.855C132.628 196.559 132.311 196.329 131.953 196.188C131.017 195.311 130.463 194.104 130.409 192.826C130.355 191.547 130.805 190.298 131.663 189.346C132.536 188.475 133.055 187.312 133.12 186.082C133.185 184.853 132.792 183.642 132.016 182.684C131.146 181.66 130.519 180.453 130.182 179.154C129.895 178.419 129.808 177.62 129.932 176.841C130.056 176.061 130.386 175.329 130.887 174.718C138.314 177.553 146.244 178.842 154.19 178.506L154.574 178.685C154.574 178.685 151.612 179.81 152.38 182.387C153.148 184.965 154.276 189.612 151.729 192.634C149.183 195.657 154.08 196.484 153.155 199.89V200.218C152.779 201.232 152.49 202.278 152.294 203.342C151.761 206.02 152.011 208.301 153.649 208.535Z" fill="url(#paint18_linear)"/>
<path opacity="0.49" d="M154.244 178.475C146.291 178.818 138.351 177.529 130.918 174.687C128.16 161.089 122.237 140.182 110.727 130.951C110.727 130.951 59.9768 84.6295 93.8178 32.9741C96.0925 29.484 98.6363 26.1756 101.426 23.0788L105.986 22.6649C105.986 22.6649 136.34 6.72465 149.214 24.1722C162.087 41.6198 133.99 61.34 132.517 93.2049C131.044 125.07 167.611 130.966 154.244 178.475Z" fill="white"/>
<path d="M176.301 200.241C174.107 201.663 166.232 204.334 152.199 203.365C145.621 202.844 139.109 201.693 132.752 199.929C132.972 199.725 133.15 199.479 133.275 199.207C133.401 198.934 133.471 198.64 133.482 198.34C133.492 198.041 133.444 197.742 133.339 197.461C133.234 197.18 133.074 196.923 132.869 196.703C132.635 196.46 132.352 196.268 132.039 196.141C138.854 198.468 145.992 199.717 153.194 199.843C161.28 200.068 169.354 199.07 177.139 196.883C177.139 196.883 179.584 198.109 176.301 200.241Z" fill="url(#paint19_linear)"/>
<path d="M179.647 186.261C177.014 188.456 167.063 192.509 152.678 191.119C145.922 190.875 139.226 189.77 132.752 187.831C133.122 186.988 133.255 186.06 133.134 185.147C133.014 184.235 132.646 183.372 132.071 182.653L131.593 182.059C132.541 182.419 134.139 182.918 136.294 183.481C141.149 184.705 146.106 185.489 151.103 185.824H153.406C162.107 186.173 170.79 184.803 178.957 181.794C178.72 183.318 178.961 184.878 179.647 186.261V186.261Z" fill="url(#paint20_linear)"/>
<path d="M81.1167 257.793L81.2969 265.603L85.6455 264.268C85.6455 264.268 81.1167 261.136 81.1167 257.793Z" fill="#3F3D56"/>
<path d="M176.434 99.4998L175.486 98.8594C176.915 94.5525 177.419 89.9945 176.967 85.4809C175.839 75.9214 169.069 70.0873 157.927 69.0798C140.846 67.4632 134.084 76.2494 131.577 81.6227C124.337 96.6413 130.887 120.962 141.324 131.872C154.19 145.259 149.222 170.501 147.404 177.951C147.342 178.133 147.303 178.322 147.287 178.514V179.013L149.912 179.904L150.1 179.17C151.657 173.206 152.561 167.091 152.795 160.933C153.257 147.656 150.068 136.918 143.541 129.889C133.904 119.821 127.643 96.5789 134.296 82.8254C138.331 74.5859 146.472 70.7902 157.857 71.8446C170.244 73.0161 173.668 80.0998 174.358 85.8089C174.717 89.72 174.288 93.6632 173.096 97.4067C170.331 96.0142 167.155 95.6594 164.148 96.407C158.28 98.0159 154.574 104.076 152.497 108.856C151.978 110.044 151.818 111.358 152.036 112.636C152.255 113.913 152.843 115.099 153.727 116.049C154.591 116.978 155.705 117.64 156.937 117.954C158.168 118.269 159.464 118.223 160.67 117.822C165.958 115.955 171.475 109.489 174.577 101.601L174.883 101.812C183.502 107.857 177.351 117.174 170.276 127.975C165.238 135.543 158.985 144.962 158.311 154.24C157.528 162.55 157.888 169.118 158.452 177.483L158.491 178.147H161.312L161.273 177.366C160.724 169.017 160.395 162.527 161.132 154.451C161.735 145.954 167.494 137.214 172.571 129.459L172.799 129.108C180.148 117.838 187.098 107.138 176.434 99.4998ZM159.635 115.12C158.954 115.353 158.218 115.38 157.521 115.198C156.825 115.016 156.197 114.633 155.718 114.097C155.201 113.55 154.858 112.863 154.732 112.122C154.607 111.381 154.704 110.62 155.012 109.934C156.501 106.49 159.761 100.484 164.83 99.0781C165.556 98.8822 166.304 98.7824 167.055 98.7813C168.785 98.8399 170.481 99.2772 172.023 100.062C169.069 107.505 164.047 113.652 159.635 115.135V115.12ZM173.88 99.3983L174.005 99.4842L173.88 99.3983Z" fill="white"/>
<defs>
<linearGradient id="paint0_linear" x1="19.8364" y1="329.122" x2="79.0954" y2="329.122" gradientUnits="userSpaceOnUse">
<stop stop-opacity="0"/>
<stop offset="0.91" stop-opacity="0.8"/>
<stop offset="1"/>
</linearGradient>
<linearGradient id="paint1_linear" x1="36468.7" y1="15261.3" x2="31390.6" y2="6011.67" gradientUnits="userSpaceOnUse">
<stop stop-opacity="0"/>
<stop offset="0.91" stop-opacity="0.8"/>
<stop offset="1"/>
</linearGradient>
<linearGradient id="paint2_linear" x1="48913" y1="20721.9" x2="62413.9" y2="16761.1" gradientUnits="userSpaceOnUse">
<stop stop-opacity="0"/>
<stop offset="0.91" stop-opacity="0.8"/>
<stop offset="1"/>
</linearGradient>
<linearGradient id="paint3_linear" x1="318.905" y1="243.212" x2="271.696" y2="215.642" gradientUnits="userSpaceOnUse">
<stop offset="0.36" stop-color="#00272E"/>
<stop offset="1" stop-color="#69B9EB" stop-opacity="0"/>
</linearGradient>
<linearGradient id="paint4_linear" x1="300.319" y1="172.352" x2="317.369" y2="172.352" gradientUnits="userSpaceOnUse">
<stop stop-color="#ECC4D7"/>
<stop offset="0.42" stop-color="#EFD4D1"/>
<stop offset="1" stop-color="#F2EAC9"/>
</linearGradient>
<linearGradient id="paint5_linear" x1="8860.78" y1="7908.98" x2="8014.75" y2="6906.65" gradientUnits="userSpaceOnUse">
<stop stop-color="#ECC4D7"/>
<stop offset="0.42" stop-color="#EFD4D1"/>
<stop offset="1" stop-color="#F2EAC9"/>
</linearGradient>
<linearGradient id="paint6_linear" x1="21044" y1="18384.2" x2="22708.9" y2="18384.2" gradientUnits="userSpaceOnUse">
<stop stop-color="#ECC4D7"/>
<stop offset="0.42" stop-color="#EFD4D1"/>
<stop offset="1" stop-color="#F2EAC9"/>
</linearGradient>
<linearGradient id="paint7_linear" x1="17845" y1="6862.64" x2="19648.7" y2="6862.64" gradientUnits="userSpaceOnUse">
<stop stop-color="#ECC4D7"/>
<stop offset="0.42" stop-color="#EFD4D1"/>
<stop offset="1" stop-color="#F2EAC9"/>
</linearGradient>
<linearGradient id="paint8_linear" x1="43622.7" y1="18697.9" x2="50357.1" y2="15534.6" gradientUnits="userSpaceOnUse">
<stop stop-opacity="0"/>
<stop offset="0.91" stop-opacity="0.8"/>
<stop offset="1"/>
</linearGradient>
<linearGradient id="paint9_linear" x1="5348.12" y1="-2356.73" x2="5438.33" y2="-2356.73" gradientUnits="userSpaceOnUse">
<stop stop-color="#ECC4D7"/>
<stop offset="0.42" stop-color="#EFD4D1"/>
<stop offset="1" stop-color="#F2EAC9"/>
</linearGradient>
<linearGradient id="paint10_linear" x1="7407.27" y1="1734.42" x2="7605.36" y2="1734.42" gradientUnits="userSpaceOnUse">
<stop stop-color="#ECC4D7"/>
<stop offset="0.42" stop-color="#EFD4D1"/>
<stop offset="1" stop-color="#F2EAC9"/>
</linearGradient>
<linearGradient id="paint11_linear" x1="55816.6" y1="24604.1" x2="46312.4" y2="28745.1" gradientUnits="userSpaceOnUse">
<stop offset="0.36" stop-color="#00272E"/>
<stop offset="1" stop-color="#69B9EB" stop-opacity="0"/>
</linearGradient>
<linearGradient id="paint12_linear" x1="19861" y1="6261.13" x2="21748.4" y2="6261.13" gradientUnits="userSpaceOnUse">
<stop stop-color="#ECC4D7"/>
<stop offset="0.42" stop-color="#EFD4D1"/>
<stop offset="1" stop-color="#F2EAC9"/>
</linearGradient>
<linearGradient id="paint13_linear" x1="10476.4" y1="4235.71" x2="11461.1" y2="4235.71" gradientUnits="userSpaceOnUse">
<stop stop-color="#ECC4D7"/>
<stop offset="0.42" stop-color="#EFD4D1"/>
<stop offset="1" stop-color="#F2EAC9"/>
</linearGradient>
<linearGradient id="paint14_linear" x1="11807.1" y1="29715.6" x2="17031.3" y2="29399.2" gradientUnits="userSpaceOnUse">
<stop offset="0.36" stop-color="#00272E"/>
<stop offset="1" stop-color="#69B9EB" stop-opacity="0"/>
</linearGradient>
<linearGradient id="paint15_linear" x1="9941.06" y1="19245.8" x2="11906.1" y2="19245.8" gradientUnits="userSpaceOnUse">
<stop stop-color="#ECC4D7"/>
<stop offset="0.42" stop-color="#EFD4D1"/>
<stop offset="1" stop-color="#F2EAC9"/>
</linearGradient>
<linearGradient id="paint16_linear" x1="20553.9" y1="14722.6" x2="29910.3" y2="21345.2" gradientUnits="userSpaceOnUse">
<stop offset="0.36" stop-color="#00272E"/>
<stop offset="1" stop-color="#69B9EB" stop-opacity="0"/>
</linearGradient>
<linearGradient id="paint17_linear" x1="3903.15" y1="1933.24" x2="4205.92" y2="1933.24" gradientUnits="userSpaceOnUse">
<stop stop-color="#ECC4D7"/>
<stop offset="0.42" stop-color="#EFD4D1"/>
<stop offset="1" stop-color="#F2EAC9"/>
</linearGradient>
<linearGradient id="paint18_linear" x1="10333.2" y1="12143.5" x2="8839.6" y2="12182.9" gradientUnits="userSpaceOnUse">
<stop stop-opacity="0"/>
<stop offset="0.91" stop-opacity="0.8"/>
<stop offset="1"/>
</linearGradient>
<linearGradient id="paint19_linear" x1="153.241" y1="170.977" x2="158.527" y2="248.939" gradientUnits="userSpaceOnUse">
<stop stop-color="#68E1FD" stop-opacity="0"/>
<stop offset="0.02" stop-color="#66DAF6" stop-opacity="0.04"/>
<stop offset="0.18" stop-color="#58A1BC" stop-opacity="0.39"/>
<stop offset="0.35" stop-color="#4D758F" stop-opacity="0.66"/>
<stop offset="0.53" stop-color="#45566F" stop-opacity="0.85"/>
<stop offset="0.73" stop-color="#40435C" stop-opacity="0.96"/>
<stop offset="0.99" stop-color="#3F3D56"/>
</linearGradient>
<linearGradient id="paint20_linear" x1="19759.4" y1="3818.52" x2="19772.5" y2="2855.18" gradientUnits="userSpaceOnUse">
<stop stop-color="#68E1FD" stop-opacity="0"/>
<stop offset="0.02" stop-color="#66DAF6" stop-opacity="0.04"/>
<stop offset="0.18" stop-color="#58A1BC" stop-opacity="0.39"/>
<stop offset="0.35" stop-color="#4D758F" stop-opacity="0.66"/>
<stop offset="0.53" stop-color="#45566F" stop-opacity="0.85"/>
<stop offset="0.73" stop-color="#40435C" stop-opacity="0.96"/>
<stop offset="0.99" stop-color="#3F3D56"/>
</linearGradient>
</defs>
</svg>
