<svg width="14" height="14" viewBox="0 0 14 14" fill="none" xmlns="http://www.w3.org/2000/svg">
<path fill-rule="evenodd" clip-rule="evenodd" d="M5.24999 7.00001C6.37582 7.00001 7.29166 6.08417 7.29166 4.95834C7.29166 3.83251 6.37582 2.91667 5.24999 2.91667C4.12416 2.91667 3.20832 3.83251 3.20832 4.95834C3.20832 6.08417 4.12416 7.00001 5.24999 7.00001ZM1.16666 10.0625C1.16666 8.70334 3.88499 8.02084 5.24999 8.02084C6.61499 8.02084 9.33332 8.70334 9.33332 10.0625V11.0833H1.16666V10.0625ZM5.24999 9.18751C4.20582 9.18751 3.02166 9.57834 2.53166 9.91667H7.96832C7.47832 9.57834 6.29416 9.18751 5.24999 9.18751ZM6.12499 4.95834C6.12499 4.47417 5.73416 4.08334 5.24999 4.08334C4.76582 4.08334 4.37499 4.47417 4.37499 4.95834C4.37499 5.4425 4.76582 5.83334 5.24999 5.83334C5.73416 5.83334 6.12499 5.4425 6.12499 4.95834ZM9.35665 8.05584C10.0333 8.54584 10.5 9.19917 10.5 10.0625V11.0833H12.8333V10.0625C12.8333 8.88417 10.7917 8.21334 9.35665 8.05584ZM10.7917 4.95834C10.7917 6.08417 9.87582 7.00001 8.74999 7.00001C8.43499 7.00001 8.14332 6.92417 7.87499 6.79584C8.24249 6.27667 8.45832 5.64084 8.45832 4.95834C8.45832 4.27584 8.24249 3.64001 7.87499 3.12084C8.14332 2.99251 8.43499 2.91667 8.74999 2.91667C9.87582 2.91667 10.7917 3.83251 10.7917 4.95834Z" fill="#1890FF"/>
</svg>
