<svg width="25" height="25" viewBox="0 0 25 25" fill="none" xmlns="http://www.w3.org/2000/svg">
<path d="M22.6562 5.46875H18.75V4.10156C18.75 3.99414 18.6621 3.90625 18.5547 3.90625H17.1875C17.0801 3.90625 16.9922 3.99414 16.9922 4.10156V5.46875H13.3789V4.10156C13.3789 3.99414 13.291 3.90625 13.1836 3.90625H11.8164C11.709 3.90625 11.6211 3.99414 11.6211 4.10156V5.46875H8.00781V4.10156C8.00781 3.99414 7.91992 3.90625 7.8125 3.90625H6.44531C6.33789 3.90625 6.25 3.99414 6.25 4.10156V5.46875H2.34375C1.91162 5.46875 1.5625 5.81787 1.5625 6.25V20.3125C1.5625 20.7446 1.91162 21.0937 2.34375 21.0937H22.6562C23.0884 21.0937 23.4375 20.7446 23.4375 20.3125V6.25C23.4375 5.81787 23.0884 5.46875 22.6562 5.46875ZM21.6797 19.3359H3.32031V7.22656H6.25V8.59375C6.25 8.70117 6.33789 8.78906 6.44531 8.78906H7.8125C7.91992 8.78906 8.00781 8.70117 8.00781 8.59375V7.22656H11.6211V8.59375C11.6211 8.70117 11.709 8.78906 11.8164 8.78906H13.1836C13.291 8.78906 13.3789 8.70117 13.3789 8.59375V7.22656H16.9922V8.59375C16.9922 8.70117 17.0801 8.78906 17.1875 8.78906H18.5547C18.6621 8.78906 18.75 8.70117 18.75 8.59375V7.22656H21.6797V19.3359ZM10.1562 12.1094H5.66406C5.55664 12.1094 5.46875 12.1973 5.46875 12.3047V13.4766C5.46875 13.584 5.55664 13.6719 5.66406 13.6719H10.1562C10.2637 13.6719 10.3516 13.584 10.3516 13.4766V12.3047C10.3516 12.1973 10.2637 12.1094 10.1562 12.1094ZM10.1562 15.4297H5.66406C5.55664 15.4297 5.46875 15.5176 5.46875 15.625V16.7969C5.46875 16.9043 5.55664 16.9922 5.66406 16.9922H10.1562C10.2637 16.9922 10.3516 16.9043 10.3516 16.7969V15.625C10.3516 15.5176 10.2637 15.4297 10.1562 15.4297ZM17.6807 11.0986L15.1514 14.6069L13.8623 12.8223C13.7891 12.7197 13.6719 12.6611 13.5474 12.6611H12.207C12.0483 12.6611 11.9556 12.8418 12.0483 12.9712L14.834 16.8335C14.8699 16.8834 14.9173 16.9241 14.972 16.9521C15.0268 16.9801 15.0874 16.9947 15.1489 16.9947C15.2104 16.9947 15.2711 16.9801 15.3258 16.9521C15.3806 16.9241 15.4279 16.8834 15.4639 16.8335L19.4922 11.25C19.585 11.1206 19.4922 10.9399 19.3335 10.9399H17.9932C17.8711 10.9375 17.7539 10.9985 17.6807 11.0986Z" fill="black"/>
</svg>
