<svg id="Layer_1" data-name="Layer 1" xmlns="http://www.w3.org/2000/svg" xmlns:xlink="http://www.w3.org/1999/xlink" viewBox="0 0 515.05 391.75"><defs><linearGradient id="linear-gradient" x1="241.9" y1="52.06" x2="266.18" y2="116.61" gradientUnits="userSpaceOnUse"><stop offset="0" stop-color="#fff" stop-opacity="0"/><stop offset="0.99" stop-color="#fff"/></linearGradient><linearGradient id="linear-gradient-2" x1="393.56" y1="255.05" x2="409.39" y2="255.05" gradientUnits="userSpaceOnUse"><stop offset="0" stop-color="#ecc4d7"/><stop offset="0.42" stop-color="#efd4d1"/><stop offset="1" stop-color="#f2eac9"/></linearGradient><linearGradient id="linear-gradient-3" x1="203.54" y1="233.02" x2="174.62" y2="248.13" gradientUnits="userSpaceOnUse"><stop offset="0.05" stop-opacity="0"/><stop offset="0.89" stop-opacity="0.75"/><stop offset="0.99"/></linearGradient><linearGradient id="linear-gradient-4" x1="174.37" y1="241.56" x2="194.34" y2="241.56" xlink:href="#linear-gradient"/><linearGradient id="linear-gradient-5" x1="121.16" y1="462.41" x2="177.02" y2="349.69" xlink:href="#linear-gradient-3"/><linearGradient id="linear-gradient-6" x1="167.26" y1="364.5" x2="177.83" y2="364.5" xlink:href="#linear-gradient-2"/><linearGradient id="linear-gradient-7" x1="156.55" y1="359.1" x2="167.55" y2="359.1" xlink:href="#linear-gradient-2"/><linearGradient id="linear-gradient-8" x1="179.25" y1="288.82" x2="192.73" y2="288.82" xlink:href="#linear-gradient-2"/><linearGradient id="linear-gradient-9" x1="250.46" y1="267.37" x2="248.14" y2="110.11" xlink:href="#linear-gradient"/><linearGradient id="linear-gradient-10" x1="246.65" y1="109.4" x2="261.37" y2="349.54" gradientUnits="userSpaceOnUse"><stop offset="0" stop-opacity="0"/><stop offset="0.99"/></linearGradient><linearGradient id="linear-gradient-11" x1="235.31" y1="62.11" x2="258.55" y2="260.94" xlink:href="#linear-gradient"/><linearGradient id="linear-gradient-12" x1="168.77" y1="264.53" x2="182.88" y2="264.53" xlink:href="#linear-gradient-2"/><linearGradient id="linear-gradient-13" x1="156.71" y1="292.01" x2="185.25" y2="292.01" xlink:href="#linear-gradient"/><linearGradient id="linear-gradient-14" x1="140.3" y1="284.37" x2="163.38" y2="284.37" xlink:href="#linear-gradient-2"/><linearGradient id="linear-gradient-15" x1="102.26" y1="309.64" x2="186.61" y2="334.43" xlink:href="#linear-gradient-3"/><linearGradient id="linear-gradient-16" x1="164.54" y1="363.9" x2="161.18" y2="462.54" xlink:href="#linear-gradient"/><linearGradient id="linear-gradient-17" x1="177.31" y1="256.34" x2="171.46" y2="256.51" xlink:href="#linear-gradient-3"/><linearGradient id="linear-gradient-18" x1="420.11" y1="217.16" x2="406.68" y2="297.21" xlink:href="#linear-gradient"/><linearGradient id="linear-gradient-19" x1="423.03" y1="354.96" x2="433.35" y2="222.07" xlink:href="#linear-gradient"/><linearGradient id="linear-gradient-20" x1="379.07" y1="386.4" x2="389.4" y2="253.51" xlink:href="#linear-gradient"/><linearGradient id="linear-gradient-21" x1="397.39" y1="245.71" x2="457.3" y2="409.42" xlink:href="#linear-gradient-10"/><linearGradient id="linear-gradient-22" x1="388.61" y1="263.16" x2="471.76" y2="339.85" xlink:href="#linear-gradient"/><linearGradient id="linear-gradient-23" x1="387.86" y1="257.05" x2="415.06" y2="381.34" xlink:href="#linear-gradient-3"/><linearGradient id="linear-gradient-24" x1="411.49" y1="366.75" x2="423.84" y2="366.75" xlink:href="#linear-gradient-2"/><linearGradient id="linear-gradient-25" x1="434.11" y1="365.85" x2="392.02" y2="452.62" xlink:href="#linear-gradient"/><linearGradient id="linear-gradient-26" x1="380.28" y1="298.55" x2="391.06" y2="298.55" xlink:href="#linear-gradient-2"/><linearGradient id="linear-gradient-27" x1="431.61" y1="292.22" x2="439.07" y2="292.22" xlink:href="#linear-gradient-2"/><linearGradient id="linear-gradient-28" x1="96.68" y1="343.09" x2="237.67" y2="247.55" xlink:href="#linear-gradient-3"/><linearGradient id="linear-gradient-29" x1="82.75" y1="180.61" x2="79.65" y2="521.98" xlink:href="#linear-gradient-10"/><linearGradient id="linear-gradient-30" x1="408.54" y1="168.82" x2="490.65" y2="396.57" xlink:href="#linear-gradient-10"/><linearGradient id="linear-gradient-31" x1="444" y1="706.43" x2="4.96" y2="-148.54" xlink:href="#linear-gradient-3"/><linearGradient id="linear-gradient-32" x1="389.57" y1="345.85" x2="416.32" y2="350.73" xlink:href="#linear-gradient-3"/><linearGradient id="linear-gradient-33" x1="393.14" y1="372.94" x2="401.38" y2="372.94" xlink:href="#linear-gradient-2"/><linearGradient id="linear-gradient-34" x1="501.95" y1="470.68" x2="351.67" y2="334.34" xlink:href="#linear-gradient-3"/><linearGradient id="linear-gradient-35" x1="192.22" y1="265.84" x2="135.07" y2="333.84" xlink:href="#linear-gradient-3"/><linearGradient id="linear-gradient-36" x1="166.62" y1="267.49" x2="143.13" y2="369.75" xlink:href="#linear-gradient-3"/></defs><title>Going to School</title><path d="M480.9,159.52c-1.61,30.24-8.54,60.26-7.45,90.51-29.68.78-59-.13-88.48,5.93-33.18,6.8-67.33,6.68-101.2,6.47q-137.43-.89-274.86-3.26A401.63,401.63,0,0,1,23,210.5c12.45-35.22-5.72-77.67,15-109.57,35.89-55.37,123.75-44,178.49-40.58,30.75,1.94,61.81,3.87,92.21-1.11,19.58-3.21,63.88-10.6,66.55-10.56C405.41,49.23,485.72,70,480.9,159.52Z" transform="translate(-2.99 -48.68)" fill="#40a9fe" opacity="0.18" style="isolation:isolate"/><polygon points="247.21 80.25 247.21 99.4 249.7 99.4 249.7 91.58 264.2 91.58 259.67 85.58 264.77 79.8 247.21 80.25" fill="#40a9fe"/><polygon points="247.21 80.16 247.21 99.31 249.7 99.31 249.7 91.49 264.2 91.49 259.67 85.49 264.77 79.71 247.21 80.16" fill="url(#linear-gradient)"/><path d="M502.4,412.7c-6.54,6.61-14.88,11.45-23.58,15.25-37.71,16.43-81.34,13.93-122.2,7.83s-81.89-15.46-123.15-11.62c-24,2.24-47.49,8.91-71.44,10.14q-4.32.22-8.67.19c-14.41-.13-28.61-2.65-42.48-6.38-7.19-1.92-14.3-4.18-21.32-6.59-21.14-7.26-42.44-16.54-56.8-32.77C24.33,379.22-10.8,349.9,8.91,259.17q137.42,2.38,274.86,3.26c33.87.21,68,.33,101.2-6.48,29.51-6,58.8-5.14,88.48-5.91.09,2.38.22,4.77.42,7.16,1.37,17.07,5.87,25.74,14.94,39.92,8.45,13.2,17,26.49,22.74,41.13C521.24,362.82,521.53,393.35,502.4,412.7Z" transform="translate(-2.99 -48.68)" fill="#40a9fe"/><path d="M407.67,255.74c.43-1.65,1.08-3.24,1.53-4.89a3,3,0,0,0,.05-1.94,2.85,2.85,0,0,0-1.14-1.17,13.88,13.88,0,0,0-9.59-2.19,5.91,5.91,0,0,0-2.49.85,5.13,5.13,0,0,0-1.92,3.08,21.58,21.58,0,0,0-.39,3.69,18.37,18.37,0,0,0,0,5,4.68,4.68,0,0,0,3,3.66,4.1,4.1,0,0,1,.5.14c1,.39,1.11,1.73,1.94,2.33a2.74,2.74,0,0,0,1.54.41,6.33,6.33,0,0,0,6-3,4.47,4.47,0,0,0,.42-2.13A17.4,17.4,0,0,1,407.67,255.74Z" transform="translate(-2.99 -48.68)" fill="url(#linear-gradient-2)"/><polygon points="196.08 233.16 184.55 256.75 176.12 248.14 182.91 229.98 194.34 231.42 196.08 233.16" fill="url(#linear-gradient-3)"/><polygon points="194.34 231.42 182.81 255.01 174.37 246.4 181.17 228.24 194.34 231.42" fill="#40a9fe"/><polygon points="194.34 231.36 182.81 254.94 174.37 246.34 181.17 228.17 194.34 231.36" fill="url(#linear-gradient-4)"/><path d="M173.79,394.36c-1.25,3.93-2.44,7.86-3.58,11.82q-3.39,11.74-6.17,23.67a10.53,10.53,0,0,1-1.36,3.68,4.82,4.82,0,0,1-.65.77q-4.32.22-8.67.19c-14.41-.13-28.61-2.65-42.48-6.38L111,428a30.46,30.46,0,0,1,4.88-5.52c6-5.75,18.12-9.24,24.32-14.79a36.4,36.4,0,0,1,8.25-6.06c5.15-2.47,5.1-4.57,10.81-4.47a3.26,3.26,0,0,1,1.88.41c1.21.87.73,2.75.11,4.12q-1.44,3.21-2.9,6.43a6.57,6.57,0,0,0,4.74-2.42,18.92,18.92,0,0,0,2.78-4.69l3.66-7.79a12.24,12.24,0,0,1,2.62-4.05C176.87,384.85,174.41,392.43,173.79,394.36Z" transform="translate(-2.99 -48.68)" fill="url(#linear-gradient-5)"/><path d="M175.13,369.22c-.8,2.62-1.83,5.17-2.47,7.83a15.19,15.19,0,0,0,0,8.11,3.1,3.1,0,0,1,.24,2.06,1.67,1.67,0,0,1-1.52,1,2.84,2.84,0,0,1-1.78-.65,6.48,6.48,0,0,1-2.26-4.76,33.94,33.94,0,0,1,.33-5.42c.42-4.88-.39-9.77-.4-14.66,0-1.81.09-3.62.2-5.42q.39-6.14.92-12.25a27.63,27.63,0,0,1,0-3.41c.23-.45,1.45-.14,1.88-.39,1.82-1.09,3.54.09,5.64.44,2.26.38,1.88,2.1,1.87,4a113.57,113.57,0,0,1-.88,15.2A55,55,0,0,1,175.13,369.22Z" transform="translate(-2.99 -48.68)" fill="url(#linear-gradient-6)"/><path d="M157.67,351c-.27,2.19-.71,4.35-.93,6.54-.65,6.39.54,12.8,1,19.2a3.15,3.15,0,0,0,.61,2,1.94,1.94,0,0,0,1.07.53,3.74,3.74,0,0,0,3.63-1.92,9.9,9.9,0,0,0,1.12-4.19c.4-3.83.5-7.68.59-11.53a9.06,9.06,0,0,0-.15-2.38c-.17-.67-.5-1.29-.65-2-.42-1.95.7-3.85,1.54-5.66a21.87,21.87,0,0,0,1.87-6.92c.24-2.48.56-4.91-2.32-5.56-3.41-.78-6,.71-6.72,4.13C157.81,345.76,158,348.44,157.67,351Z" transform="translate(-2.99 -48.68)" fill="url(#linear-gradient-7)"/><path d="M187.78,276.43c1.92,2.3,2.53,5.39,3,8.34q1.08,6.53,1.8,13.1c.19,1.76.32,3.71-.72,5.14a2.07,2.07,0,0,1-1,.81,2.6,2.6,0,0,1-2.46-.95c-3-2.89-3.9-7.22-5.26-11.14-1-2.8-2.24-5.51-3-8.37-.57-2.09-1.7-7.11.13-8.86C182.29,272.55,186.39,274.75,187.78,276.43Z" transform="translate(-2.99 -48.68)" fill="url(#linear-gradient-8)"/><rect x="143.42" y="141.09" width="211.43" height="72.51" fill="#40a9fe"/><rect x="143.42" y="141.09" width="211.43" height="72.51" fill="url(#linear-gradient-9)"/><polygon points="146.14 118.66 132.84 143.13 364.59 143.13 350.09 119.57 146.14 118.66" fill="#40a9fe"/><polygon points="146.14 118.66 132.84 143.13 364.59 143.13 350.09 119.57 146.14 118.66" fill="url(#linear-gradient-10)"/><polygon points="279.08 213.84 217.44 213.84 217.44 131.95 248.56 102.8 279.08 131.95 279.08 213.84" fill="#40a9fe"/><polygon points="279.08 213.84 217.44 213.84 217.44 131.95 248.56 102.8 279.08 131.95 279.08 213.84" fill="url(#linear-gradient-11)"/><polygon points="210.27 133.16 212.99 136.34 248.56 102.8 283.24 136.11 286.41 133.39 248.34 95.09 210.27 133.16" fill="#40a9fe"/><rect x="231.65" y="167" width="32.63" height="46.83" fill="#fff"/><rect x="234.18" y="150.61" width="28.89" height="9.63" fill="#40a9fe"/><circle cx="248.74" cy="129.71" r="11.27" fill="#40a9fe"/><rect x="152.03" y="149.93" width="24.02" height="6.91" fill="#40a9fe"/><rect x="183.76" y="149.93" width="24.02" height="6.91" fill="#40a9fe"/><rect x="290.26" y="149.93" width="24.02" height="6.91" fill="#40a9fe"/><rect x="321.99" y="149.93" width="24.02" height="6.91" fill="#40a9fe"/><rect x="152.26" y="160.36" width="23.34" height="14.5" fill="#40a9fe"/><rect x="159.36" y="160.47" width="9.06" height="14.88" fill="#40a9fe"/><rect x="184.1" y="160.36" width="23.34" height="14.5" fill="#40a9fe"/><rect x="191.2" y="160.47" width="9.06" height="14.88" fill="#40a9fe"/><rect x="184.1" y="184.38" width="23.34" height="14.5" fill="#40a9fe"/><rect x="191.2" y="184.49" width="9.06" height="14.88" fill="#40a9fe"/><rect x="151.92" y="184.38" width="23.34" height="14.5" fill="#40a9fe"/><rect x="159.02" y="184.49" width="9.06" height="14.88" fill="#40a9fe"/><rect x="322.78" y="184.38" width="23.34" height="14.5" fill="#40a9fe"/><rect x="329.88" y="184.49" width="9.06" height="14.88" fill="#40a9fe"/><rect x="290.6" y="184.38" width="23.34" height="14.5" fill="#40a9fe"/><rect x="297.7" y="184.49" width="9.06" height="14.88" fill="#40a9fe"/><rect x="322.78" y="159.9" width="23.34" height="14.5" fill="#40a9fe"/><rect x="329.88" y="160.02" width="9.06" height="14.88" fill="#40a9fe"/><rect x="290.6" y="159.9" width="23.34" height="14.5" fill="#40a9fe"/><rect x="297.7" y="160.02" width="9.06" height="14.88" fill="#40a9fe"/><path d="M181.54,266c-.3.92-.82,1.94-1.77,2.11a3.86,3.86,0,0,1-1.78-.35,1.67,1.67,0,0,0-1.72.22,5.32,5.32,0,0,0-.51.94c-.5.81-2.2,4-3.15,3.93a5.75,5.75,0,0,1-2.38-.65,2.83,2.83,0,0,1-1.44-1.92c-.14-.85.79-4.79,1-5.62a19.89,19.89,0,0,1,.75-2.64,8.1,8.1,0,0,1,1.76-2.32c1.88-1.86,4.24-3.54,6.89-3.54a3,3,0,0,1,1.5.33,3.35,3.35,0,0,1,1.07,1.08,7.17,7.17,0,0,1,1,1.74,4.64,4.64,0,0,1-.17,1.95A32.28,32.28,0,0,1,181.54,266Z" transform="translate(-2.99 -48.68)" fill="url(#linear-gradient-12)"/><path d="M164.17,269.75a30.92,30.92,0,0,1,19.73,3.43,2.57,2.57,0,0,1,1,.84,2.42,2.42,0,0,1,.28,1.09c.29,3.52-1,6.94-1.77,10.4a62.41,62.41,0,0,0-1,8.95l-.88,13.08a8.71,8.71,0,0,1-1.24,4.7c-1.14,1.53-3.16,2.13-5.06,2.32a23.7,23.7,0,0,1-9.58-1.22,14.36,14.36,0,0,1-5.69-3.06,11.77,11.77,0,0,1-3.23-8,29.79,29.79,0,0,1,1.21-8.68c1.33-5.31,3-10.62,3.05-16.09C161,274.38,160.26,270.38,164.17,269.75Z" transform="translate(-2.99 -48.68)" fill="#40a9fe"/><path d="M164.17,269.75a30.92,30.92,0,0,1,19.73,3.43,2.57,2.57,0,0,1,1,.84,2.42,2.42,0,0,1,.28,1.09c.29,3.52-1,6.94-1.77,10.4a62.41,62.41,0,0,0-1,8.95l-.88,13.08a8.71,8.71,0,0,1-1.24,4.7c-1.14,1.53-3.16,2.13-5.06,2.32a23.7,23.7,0,0,1-9.58-1.22,14.36,14.36,0,0,1-5.69-3.06,11.77,11.77,0,0,1-3.23-8,29.79,29.79,0,0,1,1.21-8.68c1.33-5.31,3-10.62,3.05-16.09C161,274.38,160.26,270.38,164.17,269.75Z" transform="translate(-2.99 -48.68)" fill="url(#linear-gradient-13)"/><path d="M154.6,276.89c-1.28,1.22-2.39,2.6-3.65,3.84-1.81,1.77-3.9,3.22-5.8,4.89a14.84,14.84,0,0,0-4.49,6c-.51,1.46-.59,3.26.48,4.39s2.78,1.16,4.3,1.09a7.75,7.75,0,0,0,2.72-.48,7.58,7.58,0,0,0,1.71-1.16A112.26,112.26,0,0,0,161,285a9.23,9.23,0,0,0,1.84-2.51,8.16,8.16,0,0,0,.54-3.47c0-1.43-.07-7.4-2.2-7.44-1,0-2.38,1.78-3.12,2.38C156.89,274.93,155.69,275.84,154.6,276.89Z" transform="translate(-2.99 -48.68)" fill="url(#linear-gradient-14)"/><path d="M181.21,318.87a71.4,71.4,0,0,1,1,26.06c-2.46-2.57-6.41-3-10-2.68s-7.08,1.28-10.61.87c-3.29-.39-6.51-1.95-9.77-1.37-.92.17-1.81.5-2.74.65-2.88.47-5.72-.85-8.35-2.14-.39-.19-.84-.45-.9-.89a1.27,1.27,0,0,1,.25-.81,19.06,19.06,0,0,1,5.73-6.22,12.07,12.07,0,0,0,2.72-2.14,9.65,9.65,0,0,0,1.19-2.1,34.68,34.68,0,0,0,1.87-4.77c.71-2.59.79-5.31,1.37-7.92s1.83-5.28,4.15-6.62,5-1.1,7.46-.55c4.16.92,8.09,2.66,12.2,3.75C180.41,312.93,180.45,315.48,181.21,318.87Z" transform="translate(-2.99 -48.68)" fill="#40a9fe"/><path d="M181.21,318.87a71.4,71.4,0,0,1,1,26.06c-2.46-2.57-6.41-3-10-2.68s-7.08,1.28-10.61.87c-3.29-.39-6.51-1.95-9.77-1.37-.92.17-1.81.5-2.74.65-2.88.47-5.72-.85-8.35-2.14-.39-.19-.84-.45-.9-.89a1.27,1.27,0,0,1,.25-.81,19.06,19.06,0,0,1,5.73-6.22,12.07,12.07,0,0,0,2.72-2.14,9.65,9.65,0,0,0,1.19-2.1,34.68,34.68,0,0,0,1.87-4.77c.71-2.59.79-5.31,1.37-7.92s1.83-5.28,4.15-6.62,5-1.1,7.46-.55c4.16.92,8.09,2.66,12.2,3.75C180.41,312.93,180.45,315.48,181.21,318.87Z" transform="translate(-2.99 -48.68)" fill="url(#linear-gradient-15)"/><path d="M158.66,375.19a3.39,3.39,0,0,1,4.44.72,7.53,7.53,0,0,1,1.53,4.63A16.35,16.35,0,0,0,165,384a11,11,0,0,0,2.65,4.3c1,1.15,2.15,2.48,1.94,4s-1.74,2.53-3.25,2.82a6.9,6.9,0,0,1-6.53-2.35c-2.12-2.6-2-6.11-1.72-9.25C158.26,381,156.23,377.12,158.66,375.19Z" transform="translate(-2.99 -48.68)" fill="#3f3d56"/><path d="M159.63,383.73a4.63,4.63,0,0,1,.38-2.48,1.86,1.86,0,0,1,2.11-1,2.22,2.22,0,0,1,1.23,2.12,22.8,22.8,0,0,0-.06,2.61,6.42,6.42,0,0,0,2.31,3.52,8,8,0,0,1,2,2.37,2.47,2.47,0,0,1-.42,2.86,2.33,2.33,0,0,1-1.9.41,4.93,4.93,0,0,1-1.81-.85,8.14,8.14,0,0,1-3.24-4.12,8.32,8.32,0,0,1-.21-2.22C160,385.87,159.69,384.81,159.63,383.73Z" transform="translate(-2.99 -48.68)" fill="url(#linear-gradient-16)"/><path d="M173.53,390.06A4.29,4.29,0,0,1,171,390a10.74,10.74,0,0,1-2.13-1.1,3.13,3.13,0,0,1-1.09-1.24,3.64,3.64,0,0,1-.65-2.54c0-.61-.14-2.35.6-2.63s2.2,1.38,2.73,1.8,1.16.77,1.62.37.12-1.23.27-1.87a9.34,9.34,0,0,1,3.37.22,2.41,2.41,0,0,1,1.13.53,1.75,1.75,0,0,1,.46,1,4.73,4.73,0,0,1-1.19,3.34,5.63,5.63,0,0,1-2.35,2.14Z" transform="translate(-2.99 -48.68)" fill="#3f3d56"/><path d="M172.7,252.9a2.26,2.26,0,0,1,1,2.25,1,1,0,0,1-.25.53.83.83,0,0,1-1.06-.07,3.46,3.46,0,0,1-.66-.94c-.24-.41-1.48-1.49-1.29-1.82C170.79,252.24,172.27,252.62,172.7,252.9Z" transform="translate(-2.99 -48.68)" fill="none" stroke="#3cb6d5" stroke-miterlimit="10" stroke-width="1.51"/><path d="M167.73,249a9.07,9.07,0,0,1,2.59-2,6.73,6.73,0,0,1,1.48-.65,6,6,0,0,1,1.84-.15,10.57,10.57,0,0,1,6.13,2.37,10.2,10.2,0,0,1,3.47,5.57,7.07,7.07,0,0,1,.2,1.94,6.66,6.66,0,0,1-1.75,4,12.87,12.87,0,0,0-1,1.13,10.63,10.63,0,0,0-.91,2.24,4.62,4.62,0,0,1-1.13,1.86,2.45,2.45,0,0,1-2,.73,1.28,1.28,0,0,0-.55,0,1.64,1.64,0,0,0-.49.35,2.23,2.23,0,0,1-1.91.35,7.93,7.93,0,0,1-1.85-.79,1.19,1.19,0,0,0-.51-.17c-.44,0-.75.46-1.17.59a1.38,1.38,0,0,1-1.21-.35,6,6,0,0,0-1-.79,2.37,2.37,0,0,1-.64-.31,1.22,1.22,0,0,1-.3-.5c-1-2.6.13-5.6-.7-8.25a5.13,5.13,0,0,1-.47-2c.06-.61.38-1.18.49-1.78A6.53,6.53,0,0,1,167.73,249Z" transform="translate(-2.99 -48.68)" fill="#3f3d56"/><path d="M167.73,249a9.07,9.07,0,0,1,2.59-2,6.73,6.73,0,0,1,1.48-.65,6,6,0,0,1,1.84-.15,10.57,10.57,0,0,1,6.13,2.37,10.2,10.2,0,0,1,3.47,5.57,7.07,7.07,0,0,1,.2,1.94,6.66,6.66,0,0,1-1.75,4,12.87,12.87,0,0,0-1,1.13,10.63,10.63,0,0,0-.91,2.24,4.62,4.62,0,0,1-1.13,1.86,2.45,2.45,0,0,1-2,.73,1.28,1.28,0,0,0-.55,0,1.64,1.64,0,0,0-.49.35,2.23,2.23,0,0,1-1.91.35,7.93,7.93,0,0,1-1.85-.79,1.19,1.19,0,0,0-.51-.17c-.44,0-.75.46-1.17.59a1.38,1.38,0,0,1-1.21-.35,6,6,0,0,0-1-.79,2.37,2.37,0,0,1-.64-.31,1.22,1.22,0,0,1-.3-.5c-1-2.6.13-5.6-.7-8.25a5.13,5.13,0,0,1-.47-2c.06-.61.38-1.18.49-1.78A6.53,6.53,0,0,1,167.73,249Z" transform="translate(-2.99 -48.68)" fill="url(#linear-gradient-17)"/><path d="M387.85,271.38l3-2.8a19.53,19.53,0,0,1,5.61-4.06,16.62,16.62,0,0,1,6.69-.9c3.31.08,6.6.46,9.89.84,4.27.49,8.17,2.57,11.83,4.83a225.79,225.79,0,0,0-.5,29.77c.43,8.5,1.34,17,.82,25.51a2.29,2.29,0,0,1-2.91,2.51c-5.25,0-10.47-1-15.72-1a39.16,39.16,0,0,0-14.51,2.78,1.33,1.33,0,0,1-.93.13,1.35,1.35,0,0,1-.62-.65,19.92,19.92,0,0,1-2.45-5.5,19.58,19.58,0,0,1,0-6.3l.46-4.36a15.54,15.54,0,0,1,.63-3.45,36.57,36.57,0,0,1,2-4,24,24,0,0,0,2-9,117.69,117.69,0,0,0,.17-15.14c-.13-2.32-.38-4.78-1.82-6.59A9.2,9.2,0,0,0,387.85,271.38Z" transform="translate(-2.99 -48.68)" fill="#40a9fe"/><path d="M437.26,284.9a1.28,1.28,0,0,1,.12.69,1.22,1.22,0,0,1-.58.65,38.33,38.33,0,0,1-6.23,3.4,2.69,2.69,0,0,1-1.91.29,2.79,2.79,0,0,1-1.1-.95c-1.7-2.07-3.39-4.15-5.09-6.23a8.15,8.15,0,0,1-1.27-1.91,7.34,7.34,0,0,1-.42-2c-.22-2.1-1.1-6.7.69-8.32s4.72.79,6.24,1.94A29.63,29.63,0,0,1,437.26,284.9Z" transform="translate(-2.99 -48.68)" fill="#40a9fe"/><path d="M386.59,272.63a20.87,20.87,0,0,0-3,5.17c-.95,2.13-1.85,4.29-2.68,6.47-.94,2.48-1.82,5.11-1.43,7.73,1.25-.1,2.12-1.24,2.88-2.24s1.82-2.05,3.06-1.85,1.87,1.43,2.28,2.55c.23.62.7,1.39,1.32,1.18a1.27,1.27,0,0,0,.6-.59l3.06-4.88a10.32,10.32,0,0,0,1.41-2.84c.77-2.93-1-5.82-2-8.7-.31-.95-.36-4.48-1.23-4.8C389.69,269.39,387.25,271.85,386.59,272.63Z" transform="translate(-2.99 -48.68)" fill="#40a9fe"/><path d="M387.85,271.38l3-2.8a19.53,19.53,0,0,1,5.61-4.06,16.62,16.62,0,0,1,6.69-.9c3.31.08,6.6.46,9.89.84,4.27.49,8.17,2.57,11.83,4.83a225.79,225.79,0,0,0-.5,29.77c.43,8.5,1.34,17,.82,25.51a2.29,2.29,0,0,1-2.91,2.51c-5.25,0-10.47-1-15.72-1a39.16,39.16,0,0,0-14.51,2.78,1.33,1.33,0,0,1-.93.13,1.35,1.35,0,0,1-.62-.65,19.92,19.92,0,0,1-2.45-5.5,19.58,19.58,0,0,1,0-6.3l.46-4.36a15.54,15.54,0,0,1,.63-3.45,36.57,36.57,0,0,1,2-4,24,24,0,0,0,2-9,117.69,117.69,0,0,0,.17-15.14c-.13-2.32-.38-4.78-1.82-6.59A9.2,9.2,0,0,0,387.85,271.38Z" transform="translate(-2.99 -48.68)" fill="url(#linear-gradient-18)"/><path d="M437.26,284.9a1.28,1.28,0,0,1,.12.69,1.22,1.22,0,0,1-.58.65,38.33,38.33,0,0,1-6.23,3.4,2.69,2.69,0,0,1-1.91.29,2.79,2.79,0,0,1-1.1-.95c-1.7-2.07-3.39-4.15-5.09-6.23a8.15,8.15,0,0,1-1.27-1.91,7.34,7.34,0,0,1-.42-2c-.22-2.1-1.1-6.7.69-8.32s4.72.79,6.24,1.94A29.63,29.63,0,0,1,437.26,284.9Z" transform="translate(-2.99 -48.68)" fill="url(#linear-gradient-19)"/><path d="M386.59,272.63a20.87,20.87,0,0,0-3,5.17c-.95,2.13-1.85,4.29-2.68,6.47-.94,2.48-1.82,5.11-1.43,7.73,1.25-.1,2.12-1.24,2.88-2.24s1.82-2.05,3.06-1.85,1.87,1.43,2.28,2.55c.23.62.7,1.39,1.32,1.18a1.27,1.27,0,0,0,.6-.59l3.06-4.88a10.32,10.32,0,0,0,1.41-2.84c.77-2.93-1-5.82-2-8.7-.31-.95-.36-4.48-1.23-4.8C389.69,269.39,387.25,271.85,386.59,272.63Z" transform="translate(-2.99 -48.68)" fill="url(#linear-gradient-20)"/><path d="M397.81,266.14c.37,1.28-.6,2.51-1.22,3.68a13.24,13.24,0,0,0-1.14,3.31A51,51,0,0,0,396.73,301a20,20,0,0,0,3.35,6.55,12.52,12.52,0,0,0,9.45,4.41,38.12,38.12,0,0,0,4.26-.4,35.76,35.76,0,0,1,9.07.13c1.5.22,3.12.51,4.48-.17a6.69,6.69,0,0,0,1.87-1.61c1.55-1.71,3.11-3.54,3.61-5.79a13.55,13.55,0,0,0,.05-4.17q-.8-8.49-2.09-16.92a41,41,0,0,0-2.38-9.68,15.19,15.19,0,0,0-6.26-7.56c-2-1.14-4.37-1.67-6.18-3.09a8.82,8.82,0,0,0-1.94-1.41,1.71,1.71,0,0,0-2.14.5,6.36,6.36,0,0,0-9.55,1.36,31.66,31.66,0,0,0-4-.39c-1.17.13-3,.44-3.8,1.32C395.74,264.49,397.38,264.65,397.81,266.14Z" transform="translate(-2.99 -48.68)" fill="#40a9fe"/><path d="M397.81,266.14c.37,1.28-.6,2.51-1.22,3.68a13.24,13.24,0,0,0-1.14,3.31A51,51,0,0,0,396.73,301a20,20,0,0,0,3.35,6.55,12.52,12.52,0,0,0,9.45,4.41,38.12,38.12,0,0,0,4.26-.4,35.76,35.76,0,0,1,9.07.13c1.5.22,3.12.51,4.48-.17a6.69,6.69,0,0,0,1.87-1.61c1.55-1.71,3.11-3.54,3.61-5.79a13.55,13.55,0,0,0,.05-4.17q-.8-8.49-2.09-16.92a41,41,0,0,0-2.38-9.68,15.19,15.19,0,0,0-6.26-7.56c-2-1.14-4.37-1.67-6.18-3.09a8.82,8.82,0,0,0-1.94-1.41,1.71,1.71,0,0,0-2.14.5,6.36,6.36,0,0,0-9.55,1.36,31.66,31.66,0,0,0-4-.39c-1.17.13-3,.44-3.8,1.32C395.74,264.49,397.38,264.65,397.81,266.14Z" transform="translate(-2.99 -48.68)" fill="url(#linear-gradient-21)"/><path d="M401.15,284.92c-.27-3.9,0-8.18,2.6-11.15a11.59,11.59,0,0,1,7.34-3.62,28.44,28.44,0,0,1,8.33.44,8.07,8.07,0,0,1,4.58,1.83,8.28,8.28,0,0,1,1.8,4q2.28,9.36,4.12,18.82a7.41,7.41,0,0,1,0,4.35c-.75,1.75-2.68,2.63-4.44,3.36-5.68,2.36-13.36,4.68-18.77.2C402.28,299.55,401.51,290.13,401.15,284.92Z" transform="translate(-2.99 -48.68)" fill="#40a9fe"/><path d="M401.15,284.92c-.27-3.9,0-8.18,2.6-11.15a11.59,11.59,0,0,1,7.34-3.62,28.44,28.44,0,0,1,8.33.44,8.07,8.07,0,0,1,4.58,1.83,8.28,8.28,0,0,1,1.8,4q2.28,9.36,4.12,18.82a7.41,7.41,0,0,1,0,4.35c-.75,1.75-2.68,2.63-4.44,3.36-5.68,2.36-13.36,4.68-18.77.2C402.28,299.55,401.51,290.13,401.15,284.92Z" transform="translate(-2.99 -48.68)" fill="url(#linear-gradient-22)"/><path d="M389.65,350.74c-.33,1.92-.85,4-.06,5.73,1,2.28,3.74,3.17,6.2,3.57a38.25,38.25,0,0,0,8.21.44,2,2,0,0,0,1.11-.28,2.12,2.12,0,0,0,.62-1.63l.33-4.43-.07,1.19a13.48,13.48,0,0,1,18.25-2.45c-.42-4.22-.84-8.49-.21-12.68a37.39,37.39,0,0,0,.72-5.14,17.22,17.22,0,0,0-1.66-6.8,2.91,2.91,0,0,0-.85-1.27,3,3,0,0,0-1.2-.42,67.86,67.86,0,0,0-15.19-1.09c-3.82.15-9.8,0-13.08,2.22-2.41,1.66-2.38,4.75-2.5,7.39C390,340.3,390.55,345.58,389.65,350.74Z" transform="translate(-2.99 -48.68)" fill="#40a9fe"/><path d="M389.65,350.74c-.33,1.92-.85,4-.06,5.73,1,2.28,3.74,3.17,6.2,3.57a38.25,38.25,0,0,0,8.21.44,2,2,0,0,0,1.11-.28,2.12,2.12,0,0,0,.62-1.63l.33-4.43c0,.4,2.07,3.68,2.05,4.08,4.12-5.44,10.72-9.5,16.13-5.34-.42-4.22-.84-8.49-.21-12.68a37.39,37.39,0,0,0,.72-5.14,17.22,17.22,0,0,0-1.66-6.8,2.91,2.91,0,0,0-.85-1.27,3,3,0,0,0-1.2-.42,67.86,67.86,0,0,0-15.19-1.09c-3.82.15-9.8,0-13.08,2.22-2.41,1.66-2.38,4.75-2.5,7.39C390,340.3,390.55,345.58,389.65,350.74Z" transform="translate(-2.99 -48.68)" fill="url(#linear-gradient-23)"/><path d="M408.4,358a.31.31,0,0,0-.07.21c0,.12.18.16.31.18,4,.44,8-1.22,11.67-2.92l3-1.41c.46-.22,1-.56.95-1.07a1.12,1.12,0,0,0-.25-.54,5.49,5.49,0,0,0-3.12-2,10.74,10.74,0,0,0-3.75-.18,6.9,6.9,0,0,0-4.8,2.22A47.61,47.61,0,0,0,408.4,358Z" transform="translate(-2.99 -48.68)" fill="#3f3d56"/><path d="M416.37,377.66c.05,1.7-.09,3.41,0,5.1a.75.75,0,0,0,1,.87,11.67,11.67,0,0,0,5.24-2.52,3,3,0,0,0,1.14-1.24,3.18,3.18,0,0,0,.05-1.41c-.22-1.67-.44-3.35-.5-5-.05-1.4,0-2.8.08-4.2l.36-7.79c.15-3.3.25-6.83-1.5-9.62a4.1,4.1,0,0,0-1.69-1.64,5.22,5.22,0,0,0-2.36-.3,7.79,7.79,0,0,0-4.58,1.24c-3.68,2.87-1.64,8.13-.64,11.75C414.31,367.73,416.21,372.55,416.37,377.66Z" transform="translate(-2.99 -48.68)" fill="url(#linear-gradient-24)"/><path d="M416.74,379.43c-.78,4.17,1.86,8.39,1.17,12.56-.19,1.14-.63,2.23-.73,3.38a4.91,4.91,0,0,0,.94,3.45,3.63,3.63,0,0,0,3.19,1.42,4.67,4.67,0,0,0,1.75-.63c4.06-2.26,6-7.38,5.35-12a29.94,29.94,0,0,0-.92-3.85q-.94-3.22-1.87-6.45c-.4-1.39-.69-3.5-2.27-4.07C420.31,372.14,417.19,377,416.74,379.43Z" transform="translate(-2.99 -48.68)" fill="#3f3d56"/><path d="M420.87,389.66a14.27,14.27,0,0,1-1.57,3.12,8.17,8.17,0,0,0-.95,4.38,2.69,2.69,0,0,0,1.78,2.64,3.38,3.38,0,0,0,2.51-.51,8,8,0,0,0,1.84-1.72,13.23,13.23,0,0,0,3-5,9.31,9.31,0,0,0,.21-2.73,23.06,23.06,0,0,0-.89-5.48c-.45-1.51-.91-3.57-2.19-4.71-1.11-1-2.56-.66-3.65.41a4.29,4.29,0,0,0-1.13,4.39C420.28,386.17,421.31,387.83,420.87,389.66Z" transform="translate(-2.99 -48.68)" fill="url(#linear-gradient-25)"/><path d="M381.67,300.5a17.87,17.87,0,0,0,2,2.67l4.74,5.58c1.37-1.14,2.89-2.62,2.62-4.39a5.72,5.72,0,0,0-.68-1.71,22.24,22.24,0,0,1-1.74-4.76,7.87,7.87,0,0,1-.18-3.7,7.84,7.84,0,0,0,.41-1.77c0-1.19-.9-2.16-1.76-3a3.18,3.18,0,0,0-1.79-1.08,2.78,2.78,0,0,0-1.5.43c-1.81,1-3.35,2.45-3.47,4.56A12.75,12.75,0,0,0,381.67,300.5Z" transform="translate(-2.99 -48.68)" fill="url(#linear-gradient-26)"/><path d="M439.06,291.53c-.05,1.58-1.27,2.84-2.46,3.89a14.18,14.18,0,0,1-3.71,2.55,9.35,9.35,0,0,1-.81-3.55l-.46-5.05a1,1,0,0,1,0-.46.92.92,0,0,1,.33-.35c1-.72,3.5-2.73,4.84-1.9.6.37,1,1.54,1.36,2.14A5.25,5.25,0,0,1,439.06,291.53Z" transform="translate(-2.99 -48.68)" fill="url(#linear-gradient-27)"/><path d="M175.56,282.91c-.59,4.4.42,8.83,1.24,13.19,1.07,5.63,1.83,11.48.49,17s-5.16,10.86-10.66,12.46a20.25,20.25,0,0,1-9.48,0,17.31,17.31,0,0,1-7.42-2.86c-4.48-3.43-5.39-10-3.92-15.47s4.83-10.16,7.64-15.06,5.19-10.45,4.38-16a14.61,14.61,0,0,1-.32-3,5,5,0,0,1,6.9-3.86l2.11,5.16a1.51,1.51,0,0,0,2.45.93c2.42-1.12,4.53-2.83,7-3.83a7.24,7.24,0,0,1,6.31,0C181.53,275.43,176.24,277.83,175.56,282.91Z" transform="translate(-2.99 -48.68)" fill="#40a9fe"/><path d="M175.56,282.91c-.59,4.4.42,8.83,1.24,13.19,1.07,5.63,1.83,11.48.49,17s-5.16,10.86-10.66,12.46a20.25,20.25,0,0,1-9.48,0,17.31,17.31,0,0,1-7.42-2.86c-4.48-3.43-5.39-10-3.92-15.47s4.83-10.16,7.64-15.06,5.19-10.45,4.38-16a14.61,14.61,0,0,1-.32-3,5,5,0,0,1,6.9-3.86l2.11,5.16a1.51,1.51,0,0,0,2.45.93c2.42-1.12,4.53-2.83,7-3.83a7.24,7.24,0,0,1,6.31,0C181.53,275.43,176.24,277.83,175.56,282.91Z" transform="translate(-2.99 -48.68)" fill="url(#linear-gradient-28)"/><path d="M73,159.4c-.43,5.24,2.12,10.22,4.6,14.87-8.19.91-14.41,10-12.25,18,.34,1.26.84,2.67.2,3.8a4.48,4.48,0,0,1-2.12,1.59c-7.77,3.79-14.49,10.21-17.37,18.36s-1.4,18,4.71,24.12c5.26,5.27,13.06,7.19,20.5,7.43s14.87-.95,22.32-.86c5.27.06,10.64.76,15.76-.49s10.12-5.12,10.59-10.38c.58-6.47-5.48-11.38-10.93-14.94a16.06,16.06,0,0,0,3.69-20.29c-3.09-5.1-8.76-7.94-14.13-10.53,4.08-1.9,5.5-7.47,3.76-11.62s-5.84-6.91-10.14-8.25c2.61-1.45,5.33-3,6.91-5.54s1.53-6.36-.91-8.08c-1.35-1-3.25-1.16-4.22-2.5a10.44,10.44,0,0,1-1-2.57C89.35,142.25,73.56,152.53,73,159.4Z" transform="translate(-2.99 -48.68)" fill="#40a9fe"/><path d="M402.22,199.66c-4.75,5.31-5.06,14.41.11,19.31-2.64,2.62-5.43,5.59-5.72,9.3-.49,6.38,7.13,10.92,13.43,9.81s11.23-5.86,15.7-10.44a19.64,19.64,0,0,0,20.11,5.82,10.19,10.19,0,0,0,5.43-3.48c2.24-3.11,1.42-7.64-.88-10.71s-5.76-5-9.11-6.89c5.17-2.14,9.4-7.14,9.41-12.73s-5.16-11-10.7-10.21c5.73-3.93,6.76-12.77,3-18.58s-11.37-8.49-18.25-7.57c-7.94,1.06-15.76,8.34-13.92,16.14-4.21-2.81-10.64-1.71-13.42,2.51s-1,10.81,3.65,12.8C406.55,197.09,406.1,195.31,402.22,199.66Z" transform="translate(-2.99 -48.68)" fill="#40a9fe"/><path d="M73,159.4c-.43,5.24,2.12,10.22,4.6,14.87-8.19.91-14.41,10-12.25,18,.34,1.26.84,2.67.2,3.8a4.48,4.48,0,0,1-2.12,1.59c-7.77,3.79-14.49,10.21-17.37,18.36s-1.4,18,4.71,24.12c5.26,5.27,13.06,7.19,20.5,7.43s14.87-.95,22.32-.86c5.27.06,10.64.76,15.76-.49s10.12-5.12,10.59-10.38c.58-6.47-5.48-11.38-10.93-14.94a16.06,16.06,0,0,0,3.69-20.29c-3.09-5.1-8.76-7.94-14.13-10.53,4.08-1.9,5.5-7.47,3.76-11.62s-5.84-6.91-10.14-8.25c2.61-1.45,5.33-3,6.91-5.54s1.53-6.36-.91-8.08c-1.35-1-3.25-1.16-4.22-2.5a10.44,10.44,0,0,1-1-2.57C89.35,142.25,73.56,152.53,73,159.4Z" transform="translate(-2.99 -48.68)" fill="url(#linear-gradient-29)"/><path d="M402.22,199.66c-4.75,5.31-5.06,14.41.11,19.31-2.64,2.62-5.43,5.59-5.72,9.3-.49,6.38,7.13,10.92,13.43,9.81s11.23-5.86,15.7-10.44a19.64,19.64,0,0,0,20.11,5.82,10.19,10.19,0,0,0,5.43-3.48c2.24-3.11,1.42-7.64-.88-10.71s-5.76-5-9.11-6.89c5.17-2.14,9.4-7.14,9.41-12.73s-5.16-11-10.7-10.21c5.73-3.93,6.76-12.77,3-18.58s-11.37-8.49-18.25-7.57c-7.94,1.06-15.76,8.34-13.92,16.14-4.21-2.81-10.64-1.71-13.42,2.51s-1,10.81,3.65,12.8C406.55,197.09,406.1,195.31,402.22,199.66Z" transform="translate(-2.99 -48.68)" fill="url(#linear-gradient-30)"/><path d="M417.49,220.4c-2.32-3.66-5.56-6.64-8.75-9.58l8.77,6a2.7,2.7,0,0,0,1.61.64c1.75-.09,1.62-2.73.92-4.34l-8.57-19.49a39.51,39.51,0,0,1,11.44,18.33,41.5,41.5,0,0,0,5.73-8.67c1.15,4.49-2.5,8.72-3.29,13.29a20.73,20.73,0,0,0,.24,6.57,143.44,143.44,0,0,0,7.29,28.09c-9.1.49-10.59-.32-10.58-9.43C422.31,234.42,421.52,226.77,417.49,220.4Z" transform="translate(-2.99 -48.68)" fill="#40a9fe"/><path d="M252.28,279.1c-.1,3.46-1.68,6.69-3.47,9.64-9.69,15.95-26.55,27.46-32.66,45.1-5.21,15-1.46,31.81,5.18,46.27s10.25,29.27,17.14,43.61c29.82-.46,97.61,6.33,126.89,12-15.11-9.86-85-68-94.55-100.77-4.22-14.49,9.27-21.86,7-36.79a47.23,47.23,0,0,0-16.45-28.63c-2.37-2-10.07-8.88-13.36-5.94C244.55,266.69,252.4,274.48,252.28,279.1Z" transform="translate(-2.99 -48.68)" fill="#40a9fe"/><path d="M252.28,279.1c-.1,3.46-1.68,6.69-3.47,9.64-9.69,15.95-26.55,27.46-32.66,45.1-5.21,15-1.46,31.81,5.18,46.27s10.25,29.27,17.14,43.61c29.82-.46,97.61,6.33,126.89,12-15.11-9.86-85-68-94.55-100.77-4.22-14.49,9.27-21.86,7-36.79a47.23,47.23,0,0,0-16.45-28.63c-2.37-2-10.07-8.88-13.36-5.94C244.55,266.69,252.4,274.48,252.28,279.1Z" transform="translate(-2.99 -48.68)" fill="url(#linear-gradient-31)"/><path d="M72.65,256.15a3.63,3.63,0,0,0-.3,2.81c.56,1.17,2.13,1.34,3.43,1.35l9.28,0c-1.87-3.54-1.59-7.78-1.26-11.77.49-6,1.18-12.39,5.21-16.79,2.95-3.22,7.3-4.87,10.31-8-.23-.95-1.61-.81-2.52-.45L85.25,227.9c-2.84-4.43-2.32-10.17-1.3-15.33S86.39,202.05,85,197a136.72,136.72,0,0,1-5.47,18.81l-5-3.81a37,37,0,0,0,1.13,4,14.37,14.37,0,0,1,1.46,4,65.66,65.66,0,0,1,.48,12.38A74.33,74.33,0,0,1,72.65,256.15Z" transform="translate(-2.99 -48.68)" fill="#40a9fe"/><path d="M395.91,72.83a23.45,23.45,0,0,0-10,16.13,5.79,5.79,0,0,1-1,3.08c-1.43,1.61-4,.87-6.09.32-10.2-2.69-21.93,4-24.85,14.09-10.48.49-22.8,2-27.84,11.25a8.22,8.22,0,0,0-1.18,5c.65,4.66,6.39,6.43,11.08,6.94,10.79,1.18,21.67,1.09,32.52,1,34.52-.28,69.07-.56,103.48-3.22,1.53-.12,3.32-.39,4.06-1.74a4.46,4.46,0,0,0,.27-2.71c-1.62-13.86-9.6-26.18-18.79-36.68-7.21-8.24-17-16.28-27.81-14.7-6.88,1-9.62,1.51-15.8-.79A20.07,20.07,0,0,0,395.91,72.83Z" transform="translate(-2.99 -48.68)" fill="#fff"/><path d="M119.47,107.46a15.54,15.54,0,0,0,5,2.44c4.49.88,8.45-2.74,12.53-4.83,10.86-5.56,24-.26,34.61,5.69a21.23,21.23,0,0,0,6.24,2.68c2.5.48,5.08,0,7.61-.2,9.83-.84,19.55,2,29,4.88,1.61.48,3.36,1.07,4.25,2.51,1,1.66.47,3.88-.55,5.55-4.08,6.6-13.27,7.23-21,7.11L57.81,131.2c-2.69,0-5.45-.1-7.93-1.16a10.35,10.35,0,1,1,9.33-18.43C68.73,91.61,104,97.77,119.47,107.46Z" transform="translate(-2.99 -48.68)" fill="#fff"/><path d="M163.44,252.9c-2.44.76-4.29,2.75-5.8,4.81a12.51,12.51,0,0,0-1.43,2.31c-1.19,2.63-1,6-3.21,7.89a5,5,0,0,0,3.22-1.36,16.25,16.25,0,0,1-5.12,4,1.8,1.8,0,0,0,1.69,1,5.15,5.15,0,0,0,2-.52,11.57,11.57,0,0,0,7.93-7.55,17.08,17.08,0,0,0-1.13,2.85,1.07,1.07,0,0,0,0,1c.37.45,1.1,0,1.49-.4,2-2.24,3.35-5.1,5.73-6.94,1-.8,2.38-1.56,2.55-2.87C171.86,253.27,166,252.09,163.44,252.9Z" transform="translate(-2.99 -48.68)" fill="#3f3d56"/><path d="M404.08,338.07c-.07-.69-.3-1.55-1-1.67a27.46,27.46,0,0,0-1.48,5.36L400.54,347a27.64,27.64,0,0,0-.79,6.45,8.37,8.37,0,0,0,1.51,4.82c.68.88,2.75,3.14,3.94,1.7.65-.79.8-4.86.86-5.82C406.18,352.19,404.45,341.48,404.08,338.07Z" transform="translate(-2.99 -48.68)" fill="url(#linear-gradient-32)"/><path d="M393.25,355.45a24.88,24.88,0,0,1,3.25-.9,6.76,6.76,0,0,1,3.19.87l3.33,1.52a3.48,3.48,0,0,1,1.21.77,1.2,1.2,0,0,1,.23,1.33,1.69,1.69,0,0,1-1.33.63,17.29,17.29,0,0,1-5.87-.27,33,33,0,0,1-4.33-1.38c-.7-.26-2.52-.8-2.39-1.79S392.53,355.59,393.25,355.45Z" transform="translate(-2.99 -48.68)" fill="#3f3d56"/><path d="M393.14,389.64a1.47,1.47,0,0,0,.14.78,1.32,1.32,0,0,0,.78.51c1.64.55,3.73.33,4.72-1.09.8-1.14.67-2.66.58-4-.44-7.17,1.33-14.27,1.91-21.43a16.13,16.13,0,0,0-.42-6.27c-.57-1.76-2-3.51-3.86-3.41-3.43.19-3.54,3.22-3.56,5.79l-.1,9.84Q393.24,380,393.14,389.64Z" transform="translate(-2.99 -48.68)" fill="url(#linear-gradient-33)"/><path d="M392.77,396.26l.81,2.94a1.17,1.17,0,0,0,.25.54,1.2,1.2,0,0,0,.89.24,21.66,21.66,0,0,0,6.53-1.15,1.07,1.07,0,0,0,.47-.25,1.1,1.1,0,0,0,.22-.67,40.94,40.94,0,0,0,.07-7.09,4.18,4.18,0,0,0-.91-2.7,1,1,0,0,0-.47-.3,1.36,1.36,0,0,0-1,.39,6.71,6.71,0,0,1-3.59,1.23,5.42,5.42,0,0,1-2-.21c-.35-.12-.91-.68-1.26-.69C390.46,388.51,392.43,395.05,392.77,396.26Z" transform="translate(-2.99 -48.68)" fill="#3f3d56"/><path d="M434.57,435.47c1.67,1.16,3.47,2.34,5.5,2.43,2.92.13,5.39-2,8.11-3.09,3.11-1.24,6.57-1.09,9.89-1.49,8.44-1,16-5.63,23.18-10.13-9.86-9-24.51-9.63-37.07-14.18-2.91-1.05-5.73-2.33-8.58-3.52a152.8,152.8,0,0,0-16.21-5.72c-1.18.78-.46,2.61.38,3.75a88.18,88.18,0,0,0,19,18.9c-2.26,1.76-5.54.46-8-1a131.46,131.46,0,0,1-22.86-16.63c-1.82-1.66-10-9.34-12-5.19-1.61,3.31,7.55,10.17,9.37,11.91A249.8,249.8,0,0,0,434.57,435.47Z" transform="translate(-2.99 -48.68)" fill="url(#linear-gradient-34)"/><path d="M164.6,282.74a11.39,11.39,0,0,1,5.94,3.45,12.66,12.66,0,0,1,2.56,6.72c.3,2.41.24,4.86.52,7.27.25,2.13.75,4.22.85,6.35a9.45,9.45,0,0,1-1.51,6.1c-2.28-2.6-2.42-6.36-3-9.77a29,29,0,0,0-3.72-10.53c-1.13-1.86-2.66-3.69-4.77-4.23a24.71,24.71,0,0,0-3.45-.3c-.71-.08-1.56-.39-1.66-1.1a1.79,1.79,0,0,1,.2-.9c.52-1.29.85-3.25,2.33-3.71S163.1,282.37,164.6,282.74Z" transform="translate(-2.99 -48.68)" fill="url(#linear-gradient-35)"/><path d="M161.91,304.56a7.84,7.84,0,0,0-2.38-3.73c-2.22-1.56-5.26-.44-7.67.79a9.76,9.76,0,0,0-2.82,1.89,8.76,8.76,0,0,0-1.91,4.49,27.8,27.8,0,0,0-.45,5.31,7.3,7.3,0,0,0,.6,3.18,6.6,6.6,0,0,0,3.2,2.73,15.68,15.68,0,0,0,11.54.7,6,6,0,0,0,2.91-1.78c1.37-1.73-.06-4.15-.49-6A54.41,54.41,0,0,0,161.91,304.56Z" transform="translate(-2.99 -48.68)" fill="url(#linear-gradient-36)"/><path d="M392.41,241.83a29.31,29.31,0,0,1-.29,4.3c-.24,1.07-.75,2.16-.46,3.23a3.64,3.64,0,0,0,1.6,1.93,14.54,14.54,0,0,1,2.09,1.47A7.05,7.05,0,0,1,397,255.6a6.17,6.17,0,0,0,.89,2,3.64,3.64,0,0,0,2.29,1.21,10.61,10.61,0,0,0,2.64,0l2.93-.25a2.37,2.37,0,0,0,1.63-.57c.42-.46.41-1.16.72-1.7.17-.28.42-.51.57-.8a4.58,4.58,0,0,0,.29-1c.4-1.61,2-2.72,2.44-4.31.21-.74.18-1.53.45-2.25.47-1.27,1.76-2.06,2.37-3.27a4.21,4.21,0,0,1-2.77-1.35c-.14-.16-.22-.49,0-.53a3.5,3.5,0,0,0,1.16.16l-2.43-2.93a8.67,8.67,0,0,0-2.28-2.16c-1.57-.88-3.48-.71-5.28-.78a.63.63,0,0,1-.39-.1,1.32,1.32,0,0,1-.2-.32,1.16,1.16,0,0,0-1-.33,16.12,16.12,0,0,0-6,1.41C393.21,238.39,392.55,240,392.41,241.83Z" transform="translate(-2.99 -48.68)" fill="#3f3d56"/></svg>