<svg width="25" height="25" viewBox="0 0 25 25" fill="none" xmlns="http://www.w3.org/2000/svg">
<g opacity="0.75">
<path d="M7.03125 9.9357C7.03125 10.2361 7.15472 10.5243 7.37448 10.7367C7.59425 10.9492 7.89232 11.0685 8.20312 11.0685C8.51393 11.0685 8.812 10.9492 9.03177 10.7367C9.25153 10.5243 9.375 10.2361 9.375 9.9357C9.375 9.63526 9.25153 9.34712 9.03177 9.13468C8.812 8.92224 8.51393 8.80289 8.20312 8.80289C7.89232 8.80289 7.59425 8.92224 7.37448 9.13468C7.15472 9.34712 7.03125 9.63526 7.03125 9.9357ZM15.625 9.9357C15.625 10.2361 15.7485 10.5243 15.9682 10.7367C16.188 10.9492 16.4861 11.0685 16.7969 11.0685C17.1077 11.0685 17.4057 10.9492 17.6255 10.7367C17.8453 10.5243 17.9688 10.2361 17.9688 9.9357C17.9688 9.63526 17.8453 9.34712 17.6255 9.13468C17.4057 8.92224 17.1077 8.80289 16.7969 8.80289C16.4861 8.80289 16.188 8.92224 15.9682 9.13468C15.7485 9.34712 15.625 9.63526 15.625 9.9357ZM12.5 1.51041C6.45996 1.51041 1.5625 6.24462 1.5625 12.0833C1.5625 17.922 6.45996 22.6562 12.5 22.6562C18.54 22.6562 23.4375 17.922 23.4375 12.0833C23.4375 6.24462 18.54 1.51041 12.5 1.51041ZM18.9209 18.2902C18.0859 19.0973 17.1143 19.7298 16.0327 20.1735C14.917 20.6313 13.728 20.8626 12.5 20.8626C11.272 20.8626 10.083 20.6313 8.96484 20.1735C7.88494 19.7326 6.90401 19.093 6.07666 18.2902C5.2417 17.4831 4.5874 16.5438 4.12842 15.4983C3.65723 14.4198 3.41797 13.2704 3.41797 12.0833C3.41797 10.8962 3.65723 9.7469 4.13086 8.66601C4.58693 7.6221 5.24863 6.67387 6.0791 5.87409C6.91406 5.06697 7.88574 4.43448 8.96728 3.99079C10.083 3.53531 11.272 3.30403 12.5 3.30403C13.728 3.30403 14.917 3.53531 16.0352 3.99315C17.1151 4.43403 18.096 5.07366 18.9233 5.87645C19.7583 6.68358 20.4126 7.62287 20.8716 8.66837C21.3428 9.7469 21.582 10.8962 21.582 12.0833C21.582 13.2704 21.3428 14.4197 20.8691 15.5006C20.4136 16.5441 19.7518 17.4917 18.9209 18.2902ZM16.2109 12.5789H15.0366C14.9341 12.5789 14.8462 12.6545 14.8389 12.7536C14.7461 13.9218 13.7329 14.8446 12.5 14.8446C11.2671 14.8446 10.2515 13.9218 10.1611 12.7536C10.1538 12.6545 10.0659 12.5789 9.96338 12.5789H8.78906C8.76257 12.5789 8.73635 12.5841 8.71199 12.5941C8.68764 12.6042 8.66566 12.619 8.64739 12.6375C8.62912 12.6561 8.61494 12.678 8.60572 12.702C8.5965 12.726 8.59243 12.7516 8.59375 12.7772C8.70117 14.7667 10.4126 16.355 12.5 16.355C14.5874 16.355 16.2988 14.7667 16.4062 12.7772C16.4076 12.7516 16.4035 12.726 16.3943 12.702C16.3851 12.678 16.3709 12.6561 16.3526 12.6375C16.3343 12.619 16.3124 12.6042 16.288 12.5941C16.2636 12.5841 16.2374 12.5789 16.2109 12.5789Z" fill="black"/>
</g>
</svg>
