<?xml version="1.0" encoding="UTF-8"?>
<svg xmlns="http://www.w3.org/2000/svg" xmlns:xlink="http://www.w3.org/1999/xlink" version="1.1" id="Layer_1" x="0px" y="0px" viewBox="0 0 24 24" style="enable-background:new 0 0 24 24;" xml:space="preserve">
<g>
	<path style="fill:#303C42;" d="M12,0C7.738,0,4,3.505,4,7.5v3V13c0,2.943,1.447,5.704,2.07,6.755C6.77,20.936,9.198,24,12,24   s5.23-3.064,5.93-4.245C18.553,18.704,20,15.943,20,13v-2.5v-3C20,3.505,16.262,0,12,0z"/>
	<path style="fill:#E6E6E6;" d="M16.5,14c-1.122,0-2.339-1.572-2.892-2.455c0.282-0.248,0.814-0.542,1.296-0.808   c0.466-0.258,0.947-0.524,1.382-0.827c0.28-0.196,0.799-0.346,1.3-0.491c0.465-0.134,0.98-0.283,1.414-0.508v1.588   C19,11.544,17.944,14,16.5,14z"/>
	<path style="fill:#E6E6E6;" d="M5,8.912C5.434,9.137,5.949,9.286,6.414,9.42c0.501,0.145,1.02,0.295,1.3,0.491   c0.435,0.303,0.916,0.569,1.382,0.827c0.482,0.266,1.014,0.56,1.296,0.808C9.839,12.428,8.622,14,7.5,14C6.056,14,5,11.544,5,10.5   V8.912z"/>
	<path style="fill:#CCCCCC;" d="M16.5,14c-1.122,0-2.339-1.572-2.892-2.455c0.282-0.248,0.814-0.542,1.296-0.808   c0.466-0.258,0.947-0.524,1.382-0.827c0.28-0.196,0.799-0.346,1.3-0.491c0.465-0.134,0.98-0.283,1.414-0.508v1.588   C19,11.544,17.944,14,16.5,14z"/>
	<path style="fill:#CCCCCC;" d="M5,8.912C5.434,9.137,5.949,9.286,6.414,9.42c0.501,0.145,1.02,0.295,1.3,0.491   c0.435,0.303,0.916,0.569,1.382,0.827c0.482,0.266,1.014,0.56,1.296,0.808C9.839,12.428,8.622,14,7.5,14C6.056,14,5,11.544,5,10.5   V8.912z"/>
	
		<linearGradient id="SVGID_1_" gradientUnits="userSpaceOnUse" x1="14.3541" y1="14.0551" x2="18.6462" y2="12.0536" gradientTransform="matrix(1 0 0 -1 0 24)">
		<stop offset="0" style="stop-color:#FFFFFF;stop-opacity:0.5"/>
		<stop offset="1" style="stop-color:#FFFFFF;stop-opacity:0"/>
	</linearGradient>
	<path style="fill:url(#SVGID_1_);" d="M16.5,14c-1.122,0-2.339-1.572-2.892-2.455c0.282-0.248,0.814-0.542,1.296-0.808   c0.466-0.258,0.947-0.524,1.382-0.827c0.28-0.196,0.799-0.346,1.3-0.491c0.465-0.134,0.98-0.283,1.414-0.508v1.588   C19,11.544,17.944,14,16.5,14z"/>
	
		<linearGradient id="SVGID_2_" gradientUnits="userSpaceOnUse" x1="4.2778" y1="13.5392" x2="9.7156" y2="11.0035" gradientTransform="matrix(1 0 0 -1 0 24)">
		<stop offset="0" style="stop-color:#FFFFFF;stop-opacity:0.5"/>
		<stop offset="1" style="stop-color:#FFFFFF;stop-opacity:0"/>
	</linearGradient>
	<path style="fill:url(#SVGID_2_);" d="M5,8.912C5.434,9.137,5.949,9.286,6.414,9.42c0.501,0.145,1.02,0.295,1.3,0.491   c0.435,0.303,0.916,0.569,1.382,0.827c0.482,0.266,1.014,0.56,1.296,0.808C9.839,12.428,8.622,14,7.5,14C6.056,14,5,11.544,5,10.5   V8.912z"/>
	
		<linearGradient id="SVGID_3_" gradientUnits="userSpaceOnUse" x1="15.5329" y1="14.3799" x2="18.5156" y2="11.3972" gradientTransform="matrix(1 0 0 -1 0 24)">
		<stop offset="0" style="stop-color:#FFFFFF;stop-opacity:0.5"/>
		<stop offset="0.9301" style="stop-color:#FFFFFF;stop-opacity:0.035"/>
		<stop offset="1" style="stop-color:#FFFFFF;stop-opacity:0"/>
	</linearGradient>
	<path style="fill:url(#SVGID_3_);" d="M16.5,14c-1.122,0-2.339-1.572-2.892-2.455c0.282-0.248,0.814-0.542,1.296-0.808   c0.466-0.258,0.947-0.524,1.382-0.827c0.28-0.196,0.799-0.346,1.3-0.491c0.465-0.134,0.98-0.283,1.414-0.508v1.588   C19,11.544,17.944,14,16.5,14z"/>
	
		<linearGradient id="SVGID_4_" gradientUnits="userSpaceOnUse" x1="4.8879" y1="14.9759" x2="9.0637" y2="10.8001" gradientTransform="matrix(1 0 0 -1 0 24)">
		<stop offset="0" style="stop-color:#FFFFFF;stop-opacity:0.5"/>
		<stop offset="0.9301" style="stop-color:#FFFFFF;stop-opacity:0.035"/>
		<stop offset="1" style="stop-color:#FFFFFF;stop-opacity:0"/>
	</linearGradient>
	<path style="fill:url(#SVGID_4_);" d="M5,8.912C5.434,9.137,5.949,9.286,6.414,9.42c0.501,0.145,1.02,0.295,1.3,0.491   c0.435,0.303,0.916,0.569,1.382,0.827c0.482,0.266,1.014,0.56,1.296,0.808C9.839,12.428,8.622,14,7.5,14C6.056,14,5,11.544,5,10.5   V8.912z"/>
	<path style="fill:#E53935;" d="M16.409,8.149c0.111,0.153,0.246,0.312,0.395,0.461c-0.302,0.094-0.582,0.199-0.828,0.328   C16.114,8.691,16.259,8.427,16.409,8.149z"/>
	<path style="fill:#E53935;" d="M14.225,9.972c-0.72,0.4-1.326,0.767-1.614,1.224L12.5,10.907v-4.48   c1.005,0.49,2.417,0.837,2.508,0.859c0.227,0.055,0.447,0.096,0.661,0.128C15.025,8.621,14.416,9.652,14.225,9.972z"/>
	<path style="fill:#E53935;" d="M11.5,10.907l-0.111,0.289c-0.287-0.457-0.894-0.825-1.614-1.224c-0.191-0.32-0.8-1.35-1.444-2.559   C8.545,7.382,8.765,7.34,8.992,7.285c0.092-0.022,1.504-0.369,2.508-0.859V10.907z"/>
	<path style="fill:#E53935;" d="M8.024,8.938C7.777,8.809,7.497,8.704,7.196,8.61C7.345,8.46,7.48,8.301,7.591,8.149   C7.741,8.427,7.886,8.691,8.024,8.938z"/>
	<path style="fill:#E53935;" d="M10.802,12.722L9.36,16.473c-0.321-0.519-0.791-1.126-1.246-1.564   C9.239,14.605,10.203,13.543,10.802,12.722z"/>
	<path style="fill:#E53935;" d="M12,12.394l1.856,4.826C13.375,17.103,12.746,17,12,17s-1.375,0.103-1.856,0.22L12,12.394z"/>
	<path style="fill:#E53935;" d="M13.198,12.722c0.599,0.821,1.562,1.882,2.688,2.187c-0.455,0.438-0.925,1.045-1.246,1.564   L13.198,12.722z"/>
	<path style="fill:#E53935;" d="M17.963,8.258c-0.346-0.159-1.041-0.953-0.98-1.205c0.001-0.001,0-0.002,0.001-0.003   c0.448-0.885,0.869-1.799,1.148-2.583C18.682,5.384,19,6.422,19,7.5C19,7.832,18.593,8.048,17.963,8.258z"/>
	<path style="fill:#E53935;" d="M17.394,3.463c-0.182,0.776-0.676,1.892-1.23,2.994c-0.653,0.052-3.08-0.761-3.664-1.155V1.025   C14.425,1.166,16.19,2.099,17.394,3.463z"/>
	<path style="fill:#E53935;" d="M11.5,1.025v4.277c-0.583,0.393-3.009,1.194-3.664,1.155C7.282,5.355,6.788,4.24,6.606,3.463   C7.81,2.099,9.575,1.166,11.5,1.025z"/>
	<path style="fill:#E53935;" d="M5.868,4.467C6.147,5.25,6.567,6.162,7.014,7.046c0,0.001,0,0.002,0.001,0.002   C7.08,7.31,6.357,8.131,6.055,8.264C5.415,8.052,5,7.835,5,7.5C5,6.421,5.318,5.384,5.868,4.467z"/>
	<path style="fill:#E53935;" d="M6.529,14.785l-1.066,1.103c-0.229-0.766-0.391-1.602-0.437-2.454   C5.42,14.018,5.922,14.516,6.529,14.785z"/>
	<path style="fill:#E53935;" d="M5.827,16.951l1.434-1.483c0.558,0.471,1.536,1.791,1.607,2.286l-1.043,2.711   c-0.411-0.485-0.724-0.932-0.894-1.219C6.709,18.872,6.245,18.032,5.827,16.951z"/>
	<path style="fill:#E53935;" d="M8.585,21.274l1.104-2.87C9.975,18.292,10.825,18,12,18s2.025,0.292,2.312,0.405l1.104,2.87   C14.475,22.18,13.261,23,12,23S9.525,22.18,8.585,21.274z"/>
	<path style="fill:#E53935;" d="M17.07,19.245c-0.171,0.288-0.483,0.735-0.894,1.219l-1.038-2.699   c0.072-0.511,1.046-1.827,1.602-2.298l1.434,1.483C17.755,18.032,17.291,18.872,17.07,19.245z"/>
	<path style="fill:#E53935;" d="M18.536,15.888l-1.066-1.103c0.607-0.269,1.109-0.767,1.502-1.351   C18.927,14.286,18.765,15.122,18.536,15.888z"/>
	
		<linearGradient id="SVGID_5_" gradientUnits="userSpaceOnUse" x1="3.2181" y1="16.2851" x2="19.9837" y2="8.4672" gradientTransform="matrix(1 0 0 -1 0 24)">
		<stop offset="0" style="stop-color:#FFFFFF;stop-opacity:0.2"/>
		<stop offset="1" style="stop-color:#FFFFFF;stop-opacity:0"/>
	</linearGradient>
	<path style="fill:url(#SVGID_5_);" d="M12,0C7.738,0,4,3.505,4,7.5v3V13c0,2.943,1.447,5.704,2.07,6.755   C6.77,20.936,9.198,24,12,24s5.23-3.064,5.93-4.245C18.553,18.704,20,15.943,20,13v-2.5v-3C20,3.505,16.262,0,12,0z"/>
</g>

	<metadata>
		<rdf:RDF xmlns:rdf="http://www.w3.org/1999/02/22-rdf-syntax-ns#" xmlns:rdfs="http://www.w3.org/2000/01/rdf-schema#" xmlns:dc="http://purl.org/dc/elements/1.1/">
			<rdf:Description about="https://iconscout.com/legal#licenses" dc:title="people; avatar; head; spiderman; marvel; spider; man" dc:description="people; avatar; head; spiderman; marvel; spider; man" dc:publisher="Iconscout" dc:date="2017-03-22" dc:format="image/svg+xml" dc:language="en">
				<dc:creator>
					<rdf:Bag>
						<rdf:li>Alpár - Etele Méder</rdf:li>
					</rdf:Bag>
				</dc:creator>
			</rdf:Description>
		</rdf:RDF>
    </metadata></svg>
