<svg width="386" height="326" viewBox="0 0 386 326" fill="none" xmlns="http://www.w3.org/2000/svg">
<g clip-path="url(#clip0)">
<path opacity="0.18" d="M377.935 200.819C371.135 213.634 358.82 223.637 355.402 237.746C353.929 243.832 354.268 250.239 353.51 256.442C350.833 278.26 334.475 296.447 314.977 306.754C314.156 307.201 313.326 307.647 312.505 308.022C299.699 314.268 285.84 317.677 271.705 319.81C263.111 321.086 254.419 321.898 245.826 322.585C209.946 325.417 174.015 326.449 138.034 325.682C120.65 325.325 102.919 324.504 86.5701 318.73C85.7313 318.445 84.9014 318.132 84.0714 317.838C70.8106 312.689 59.0311 304.229 48.608 294.547L48.1261 294.1C32.5807 279.572 19.7214 261.974 11.4133 242.422C-0.441382 214.441 -2.50099 183.276 5.56812 153.978C10.4852 136.558 19.0699 119.942 20.3996 101.898C21.3991 88.3336 18.2043 74.5908 20.3282 61.1604C24.5046 34.4602 49.2951 14.8187 75.4777 8.25074C101.66 1.68277 129.208 5.36833 155.944 9.14313C169 11.0082 184.287 15.9877 197.217 11.9988C213.111 7.10848 226.47 1.01348 243.621 0.977783C250.618 0.977783 257.748 1.70954 264.146 4.54733C271.91 7.93841 278.068 14.0959 284.377 19.7179C301.984 35.4953 322.062 48.2743 340.053 63.6234C358.043 78.9725 374.356 97.6144 380.978 120.308C384.217 131.4 385.011 143.064 385.359 154.611C385.85 170.389 385.341 186.88 377.935 200.819Z" fill="#40A9FF"/>
<path d="M286.866 106.074H104.364C96.5279 106.074 90.1753 112.427 90.1753 120.263V242.074C90.1753 249.91 96.5279 256.263 104.364 256.263H286.866C294.703 256.263 301.055 249.91 301.055 242.074V120.263C301.055 112.427 294.703 106.074 286.866 106.074Z" fill="#40A9FF"/>
<path d="M101.446 196.83C99.2776 198.383 96.4041 198.615 94.1285 199.962C91.9674 201.451 90.3409 203.594 89.4881 206.075C87.3642 211.314 87.0519 217.096 87.0787 222.745C87.0787 228.715 86.9894 235.363 88.3637 241.2C88.7385 242.806 91.2372 249.865 93.6645 249.597C95.1994 249.427 96.5201 221.139 97.0912 217.471C97.6624 213.803 98.3049 210.332 99.0634 206.762C99.4471 204.995 100.036 197.847 101.446 196.83Z" fill="url(#paint0_linear)"/>
<path d="M288.187 116.801H103.052V242.476H288.187V116.801Z" fill="white"/>
<path d="M224.382 245.992C224.506 243.314 225.06 240.2 223.212 238.246C222.295 237.451 221.255 236.81 220.134 236.345C218.265 235.312 216.67 233.848 215.482 232.073C214.295 230.299 213.549 228.266 213.307 226.145C213.075 223.869 213.441 221.567 213.307 219.274C213.102 214.597 210.96 210.225 208.47 206.254C205.98 202.282 203.116 198.543 201.099 194.305C200.68 193.412 200.394 192.154 201.206 191.627C202.018 191.101 203.116 191.842 203.83 192.52C211.567 200.471 220.134 207.815 229.95 212.911C232.984 214.49 236.152 215.847 238.963 217.792C243.639 221.04 247.12 225.824 249.672 230.892C252.224 235.961 253.857 241.485 255.508 246.955C256.115 248.954 256.713 251.132 256.008 253.095C255.827 253.705 255.434 254.23 254.901 254.576C254.389 254.821 253.827 254.944 253.259 254.933C246.12 255.326 238.919 255.335 231.735 255.424C229.95 255.424 227.835 255.844 226.38 254.585C224.328 252.765 224.266 248.428 224.382 245.992Z" fill="url(#paint1_linear)"/>
<path d="M131.252 139.592H125.737V190.066H131.252V139.592Z" fill="#40A9FF"/>
<path d="M140.854 147.847H135.339V190.066H140.854V147.847Z" fill="#40A9FF"/>
<path d="M150.251 155.379H144.736V190.057H150.251V155.379Z" fill="#40A9FF"/>
<path d="M159.853 147.847H154.338V190.066H159.853V147.847Z" fill="#40A9FF"/>
<path d="M169.259 164.82H163.744V190.057H169.259V164.82Z" fill="#40A9FF"/>
<path d="M178.861 147.847H173.346V190.066H178.861V147.847Z" fill="#40A9FF"/>
<path d="M188.258 160.519H182.743V190.066H188.258V160.519Z" fill="#40A9FF"/>
<path d="M197.86 154.834H192.345V190.066H197.86V154.834Z" fill="#40A9FF"/>
<path d="M154.856 206.004H123.283V207.842H154.856V206.004Z" fill="#40A9FF"/>
<path d="M154.856 211.108H123.283V212.947H154.856V211.108Z" fill="#40A9FF"/>
<path d="M154.856 216.213H123.283V218.051H154.856V216.213Z" fill="#40A9FF"/>
<path d="M154.856 221.326H123.283V223.164H154.856V221.326Z" fill="#40A9FF"/>
<path d="M154.856 226.43H123.283V228.269H154.856V226.43Z" fill="#40A9FF"/>
<path d="M236.848 136.273C231.405 136.256 226.177 138.403 222.317 142.24C218.456 146.077 216.277 151.291 216.261 156.735C216.244 162.179 218.391 167.406 222.228 171.267C226.066 175.127 231.28 177.306 236.723 177.322V170.183H236.643C233.955 170.185 231.326 169.389 229.09 167.897C226.854 166.405 225.11 164.283 224.08 161.799C223.05 159.316 222.78 156.583 223.303 153.946C223.826 151.309 225.12 148.887 227.021 146.985C228.921 145.083 231.343 143.788 233.979 143.263C236.616 142.738 239.349 143.006 241.833 144.035C244.317 145.063 246.44 146.805 247.934 149.04C249.428 151.276 250.225 153.904 250.225 156.592C250.227 157.243 250.18 157.894 250.082 158.538H257.302C257.355 157.943 257.382 157.363 257.382 156.797C257.382 154.101 256.851 151.432 255.819 148.941C254.787 146.45 253.274 144.187 251.367 142.281C249.46 140.375 247.197 138.863 244.705 137.832C242.214 136.801 239.544 136.271 236.848 136.273Z" fill="#40A9FF"/>
<path d="M319.456 69.9058H267.948C264.113 69.9058 261.005 73.0141 261.005 76.8485V127.126C261.005 130.96 264.113 134.068 267.948 134.068H319.456C323.291 134.068 326.399 130.96 326.399 127.126V76.8485C326.399 73.0141 323.291 69.9058 319.456 69.9058Z" fill="url(#paint2_linear)"/>
<path d="M372.179 163.089H320.67C316.836 163.089 313.727 166.197 313.727 170.032V220.309C313.727 224.143 316.836 227.251 320.67 227.251H372.179C376.013 227.251 379.121 224.143 379.121 220.309V170.032C379.121 166.197 376.013 163.089 372.179 163.089Z" fill="url(#paint3_linear)"/>
<path d="M105.516 24.5457H54.007C50.1726 24.5457 47.0642 27.654 47.0642 31.4884V81.7655C47.0642 85.5999 50.1726 88.7083 54.007 88.7083H105.516C109.35 88.7083 112.458 85.5999 112.458 81.7655V31.4884C112.458 27.654 109.35 24.5457 105.516 24.5457Z" fill="url(#paint4_linear)"/>
<path d="M86.49 120.736H34.9813C31.147 120.736 28.0386 123.845 28.0386 127.679V177.956C28.0386 181.79 31.147 184.899 34.9813 184.899H86.49C90.3243 184.899 93.4327 181.79 93.4327 177.956V127.679C93.4327 123.845 90.3243 120.736 86.49 120.736Z" fill="url(#paint5_linear)"/>
<path d="M98.894 187.157C100.15 186.427 101.625 186.171 103.053 186.434C103.853 186.73 104.55 187.253 105.057 187.94C105.565 188.626 105.86 189.446 105.908 190.298C105.987 191.989 105.615 193.671 104.828 195.17C102.223 200.846 97.5287 205.326 94.6284 210.85C92.8246 214.288 91.7492 218.061 91.4694 221.933C91.1838 225.967 91.3177 230.857 87.8195 232.918C85.3387 234.337 82.0101 233.373 79.9933 231.339C77.9765 229.304 77.0038 226.475 76.3345 223.7C74.5222 215.969 74.4574 207.931 76.1448 200.172C77.8321 192.413 81.2291 185.129 86.0883 178.849C86.8468 177.876 88.1408 176.85 89.167 177.537C89.4366 177.782 89.6497 178.083 89.7914 178.419C89.9332 178.755 90.0002 179.118 89.988 179.482C90.2022 181.606 89.167 189.388 90.9964 190.78C93.0043 192.252 96.7077 188.192 98.894 187.157Z" fill="url(#paint6_linear)"/>
<path d="M87.3018 312.341L88.8099 300.293C88.0514 306.362 87.3107 312.43 86.5522 318.507V318.73C85.7134 318.445 84.8834 318.132 84.0535 317.838C70.7926 312.689 59.0131 304.229 48.59 294.546L48.1082 294.1C50.3213 285.016 52.8557 275.994 55.39 267.007C59.3879 252.809 62.5291 236.514 72.0598 225.27C73.6037 223.486 76.5218 224.021 78.7706 224.824C81.0194 225.627 83.4645 226.609 85.7669 227.501C87.2525 227.981 88.5751 228.864 89.5863 230.054C90.5412 231.392 90.6483 233.132 90.7107 234.783C91.7494 260.686 90.6091 286.629 87.3018 312.341Z" fill="#40A9FF"/>
<path d="M314.977 306.754C314.156 307.201 313.326 307.647 312.505 308.022C299.699 314.268 285.84 317.677 271.705 319.81C264.075 303.426 256.061 286.185 245.433 271.719C241.863 266.865 238.222 262.679 236.009 256.977C234.349 252.711 231.967 247.161 231.547 242.636C231.146 237.791 234.662 235.319 238.169 232.49C246.082 226.098 255.257 221.452 265.092 218.854C265.935 218.527 266.867 218.504 267.725 218.792C268.462 219.234 269.041 219.9 269.376 220.693L296.879 270.934C302.956 282.026 309.042 293.137 314.111 304.729C314.397 305.416 314.727 306.076 314.977 306.754Z" fill="#40A9FF"/>
<path d="M219.857 229.036C217.733 225.297 219.17 220.63 218.92 216.329C218.492 209.19 213.396 203.353 209.461 197.374C207.738 194.769 206.159 191.815 206.418 188.7C206.507 187.585 207.078 186.282 208.202 186.175C208.709 186.163 209.209 186.3 209.639 186.568C211.4 187.474 212.989 188.682 214.333 190.137C215.895 191.824 217.581 194.037 219.866 193.769C220.793 193.567 221.674 193.191 222.463 192.663C225.488 191.039 228.95 190.494 232.341 189.985L236.661 189.316C240.168 188.772 243.8 188.236 247.235 188.977C249.201 189.416 251.057 190.252 252.688 191.433C254.319 192.615 255.692 194.117 256.721 195.848C259.756 201.006 259.399 207.45 261.183 213.134C261.897 215.365 262.968 217.489 263.548 219.756C264.282 222.008 264.142 224.455 263.156 226.609C261.781 229.17 258.836 230.482 256.016 231.116C253.197 231.749 250.198 231.892 247.512 233.007C245.236 233.944 243.282 235.515 241.14 236.711C236.134 239.504 234.233 237.086 229.682 235.167C226.157 233.686 221.918 232.597 219.857 229.036Z" fill="url(#paint7_linear)"/>
<path d="M228.174 141.859L227.442 141.672L239.615 94.8837H261.567V95.6422H240.204L228.174 141.859Z" fill="#40A9FF"/>
<path d="M313.165 203.086H269.206L248.289 166.801L248.94 166.417L269.643 202.327H313.165V203.086Z" fill="#40A9FF"/>
<path d="M153.981 147.963L129.86 72.2886H111.021V71.53H130.404L130.493 71.7977L154.704 147.731L153.981 147.963Z" fill="#40A9FF"/>
<path d="M126.174 176.626L109.014 157.503H92.1921V156.753H109.353L126.736 176.127L126.174 176.626Z" fill="#40A9FF"/>
<path d="M257.302 158.547C256.868 163.672 254.525 168.448 250.737 171.929C246.949 175.41 241.992 177.341 236.848 177.34H236.723V170.201C239.98 170.187 243.123 169.004 245.58 166.866C248.037 164.728 249.645 161.779 250.109 158.556L257.302 158.547Z" fill="#40A9FF"/>
<path d="M257.302 158.547C256.868 163.672 254.525 168.448 250.737 171.929C246.949 175.41 241.992 177.341 236.848 177.34H236.723V170.201C239.98 170.187 243.123 169.004 245.58 166.866C248.037 164.728 249.645 161.779 250.109 158.556L257.302 158.547Z" fill="url(#paint8_linear)"/>
</g>
<defs>
<linearGradient id="paint0_linear" x1="123.952" y1="229.536" x2="39.5769" y2="209.44" gradientUnits="userSpaceOnUse">
<stop stop-opacity="0"/>
<stop offset="0.99"/>
</linearGradient>
<linearGradient id="paint1_linear" x1="13732.5" y1="16211" x2="17199.3" y2="16211" gradientUnits="userSpaceOnUse">
<stop stop-opacity="0"/>
<stop offset="0.99"/>
</linearGradient>
<linearGradient id="paint2_linear" x1="307.043" y1="-141.644" x2="287.928" y2="207.432" gradientUnits="userSpaceOnUse">
<stop offset="0.02" stop-color="white" stop-opacity="0"/>
<stop offset="0.14" stop-color="white" stop-opacity="0.06"/>
<stop offset="0.32" stop-color="white" stop-opacity="0.39"/>
<stop offset="0.68" stop-color="white" stop-opacity="0.68"/>
<stop offset="1" stop-color="white"/>
</linearGradient>
<linearGradient id="paint3_linear" x1="364.709" y1="-138.886" x2="345.603" y2="210.189" gradientUnits="userSpaceOnUse">
<stop offset="0.02" stop-color="white" stop-opacity="0"/>
<stop offset="0.32" stop-color="white" stop-opacity="0.39"/>
<stop offset="0.68" stop-color="white" stop-opacity="0.68"/>
<stop offset="1" stop-color="white"/>
</linearGradient>
<linearGradient id="paint4_linear" x1="6826.48" y1="-13602.3" x2="5478.47" y2="11499" gradientUnits="userSpaceOnUse">
<stop offset="0.02" stop-color="white" stop-opacity="0"/>
<stop offset="0.32" stop-color="white" stop-opacity="0.39"/>
<stop offset="0.68" stop-color="white" stop-opacity="0.68"/>
<stop offset="1" stop-color="white"/>
</linearGradient>
<linearGradient id="paint5_linear" x1="5400.82" y1="-6367.39" x2="4052.82" y2="18733.9" gradientUnits="userSpaceOnUse">
<stop offset="0.02" stop-color="white" stop-opacity="0"/>
<stop offset="0.32" stop-color="white" stop-opacity="0.39"/>
<stop offset="0.68" stop-color="white" stop-opacity="0.68"/>
<stop offset="1" stop-color="white"/>
</linearGradient>
<linearGradient id="paint6_linear" x1="74.8977" y1="205.406" x2="105.926" y2="205.406" gradientUnits="userSpaceOnUse">
<stop stop-color="#E5C5D5"/>
<stop offset="0.42" stop-color="#EAD4D1"/>
<stop offset="1" stop-color="#F0E9CB"/>
</linearGradient>
<linearGradient id="paint7_linear" x1="14589" y1="12484.6" x2="18310.3" y2="12484.6" gradientUnits="userSpaceOnUse">
<stop stop-color="#E5C5D5"/>
<stop offset="0.42" stop-color="#EAD4D1"/>
<stop offset="1" stop-color="#F0E9CB"/>
</linearGradient>
<linearGradient id="paint8_linear" x1="5976.47" y1="3270.03" x2="6686.68" y2="4345.04" gradientUnits="userSpaceOnUse">
<stop offset="0.02" stop-color="white" stop-opacity="0"/>
<stop offset="0.32" stop-color="white" stop-opacity="0.39"/>
<stop offset="0.68" stop-color="white" stop-opacity="0.68"/>
<stop offset="1" stop-color="white"/>
</linearGradient>
<clipPath id="clip0">
<rect width="384.842" height="324.927" fill="white" transform="translate(0.659912 0.977783)"/>
</clipPath>
</defs>
</svg>
