<svg width="436" height="321" viewBox="0 0 436 321" fill="none" xmlns="http://www.w3.org/2000/svg">
<g clip-path="url(#clip0)">
<path opacity="0.24" d="M119.845 3.9002C95.3661 10.8503 76.4013 31.9815 68.0754 56.03C62.1562 73.1363 60.8867 91.9819 51.9222 107.7C43.0433 123.261 27.6144 133.964 17.0922 148.488C-3.77301 177.193 -2.49571 216.819 7.80062 250.813C12.6528 266.843 19.6313 282.794 31.8825 294.23C46.1977 307.545 66.2373 313.138 85.7474 314.175C105.257 315.213 124.729 312.155 144.161 310.439C162.962 308.785 181.95 308.38 200.666 310.806C215.464 312.724 229.958 316.391 244.71 318.52C278.286 323.372 312.703 320.135 345.656 312.046C358.063 309.004 371.132 304.721 378.951 294.604C389.692 280.712 386.942 261.133 389.653 243.769C395.805 204.331 431.508 173.823 435.472 134.104C438.696 101.842 419.623 70.9209 394.972 49.86C379.933 37.005 362.081 26.6305 342.486 24.0017C328.467 22.1219 314.089 24.2436 300.226 21.4978C283.73 18.2217 268.916 9.32925 252.241 6.1467C240.769 3.9626 230.223 4.85964 218.751 6.0375C185.852 9.42286 152.159 -5.28863 119.845 3.9002Z" fill="#40A9FF"/>
<path opacity="0.24" d="M59.4145 264.128C58.4416 264.222 57.5205 264.611 56.7742 265.243C54.4376 267.669 58.6045 270.961 61.899 271.577C71.5021 273.371 81.3234 273.598 91.0979 273.816C118.098 274.404 145.098 274.924 172.098 275.376C181.296 275.524 190.883 275.587 199.163 271.57C197.693 269.414 195.695 267.673 193.36 266.515L229.771 266.281C232.178 266.281 234.795 266.328 236.648 267.841C238.502 269.354 238.681 272.942 236.438 273.808C274.667 280.946 313.85 281.313 352.206 274.892C356.1 274.237 361.201 271.686 359.932 267.919C359.028 265.236 355.523 264.705 352.696 264.643C275.513 262.825 198.314 261.218 121.138 259.081C110.713 258.768 100.279 259.028 89.8829 259.861C79.9292 260.719 69.2824 264.128 59.4145 264.128Z" fill="#40A9FF"/>
<path d="M149.168 213.855C152.572 218.005 152.284 223.933 152.377 229.307C152.448 234.546 152.993 239.768 154.005 244.908C154.231 246.039 154.566 247.295 155.563 247.872C156.177 248.167 156.853 248.309 157.533 248.286L163.624 248.551C165.181 248.621 166.934 248.598 167.939 247.428C168.456 246.714 168.781 245.878 168.881 245.002C170.501 236.721 171.428 228.32 171.654 219.884C171.876 216.565 171.614 213.23 170.875 209.986C170.01 206.78 168.211 203.746 165.423 201.928C162.354 199.97 158.53 199.775 154.901 199.666C151.007 199.549 147.034 199.479 143.35 200.735C140.313 201.772 134.573 205.072 138.779 208.044C142.159 210.462 146.302 210.345 149.168 213.855Z" fill="#606161"/>
<path d="M149.168 213.855C152.572 218.005 152.284 223.933 152.377 229.307C152.448 234.546 152.993 239.768 154.005 244.908C154.231 246.039 154.566 247.295 155.563 247.872C156.177 248.167 156.853 248.309 157.533 248.286L163.624 248.551C165.181 248.621 166.934 248.598 167.939 247.428C168.456 246.714 168.781 245.878 168.881 245.002C170.501 236.721 171.428 228.32 171.654 219.884C171.876 216.565 171.614 213.23 170.875 209.986C170.01 206.78 168.211 203.746 165.423 201.928C162.354 199.97 158.53 199.775 154.901 199.666C151.007 199.549 147.034 199.479 143.35 200.735C140.313 201.772 134.573 205.072 138.779 208.044C142.159 210.462 146.302 210.345 149.168 213.855Z" fill="url(#paint0_linear)"/>
<path d="M158.935 253.246C158.907 253.819 158.992 254.391 159.185 254.931C159.383 255.328 159.647 255.689 159.963 256C162.843 259.23 166.672 261.462 170.898 262.373C171.358 262.524 171.843 262.579 172.324 262.533C172.805 262.487 173.272 262.343 173.694 262.108C174.023 261.814 174.286 261.454 174.463 261.05C174.64 260.646 174.729 260.209 174.723 259.768C174.782 258.278 174.401 256.804 173.628 255.53C172.855 254.257 171.724 253.24 170.377 252.607C169.356 252.147 168.243 251.928 167.214 251.484C166.685 251.296 166.201 250.997 165.798 250.605C165.395 250.213 165.081 249.738 164.878 249.214C164.489 247.911 165.065 246.211 164.013 245.353C162.518 244.143 159.823 244.299 159.021 246.055C158.164 247.895 158.889 251.226 158.935 253.246Z" fill="#606161"/>
<path d="M252.179 188.098C234.779 205.173 242.007 228.551 242.054 238.941C242.054 241.64 250.878 246.686 252.179 234.588C252.256 233.886 253.269 202.809 276.829 204.33C285.731 204.908 296.939 193.262 289.89 182.115C284.516 173.613 257.592 182.809 252.179 188.098Z" fill="#606161"/>
<path d="M252.179 188.098C234.779 205.173 242.007 228.551 242.054 238.941C242.054 241.64 250.878 246.686 252.179 234.588C252.256 233.886 253.269 202.809 276.829 204.33C285.731 204.908 296.939 193.262 289.89 182.115C284.516 173.613 257.592 182.809 252.179 188.098Z" fill="url(#paint1_linear)"/>
<path d="M243.65 241.047C244.188 243.067 243.323 245.158 242.544 247.092C241.207 250.155 240.29 253.385 239.818 256.694C239.699 257.22 239.765 257.771 240.005 258.254C240.558 259.136 241.89 258.964 242.848 258.551C244.412 257.875 245.797 256.841 246.89 255.532C248.171 253.84 249.197 251.968 249.936 249.978C250.439 248.935 250.805 247.831 251.026 246.694C251.181 244.922 250.991 243.136 250.465 241.437C250.426 241.096 250.262 240.782 250.006 240.555C249.766 240.431 249.495 240.379 249.227 240.407C247.934 240.407 246.688 241.016 245.387 241.016L243.65 241.047Z" fill="#606161"/>
<path d="M115.188 267.997C124.298 267.997 131.684 265.07 131.684 261.46C131.684 257.85 124.298 254.924 115.188 254.924C106.077 254.924 98.6917 257.85 98.6917 261.46C98.6917 265.07 106.077 267.997 115.188 267.997Z" fill="#40A9FF"/>
<path d="M115.188 267.997C124.298 267.997 131.684 265.07 131.684 261.46C131.684 257.85 124.298 254.924 115.188 254.924C106.077 254.924 98.6917 257.85 98.6917 261.46C98.6917 265.07 106.077 267.997 115.188 267.997Z" fill="url(#paint2_linear)"/>
<path d="M314.244 267.997C323.355 267.997 330.74 265.07 330.74 261.46C330.74 257.85 323.355 254.924 314.244 254.924C305.134 254.924 297.749 257.85 297.749 261.46C297.749 265.07 305.134 267.997 314.244 267.997Z" fill="#40A9FF"/>
<path d="M314.244 267.997C323.355 267.997 330.74 265.07 330.74 261.46C330.74 257.85 323.355 254.924 314.244 254.924C305.134 254.924 297.749 257.85 297.749 261.46C297.749 265.07 305.134 267.997 314.244 267.997Z" fill="url(#paint3_linear)"/>
<path d="M309.595 212.677H318.334V257.342C318.334 258.498 317.875 259.607 317.059 260.425C316.242 261.243 315.135 261.702 313.98 261.702C312.825 261.702 311.718 261.243 310.902 260.425C310.085 259.607 309.626 258.498 309.626 257.342V212.677H309.595Z" fill="#40A9FF"/>
<path d="M309.595 212.677H318.334V257.342C318.334 258.498 317.875 259.607 317.059 260.425C316.242 261.243 315.135 261.702 313.98 261.702C312.825 261.702 311.718 261.243 310.902 260.425C310.085 259.607 309.626 258.498 309.626 257.342V212.677H309.595Z" fill="url(#paint4_linear)"/>
<path d="M119.596 217.037C119.596 214.629 117.648 212.677 115.246 212.677C112.843 212.677 110.896 214.629 110.896 217.037V257.342C110.896 259.75 112.843 261.702 115.246 261.702C117.648 261.702 119.596 259.75 119.596 257.342V217.037Z" fill="#40A9FF"/>
<path d="M119.596 217.037C119.596 214.629 117.648 212.677 115.246 212.677C112.843 212.677 110.896 214.629 110.896 217.037V257.342C110.896 259.75 112.843 261.702 115.246 261.702C117.648 261.702 119.596 259.75 119.596 257.342V217.037Z" fill="url(#paint5_linear)"/>
<path d="M82.1646 158.886C75.155 163.613 73.6908 173.464 74.9291 181.85C78.356 205.048 98.754 224.635 122.041 227.092C128.888 227.81 136.388 226.975 141.513 222.412C147.245 217.334 148.694 208.605 146.661 201.21C144.628 193.816 139.651 187.583 134.199 182.216C126.679 174.828 118.038 168.678 108.599 163.995C100.382 159.892 91.4874 152.614 82.1646 158.886Z" fill="#40A9FF"/>
<path d="M82.1646 158.886C75.155 163.613 73.6908 173.464 74.9291 181.85C78.356 205.048 98.754 224.635 122.041 227.092C128.888 227.81 136.388 226.975 141.513 222.412C147.245 217.334 148.694 208.605 146.661 201.21C144.628 193.816 139.651 187.583 134.199 182.216C126.679 174.828 118.038 168.678 108.599 163.995C100.382 159.892 91.4874 152.614 82.1646 158.886Z" fill="url(#paint6_linear)"/>
<path d="M346.847 158.886C353.857 163.613 355.321 173.464 354.082 181.85C350.656 205.048 330.258 224.635 306.97 227.092C300.124 227.81 292.624 226.975 287.499 222.412C281.767 217.334 280.318 208.605 282.359 201.21C284.399 193.816 289.368 187.583 294.82 182.216C302.342 174.826 310.985 168.676 320.429 163.995C328.638 159.892 337.524 152.614 346.847 158.886Z" fill="#40A9FF"/>
<path d="M346.847 158.886C353.857 163.613 355.321 173.464 354.082 181.85C350.656 205.048 330.258 224.635 306.97 227.092C300.124 227.81 292.624 226.975 287.499 222.412C281.767 217.334 280.318 208.605 282.359 201.21C284.399 193.816 289.368 187.583 294.82 182.216C302.342 174.826 310.985 168.676 320.429 163.995C328.638 159.892 337.524 152.614 346.847 158.886Z" fill="url(#paint7_linear)"/>
<path d="M258.853 111.607C258.1 113.085 257.72 114.726 257.747 116.385C257.774 118.044 258.208 119.672 259.009 121.124C259.783 122.631 261.117 123.774 262.724 124.307C264.163 124.586 265.649 124.5 267.047 124.057C269.998 123.347 272.893 122.419 275.708 121.28C277.359 120.609 279.119 119.72 279.835 118.097C280.42 116.771 280.17 115.242 279.835 113.831C279.103 110.445 278.06 107.036 275.941 104.275C274.671 102.567 272.962 101.235 270.996 100.422C268.62 99.4779 267.935 99.6417 266.821 101.631C264.78 105.437 260.863 107.778 258.853 111.607Z" fill="#606161"/>
<path d="M207.037 142.154C205.124 149.39 202.564 156.439 199.389 163.215C196.966 168.324 193.82 173.636 188.57 175.695C182.542 178.035 174.995 175.563 169.878 179.432C168.204 180.672 167.02 182.482 165.649 184.05C158.85 192.076 148.032 195.22 137.836 197.677C127.922 200.071 117.181 202.162 107.804 198.137C105.961 197.342 104.215 196.337 102.602 195.142C97.2431 191.241 93.123 185.68 89.3612 180.079C88.9484 179.463 88.5356 178.87 88.1228 178.246C86.09 175.181 83.9793 172.006 83.3095 168.418C82.2503 162.957 84.5946 157.38 87.4296 152.559C90.5425 147.443 94.0008 142.546 97.7805 137.903C103.162 131.124 108.934 124.361 116.473 120.133C121.925 117.115 128.015 115.539 134.043 113.994C145.165 111.155 155.072 113.168 165.026 119.026C171.467 122.785 174.17 130.679 175.299 138.035C175.743 140.875 176.023 143.737 176.381 146.616C176.973 151.202 177.799 155.719 179.84 159.876C184.653 157.271 186.584 151.491 188.407 146.335C188.952 144.356 189.929 142.524 191.265 140.968C191.837 140.4 192.49 139.921 193.205 139.548C196.577 137.747 201.157 138.417 205.129 139.244C205.509 139.265 205.881 139.367 206.218 139.545C206.556 139.723 206.851 139.971 207.084 140.274C207.305 140.884 207.289 141.555 207.037 142.154Z" fill="#40A9FF"/>
<path d="M198.641 150.258C196.424 156.618 193.176 162.568 189.03 167.871C187.53 169.976 185.665 171.794 183.523 173.238C180.252 175.329 176.311 175.921 172.471 176.514C168.351 177.107 167.884 175.82 168.219 172.466C168.663 168.106 167.783 163.363 167.526 158.971C167.012 149.712 166.677 140.453 166.809 131.163C170.616 135.883 173.824 141.058 176.358 146.569C176.95 151.155 177.775 155.672 179.816 159.829C184.629 157.224 186.561 151.444 188.383 146.288C188.929 144.31 189.905 142.477 191.242 140.921C191.813 140.353 192.467 139.874 193.181 139.502C193.94 139.322 194.728 139.31 195.492 139.466C196.256 139.622 196.977 139.943 197.605 140.406C200.393 142.567 199.801 146.928 198.641 150.258Z" fill="url(#paint8_linear)"/>
<path d="M165.205 181.031C164.754 181.357 164.202 181.512 163.647 181.468L147.782 182.162C142.813 182.372 137.657 182.63 133.233 184.798C131.917 185.438 130.679 186.265 129.339 186.811C127.695 187.389 126.021 187.876 124.323 188.269C121.255 189.151 110.078 193.948 106.963 194.666C105.536 194.993 104.073 195.14 102.609 195.103C97.2508 191.202 93.1307 185.641 89.3689 180.04C91.7054 179.088 94.042 178.184 94.4158 178.106C97.5751 177.687 100.765 177.548 103.949 177.692C109.12 177.747 114.323 177.825 119.526 177.903C121.073 178.015 122.629 177.841 124.113 177.388C125.771 176.615 127.239 175.486 128.412 174.081C128.693 173.823 128.981 173.464 128.903 173.106C128.805 172.837 128.61 172.615 128.358 172.482C127.126 171.745 126.092 170.72 125.344 169.494C124.861 168.511 125.118 167.248 124.471 166.374C123.622 165.29 120.943 164.595 119.705 164.034L114.198 161.397C113.264 160.989 112.402 160.434 111.644 159.751C109.969 157.965 110.086 155.071 111.106 152.832C112.127 150.594 113.731 148.737 114.946 146.592C115.974 144.736 116.667 142.692 117.695 140.867C118.724 139.041 120.196 137.286 122.205 136.615C124.425 135.835 126.816 136.537 129.059 137.208C136.964 139.548 144.901 141.889 152.806 144.275C156.155 145.25 159.885 146.569 161.435 149.736C162.214 151.343 162.284 153.199 162.386 155.001C162.709 163.004 163.736 170.962 165.454 178.784C165.649 179.556 165.774 180.469 165.205 181.031Z" fill="url(#paint9_linear)"/>
<path d="M163.538 93.7993C164.091 94.8602 165.096 95.8352 164.948 97.0287C164.815 98.5185 163.125 99.2908 162.308 100.539C161.022 102.505 161.996 105.453 160.462 107.224C159.402 108.433 157.619 108.565 156.116 109.127C153.312 110.172 151.396 112.84 150.344 115.648C149.916 116.803 149.496 117.949 149.02 119.088C145.703 127.06 138 115.336 138.358 113.175C138.716 111.015 140.695 106.225 141.17 104.119C141.949 100.835 141.497 97.4109 141.668 94.0489C141.818 91.1327 142.406 88.2557 143.413 85.5153C143.938 83.8637 144.848 82.361 146.069 81.1315C147.953 79.431 150.664 78.9552 153.203 79.0176C155.111 79.0644 157.152 79.4467 158.483 80.8117C159.311 81.8053 159.917 82.965 160.259 84.2127C160.533 85.095 160.89 85.9491 161.326 86.7634C161.775 87.4369 162.117 88.1764 162.339 88.9553C162.759 90.5778 162.783 92.2782 163.538 93.7993Z" fill="#BA816C"/>
<path d="M150.313 76.9818C153.857 77.2782 157.572 78.495 159.66 81.3656C160.029 81.7852 160.293 82.2876 160.429 82.8306C160.564 83.3735 160.568 83.9412 160.438 84.4857C160.135 85.1873 159.62 85.7764 158.966 86.1706C157.95 86.874 156.824 87.4014 155.633 87.7307C153.569 88.3157 151.116 88.4327 149.815 90.1332C148.647 91.6542 148.927 93.8071 148.359 95.6402C148.288 95.882 148.148 96.155 147.899 96.1784C147.754 96.1786 147.614 96.129 147.502 96.038C146.497 95.3594 145.64 94.205 144.433 94.2518C143.226 94.2986 142.315 95.8118 142.517 97.1067C142.85 98.3654 143.54 99.5006 144.503 100.375C145.061 100.878 145.468 101.526 145.679 102.247C145.929 103.519 144.815 104.759 143.553 105.032C142.254 105.208 140.937 104.896 139.854 104.158C137.065 102.497 135.118 99.712 133.623 96.8181C132.953 95.5986 132.475 94.2831 132.205 92.9179C132.034 91.5557 132.065 90.1756 132.299 88.8227C132.712 85.7026 133.654 82.6682 136.723 81.3188C139.332 80.1721 141.52 78.1986 144.293 77.4186C146.258 76.9173 148.297 76.7694 150.313 76.9818Z" fill="#606161"/>
<path d="M198.851 128.8C200.798 125.679 203.641 123.043 207.154 122.06C206.887 123.506 206.322 124.879 205.495 126.093C209.855 123.992 214.445 122.406 219.171 121.366C219.709 121.241 220.371 121.179 220.729 121.615C220.877 121.847 220.943 122.122 220.916 122.396C220.833 123.683 220.408 124.924 219.685 125.991C217.615 129.454 214.516 132.181 210.822 133.792C208.976 134.572 206.967 135.118 205.409 136.389C204.155 137.427 203.306 138.854 202.294 140.102C201.281 141.35 199.42 142.887 197.543 142.442C196.823 142.259 196.175 141.863 195.683 141.307C195.19 140.751 194.875 140.06 194.778 139.322C194.684 137.762 195.658 135.914 196.187 134.509C196.884 132.522 197.776 130.61 198.851 128.8Z" fill="#BA816C"/>
<path d="M103.754 159.58C111.724 159.378 119.699 159.664 127.633 160.438C127.745 160.426 127.859 160.439 127.965 160.476C128.072 160.512 128.169 160.572 128.25 160.65C128.332 160.727 128.395 160.822 128.437 160.927C128.478 161.032 128.496 161.144 128.49 161.257C128.762 163.972 128.686 166.712 128.264 169.408C128.205 170.041 128.003 170.652 127.672 171.194C127.148 171.818 126.434 172.251 125.64 172.427C124.209 172.792 122.745 173.009 121.27 173.074C111.075 173.854 100.841 174.712 90.6228 174.151C89.2711 174.183 87.9327 173.877 86.7286 173.262C85.9048 172.698 85.2116 171.964 84.6958 171.109C84.0084 170.108 83.4828 169.005 83.1381 167.84C82.8636 166.811 82.7993 165.737 82.9492 164.682C83.0991 163.627 83.46 162.613 84.0104 161.701C85.2919 159.761 87.2267 158.347 89.4623 157.715C91.6744 157.093 93.9854 156.902 96.2694 157.154C97.4198 157.214 98.5556 157.44 99.6418 157.825C101.682 158.605 103.598 160.29 105.732 159.853" fill="#40A9FF"/>
<path d="M136.715 165.96C141.614 165.96 146.894 166.444 150.633 169.627C151.101 169.978 151.469 170.446 151.7 170.984C151.801 171.253 151.818 171.548 151.747 171.827C151.676 172.106 151.521 172.356 151.303 172.544C150.979 172.732 150.61 172.827 150.236 172.817C146.591 172.981 142.922 171.928 139.332 172.489C137.541 172.762 135.811 173.433 134.005 173.589C130.57 173.878 127.283 172.302 124.199 170.773C123.981 170.688 123.792 170.542 123.654 170.352C123.593 170.196 123.567 170.029 123.578 169.862C123.589 169.694 123.636 169.532 123.716 169.385C124.004 168.605 124.425 167.216 125.056 166.686C125.687 166.155 127.501 166.304 128.428 166.249C131.177 166.101 133.942 165.968 136.715 165.96Z" fill="#BA816C"/>
<path d="M160.836 143.199H157.884C156.43 143.199 155.251 144.379 155.251 145.835V160.289C155.251 161.746 156.43 162.926 157.884 162.926H160.836C162.29 162.926 163.468 161.746 163.468 160.289V145.835C163.468 144.379 162.29 143.199 160.836 143.199Z" fill="#40A9FF"/>
<path d="M103.1 190.703C112.789 183.769 127.696 184.463 139.604 184.182C147.992 183.979 156.427 183.995 164.73 185.243C168.515 185.812 172.331 186.655 175.673 188.511C179.014 190.368 181.903 193.332 184.528 196.312C194.24 207.326 202.294 219.986 206.881 233.956C204.338 235.111 201.617 235.826 198.835 236.07C197.878 236.2 196.904 236.126 195.977 235.852C194.973 235.421 194.071 234.783 193.329 233.98C186.576 227.646 179.754 221.351 172.448 215.664C169.566 213.426 166.482 211.218 162.892 210.555C160.801 210.27 158.682 210.27 156.591 210.555C151.513 211.039 146.458 211.743 141.427 212.669C132.081 214.393 121.808 217.942 113.957 212.529C100.849 203.449 100.506 192.56 103.1 190.703Z" fill="#606161"/>
<path d="M103.1 190.703C112.789 183.769 127.696 184.463 139.604 184.182C147.992 183.979 156.427 183.995 164.73 185.243C168.515 185.812 172.331 186.655 175.673 188.511C179.014 190.368 181.903 193.332 184.528 196.312C194.24 207.326 202.294 219.986 206.881 233.956C204.338 235.111 201.617 235.826 198.835 236.07C197.878 236.2 196.904 236.126 195.977 235.852C194.973 235.421 194.071 234.783 193.329 233.98C186.576 227.646 179.754 221.351 172.448 215.664C169.566 213.426 166.482 211.218 162.892 210.555C160.801 210.27 158.682 210.27 156.591 210.555C151.513 211.039 146.458 211.743 141.427 212.669C132.081 214.393 121.808 217.942 113.957 212.529C100.849 203.449 100.506 192.56 103.1 190.703Z" fill="url(#paint10_linear)"/>
<path d="M264.921 113.479C258.581 115.905 255.411 122.84 253.074 129.26C249.694 138.487 246.672 148.02 246.431 157.84C246.291 163.417 247.482 169.736 252.14 172.793C255.52 175.001 259.843 174.923 263.869 174.759L278.301 174.229C278.533 174.175 278.773 174.172 279.005 174.22C279.238 174.268 279.458 174.366 279.649 174.507C279.841 174.647 279.999 174.828 280.115 175.036C280.23 175.243 280.3 175.474 280.318 175.711C280.91 177.528 288.691 178.581 289.291 180.391C289.704 181.655 282.982 183.753 284.002 184.595C285.023 185.438 286.596 185.656 288.006 185.765C298.224 186.536 308.493 186.314 318.669 185.102C320.74 184.853 322.976 184.478 324.409 182.965C326.418 180.836 325.967 177.458 325.421 174.58C330.951 174.198 336.94 171.935 339.261 166.896C340.656 163.893 340.492 160.36 339.55 157.185C338.607 154.01 336.948 151.077 335.391 148.168C332.54 142.926 329.861 137.512 325.967 132.996C322.072 128.48 317.275 125.141 312.461 121.779C308.668 119.135 304.829 116.459 300.491 114.868C294.478 112.668 288.239 113.097 281.993 112.45C276.627 111.896 269.968 111.529 264.921 113.479Z" fill="#40A9FF"/>
<path d="M328.669 173.082C320.997 174.705 313.092 174.642 305.257 174.502C297.141 174.393 288.987 174.276 280.996 172.879C280.012 172.818 279.086 172.389 278.402 171.678C278.052 171.095 277.856 170.432 277.834 169.751C277.522 167.045 277.335 163.948 279.228 161.998C280.365 160.828 282.024 160.352 283.597 159.923L301.51 155.04C304.268 154.26 307.258 153.386 308.878 151.023C311.994 146.499 308.286 139.416 311.752 135.165C310.737 133.97 309.469 133.018 308.039 132.378C306.609 131.739 305.054 131.427 303.489 131.467C300.21 131.405 296.993 132.247 293.823 133.144L268.48 140.071C266.369 140.648 264.196 141.257 262.467 142.598C260.364 144.229 259.165 146.779 258.518 149.361C257.808 152.24 257.713 155.237 258.239 158.155C258.765 161.073 259.9 163.847 261.571 166.296C263.241 168.744 265.409 170.811 267.932 172.363C270.456 173.914 273.278 174.914 276.214 175.298C278.021 175.524 280.108 175.641 281.222 177.068C281.962 178.004 282.094 179.268 282.639 180.321C284.134 183.176 287.974 183.574 291.206 183.613L310.677 183.831C315.148 183.878 320.024 183.831 323.552 181.085C326.465 178.909 327.329 176.46 328.669 173.082Z" fill="url(#paint11_linear)"/>
<path d="M264.664 98.1832C264.305 98.8306 263.807 99.6263 264.235 100.227C264.414 100.477 264.718 100.609 264.928 100.82C265.212 101.16 265.377 101.585 265.396 102.029C265.559 103.495 265.326 105.149 266.315 106.272C267.179 107.216 268.612 107.31 269.89 107.333L274.789 107.434C275.152 107.404 275.515 107.492 275.824 107.684C276.065 107.908 276.229 108.203 276.292 108.526C277.211 111.561 277.164 114.907 278.667 117.7C278.999 118.396 279.506 118.993 280.139 119.431C280.62 119.706 281.149 119.886 281.697 119.962C283.43 120.182 285.186 119.795 286.665 118.864C288.145 117.934 289.257 116.519 289.812 114.86C289.97 114.391 290.028 113.895 289.984 113.402C289.84 112.7 289.542 112.039 289.111 111.467C287.504 109.191 286.338 106.632 285.677 103.924C285.426 102.291 285.265 100.645 285.194 98.9944C285.002 96.9938 284.598 95.0195 283.987 93.1052C283.75 92.2456 283.368 91.433 282.857 90.7027C282.369 90.1118 281.806 89.5874 281.183 89.1426C278.986 87.4187 276.689 85.6558 273.979 85.0162C271.869 84.6106 269.702 84.6106 267.592 85.0162C266.771 85.0428 265.988 85.3671 265.388 85.9288C264.679 86.7713 264.975 87.9101 265.209 88.8696C265.41 89.7065 265.483 90.5691 265.427 91.4281C265.388 93.6824 265.785 96.1317 264.664 98.1832Z" fill="#F5C7C8"/>
<path d="M266.174 80.9131C263.223 83.0114 261.548 87.1534 263.059 90.4374C263.318 91.0674 263.754 91.6091 264.313 91.9975C264.999 92.3662 265.77 92.5491 266.548 92.5279C268.38 92.6584 270.218 92.3924 271.938 91.7478C273.667 91.0773 275.077 89.7719 275.879 88.0973C276.041 90.534 276.667 92.917 277.725 95.1176L280.061 93.2065C280.137 93.1273 280.227 93.0638 280.328 93.0196C280.428 92.9754 280.536 92.9515 280.645 92.9491C280.745 92.9681 280.839 93.0078 280.922 93.0656C281.005 93.1233 281.076 93.1979 281.128 93.2845C282.094 94.5638 281.907 96.4437 281.089 97.8321C280.776 98.2351 280.584 98.7196 280.536 99.2284C280.576 99.5376 280.679 99.8351 280.84 100.102L283.504 105.297C284.64 107.963 286.769 110.082 289.439 111.202C292.125 112.845 294.966 114.222 297.92 115.313C300.892 116.398 304.106 116.633 307.204 115.991C308.747 115.657 310.194 114.974 311.434 113.995C312.674 113.017 313.675 111.768 314.362 110.344C314.912 108.968 315.208 107.504 315.234 106.023C315.382 104.268 315.039 102.507 314.245 100.937C313.367 99.5637 312.156 98.4364 310.724 97.6605C307.609 95.7728 304.104 94.6886 300.841 93.0817C299.45 92.4639 298.183 91.5968 297.102 90.5232C296.167 89.3672 295.334 88.1328 294.61 86.8336C292.912 84.3526 290.634 82.3249 287.975 80.9273C285.316 79.5296 282.356 78.8044 279.352 78.8148C278.402 78.8148 277.444 79.0254 276.517 78.963C275.455 78.838 274.386 78.7677 273.316 78.7524C270.776 78.7546 268.292 79.5061 266.174 80.9131Z" fill="#606161"/>
<path d="M253.767 59.4073C253.44 61.0298 254.546 62.5275 255.637 63.8223C256.727 65.1172 258.067 67.6523 259.531 68.2685C261.283 69.0486 261.408 68.1281 261.018 66.7943C260.559 65.2342 259.017 63.6039 257.903 62.4807C257.553 62.1374 253.783 59.3605 253.767 59.4073Z" fill="#40A9FF"/>
<path d="M245.434 70.3826C245.107 70.9598 245.87 71.537 246.501 71.771C249.842 73.0191 253.324 74.743 256.789 75.5464C259.842 72.044 247.256 70.2188 245.434 70.3826Z" fill="#40A9FF"/>
<path d="M243.393 82.4965C242.942 82.5901 242.404 82.7773 242.334 83.2297C242.264 83.6821 242.809 84.0721 243.284 84.2203C244.904 84.7352 252.459 85.7804 252.319 83.7289C252.054 80.016 245.177 82.1298 243.393 82.4965Z" fill="#40A9FF"/>
<path d="M290.77 177.934C287.055 179.494 273.729 187.294 271.229 190.828C268.893 194.143 267.966 198.488 267.241 202.708C265.128 215.072 264.171 227.607 264.383 240.15C264.422 242.427 264.734 245.15 266.494 246.148C267.662 246.811 269.08 246.421 270.232 245.703C275.824 242.24 276.463 233.449 278.737 226.546C281.3 218.745 281.339 209.939 288.021 206.975C293.473 204.549 304.938 206.803 310.709 205.641C316.48 204.479 322.5 201.959 325.811 196.327C331.629 186.428 324.736 177.396 316.192 177.216C304.33 176.974 301.955 173.332 290.77 177.934Z" fill="#606161"/>
<path d="M290.77 177.934C287.055 179.494 273.729 187.294 271.229 190.828C268.893 194.143 267.966 198.488 267.241 202.708C265.128 215.072 264.171 227.607 264.383 240.15C264.422 242.427 264.734 245.15 266.494 246.148C267.662 246.811 269.08 246.421 270.232 245.703C275.824 242.24 276.463 233.449 278.737 226.546C281.3 218.745 281.339 209.939 288.021 206.975C293.473 204.549 304.938 206.803 310.709 205.641C316.48 204.479 322.5 201.959 325.811 196.327C331.629 186.428 324.736 177.396 316.192 177.216C304.33 176.974 301.955 173.332 290.77 177.934Z" fill="url(#paint12_linear)"/>
<path d="M203.103 242.661C203.325 243.082 203.633 243.452 204.007 243.746C204.726 244.12 205.557 244.217 206.343 244.019C208.295 243.697 210.229 243.278 212.138 242.763L219.989 240.782C220.534 240.641 221.188 240.391 221.274 239.838C221.278 239.644 221.242 239.451 221.167 239.272C221.091 239.093 220.979 238.932 220.838 238.8C218.361 235.883 214.21 234.9 210.393 235.196C208.75 235.329 206.99 235.649 205.533 234.869C205.219 234.653 204.872 234.49 204.505 234.385C204.08 234.346 203.651 234.424 203.267 234.611C201.405 235.313 199.318 235.337 199.809 237.412C200.214 239.042 202.208 241.312 203.103 242.661Z" fill="#606161"/>
<path d="M343.428 173.34H78.9868C76.9824 173.34 75.3574 174.965 75.3574 176.971C75.3574 178.976 76.9824 180.602 78.9868 180.602H343.428C345.432 180.602 347.057 178.976 347.057 176.971C347.057 174.965 345.432 173.34 343.428 173.34Z" fill="#40A9FF"/>
<path d="M343.428 173.34H78.9868C76.9824 173.34 75.3574 174.965 75.3574 176.971C75.3574 178.976 76.9824 180.602 78.9868 180.602H343.428C345.432 180.602 347.057 178.976 347.057 176.971C347.057 174.965 345.432 173.34 343.428 173.34Z" fill="url(#paint13_linear)"/>
<path d="M260.621 164.868C258.409 165.49 256.29 166.406 254.32 167.591C252.763 168.464 251.205 169.353 249.647 170.274C249.184 170.499 248.783 170.834 248.479 171.249C248.334 171.461 248.267 171.716 248.288 171.972C248.309 172.228 248.418 172.468 248.596 172.653C248.878 172.844 249.214 172.937 249.554 172.918C256.049 173.246 262.553 171.865 269.025 172.31C271.868 172.505 274.812 173.043 277.507 172.115C278.072 171.973 278.594 171.695 279.027 171.305C279.46 170.915 279.791 170.424 279.991 169.876C280.31 168.597 279.212 166.647 278.114 165.976C276.821 165.196 274.376 165.508 272.872 165.313C268.822 164.798 264.656 163.909 260.621 164.868Z" fill="#F5C7C8"/>
<path d="M263.355 161.818C264.942 161.87 266.495 162.295 267.888 163.059C268.805 163.377 269.578 164.014 270.069 164.853C270.169 165.058 270.218 165.285 270.209 165.514C270.201 165.742 270.137 165.965 270.022 166.163C269.809 166.436 269.514 166.633 269.181 166.725C268.113 166.986 267.006 167.042 265.917 166.889C262.398 166.678 258.868 167.084 255.489 168.09C254.676 168.402 253.812 168.561 252.942 168.558C252.844 168.56 252.746 168.541 252.656 168.502C252.566 168.463 252.485 168.405 252.42 168.332C252.38 168.261 252.355 168.183 252.347 168.103C252.339 168.022 252.348 167.941 252.373 167.864C252.525 167.367 252.811 166.921 253.199 166.577C253.978 165.758 254.757 164.97 255.535 164.197C255.791 163.897 256.109 163.654 256.466 163.486C256.823 163.318 257.212 163.228 257.607 163.222C259.593 162.981 261.4 161.881 263.355 161.818Z" fill="#F5C7C8"/>
<path d="M262.958 251.452C261.065 254.003 259.227 256.819 259.064 259.994C259.001 260.447 259.097 260.907 259.336 261.297C259.596 261.6 259.95 261.806 260.341 261.882C261.33 262.074 262.35 262.034 263.321 261.763C264.292 261.492 265.186 260.999 265.933 260.321C267.419 258.968 268.683 257.388 269.679 255.641L273.426 249.807C273.646 249.528 273.774 249.187 273.792 248.832C273.792 248.348 273.356 247.989 273.013 247.615C271.899 246.281 272.055 244.432 272.032 242.833C266.922 243.566 265.824 247.638 262.958 251.452Z" fill="#606161"/>
<path d="M177.075 63.6118C177.324 64.8676 176.451 66.0533 175.626 67.0361C174.8 68.019 173.733 70.0081 172.627 70.4839C171.272 71.0689 171.171 70.3825 171.475 69.345C171.825 68.1438 173.032 66.8645 173.881 65.9909C174.169 65.7335 177.067 63.5806 177.075 63.6118Z" fill="#40A9FF"/>
<path d="M183.516 72.1221C183.773 72.5745 183.173 73.0191 182.69 73.2063C180.096 74.1736 177.394 75.5465 174.707 76.1315C172.37 73.4404 182.121 71.9973 183.516 72.1221Z" fill="#40A9FF"/>
<path d="M185.128 81.5292C185.47 81.5994 185.907 81.7398 185.945 82.0908C185.984 82.4418 185.579 82.746 185.167 82.8708C183.913 83.2765 178.048 84.0565 178.157 82.4886C178.391 79.6025 183.741 81.2406 185.128 81.5292Z" fill="#40A9FF"/>
</g>
<defs>
<linearGradient id="paint0_linear" x1="178.531" y1="252.568" x2="137.1" y2="187.625" gradientUnits="userSpaceOnUse">
<stop stop-color="#010101" stop-opacity="0"/>
<stop offset="0.95" stop-color="#010101"/>
</linearGradient>
<linearGradient id="paint1_linear" x1="16241.5" y1="19179.9" x2="19658.4" y2="19179.9" gradientUnits="userSpaceOnUse">
<stop stop-color="#010101" stop-opacity="0"/>
<stop offset="0.95" stop-color="#010101"/>
</linearGradient>
<linearGradient id="paint2_linear" x1="5024.05" y1="4284.8" x2="5007.84" y2="4782.7" gradientUnits="userSpaceOnUse">
<stop stop-color="#010101" stop-opacity="0"/>
<stop offset="0.95" stop-color="#010101"/>
</linearGradient>
<linearGradient id="paint3_linear" x1="13655.2" y1="4284.8" x2="13639" y2="4782.68" gradientUnits="userSpaceOnUse">
<stop stop-color="#010101" stop-opacity="0"/>
<stop offset="0.95" stop-color="#010101"/>
</linearGradient>
<linearGradient id="paint4_linear" x1="3776.9" y1="15067.8" x2="3874.51" y2="15067.8" gradientUnits="userSpaceOnUse">
<stop stop-color="#010101" stop-opacity="0"/>
<stop offset="0.95" stop-color="#010101"/>
</linearGradient>
<linearGradient id="paint5_linear" x1="1343.29" y1="15067.8" x2="1440.47" y2="15067.8" gradientUnits="userSpaceOnUse">
<stop stop-color="#010101" stop-opacity="0"/>
<stop offset="0.95" stop-color="#010101"/>
</linearGradient>
<linearGradient id="paint6_linear" x1="8288.4" y1="20399.5" x2="13011.8" y2="18592.7" gradientUnits="userSpaceOnUse">
<stop stop-color="#010101" stop-opacity="0"/>
<stop offset="0.95" stop-color="#010101"/>
</linearGradient>
<linearGradient id="paint7_linear" x1="72826.1" y1="20399.5" x2="68102.9" y2="18592.8" gradientUnits="userSpaceOnUse">
<stop stop-color="#010101" stop-opacity="0"/>
<stop offset="0.95" stop-color="#010101"/>
</linearGradient>
<linearGradient id="paint8_linear" x1="7944.71" y1="9400.37" x2="5140.86" y2="24836.6" gradientUnits="userSpaceOnUse">
<stop stop-color="#010101" stop-opacity="0"/>
<stop offset="0.95" stop-color="#010101"/>
</linearGradient>
<linearGradient id="paint9_linear" x1="14782.5" y1="13217.3" x2="7905.77" y2="24714.7" gradientUnits="userSpaceOnUse">
<stop stop-color="#010101" stop-opacity="0"/>
<stop offset="0.95" stop-color="#010101"/>
</linearGradient>
<linearGradient id="paint10_linear" x1="22132.4" y1="17605.7" x2="20988.4" y2="10731.7" gradientUnits="userSpaceOnUse">
<stop stop-color="#010101" stop-opacity="0"/>
<stop offset="0.95" stop-color="#010101"/>
</linearGradient>
<linearGradient id="paint11_linear" x1="26419.5" y1="11253.5" x2="28640.7" y2="21471.3" gradientUnits="userSpaceOnUse">
<stop stop-color="#010101" stop-opacity="0"/>
<stop offset="0.95" stop-color="#010101"/>
</linearGradient>
<linearGradient id="paint12_linear" x1="22118.6" y1="20489.4" x2="26197.4" y2="21964.9" gradientUnits="userSpaceOnUse">
<stop stop-color="#010101" stop-opacity="0"/>
<stop offset="0.95" stop-color="#010101"/>
</linearGradient>
<linearGradient id="paint13_linear" x1="73507.7" y1="1889.9" x2="73507.8" y2="1636.73" gradientUnits="userSpaceOnUse">
<stop stop-color="#010101" stop-opacity="0"/>
<stop offset="0.95" stop-color="#010101"/>
</linearGradient>
<clipPath id="clip0">
<rect width="435.296" height="319.971" fill="white" transform="translate(0.564941 0.834351)"/>
</clipPath>
</defs>
</svg>
