<svg width="100" height="100" viewBox="0 0 100 100" fill="none" xmlns="http://www.w3.org/2000/svg">
<g id="thumb_up_alt_24px">
<path id="icon/social/thumb_up_alt_24px" fill-rule="evenodd" clip-rule="evenodd" d="M87.5001 37.5H61.2084L65.1667 18.4583L65.2917 17.125C65.2917 15.4166 64.5834 13.8333 63.4584 12.7083L59.0417 8.33331L31.6251 35.7916C30.0834 37.2916 29.1667 39.375 29.1667 41.6666V83.3333C29.1667 87.9166 32.9167 91.6667 37.5001 91.6667H75.0001C78.4584 91.6667 81.4167 89.5833 82.6667 86.5833L95.2501 57.2083C95.6251 56.25 95.8334 55.25 95.8334 54.1666V45.8333C95.8334 41.25 92.0834 37.5 87.5001 37.5ZM87.5001 54.1668L75.0001 83.3334H37.5001V41.6668L55.5834 23.5834L50.9584 45.8334H87.5001V54.1668ZM20.8334 41.6666H4.16675V91.6666H20.8334V41.6666Z" fill="#8C8C8C"/>
</g>
</svg>
