<svg width="100" height="100" viewBox="0 0 100 100" fill="none" xmlns="http://www.w3.org/2000/svg">
<path fill-rule="evenodd" clip-rule="evenodd" d="M58.3333 0H20.8333C17.375 0 14.4167 2.08333 13.1667 5.08333L0.583333 34.4583C0.208333 35.4167 0 36.4167 0 37.5V45.8333C0 50.4167 3.75 54.1667 8.33333 54.1667H34.625L30.6667 73.2083L30.5417 74.5417C30.5417 76.25 31.25 77.8333 32.375 78.9583L36.7917 83.3333L64.2083 55.875C65.75 54.375 66.6667 52.2917 66.6667 50V8.33333C66.6667 3.75 62.9167 0 58.3333 0ZM58.3333 50L40.25 68.0833L44.875 45.8333H8.33333V37.5L20.8333 8.33333H58.3333V50ZM91.6667 0H75V50H91.6667V0Z" fill="#8C8C8C"/>
</svg>
