<svg width="28" height="28" viewBox="0 0 28 28" fill="none" xmlns="http://www.w3.org/2000/svg">
<path fill-rule="evenodd" clip-rule="evenodd" d="M24.4998 10.5H17.1382L18.2465 5.16834L18.2815 4.79501C18.2815 4.31668 18.0832 3.87334 17.7682 3.55834L16.5315 2.33334L8.85483 10.0217C8.42317 10.4417 8.1665 11.025 8.1665 11.6667V23.3333C8.1665 24.6167 9.2165 25.6667 10.4998 25.6667H20.9998C21.9682 25.6667 22.7965 25.0833 23.1465 24.2433L26.6698 16.0183C26.7748 15.75 26.8332 15.47 26.8332 15.1667V12.8333C26.8332 11.55 25.7832 10.5 24.4998 10.5ZM24.4999 15.1667L20.9999 23.3334H10.4999V11.6667L15.5632 6.60336L14.2682 12.8334H24.4999V15.1667ZM5.83317 11.6667H1.1665V25.6667H5.83317V11.6667Z" fill="#40A9FF"/>
</svg>
