<svg width="29" height="26" viewBox="0 0 29 26" fill="none" xmlns="http://www.w3.org/2000/svg">
<path fill-rule="evenodd" clip-rule="evenodd" d="M18.1152 0H6.4697C5.39573 0 4.47703 0.64697 4.08885 1.57861L0.181151 10.7009C0.064697 10.9985 0 11.309 0 11.6455V14.2333C0 15.6567 1.16455 16.8212 2.58788 16.8212H10.7526L9.52339 22.7345L9.48457 23.1486C9.48457 23.6791 9.70454 24.1708 10.0539 24.5202L11.4255 25.8788L19.9396 17.3517C20.4184 16.8859 20.703 16.2389 20.703 15.5273V2.58788C20.703 1.16455 19.5385 0 18.1152 0ZM18.1151 15.5273L12.4994 21.143L13.9357 14.2333H2.58784V11.6454L6.46966 2.58787H18.1151V15.5273ZM28.4667 0H23.2909V15.5273H28.4667V0Z" fill="#8C8C8C"/>
</svg>
