<svg width="22" height="22" viewBox="0 0 22 22" fill="none" xmlns="http://www.w3.org/2000/svg">
<path d="M19.4743 16.076C18.7899 15.3911 17.9902 14.832 17.1118 14.4245C18.3505 13.421 19.1407 11.8897 19.1407 10.1725C19.1407 7.14283 16.6141 4.65728 13.5844 4.70377C10.6012 4.75025 8.19772 7.18111 8.19772 10.1725C8.19772 11.8897 8.99069 13.421 10.2266 14.4245C9.34809 14.8317 8.54833 15.3908 7.86413 16.076C6.37116 17.5717 5.52351 19.546 5.46882 21.6514C5.46809 21.6806 5.47321 21.7096 5.48387 21.7368C5.49454 21.764 5.51054 21.7888 5.53092 21.8097C5.55131 21.8305 5.57567 21.8471 5.60257 21.8585C5.62948 21.8698 5.65838 21.8757 5.68757 21.8756H7.21882C7.3364 21.8756 7.43483 21.7827 7.43757 21.6651C7.48952 20.0792 8.1321 18.5944 9.2614 17.4678C9.83928 16.8869 10.5266 16.4263 11.2837 16.1128C12.0408 15.7992 12.8525 15.639 13.6719 15.6413C15.3372 15.6413 16.904 16.2893 18.0825 17.4678C19.2091 18.5944 19.8516 20.0792 19.9063 21.6651C19.9091 21.7827 20.0075 21.8756 20.1251 21.8756H21.6563C21.6855 21.8757 21.7144 21.8698 21.7413 21.8585C21.7682 21.8471 21.7926 21.8305 21.813 21.8097C21.8333 21.7888 21.8493 21.764 21.86 21.7368C21.8707 21.7096 21.8758 21.6806 21.8751 21.6514C21.8204 19.546 20.9727 17.5717 19.4743 16.076ZM13.6719 13.6725C12.7368 13.6725 11.8563 13.3088 11.1973 12.6471C10.8666 12.319 10.6054 11.9277 10.4292 11.4964C10.253 11.0651 10.1655 10.6028 10.1719 10.137C10.1801 9.2401 10.5383 8.3733 11.1645 7.73072C11.8208 7.05806 12.6985 6.68345 13.6364 6.67252C14.5633 6.66431 15.463 7.02525 16.1247 7.6733C16.8028 8.33775 17.1747 9.22642 17.1747 10.1725C17.1747 11.1077 16.811 11.9854 16.1493 12.6471C15.8246 12.9733 15.4385 13.2319 15.0133 13.4079C14.5881 13.5839 14.1322 13.6739 13.6719 13.6725ZM6.82233 10.8944C6.79772 10.6565 6.78405 10.4159 6.78405 10.1725C6.78405 9.73775 6.82507 9.31392 6.90163 8.90103C6.92077 8.8026 6.86882 8.70142 6.77858 8.66041C6.40671 8.49361 6.06491 8.26392 5.7696 7.97408C5.42162 7.63668 5.1478 7.23044 4.9656 6.7813C4.7834 6.33215 4.69682 5.84996 4.7114 5.36549C4.73601 4.48775 5.08874 3.65377 5.70397 3.02486C6.37937 2.33306 7.28718 1.95572 8.25241 1.96666C9.12468 1.97486 9.96686 2.31119 10.604 2.90728C10.82 3.10963 11.0059 3.33384 11.1618 3.57447C11.2165 3.65924 11.3231 3.69478 11.4161 3.66197C11.8973 3.49517 12.4059 3.37759 12.9282 3.32291C13.0813 3.3065 13.1688 3.14244 13.1005 3.00572C12.2118 1.24752 10.3962 0.0334541 8.29616 0.000641587C5.26374 -0.0458428 2.73718 2.4397 2.73718 5.46666C2.73718 7.18384 3.52741 8.71509 4.76608 9.71861C3.89655 10.1206 3.09538 10.6756 2.40085 11.3702C0.902412 12.8659 0.0547559 14.8401 6.83758e-05 16.9483C-0.000661443 16.9775 0.00445738 17.0065 0.0151234 17.0337C0.0257894 17.0609 0.0417867 17.0856 0.0621726 17.1065C0.0825585 17.1274 0.106921 17.144 0.133824 17.1554C0.160727 17.1667 0.189626 17.1725 0.218818 17.1725H1.7528C1.87038 17.1725 1.96882 17.0795 1.97155 16.962C2.02351 15.376 2.66608 13.8913 3.79538 12.7647C4.59929 11.9608 5.58366 11.403 6.65827 11.1323C6.76491 11.1049 6.83601 11.0038 6.82233 10.8944Z" fill="#404040"/>
</svg>
