<svg width="33" height="33" viewBox="0 0 33 33" fill="none" xmlns="http://www.w3.org/2000/svg">
<circle cx="16.2116" cy="16.2116" r="15.9168" fill="#91D5FF" stroke="#91D5FF" stroke-width="0.589512"/>
<path fill-rule="evenodd" clip-rule="evenodd" d="M22.276 13.9423V10.8463C22.276 10.3598 21.878 9.96173 21.3914 9.96173H9.00749C8.52098 9.96173 8.12292 10.3598 8.12292 10.8463V21.4611C8.12292 21.9476 8.52098 22.3457 9.00749 22.3457H21.3914C21.878 22.3457 22.276 21.9476 22.276 21.4611V18.3651L25.8143 21.9034V10.404L22.276 13.9423ZM13.4304 17.0383H16.9687V18.8074L19.6224 16.1537L16.9687 13.5V15.2692H13.4304V13.5L10.7767 16.1537L13.4304 18.8074V17.0383ZM9.89199 20.5765H20.5068V11.7309H9.89199V20.5765Z" fill="#40A9FF"/>
</svg>
