<svg width="412" height="382" viewBox="0 0 412 382" fill="none" xmlns="http://www.w3.org/2000/svg">
<g clip-path="url(#clip0)">
<path opacity="0.18" d="M386.83 348.53C380.83 352.15 374.09 355.45 367.06 359.01C340.23 372.68 308.95 374.16 279.42 375.28L138.01 380.68C114.19 381.58 89.48 382.33 67.55 373.02C54.9036 367.498 43.7077 359.123 34.84 348.55C20.65 332.01 11.21 310.68 6.45005 289.25C-1.32995 254.19 1.14005 217.81 0.550048 181.91C0.210048 161 -1.17995 139.91 2.41005 119.3C6.00005 98.69 15.27 78.15 32.16 65.81C54.87 49.23 84.6101 50.86 111.16 47.37C139.16 43.69 163.16 30.02 188.11 17.67C214.25 4.74999 244.02 -2.17001 273.22 0.599991C302.74 3.41999 324.14 16.86 340.68 41.53C352.089 58.554 359.026 78.1778 360.85 98.59C362.98 122.59 357.96 146.97 361.52 170.82C368.52 217.55 407.16 255.51 411.45 302.57C413.7 327.14 402.8 338.92 386.83 348.53Z" fill="#40A9FE"/>
<path opacity="0.41" d="M386.83 348.53C380.83 352.15 374.09 355.45 367.06 359.01C340.23 372.68 308.95 374.16 279.42 375.28L138.01 380.68C114.19 381.58 89.48 382.33 67.55 373.02C54.9035 367.498 43.7077 359.123 34.84 348.55L386.83 348.53Z" fill="#40A9FE"/>
<path d="M200.53 77.9199C200.35 82.4399 200.97 86.92 201.17 91.47C201.324 93.1526 201.158 94.8493 200.68 96.47C199.56 99.59 196.52 101.54 193.68 103.26C191.88 104.35 189.83 105.91 190.08 108.01C190.253 108.802 190.678 109.516 191.291 110.046C191.904 110.576 192.672 110.893 193.48 110.95C195.101 111.022 196.716 110.707 198.19 110.03C201.207 109.049 203.972 107.417 206.29 105.25C210.82 100.54 210.97 93.25 210.63 86.72C210.34 81.24 209.87 75.22 207.09 70.34C202.61 62.54 200.69 74.0099 200.53 77.9199Z" fill="#40A9FE"/>
<path d="M200.53 77.9199C200.35 82.4399 200.97 86.92 201.17 91.47C201.324 93.1526 201.158 94.8493 200.68 96.47C199.56 99.59 196.52 101.54 193.68 103.26C191.88 104.35 189.83 105.91 190.08 108.01C190.253 108.802 190.678 109.516 191.291 110.046C191.904 110.576 192.672 110.893 193.48 110.95C195.101 111.022 196.716 110.707 198.19 110.03C201.207 109.049 203.972 107.417 206.29 105.25C210.82 100.54 210.97 93.25 210.63 86.72C210.34 81.24 209.87 75.22 207.09 70.34C202.61 62.54 200.69 74.0099 200.53 77.9199Z" fill="url(#paint0_linear)"/>
<path d="M187.17 105.02C185.1 104.3 182.9 103.32 180.83 104.02C180.632 104.064 180.448 104.156 180.293 104.286C180.138 104.417 180.017 104.583 179.94 104.77C179.897 105.045 179.935 105.327 180.05 105.58L182.45 112.69C182.559 113.044 182.717 113.381 182.92 113.69C183.397 114.233 184.041 114.603 184.75 114.74C187.356 115.46 190.123 115.33 192.65 114.37C195.27 113.37 195.5 110.15 194.11 107.89C192.72 105.63 189.57 105.85 187.17 105.02Z" fill="url(#paint1_linear)"/>
<path d="M200.36 133.22C200.36 133.22 180.5 156.94 193.74 177.27C206.98 197.6 230.47 212.72 239.41 228.1C248.35 243.48 232.13 260.16 226.5 263.28C220.87 266.4 169.58 304.21 201.35 343.04H308.58C308.58 343.04 343.33 307.86 285.41 265.37C285.41 265.37 244.04 244.26 282.76 214.28C321.48 184.3 328.43 155.76 310.07 133.48L200.36 133.22Z" fill="#40A9FE"/>
<path d="M200.36 133.22C200.36 133.22 180.5 156.94 193.74 177.27C206.98 197.6 230.47 212.72 239.41 228.1C248.35 243.48 232.13 260.16 226.5 263.28C220.87 266.4 169.58 304.21 201.35 343.04H308.58C308.58 343.04 343.33 307.86 285.41 265.37C285.41 265.37 244.04 244.26 282.76 214.28C321.48 184.3 328.43 155.76 310.07 133.48L200.36 133.22Z" fill="url(#paint2_linear)"/>
<path d="M316.15 123.51H192.03C189.224 123.51 186.95 125.784 186.95 128.59V128.6C186.95 131.406 189.224 133.68 192.03 133.68H316.15C318.956 133.68 321.23 131.406 321.23 128.6V128.59C321.23 125.784 318.956 123.51 316.15 123.51Z" fill="#40A9FE"/>
<path d="M316.15 343.44H192.03C189.224 343.44 186.95 345.714 186.95 348.52V348.53C186.95 351.336 189.224 353.61 192.03 353.61H316.15C318.956 353.61 321.23 351.336 321.23 348.53V348.52C321.23 345.714 318.956 343.44 316.15 343.44Z" fill="#40A9FE"/>
<path d="M316.15 123.51H192.03C189.224 123.51 186.95 125.784 186.95 128.59V128.6C186.95 131.406 189.224 133.68 192.03 133.68H316.15C318.956 133.68 321.23 131.406 321.23 128.6V128.59C321.23 125.784 318.956 123.51 316.15 123.51Z" fill="url(#paint3_linear)"/>
<path d="M316.15 343.44H192.03C189.224 343.44 186.95 345.714 186.95 348.52V348.53C186.95 351.336 189.224 353.61 192.03 353.61H316.15C318.956 353.61 321.23 351.336 321.23 348.53V348.52C321.23 345.714 318.956 343.44 316.15 343.44Z" fill="url(#paint4_linear)"/>
<path d="M299.53 289.03C281.36 279.33 221.24 277.72 209.83 286.03C220.48 271.93 235.11 263.63 235.11 263.63C249.51 254.63 265.89 262.45 265.89 262.45C265.89 262.45 286.72 273.11 299.53 289.03Z" fill="url(#paint5_linear)"/>
<path d="M299.15 342.26H209.29L205.82 339.14C195.56 321.58 198.08 306.07 204.82 293.73C206.298 291.061 207.969 288.504 209.82 286.08C221.23 277.72 281.35 279.33 299.52 289.08C301.38 291.375 303.052 293.817 304.52 296.38C305.491 298.074 306.34 299.835 307.06 301.65C316.02 324.28 299.15 342.26 299.15 342.26Z" fill="#40A9FE"/>
<path d="M304.55 296.33C300.26 311.95 257.48 288.12 237.55 286.33C224.39 285.16 210.49 293.17 210.49 293.17C210.49 293.17 206 294.8 204.8 293.71C206.278 291.041 207.949 288.484 209.8 286.06C221.21 277.7 281.33 279.31 299.5 289.06C301.376 291.344 303.065 293.775 304.55 296.33V296.33Z" fill="url(#paint6_linear)"/>
<path d="M209.62 190.04C209.62 190.04 240.4 214.28 242.39 218.97C244.38 223.66 260.39 226.4 265.39 222.23C270.39 218.06 283.09 210.11 295.67 192.12C308.25 174.13 266.88 185.87 252.98 188.48C239.08 191.09 215.25 174.14 209.62 190.04Z" fill="#40A9FE"/>
<path d="M209.62 190.04C209.62 190.04 221.54 197.86 232.13 195.51C242.72 193.16 249.67 186.39 264.23 187.69C278.79 188.99 293.35 195.25 297.99 188.48C302.63 181.71 297.66 176.22 283.09 178.05C268.52 179.88 244.37 180.13 232.79 179.35C221.21 178.57 200.03 180.4 209.62 190.04Z" fill="#40A9FE"/>
<path d="M209.62 190.04C209.62 190.04 221.54 197.86 232.13 195.51C242.72 193.16 249.67 186.39 264.23 187.69C278.79 188.99 293.35 195.25 297.99 188.48C302.63 181.71 297.66 176.22 283.09 178.05C268.52 179.88 244.37 180.13 232.79 179.35C221.21 178.57 200.03 180.4 209.62 190.04Z" fill="url(#paint7_linear)"/>
<path d="M252.66 230.36C251.814 230.916 251.125 231.681 250.66 232.58C250.493 232.856 250.385 233.164 250.344 233.485C250.302 233.805 250.328 234.13 250.42 234.44C250.561 234.78 250.802 235.069 251.111 235.268C251.42 235.468 251.782 235.57 252.15 235.56C252.778 235.5 253.375 235.261 253.87 234.87C254.87 234.22 255.97 233.39 255.82 232.38C255.67 231.37 254.11 230.65 252.77 230.25" fill="#40A9FE"/>
<path d="M258.24 239.61C257.903 239.696 257.587 239.849 257.31 240.06C257.17 240.18 257.09 240.31 257.2 240.44C257.427 240.61 257.707 240.692 257.99 240.67C258.258 240.654 258.523 240.607 258.78 240.53C259.24 240.39 259.78 240.22 259.67 240.02C259.56 239.82 258.89 239.67 258.28 239.59" fill="#40A9FE"/>
<path d="M252.86 242.54C252.523 242.626 252.207 242.779 251.93 242.99C251.79 243.11 251.72 243.25 251.82 243.37C252.047 243.54 252.328 243.622 252.61 243.6C252.878 243.589 253.144 243.542 253.4 243.46C253.86 243.33 254.4 243.16 254.3 242.95C254.2 242.74 253.51 242.6 252.9 242.52" fill="#40A9FE"/>
<path d="M261.41 256.19C260.976 256.005 260.511 255.907 260.04 255.9C259.78 255.9 259.55 255.96 259.49 256.15C259.496 256.307 259.539 256.46 259.616 256.597C259.692 256.735 259.8 256.852 259.93 256.94C260.191 257.137 260.481 257.292 260.79 257.4C261.36 257.62 262 257.84 262.19 257.61C262.38 257.38 261.91 256.72 261.46 256.19" fill="#40A9FE"/>
<path d="M245.53 273.97C245.1 273.786 244.638 273.688 244.17 273.68C243.9 273.68 243.67 273.75 243.62 273.93C243.57 274.11 243.72 274.45 244.05 274.72C244.313 274.92 244.607 275.076 244.92 275.18C245.48 275.4 246.13 275.62 246.31 275.39C246.49 275.16 246.03 274.5 245.59 273.97" fill="#40A9FE"/>
<path d="M202.73 71.68C202.578 69.0211 203.279 66.3831 204.73 64.15C206.18 61.9358 208.12 60.0847 210.4 58.74C211.645 57.8421 213.157 57.391 214.69 57.46C215.96 57.62 220.36 52.84 221.39 53.6C224.29 55.75 223.71 63.7 226.17 66.35C226.815 69.9051 227.216 73.5002 227.37 77.11L228.84 104.37C229.08 108.88 229.2 113.79 226.5 117.37C219.701 114.9 213.084 111.952 206.7 108.55C205.964 108.287 205.342 107.776 204.943 107.104C204.543 106.432 204.39 105.642 204.51 104.87C204.24 98.09 204.24 91.29 204.51 84.51C204.63 80.87 203.03 75.32 202.73 71.68Z" fill="#40A9FE"/>
<path d="M202.73 71.68C202.578 69.0211 203.279 66.3831 204.73 64.15C206.18 61.9358 208.12 60.0847 210.4 58.74C211.645 57.8421 213.157 57.391 214.69 57.46C215.96 57.62 220.36 52.84 221.39 53.6C224.29 55.75 223.71 63.7 226.17 66.35C226.815 69.9051 227.216 73.5002 227.37 77.11L228.84 104.37C229.08 108.88 229.2 113.79 226.5 117.37C219.701 114.9 213.084 111.952 206.7 108.55C205.964 108.287 205.342 107.776 204.943 107.104C204.543 106.432 204.39 105.642 204.51 104.87C204.24 98.09 204.24 91.29 204.51 84.51C204.63 80.87 203.03 75.32 202.73 71.68Z" fill="url(#paint8_linear)"/>
<path d="M197.27 51.21V51.99C197.243 52.9696 197.511 53.9347 198.04 54.76C199.04 56 200.86 56.05 202.41 55.82C203.618 55.5132 204.872 55.4285 206.11 55.57C207.34 55.84 208.7 60.88 209.88 61.08C212.03 61.45 216.59 58.81 218.07 57.48C218.22 57.35 216.5 53.48 216.56 53.27C216.61 53.0663 216.61 52.8536 216.56 52.65L214.16 41.49C213.937 39.9018 213.36 38.3842 212.47 37.05C211.761 36.1871 210.861 35.5022 209.84 35.05C206.45 33.5 201.48 34.05 199 37.13C197.69 38.76 197.71 41.59 197.5 43.59C197.232 46.1206 197.155 48.6678 197.27 51.21V51.21Z" fill="url(#paint9_linear)"/>
<path d="M214.95 129.26C208.33 133.53 200.77 136.05 193.3 138.52C191.46 139.13 189.3 139.71 187.67 138.73C186.749 138.083 186.019 137.198 185.56 136.17C182.62 130.59 175.27 128.93 178.88 123.76C180.41 121.56 189.08 114.35 191.22 112.76C195.46 109.61 199.9 106.37 205.11 105.5C207.557 105.145 210.043 105.145 212.49 105.5C217.22 106.07 229.15 107.89 228.15 113.96C227.15 120.03 219.74 126.14 214.95 129.26Z" fill="#3E3E54"/>
<path d="M216.95 76.2001C216.95 80.2001 217.37 84.2001 216.05 87.9601C214.28 92.9601 209.66 96.3901 205.05 99.0901C202.2 100.77 199.11 102.46 197.58 105.38C196.05 108.3 197.13 112.82 200.38 113.38C201.642 113.509 202.917 113.324 204.09 112.84C210.382 110.76 216.46 108.081 222.24 104.84C224.61 103.5 227.01 101.99 228.47 99.7001C229.736 97.3815 230.422 94.7912 230.47 92.1501C230.944 86.4827 230.776 80.7799 229.97 75.1501C229.038 70.7158 227.303 66.4895 224.85 62.6801C216.95 51.9801 216.95 70.3001 216.95 76.2001Z" fill="#40A9FE"/>
<path d="M216.95 76.2001C216.95 80.2001 217.37 84.2001 216.05 87.9601C214.28 92.9601 209.66 96.3901 205.05 99.0901C202.2 100.77 199.11 102.46 197.58 105.38C196.05 108.3 197.13 112.82 200.38 113.38C201.642 113.509 202.917 113.324 204.09 112.84C210.382 110.76 216.46 108.081 222.24 104.84C224.61 103.5 227.01 101.99 228.47 99.7001C229.736 97.3815 230.422 94.7912 230.47 92.1501C230.944 86.4827 230.776 80.7799 229.97 75.1501C229.038 70.7158 227.303 66.4895 224.85 62.6801C216.95 51.9801 216.95 70.3001 216.95 76.2001Z" fill="url(#paint10_linear)"/>
<path d="M173.48 146.87L171.77 179.6C175.77 179.35 177.59 174.71 178.55 170.88C181.27 160.013 183.993 149.147 186.72 138.28C187.52 135.06 188.34 131.71 187.72 128.45C187.28 126.14 185.2 122.13 182.43 121.88C179.48 121.62 177.93 125.41 176.91 127.69C174.24 133.68 173.81 140.43 173.48 146.87Z" fill="url(#paint11_linear)"/>
<path d="M179.43 149.08L180.59 181.83C184.5 181.23 185.95 176.45 186.59 172.55C188.35 161.49 190.113 150.427 191.88 139.36C192.4 136.08 192.88 132.68 192.02 129.48C191.38 127.22 188.96 123.41 186.18 123.4C183.18 123.4 182.01 127.3 181.18 129.67C179.04 135.84 179.2 142.68 179.43 149.08Z" fill="url(#paint12_linear)"/>
<path d="M177.77 172.95L174.05 173.22C173.664 173.198 173.278 173.254 172.915 173.387C172.552 173.519 172.221 173.725 171.94 173.99C171.636 174.459 171.486 175.012 171.51 175.57C171.41 177.57 171.39 179.57 171.51 181.49C171.49 181.569 171.49 181.651 171.51 181.73C171.567 181.797 171.64 181.849 171.722 181.881C171.804 181.912 171.893 181.922 171.98 181.91C173.403 181.898 174.799 181.527 176.04 180.83C176.567 180.583 177.022 180.204 177.36 179.73C177.667 179.159 177.822 178.518 177.81 177.87C177.91 176.2 177.95 174.52 177.89 172.87L177.77 172.95Z" fill="#40A9FE"/>
<path d="M177.69 179.68C177.682 179.539 177.641 179.402 177.57 179.28C177.476 179.182 177.351 179.12 177.216 179.103C177.081 179.087 176.945 179.118 176.83 179.19C176.608 179.349 176.412 179.541 176.25 179.76C175.607 180.518 174.706 181.01 173.72 181.14C172.717 181.117 171.713 181.177 170.72 181.32C170.004 181.6 169.353 182.026 168.81 182.57L165.57 185.37C164.81 186.02 163.98 186.87 164.16 187.86C164.301 188.294 164.566 188.677 164.921 188.962C165.276 189.248 165.706 189.425 166.16 189.47C167.798 189.649 169.455 189.444 171 188.87C172.441 188.484 173.857 188.01 175.24 187.45C175.966 187.191 176.613 186.75 177.12 186.17C178.23 184.68 177.86 181.43 177.69 179.68Z" fill="#3E3E54"/>
<path d="M186.7 173.39L182.95 173.68C182.563 173.659 182.176 173.716 181.811 173.848C181.447 173.98 181.113 174.185 180.83 174.45C180.535 174.923 180.389 175.473 180.41 176.03C180.3 178.03 180.29 180.03 180.36 181.95C180.361 182.036 180.378 182.121 180.41 182.2C180.466 182.265 180.538 182.314 180.618 182.344C180.699 182.374 180.785 182.383 180.87 182.37C182.297 182.364 183.698 181.992 184.94 181.29C185.467 181.048 185.922 180.672 186.26 180.2C186.555 179.625 186.706 178.987 186.7 178.34C186.813 176.66 186.843 174.993 186.79 173.34L186.7 173.39Z" fill="#40A9FE"/>
<path d="M186.62 180.09C186.619 179.946 186.581 179.805 186.51 179.68C186.414 179.581 186.286 179.519 186.149 179.505C186.012 179.49 185.875 179.524 185.76 179.6C185.539 179.756 185.346 179.949 185.19 180.17C184.546 180.925 183.644 181.413 182.66 181.54C181.657 181.524 180.653 181.588 179.66 181.73C178.941 182.006 178.287 182.428 177.74 182.97L174.5 185.77C173.75 186.43 172.92 187.28 173.09 188.26C173.232 188.693 173.497 189.075 173.852 189.361C174.207 189.647 174.637 189.823 175.09 189.87C176.731 190.055 178.393 189.849 179.94 189.27C181.382 188.887 182.798 188.413 184.18 187.85C184.903 187.592 185.548 187.151 186.05 186.57C187.16 185.08 186.79 181.86 186.62 180.09Z" fill="#3E3E54"/>
<path d="M189.88 108.12C187.7 108.23 185.29 108.12 183.63 109.56C183.465 109.671 183.329 109.819 183.233 109.993C183.137 110.167 183.085 110.362 183.08 110.56C183.141 110.831 183.28 111.078 183.48 111.27L188.37 116.96C188.603 117.265 188.884 117.532 189.2 117.75C189.844 118.069 190.575 118.167 191.28 118.03C193.968 117.729 196.489 116.572 198.47 114.73C200.47 112.82 199.54 109.73 197.4 108.18C195.26 106.63 192.42 107.99 189.88 108.12Z" fill="url(#paint13_linear)"/>
<path d="M215 26.5699C221.86 27.1599 228 31.4999 232.16 36.9799C236.49 42.6799 239.95 50.2499 246.95 51.7499C250.1 52.4299 253.39 51.6599 256.59 51.9899C259.574 52.3593 262.368 53.6502 264.584 55.6829C266.799 57.7156 268.326 60.3887 268.95 63.3299C269.7 67.2199 268.78 71.2399 269.18 75.1799C269.97 82.9499 275.83 90.3399 273.64 97.8299C271.9 103.75 264.64 107.34 258.85 105.08C252.69 102.67 250.02 95.6399 245.85 90.4799C244.04 88.2299 241.39 86.1199 238.55 86.6499C237.14 86.9199 235.91 87.8099 234.55 88.1699C231.35 88.9999 228.02 86.7499 226.39 83.8699C224.76 80.9899 224.39 77.5899 223.88 74.3299C223.14 69.7299 221.88 65.0099 218.88 61.4799C215.16 57.1599 209.11 55.0099 206.3 50.0499C204.64 47.1099 204.35 43.6399 202.84 40.6499C201.5 38.0199 198.93 36.6499 200.06 33.5399C201.95 28.3999 210.25 26.1699 215 26.5699Z" fill="#3E3E54"/>
<path d="M196.18 33.4301C196.018 34.2707 196.06 35.1378 196.301 35.959C196.543 36.7802 196.978 37.5315 197.57 38.1501C198.772 39.3744 200.114 40.4519 201.57 41.3601C203.021 42.2777 204.22 43.5425 205.06 45.0401C205.146 45.2929 205.29 45.5222 205.48 45.7101C205.578 45.7959 205.704 45.8432 205.835 45.8432C205.965 45.8432 206.092 45.7959 206.19 45.7101C206.287 45.5766 206.336 45.4147 206.33 45.2501C206.53 42.4501 206.02 39.6601 206.02 36.8601C206.02 34.9601 206.59 32.5401 205.45 30.8601C203.26 27.6101 197.06 30.2201 196.18 33.4301Z" fill="#3E3E54"/>
</g>
<defs>
<linearGradient id="paint0_linear" x1="218.39" y1="95.57" x2="181.99" y2="83.98" gradientUnits="userSpaceOnUse">
<stop offset="0.01"/>
<stop offset="0.13" stop-opacity="0.69"/>
<stop offset="1" stop-opacity="0"/>
</linearGradient>
<linearGradient id="paint1_linear" x1="179.135" y1="106.815" x2="194.454" y2="112.998" gradientUnits="userSpaceOnUse">
<stop stop-color="#E5C5D5"/>
<stop offset="0.42" stop-color="#EAD4D1"/>
<stop offset="1" stop-color="#F0E9CB"/>
</linearGradient>
<linearGradient id="paint2_linear" x1="189.19" y1="238.13" x2="319.77" y2="238.13" gradientUnits="userSpaceOnUse">
<stop offset="0.02" stop-color="white" stop-opacity="0"/>
<stop offset="0.32" stop-color="white" stop-opacity="0.39"/>
<stop offset="0.68" stop-color="white" stop-opacity="0.68"/>
<stop offset="1" stop-color="white"/>
</linearGradient>
<linearGradient id="paint3_linear" x1="34235" y1="1536.94" x2="34235.8" y2="1337.19" gradientUnits="userSpaceOnUse">
<stop offset="0.01"/>
<stop offset="0.13" stop-opacity="0.69"/>
<stop offset="1" stop-opacity="0"/>
</linearGradient>
<linearGradient id="paint4_linear" x1="34306.2" y1="3645.33" x2="34306.2" y2="4122.5" gradientUnits="userSpaceOnUse">
<stop offset="0.01"/>
<stop offset="0.13" stop-opacity="0.69"/>
<stop offset="1" stop-opacity="0"/>
</linearGradient>
<linearGradient id="paint5_linear" x1="24802" y1="8459.31" x2="24731.7" y2="9515.82" gradientUnits="userSpaceOnUse">
<stop offset="0.02" stop-color="white" stop-opacity="0"/>
<stop offset="0.32" stop-color="white" stop-opacity="0.39"/>
<stop offset="0.68" stop-color="white" stop-opacity="0.68"/>
<stop offset="1" stop-color="white"/>
</linearGradient>
<linearGradient id="paint6_linear" x1="27630.1" y1="6136.69" x2="27560.6" y2="7784.45" gradientUnits="userSpaceOnUse">
<stop offset="0.01"/>
<stop offset="0.13" stop-opacity="0.69"/>
<stop offset="1" stop-opacity="0"/>
</linearGradient>
<linearGradient id="paint7_linear" x1="24983.9" y1="4081.82" x2="24979.7" y2="3427.2" gradientUnits="userSpaceOnUse">
<stop offset="0.01"/>
<stop offset="0.13" stop-opacity="0.69"/>
<stop offset="1" stop-opacity="0"/>
</linearGradient>
<linearGradient id="paint8_linear" x1="6736.07" y1="6461.06" x2="5575.18" y2="6478.99" gradientUnits="userSpaceOnUse">
<stop offset="0.01"/>
<stop offset="0.13" stop-opacity="0.69"/>
<stop offset="1" stop-opacity="0"/>
</linearGradient>
<linearGradient id="paint9_linear" x1="4604.46" y1="1729.09" x2="5040.24" y2="1729.09" gradientUnits="userSpaceOnUse">
<stop stop-color="#E5C5D5"/>
<stop offset="0.42" stop-color="#EAD4D1"/>
<stop offset="1" stop-color="#F0E9CB"/>
</linearGradient>
<linearGradient id="paint10_linear" x1="9111.21" y1="5662.8" x2="7114.79" y2="5599.56" gradientUnits="userSpaceOnUse">
<stop offset="0.01"/>
<stop offset="0.13" stop-opacity="0.69"/>
<stop offset="1" stop-opacity="0"/>
</linearGradient>
<linearGradient id="paint11_linear" x1="-245.739" y1="17148" x2="-33.2999" y2="17166.6" gradientUnits="userSpaceOnUse">
<stop stop-color="#E5C5D5"/>
<stop offset="0.42" stop-color="#EAD4D1"/>
<stop offset="1" stop-color="#F0E9CB"/>
</linearGradient>
<linearGradient id="paint12_linear" x1="2729.6" y1="9936.13" x2="2903.71" y2="9936.13" gradientUnits="userSpaceOnUse">
<stop stop-color="#E5C5D5"/>
<stop offset="0.42" stop-color="#EAD4D1"/>
<stop offset="1" stop-color="#F0E9CB"/>
</linearGradient>
<linearGradient id="paint13_linear" x1="3434.62" y1="1471.19" x2="3707.29" y2="1471.19" gradientUnits="userSpaceOnUse">
<stop stop-color="#E5C5D5"/>
<stop offset="0.42" stop-color="#EAD4D1"/>
<stop offset="1" stop-color="#F0E9CB"/>
</linearGradient>
<clipPath id="clip0">
<rect width="411.75" height="381.17" fill="white"/>
</clipPath>
</defs>
</svg>
