<svg width="192" height="399" viewBox="0 0 192 399" fill="none" xmlns="http://www.w3.org/2000/svg">
<path d="M44.4602 62.6056C44.2404 68.1115 44.9978 73.5686 45.2421 79.111C45.4306 81.1607 45.2275 83.2274 44.6435 85.2016C43.2753 89.0021 39.5616 91.3774 36.0922 93.4726C33.8933 94.8003 31.389 96.7006 31.6944 99.2586C31.9057 100.223 32.4246 101.093 33.1734 101.739C33.9221 102.384 34.8604 102.77 35.8479 102.84C37.8279 102.928 39.8004 102.544 41.6017 101.719C45.2876 100.524 48.6654 98.5361 51.4967 95.8966C57.0307 90.1593 57.2139 81.2793 56.7985 73.325C56.4443 66.6498 55.8701 59.3167 52.474 53.3723C47.0012 43.8711 44.6557 57.8428 44.4602 62.6056Z" fill="#40A9FF"/>
<path d="M44.4602 62.6056C44.2404 68.1115 44.9978 73.5686 45.2421 79.111C45.4306 81.1607 45.2275 83.2274 44.6435 85.2016C43.2753 89.0021 39.5616 91.3774 36.0922 93.4726C33.8933 94.8003 31.389 96.7006 31.6944 99.2586C31.9057 100.223 32.4246 101.093 33.1734 101.739C33.9221 102.384 34.8604 102.77 35.8479 102.84C37.8279 102.928 39.8004 102.544 41.6017 101.719C45.2876 100.524 48.6654 98.5361 51.4967 95.8966C57.0307 90.1593 57.2139 81.2793 56.7985 73.325C56.4443 66.6498 55.8701 59.3167 52.474 53.3723C47.0012 43.8711 44.6557 57.8428 44.4602 62.6056Z" fill="url(#paint0_linear)"/>
<path d="M28.1395 95.6164C25.6107 94.7394 22.9232 93.5456 20.3945 94.3983C20.1529 94.4522 19.928 94.5634 19.7387 94.7224C19.5494 94.8815 19.4014 95.0837 19.3072 95.3119C19.2541 95.6468 19.3008 95.9899 19.4416 96.2986L22.3735 104.959C22.5061 105.39 22.6994 105.801 22.9476 106.177C23.53 106.839 24.3164 107.289 25.1832 107.456C28.3663 108.333 31.7469 108.176 34.8339 107.006C38.0346 105.788 38.3155 101.865 36.6175 99.1124C34.9195 96.3595 31.0714 96.6275 28.1395 95.6164Z" fill="url(#paint1_linear)"/>
<path d="M44.2526 129.967C44.2526 129.967 19.9913 158.861 36.1655 183.625C52.3396 208.389 81.0354 226.807 91.9566 245.542C102.878 264.276 83.0633 284.594 76.1856 288.395C69.3079 292.195 6.65124 338.252 45.462 385.551H176.456C176.456 385.551 218.907 342.698 148.151 290.941C148.151 290.941 97.6127 265.226 144.914 228.707C192.215 192.188 200.705 157.423 178.276 130.284L44.2526 129.967Z" fill="#40A9FF"/>
<path d="M44.2526 129.967C44.2526 129.967 19.9913 158.861 36.1655 183.625C52.3396 208.389 81.0354 226.807 91.9566 245.542C102.878 264.276 83.0633 284.594 76.1856 288.395C69.3079 292.195 6.65124 338.252 45.462 385.551H176.456C176.456 385.551 218.907 342.698 148.151 290.941C148.151 290.941 97.6127 265.226 144.914 228.707C192.215 192.188 200.705 157.423 178.276 130.284L44.2526 129.967Z" fill="url(#paint2_linear)"/>
<path d="M185.704 118.139H34.0767C30.6493 118.139 27.8708 120.91 27.8708 124.327V124.339C27.8708 127.757 30.6493 130.527 34.0767 130.527H185.704C189.131 130.527 191.909 127.757 191.909 124.339V124.327C191.909 120.91 189.131 118.139 185.704 118.139Z" fill="#40A9FF"/>
<path d="M185.704 386.039H34.0767C30.6493 386.039 27.8708 388.809 27.8708 392.227V392.239C27.8708 395.656 30.6493 398.427 34.0767 398.427H185.704C189.131 398.427 191.909 395.656 191.909 392.239V392.227C191.909 388.809 189.131 386.039 185.704 386.039Z" fill="#40A9FF"/>
<path d="M185.704 118.139H34.0767C30.6493 118.139 27.8708 120.91 27.8708 124.327V124.339C27.8708 127.757 30.6493 130.527 34.0767 130.527H185.704C189.131 130.527 191.909 127.757 191.909 124.339V124.327C191.909 120.91 189.131 118.139 185.704 118.139Z" fill="url(#paint3_linear)"/>
<path d="M185.704 386.039H34.0767C30.6493 386.039 27.8708 388.809 27.8708 392.227V392.239C27.8708 395.656 30.6493 398.427 34.0767 398.427H185.704C189.131 398.427 191.909 395.656 191.909 392.239V392.227C191.909 388.809 189.131 386.039 185.704 386.039Z" fill="url(#paint4_linear)"/>
<path d="M165.4 319.761C143.203 307.945 69.76 305.984 55.8214 316.107C68.8316 298.931 86.7038 288.821 86.7038 288.821C104.295 277.858 124.305 287.384 124.305 287.384C124.305 287.384 149.751 300.369 165.4 319.761Z" fill="url(#paint5_linear)"/>
<path d="M164.936 384.601H55.1617L50.9227 380.801C38.3889 359.411 41.4674 340.518 49.7011 325.486C51.5062 322.235 53.5477 319.121 55.8092 316.168C69.7478 305.984 143.191 307.945 165.388 319.822C167.66 322.618 169.703 325.592 171.496 328.714C172.682 330.778 173.719 332.923 174.599 335.134C185.545 362.7 164.936 384.601 164.936 384.601Z" fill="#40A9FF"/>
<path d="M171.533 328.653C166.292 347.68 114.031 318.653 89.6845 316.472C73.6081 315.047 56.6276 324.804 56.6276 324.804C56.6276 324.804 51.1426 326.79 49.6766 325.462C51.4817 322.211 53.5232 319.097 55.7847 316.143C69.7233 305.96 143.167 307.921 165.364 319.798C167.655 322.58 169.718 325.541 171.533 328.653V328.653Z" fill="url(#paint6_linear)"/>
<path d="M55.5649 199.18C55.5649 199.18 93.1662 228.707 95.5973 234.42C98.0283 240.133 117.586 243.471 123.694 238.391C129.802 233.312 145.317 223.628 160.685 201.714C176.053 179.8 125.515 194.101 108.534 197.28C91.5537 200.459 62.4426 179.812 55.5649 199.18Z" fill="#40A9FF"/>
<path d="M55.5647 199.18C55.5647 199.18 70.1264 208.706 83.0633 205.843C96.0002 202.981 104.49 194.734 122.277 196.318C140.064 197.901 157.851 205.527 163.519 197.28C169.187 189.033 163.116 182.346 145.317 184.575C127.518 186.804 98.0159 187.109 83.8696 186.159C69.7232 185.208 43.8494 187.438 55.5647 199.18Z" fill="#40A9FF"/>
<path d="M55.5647 199.18C55.5647 199.18 70.1264 208.706 83.0633 205.843C96.0002 202.981 104.49 194.734 122.277 196.318C140.064 197.901 157.851 205.527 163.519 197.28C169.187 189.033 163.116 182.346 145.317 184.575C127.518 186.804 98.0159 187.109 83.8696 186.159C69.7232 185.208 43.8494 187.438 55.5647 199.18Z" fill="url(#paint7_linear)"/>
<path d="M108.143 248.294C107.109 248.972 106.268 249.903 105.7 250.999C105.496 251.335 105.364 251.711 105.313 252.101C105.263 252.491 105.295 252.887 105.407 253.264C105.579 253.678 105.874 254.03 106.251 254.274C106.628 254.517 107.071 254.641 107.52 254.629C108.287 254.556 109.016 254.264 109.621 253.788C110.843 252.996 112.187 251.985 112.003 250.755C111.82 249.525 109.914 248.648 108.277 248.161" fill="#40A9FF"/>
<path d="M114.96 259.562C114.548 259.667 114.161 259.853 113.824 260.11C113.652 260.256 113.555 260.415 113.689 260.573C113.966 260.78 114.309 260.879 114.654 260.853C114.981 260.834 115.305 260.776 115.619 260.683C116.181 260.512 116.841 260.305 116.707 260.061C116.572 259.818 115.754 259.635 115.008 259.538" fill="#40A9FF"/>
<path d="M108.387 263.131C107.976 263.236 107.589 263.422 107.251 263.679C107.08 263.825 106.995 263.996 107.117 264.142C107.394 264.349 107.737 264.448 108.082 264.422C108.41 264.409 108.735 264.351 109.047 264.252C109.609 264.093 110.269 263.886 110.147 263.63C110.024 263.375 109.181 263.204 108.436 263.107" fill="#40A9FF"/>
<path d="M118.832 279.758C118.303 279.533 117.734 279.413 117.159 279.405C116.841 279.405 116.56 279.478 116.487 279.71C116.494 279.901 116.547 280.088 116.64 280.255C116.734 280.422 116.865 280.565 117.024 280.672C117.343 280.912 117.697 281.101 118.075 281.232C118.771 281.5 119.553 281.768 119.785 281.488C120.017 281.208 119.443 280.404 118.893 279.758" fill="#40A9FF"/>
<path d="M99.4329 301.416C98.9072 301.193 98.343 301.073 97.7715 301.063C97.4417 301.063 97.1607 301.148 97.0996 301.368C97.0386 301.587 97.2218 302.001 97.6249 302.33C97.9458 302.574 98.3049 302.763 98.6877 302.89C99.3718 303.158 100.166 303.426 100.386 303.146C100.606 302.866 100.044 302.062 99.5062 301.416" fill="#40A9FF"/>
<path d="M47.148 55.0046C46.9625 51.7657 47.8185 48.5524 49.5913 45.8322C51.3628 43.135 53.7328 40.8802 56.5178 39.2422C58.0386 38.1484 59.8853 37.599 61.7586 37.683C63.31 37.8779 68.6851 32.0553 69.9434 32.9811C73.4861 35.6 72.7775 45.284 75.7827 48.512C76.5711 52.8424 77.0609 57.2217 77.2486 61.6189L79.0444 94.8246C79.3376 100.318 79.4842 106.299 76.1858 110.66C67.8796 107.651 59.7968 104.061 51.9979 99.9163C51.0986 99.5961 50.3395 98.9732 49.8512 98.1551C49.3629 97.3369 49.1759 96.3745 49.3225 95.4337C48.9927 87.1749 48.9927 78.8917 49.3225 70.6329C49.4691 66.199 47.5145 59.4385 47.148 55.0046Z" fill="#40A9FF"/>
<path d="M47.148 55.0046C46.9625 51.7657 47.8185 48.5524 49.5913 45.8322C51.3628 43.135 53.7328 40.8802 56.5178 39.2422C58.0386 38.1484 59.8853 37.599 61.7586 37.683C63.31 37.8779 68.6851 32.0553 69.9434 32.9811C73.4861 35.6 72.7775 45.284 75.7827 48.512C76.5711 52.8424 77.0609 57.2217 77.2486 61.6189L79.0444 94.8246C79.3376 100.318 79.4842 106.299 76.1858 110.66C67.8796 107.651 59.7968 104.061 51.9979 99.9163C51.0986 99.5961 50.3395 98.9732 49.8512 98.1551C49.3629 97.3369 49.1759 96.3745 49.3225 95.4337C48.9927 87.1749 48.9927 78.8917 49.3225 70.6329C49.4691 66.199 47.5145 59.4385 47.148 55.0046Z" fill="url(#paint8_linear)"/>
<path d="M40.4777 30.0698V31.02C40.4451 32.2133 40.7728 33.3888 41.4184 34.3941C42.64 35.9046 44.8634 35.9655 46.7569 35.6853C48.2326 35.3117 49.7641 35.2085 51.2768 35.3808C52.7794 35.7097 54.4408 41.849 55.8823 42.0926C58.5088 42.5433 64.0794 39.3275 65.8874 37.7074C66.0706 37.549 63.9694 32.8349 64.0427 32.5791C64.1038 32.3311 64.1038 32.072 64.0427 31.8239L61.1109 18.2298C60.839 16.2952 60.1334 14.4466 59.0463 12.8214C58.1808 11.7703 57.0805 10.936 55.8335 10.3851C51.6922 8.49707 45.6208 9.16703 42.5911 12.9188C40.9908 14.9043 41.0153 18.3516 40.7587 20.7878C40.4317 23.8704 40.3378 26.9732 40.4777 30.0698V30.0698Z" fill="url(#paint9_linear)"/>
<path d="M62.0761 125.143C53.989 130.345 44.7536 133.414 35.6281 136.423C33.3804 137.166 30.7417 137.873 28.7504 136.679C27.6248 135.89 26.7341 134.813 26.1728 133.561C22.5813 126.764 13.6024 124.741 18.0124 118.444C19.8815 115.764 30.4729 106.981 33.0872 105.045C38.2668 101.208 43.6908 97.2609 50.0554 96.2011C53.045 95.7688 56.0814 95.7688 59.0709 96.2011C64.8492 96.8954 79.423 99.1124 78.2014 106.506C76.9798 113.9 67.9276 121.343 62.0761 125.143Z" fill="#3E3E54"/>
<path d="M64.5192 60.5104C64.5192 65.3829 65.0323 70.2553 63.4198 74.8354C61.2575 80.926 55.6137 85.1041 49.982 88.393C46.5004 90.4394 42.7256 92.498 40.8566 96.0549C38.9875 99.6118 40.3068 105.118 44.2771 105.8C45.8191 105.957 47.3762 105.731 48.8093 105.142C56.4957 102.609 63.9205 99.3453 70.9816 95.3971C73.8768 93.7649 76.8087 91.9255 78.5922 89.136C80.1384 86.3117 80.9767 83.1565 81.0355 79.9393C81.6144 73.0357 81.4095 66.0891 80.4247 59.2314C79.2867 53.83 77.1669 48.6819 74.17 44.0416C64.5192 31.0078 64.5192 53.3236 64.5192 60.5104Z" fill="#40A9FF"/>
<path d="M64.5192 60.5104C64.5192 65.3829 65.0323 70.2553 63.4198 74.8354C61.2575 80.926 55.6137 85.1041 49.982 88.393C46.5004 90.4394 42.7256 92.498 40.8566 96.0549C38.9875 99.6118 40.3068 105.118 44.2771 105.8C45.8191 105.957 47.3762 105.731 48.8093 105.142C56.4957 102.609 63.9205 99.3453 70.9816 95.3971C73.8768 93.7649 76.8087 91.9255 78.5922 89.136C80.1384 86.3117 80.9767 83.1565 81.0355 79.9393C81.6144 73.0357 81.4095 66.0891 80.4247 59.2314C79.2867 53.83 77.1669 48.6819 74.17 44.0416C64.5192 31.0078 64.5192 53.3236 64.5192 60.5104Z" fill="url(#paint10_linear)"/>
<path d="M11.4157 146.594L9.32678 186.463C14.2132 186.159 16.4366 180.507 17.6093 175.841C20.9321 162.604 24.259 149.368 27.5899 136.131C28.5672 132.208 29.5689 128.128 28.8115 124.157C28.274 121.343 25.7331 116.458 22.3492 116.154C18.7454 115.837 16.8519 120.454 15.6059 123.231C12.3442 130.527 11.8189 138.75 11.4157 146.594Z" fill="url(#paint11_linear)"/>
<path d="M18.6843 149.286L20.1013 189.18C24.8779 188.449 26.6492 182.626 27.431 177.875C29.5811 164.403 31.7352 150.927 33.8934 137.446C34.5286 133.451 35.115 129.309 34.0644 125.411C33.2826 122.658 30.3263 118.017 26.9302 118.005C23.2653 118.005 21.836 122.756 20.8221 125.643C18.2078 133.159 18.4033 141.49 18.6843 149.286Z" fill="url(#paint12_linear)"/>
<path d="M16.6564 178.363L12.112 178.692C11.6409 178.664 11.1692 178.733 10.7259 178.895C10.2826 179.056 9.87708 179.306 9.53438 179.63C9.16295 180.201 8.97934 180.874 9.00907 181.554C8.88691 183.99 8.86248 186.427 9.00907 188.765C8.98477 188.861 8.98477 188.962 9.00907 189.058C9.07834 189.14 9.16736 189.203 9.26778 189.241C9.3682 189.28 9.47674 189.292 9.58323 189.277C11.3213 189.262 13.0274 188.81 14.543 187.961C15.1873 187.661 15.7428 187.199 16.1555 186.622C16.5301 185.926 16.7194 185.146 16.7053 184.356C16.8274 182.322 16.8763 180.275 16.803 178.265L16.6564 178.363Z" fill="#40A9FF"/>
<path d="M16.5589 186.561C16.5494 186.389 16.4992 186.222 16.4123 186.073C16.2972 185.954 16.1445 185.878 15.9798 185.858C15.8151 185.838 15.6486 185.875 15.5083 185.964C15.2372 186.157 14.9981 186.391 14.7997 186.658C14.0147 187.582 12.9129 188.181 11.709 188.339C10.4834 188.31 9.25758 188.384 8.04419 188.558C7.16903 188.899 6.37446 189.418 5.7109 190.081L1.75286 193.492C0.824435 194.283 -0.189492 195.319 0.0303991 196.525C0.20299 197.053 0.525849 197.519 0.959659 197.867C1.39347 198.216 1.9195 198.431 2.47363 198.486C4.47468 198.704 6.49913 198.454 8.38625 197.755C10.1467 197.285 11.8765 196.707 13.5659 196.025C14.4524 195.71 15.2431 195.173 15.8625 194.466C17.2185 192.651 16.7665 188.692 16.5589 186.561Z" fill="#3E3E54"/>
<path d="M27.5654 178.899L22.9843 179.252C22.5115 179.226 22.0382 179.295 21.5931 179.457C21.148 179.618 20.7403 179.867 20.3945 180.19C20.0339 180.766 19.8551 181.436 19.8814 182.114C19.747 184.551 19.7348 186.987 19.8203 189.326C19.8218 189.43 19.8425 189.533 19.8814 189.63C19.9501 189.709 20.0376 189.769 20.1358 189.806C20.234 189.842 20.3398 189.853 20.4434 189.837C22.1862 189.83 23.8981 189.377 25.4153 188.522C26.0594 188.226 26.6151 187.769 27.0278 187.194C27.388 186.493 27.5724 185.716 27.5654 184.928C27.7038 182.882 27.7405 180.852 27.6753 178.838L27.5654 178.899Z" fill="#40A9FF"/>
<path d="M27.4678 187.06C27.4666 186.885 27.4203 186.713 27.3334 186.561C27.2161 186.44 27.0603 186.365 26.8929 186.347C26.7256 186.329 26.5573 186.37 26.4172 186.463C26.147 186.653 25.9115 186.888 25.7209 187.157C24.9339 188.077 23.8323 188.671 22.6302 188.826C21.4044 188.807 20.179 188.885 18.9653 189.058C18.087 189.394 17.2883 189.908 16.6198 190.568L12.6618 193.979C11.7456 194.783 10.7317 195.818 10.9393 197.012C11.1133 197.539 11.4365 198.005 11.8701 198.353C12.3036 198.701 12.8289 198.916 13.3826 198.973C15.3877 199.198 17.4177 198.948 19.3074 198.242C21.069 197.776 22.799 197.198 24.487 196.513C25.3707 196.198 26.1577 195.661 26.7715 194.953C28.1275 193.138 27.6754 189.216 27.4678 187.06Z" fill="#3E3E54"/>
<path d="M31.4503 99.3925C28.7872 99.5265 25.8431 99.3925 23.8152 101.147C23.6135 101.281 23.4473 101.462 23.3303 101.674C23.2134 101.886 23.1493 102.123 23.1433 102.365C23.2173 102.695 23.3872 102.996 23.6319 103.23L29.6056 110.161C29.8909 110.532 30.233 110.857 30.6196 111.123C31.4062 111.511 32.299 111.631 33.1605 111.464C36.4447 111.097 39.5239 109.688 41.9439 107.444C44.3872 105.118 43.2511 101.354 40.6368 99.4656C38.0226 97.5775 34.5532 99.2342 31.4503 99.3925Z" fill="url(#paint13_linear)"/>
<path d="M62.1372 0.0554301C70.5174 0.774116 78.0182 6.06072 83.1001 12.736C88.3897 19.6792 92.6164 28.9003 101.168 30.7275C105.016 31.5558 109.035 30.6179 112.944 31.0198C116.589 31.4697 120.003 33.0423 122.71 35.5183C125.416 37.9943 127.281 41.2505 128.043 44.8332C128.959 49.5717 127.836 54.4685 128.324 59.2678C129.289 68.7326 136.448 77.7344 133.773 86.8581C131.647 94.0693 122.778 98.4423 115.705 95.6894C108.18 92.7537 104.918 84.1904 99.824 77.905C97.6128 75.1642 94.3756 72.594 90.9062 73.2396C89.1837 73.5685 87.6811 74.6526 86.0197 75.0911C82.1106 76.1022 78.0426 73.3614 76.0513 69.8532C74.0601 66.3451 73.6081 62.2035 72.9851 58.2325C72.0811 52.6291 70.5419 46.8797 66.877 42.5797C62.3326 37.3175 54.9418 34.6985 51.5091 28.6567C49.4812 25.0755 49.127 20.8486 47.2823 17.2064C45.6453 14.0028 42.5058 12.334 43.8862 8.54567C46.1951 2.28458 56.3345 -0.431815 62.1372 0.0554301Z" fill="#3E3E54"/>
<path d="M39.1462 8.41178C38.9483 9.43569 38.9991 10.492 39.2945 11.4923C39.59 12.4926 40.1214 13.4078 40.8443 14.1613C42.3124 15.6526 43.9527 16.9651 45.7308 18.0714C47.5034 19.1891 48.9687 20.7298 49.9942 22.5541C50.0998 22.862 50.2754 23.1413 50.5073 23.3702C50.6274 23.4747 50.7815 23.5323 50.941 23.5323C51.1004 23.5323 51.2545 23.4747 51.3746 23.3702C51.4926 23.2076 51.5528 23.0104 51.5457 22.8099C51.79 19.3991 51.167 16.0006 51.167 12.5899C51.167 10.2755 51.8633 7.32766 50.4706 5.28123C47.7953 1.32237 40.2213 4.50164 39.1462 8.41178Z" fill="#3E3E54"/>
<defs>
<linearGradient id="paint0_linear" x1="66.2783" y1="84.1053" x2="21.8351" y2="69.9136" gradientUnits="userSpaceOnUse">
<stop offset="0.01"/>
<stop offset="0.13" stop-opacity="0.69"/>
<stop offset="1" stop-opacity="0"/>
</linearGradient>
<linearGradient id="paint1_linear" x1="18.3233" y1="97.8027" x2="37.0225" y2="105.372" gradientUnits="userSpaceOnUse">
<stop stop-color="#E5C5D5"/>
<stop offset="0.42" stop-color="#EAD4D1"/>
<stop offset="1" stop-color="#F0E9CB"/>
</linearGradient>
<linearGradient id="paint2_linear" x1="30.6071" y1="257.759" x2="190.126" y2="257.759" gradientUnits="userSpaceOnUse">
<stop offset="0.02" stop-color="white" stop-opacity="0"/>
<stop offset="0.32" stop-color="white" stop-opacity="0.39"/>
<stop offset="0.68" stop-color="white" stop-opacity="0.68"/>
<stop offset="1" stop-color="white"/>
</linearGradient>
<linearGradient id="paint3_linear" x1="41621.5" y1="1839.85" x2="41622.4" y2="1596.53" gradientUnits="userSpaceOnUse">
<stop offset="0.01"/>
<stop offset="0.13" stop-opacity="0.69"/>
<stop offset="1" stop-opacity="0"/>
</linearGradient>
<linearGradient id="paint4_linear" x1="41708.4" y1="4408.11" x2="41708.4" y2="4989.36" gradientUnits="userSpaceOnUse">
<stop offset="0.01"/>
<stop offset="0.13" stop-opacity="0.69"/>
<stop offset="1" stop-opacity="0"/>
</linearGradient>
<linearGradient id="paint5_linear" x1="30098" y1="10272.1" x2="30012.5" y2="11559" gradientUnits="userSpaceOnUse">
<stop offset="0.02" stop-color="white" stop-opacity="0"/>
<stop offset="0.32" stop-color="white" stop-opacity="0.39"/>
<stop offset="0.68" stop-color="white" stop-opacity="0.68"/>
<stop offset="1" stop-color="white"/>
</linearGradient>
<linearGradient id="paint6_linear" x1="33552.8" y1="7442.87" x2="33468.4" y2="9450.04" gradientUnits="userSpaceOnUse">
<stop offset="0.01"/>
<stop offset="0.13" stop-opacity="0.69"/>
<stop offset="1" stop-opacity="0"/>
</linearGradient>
<linearGradient id="paint7_linear" x1="30320.2" y1="4939.8" x2="30315.1" y2="4142.41" gradientUnits="userSpaceOnUse">
<stop offset="0.01"/>
<stop offset="0.13" stop-opacity="0.69"/>
<stop offset="1" stop-opacity="0"/>
</linearGradient>
<linearGradient id="paint8_linear" x1="8028.38" y1="7837.99" x2="6610.21" y2="7859.95" gradientUnits="userSpaceOnUse">
<stop offset="0.01"/>
<stop offset="0.13" stop-opacity="0.69"/>
<stop offset="1" stop-opacity="0"/>
</linearGradient>
<linearGradient id="paint9_linear" x1="5424.37" y1="2073.91" x2="5956.73" y2="2073.91" gradientUnits="userSpaceOnUse">
<stop stop-color="#E5C5D5"/>
<stop offset="0.42" stop-color="#EAD4D1"/>
<stop offset="1" stop-color="#F0E9CB"/>
</linearGradient>
<linearGradient id="paint10_linear" x1="10929.9" y1="6865.62" x2="8491.04" y2="6788.13" gradientUnits="userSpaceOnUse">
<stop offset="0.01"/>
<stop offset="0.13" stop-opacity="0.69"/>
<stop offset="1" stop-opacity="0"/>
</linearGradient>
<linearGradient id="paint11_linear" x1="-500.709" y1="20855.8" x2="-241.201" y2="20878.7" gradientUnits="userSpaceOnUse">
<stop stop-color="#E5C5D5"/>
<stop offset="0.42" stop-color="#EAD4D1"/>
<stop offset="1" stop-color="#F0E9CB"/>
</linearGradient>
<linearGradient id="paint12_linear" x1="3134.02" y1="12071" x2="3346.71" y2="12071" gradientUnits="userSpaceOnUse">
<stop stop-color="#E5C5D5"/>
<stop offset="0.42" stop-color="#EAD4D1"/>
<stop offset="1" stop-color="#F0E9CB"/>
</linearGradient>
<linearGradient id="paint13_linear" x1="3995.28" y1="1759.77" x2="4328.37" y2="1759.77" gradientUnits="userSpaceOnUse">
<stop stop-color="#E5C5D5"/>
<stop offset="0.42" stop-color="#EAD4D1"/>
<stop offset="1" stop-color="#F0E9CB"/>
</linearGradient>
</defs>
</svg>
