<svg width="186" height="171" viewBox="0 0 186 171" fill="none" xmlns="http://www.w3.org/2000/svg">
<g clip-path="url(#clip0)">
<path opacity="0.18" d="M174.039 156.356C171.339 157.98 168.307 159.46 165.144 161.057C153.073 167.19 139 167.854 125.714 168.356L62.0922 170.779C51.3753 171.182 40.2581 171.519 30.3916 167.342C24.7018 164.865 19.6647 161.108 15.6751 156.365C9.29087 148.944 5.04373 139.375 2.90216 129.761C-0.598132 114.033 0.513144 97.7122 0.247697 81.6067C0.0947284 72.2261 -0.530645 62.7648 1.08453 53.5187C2.6997 44.2727 6.87036 35.0581 14.4693 29.5221C24.6867 22.084 38.067 22.8153 50.0121 21.2496C62.6096 19.5987 73.4074 13.466 84.6326 7.92561C96.3932 2.12945 109.787 -0.974991 122.924 0.267683C136.206 1.53279 145.834 7.56222 153.275 18.6296C158.408 26.2669 161.529 35.0705 162.35 44.2278C163.308 54.9947 161.05 65.932 162.651 76.6316C165.801 97.5955 183.185 114.625 185.115 135.737C186.128 146.76 181.224 152.044 174.039 156.356Z" fill="#40A9FF"/>
<path opacity="0.41" d="M174.038 156.357C171.339 157.981 168.306 159.462 165.144 161.059C153.072 167.191 138.999 167.855 125.714 168.358L62.0919 170.78C51.3751 171.184 40.2578 171.52 30.3913 167.344C24.7016 164.867 19.6645 161.109 15.6748 156.366L174.038 156.357Z" fill="#40A9FF"/>
<path d="M90.2202 34.9564C90.1392 36.9841 90.4181 38.994 90.5081 41.0352C90.5776 41.79 90.5028 42.5512 90.2877 43.2783C89.7838 44.678 88.416 45.5528 87.1383 46.3244C86.3285 46.8134 85.4062 47.5132 85.5186 48.4553C85.5965 48.8105 85.7876 49.1309 86.0633 49.3686C86.3391 49.6064 86.6847 49.7487 87.0483 49.7743C87.7776 49.8067 88.504 49.6652 89.1674 49.3615C90.5249 48.9213 91.7689 48.1892 92.8117 47.2171C94.8497 45.1041 94.9172 41.8337 94.7643 38.9042C94.6338 36.4458 94.4223 33.7451 93.1716 31.5559C91.156 28.0566 90.2922 33.2023 90.2202 34.9564Z" fill="#40A9FF"/>
<path d="M90.2202 34.9564C90.1392 36.9841 90.4181 38.994 90.5081 41.0352C90.5776 41.79 90.5028 42.5512 90.2877 43.2783C89.7838 44.678 88.416 45.5528 87.1383 46.3244C86.3285 46.8134 85.4062 47.5132 85.5186 48.4553C85.5965 48.8105 85.7876 49.1309 86.0633 49.3686C86.3391 49.6064 86.6847 49.7487 87.0483 49.7743C87.7776 49.8067 88.504 49.6652 89.1674 49.3615C90.5249 48.9213 91.7689 48.1892 92.8117 47.2171C94.8497 45.1041 94.9172 41.8337 94.7643 38.9042C94.6338 36.4458 94.4223 33.7451 93.1716 31.5559C91.156 28.0566 90.2922 33.2023 90.2202 34.9564Z" fill="url(#paint0_linear)"/>
<path d="M84.2094 47.114C83.2781 46.791 82.2883 46.3513 81.357 46.6653C81.268 46.6852 81.1852 46.7261 81.1155 46.7847C81.0458 46.8433 80.9913 46.9178 80.9566 47.0018C80.937 47.1252 80.9542 47.2515 81.0061 47.3652L82.0859 50.5549C82.1347 50.7136 82.2059 50.8647 82.2973 51.0035C82.5118 51.2472 82.8014 51.4129 83.1206 51.4745C84.293 51.7975 85.538 51.7394 86.6749 51.3086C87.8537 50.8599 87.9572 49.4154 87.3318 48.4015C86.7064 47.3876 85.2892 47.4863 84.2094 47.114Z" fill="url(#paint1_linear)"/>
<path d="M90.1437 59.765C90.1437 59.765 81.2085 70.4062 87.1653 79.5266C93.1221 88.6471 103.69 95.4302 107.713 102.33C111.735 109.23 104.437 116.713 101.904 118.112C99.3714 119.512 76.2955 136.474 90.5891 153.894H138.833C138.833 153.894 154.467 138.112 128.408 119.05C128.408 119.05 109.796 109.58 127.216 96.13C144.637 82.6804 147.764 69.8769 139.503 59.8816L90.1437 59.765Z" fill="#40A9FF"/>
<path d="M90.1437 59.765C90.1437 59.765 81.2085 70.4062 87.1653 79.5266C93.1221 88.6471 103.69 95.4302 107.713 102.33C111.735 109.23 104.437 116.713 101.904 118.112C99.3714 119.512 76.2955 136.474 90.5891 153.894H138.833C138.833 153.894 154.467 138.112 128.408 119.05C128.408 119.05 109.796 109.58 127.216 96.13C144.637 82.6804 147.764 69.8769 139.503 59.8816L90.1437 59.765Z" fill="url(#paint2_linear)"/>
<path d="M142.239 55.4089H86.396C85.1337 55.4089 84.1105 56.4292 84.1105 57.6879V57.6924C84.1105 58.951 85.1337 59.9713 86.396 59.9713H142.239C143.501 59.9713 144.524 58.951 144.524 57.6924V57.6879C144.524 56.4292 143.501 55.4089 142.239 55.4089Z" fill="#40A9FF"/>
<path d="M142.239 154.074H86.396C85.1337 154.074 84.1105 155.094 84.1105 156.353V156.357C84.1105 157.616 85.1337 158.636 86.396 158.636H142.239C143.501 158.636 144.524 157.616 144.524 156.357V156.353C144.524 155.094 143.501 154.074 142.239 154.074Z" fill="#40A9FF"/>
<path d="M142.239 55.4089H86.396C85.1337 55.4089 84.1105 56.4292 84.1105 57.6879V57.6924C84.1105 58.951 85.1337 59.9713 86.396 59.9713H142.239C143.501 59.9713 144.524 58.951 144.524 57.6924V57.6879C144.524 56.4292 143.501 55.4089 142.239 55.4089Z" fill="url(#paint3_linear)"/>
<path d="M142.239 154.074H86.396C85.1337 154.074 84.1105 155.094 84.1105 156.353V156.357C84.1105 157.616 85.1337 158.636 86.396 158.636H142.239C143.501 158.636 144.524 157.616 144.524 156.357V156.353C144.524 155.094 143.501 154.074 142.239 154.074Z" fill="url(#paint4_linear)"/>
<path d="M134.761 129.664C126.586 125.313 99.5379 124.59 94.4044 128.318C99.1959 121.993 105.778 118.269 105.778 118.269C112.257 114.232 119.626 117.74 119.626 117.74C119.626 117.74 128.998 122.522 134.761 129.664Z" fill="url(#paint5_linear)"/>
<path d="M134.59 153.544H94.1615L92.6003 152.145C87.9842 144.267 89.118 137.309 92.1504 131.773C92.8152 130.576 93.567 129.428 94.3999 128.341C99.5334 124.59 126.582 125.313 134.757 129.687C135.593 130.716 136.346 131.812 137.006 132.962C137.443 133.722 137.825 134.512 138.149 135.326C142.18 145.478 134.59 153.544 134.59 153.544Z" fill="#40A9FF"/>
<path d="M137.02 132.939C135.09 139.947 115.843 129.256 106.876 128.453C100.955 127.928 94.7013 131.522 94.7013 131.522C94.7013 131.522 92.6812 132.253 92.1414 131.764C92.8062 130.567 93.558 129.42 94.3909 128.332C99.5244 124.581 126.573 125.304 134.748 129.678C135.592 130.702 136.351 131.793 137.02 132.939Z" fill="url(#paint6_linear)"/>
<path d="M94.3099 85.2555C94.3099 85.2555 108.158 96.13 109.053 98.234C109.949 100.338 117.152 101.567 119.401 99.6965C121.651 97.8258 127.365 94.2593 133.025 86.1886C138.684 78.118 120.072 83.3848 113.818 84.5557C107.564 85.7266 96.8429 78.1225 94.3099 85.2555Z" fill="#40A9FF"/>
<path d="M94.3099 85.2555C94.3099 85.2555 99.6728 88.7637 104.437 87.7094C109.202 86.6552 112.329 83.618 118.879 84.2012C125.43 84.7844 131.981 87.5928 134.068 84.5556C136.156 81.5185 133.92 79.0556 127.365 79.8765C120.81 80.6975 109.944 80.8097 104.734 80.4597C99.5244 80.1098 89.9953 80.9308 94.3099 85.2555Z" fill="#40A9FF"/>
<path d="M94.3099 85.2555C94.3099 85.2555 99.6728 88.7637 104.437 87.7094C109.202 86.6552 112.329 83.618 118.879 84.2012C125.43 84.7844 131.981 87.5928 134.068 84.5556C136.156 81.5185 133.92 79.0556 127.365 79.8765C120.81 80.6975 109.944 80.8097 104.734 80.4597C99.5244 80.1098 89.9953 80.9308 94.3099 85.2555Z" fill="url(#paint7_linear)"/>
<path d="M113.674 103.344C113.293 103.593 112.983 103.936 112.774 104.34C112.699 104.464 112.65 104.602 112.632 104.746C112.613 104.889 112.625 105.035 112.666 105.174C112.73 105.327 112.838 105.456 112.977 105.546C113.116 105.636 113.279 105.681 113.445 105.677C113.727 105.65 113.996 105.542 114.218 105.367C114.668 105.075 115.163 104.703 115.096 104.25C115.028 103.797 114.326 103.474 113.724 103.294" fill="#40A9FF"/>
<path d="M116.184 107.494C116.033 107.532 115.89 107.601 115.766 107.695C115.703 107.749 115.667 107.808 115.717 107.866C115.819 107.942 115.945 107.979 116.072 107.969C116.192 107.962 116.312 107.941 116.427 107.906C116.634 107.843 116.877 107.767 116.828 107.677C116.778 107.588 116.477 107.52 116.202 107.485" fill="#40A9FF"/>
<path d="M113.764 108.808C113.612 108.847 113.47 108.915 113.346 109.01C113.283 109.064 113.251 109.126 113.296 109.18C113.398 109.256 113.524 109.293 113.652 109.283C113.772 109.279 113.892 109.257 114.007 109.221C114.214 109.162 114.457 109.086 114.412 108.992C114.367 108.898 114.056 108.835 113.782 108.799" fill="#40A9FF"/>
<path d="M117.611 114.932C117.416 114.849 117.206 114.805 116.994 114.802C116.877 114.802 116.774 114.828 116.747 114.914C116.75 114.984 116.769 115.053 116.803 115.114C116.838 115.176 116.886 115.229 116.945 115.268C117.062 115.357 117.193 115.426 117.332 115.474C117.588 115.573 117.876 115.672 117.962 115.569C118.047 115.465 117.836 115.169 117.633 114.932" fill="#40A9FF"/>
<path d="M110.466 122.908C110.272 122.826 110.065 122.782 109.854 122.778C109.733 122.778 109.629 122.809 109.607 122.89C109.584 122.971 109.652 123.123 109.8 123.245C109.918 123.334 110.051 123.404 110.192 123.451C110.444 123.55 110.736 123.648 110.817 123.545C110.898 123.442 110.691 123.146 110.493 122.908" fill="#40A9FF"/>
<path d="M91.2101 32.157C91.1418 30.9642 91.457 29.7807 92.1099 28.7789C92.7624 27.7856 93.6352 26.9552 94.6609 26.3519C95.221 25.949 95.9011 25.7467 96.591 25.7777C97.1624 25.8494 99.142 23.705 99.6054 24.046C100.91 25.0105 100.649 28.577 101.756 29.7659C102.046 31.3607 102.227 32.9736 102.296 34.593L102.957 46.8224C103.065 48.8456 103.119 51.0483 101.904 52.6544C98.8453 51.5462 95.8685 50.224 92.9962 48.6976C92.6651 48.5796 92.3855 48.3503 92.2056 48.0489C92.0258 47.7476 91.9569 47.3932 92.0109 47.0467C91.8894 44.005 91.8894 40.9544 92.0109 37.9128C92.0649 36.2798 91.3451 33.79 91.2101 32.157Z" fill="#40A9FF"/>
<path d="M91.2101 32.157C91.1418 30.9642 91.457 29.7807 92.1099 28.7789C92.7624 27.7856 93.6352 26.9552 94.6609 26.3519C95.221 25.949 95.9011 25.7467 96.591 25.7777C97.1624 25.8494 99.142 23.705 99.6054 24.046C100.91 25.0105 100.649 28.577 101.756 29.7659C102.046 31.3607 102.227 32.9736 102.296 34.593L102.957 46.8224C103.065 48.8456 103.119 51.0483 101.904 52.6544C98.8453 51.5462 95.8685 50.224 92.9962 48.6976C92.6651 48.5796 92.3855 48.3503 92.2056 48.0489C92.0258 47.7476 91.9569 47.3932 92.0109 47.0467C91.8894 44.005 91.8894 40.9544 92.0109 37.9128C92.0649 36.2798 91.3451 33.79 91.2101 32.157Z" fill="url(#paint8_linear)"/>
<path d="M88.7535 22.9738V23.3237C88.7415 23.7632 88.8622 24.1961 89.0999 24.5664C89.5498 25.1227 90.3687 25.1451 91.066 25.0419C91.6095 24.9043 92.1736 24.8663 92.7307 24.9298C93.2841 25.0509 93.8959 27.3119 94.4268 27.4016C95.3941 27.5676 97.4457 26.3833 98.1116 25.7866C98.1791 25.7283 97.4052 23.9921 97.4322 23.8979C97.4547 23.8066 97.4547 23.7112 97.4322 23.6198L96.3525 18.6132C96.2524 17.9007 95.9925 17.2199 95.5921 16.6213C95.2734 16.2342 94.8681 15.927 94.4088 15.7241C92.8837 15.0287 90.6476 15.2755 89.5318 16.6572C88.9424 17.3885 88.9514 18.6581 88.857 19.5553C88.7365 20.6906 88.7019 21.8333 88.7535 22.9738Z" fill="url(#paint9_linear)"/>
<path d="M96.7079 57.9885C93.7295 59.9041 90.3282 61.0346 86.9674 62.1427C86.1396 62.4163 85.1678 62.6765 84.4344 62.2369C84.0198 61.9465 83.6918 61.5496 83.4851 61.0884C82.1624 58.5851 78.8555 57.8404 80.4797 55.5211C81.1681 54.5341 85.0688 51.2996 86.0316 50.5863C87.9392 49.1731 89.9368 47.7196 92.2808 47.3293C93.3818 47.1701 94.5001 47.1701 95.6012 47.3293C97.7292 47.585 103.097 48.4015 102.647 51.1246C102.197 53.8477 98.863 56.5888 96.7079 57.9885Z" fill="#3E3E54"/>
<path d="M97.6078 34.1848C97.6078 35.9792 97.7967 37.7737 97.2028 39.4605C96.4065 41.7036 94.3279 43.2424 92.2538 44.4536C90.9716 45.2073 89.5814 45.9655 88.893 47.2754C88.2047 48.5854 88.6906 50.6132 90.1528 50.8644C90.7207 50.9224 91.2942 50.8392 91.8219 50.6221C94.6528 49.6891 97.3872 48.4873 99.9878 47.0332C101.054 46.4321 102.134 45.7546 102.791 44.7273C103.36 43.6871 103.669 42.5251 103.691 41.3402C103.904 38.7977 103.828 36.2393 103.466 33.7137C103.046 31.7244 102.266 29.8284 101.162 28.1194C97.6078 23.3192 97.6078 31.5379 97.6078 34.1848Z" fill="#40A9FF"/>
<path d="M97.6078 34.1848C97.6078 35.9792 97.7967 37.7737 97.2028 39.4605C96.4065 41.7036 94.3279 43.2424 92.2538 44.4536C90.9716 45.2073 89.5814 45.9655 88.893 47.2754C88.2047 48.5854 88.6906 50.6132 90.1528 50.8644C90.7207 50.9224 91.2942 50.8392 91.8219 50.6221C94.6528 49.6891 97.3872 48.4873 99.9878 47.0332C101.054 46.4321 102.134 45.7546 102.791 44.7273C103.36 43.6871 103.669 42.5251 103.691 41.3402C103.904 38.7977 103.828 36.2393 103.466 33.7137C103.046 31.7244 102.266 29.8284 101.162 28.1194C97.6078 23.3192 97.6078 31.5379 97.6078 34.1848Z" fill="url(#paint10_linear)"/>
<path d="M78.0502 65.8886L77.2809 80.5719C79.0805 80.4598 79.8994 78.3782 80.3313 76.66C81.555 71.785 82.7803 66.91 84.007 62.035C84.3669 60.5904 84.7359 59.0876 84.4569 57.6251C84.259 56.5888 83.3232 54.7898 82.0769 54.6776C80.7497 54.561 80.0523 56.2613 79.5934 57.2841C78.3922 59.9713 78.1987 62.9995 78.0502 65.8886Z" fill="url(#paint11_linear)"/>
<path d="M80.7272 66.8801L81.2491 81.5723C83.0082 81.3032 83.6606 79.1588 83.9485 77.4092C84.7404 72.4474 85.5337 67.4842 86.3285 62.5195C86.5625 61.048 86.7785 59.5227 86.3915 58.0872C86.1036 57.0733 85.0148 55.364 83.7641 55.3596C82.4143 55.3596 81.8879 57.1092 81.5145 58.1724C80.5517 60.9404 80.6237 64.0089 80.7272 66.8801Z" fill="url(#paint12_linear)"/>
<path d="M79.9803 77.5886L78.3067 77.7097C78.1332 77.6997 77.9594 77.7251 77.7962 77.7845C77.6329 77.8439 77.4836 77.9361 77.3574 78.0552C77.2206 78.2657 77.153 78.5134 77.1639 78.764C77.1189 79.6612 77.1099 80.5585 77.1639 81.4198C77.155 81.4552 77.155 81.4922 77.1639 81.5275C77.1894 81.5577 77.2222 81.581 77.2592 81.5951C77.2962 81.6092 77.3361 81.6137 77.3754 81.6082C78.0155 81.6028 78.6438 81.4362 79.202 81.1237C79.4393 81.013 79.6439 80.843 79.7959 80.6303C79.9338 80.374 80.0035 80.0867 79.9983 79.7958C80.0433 79.0466 80.0613 78.293 80.0343 77.5527L79.9803 77.5886Z" fill="#40A9FF"/>
<path d="M79.9444 80.6078C79.9409 80.5446 79.9224 80.4831 79.8904 80.4284C79.8481 80.3845 79.7918 80.3565 79.7312 80.3491C79.6705 80.3417 79.6092 80.3555 79.5575 80.388C79.4576 80.4591 79.3696 80.5454 79.2965 80.6437C79.0074 80.9839 78.6017 81.2046 78.1583 81.2628C77.7069 81.2523 77.2554 81.2793 76.8085 81.3435C76.4862 81.4691 76.1936 81.66 75.9492 81.9043L74.4915 83.1604C74.1496 83.4521 73.7762 83.8334 73.8571 84.2775C73.9207 84.4719 74.0396 84.6438 74.1994 84.772C74.3591 84.9002 74.5529 84.9794 74.757 84.9998C75.4939 85.08 76.2395 84.9879 76.9345 84.7306C77.5829 84.5575 78.22 84.3447 78.8421 84.0936C79.1686 83.9774 79.4598 83.7797 79.688 83.5193C80.1874 82.8509 80.0209 81.3929 79.9444 80.6078Z" fill="#3E3E54"/>
<path d="M83.998 77.786L82.3108 77.9161C82.1367 77.9064 81.9624 77.9321 81.7985 77.9915C81.6346 78.0508 81.4844 78.1427 81.357 78.2615C81.2242 78.4736 81.1584 78.7205 81.1681 78.9703C81.1186 79.8676 81.1141 80.7648 81.1456 81.6262C81.1461 81.6646 81.1538 81.7026 81.1681 81.7383C81.1934 81.7673 81.2256 81.7895 81.2618 81.8029C81.2979 81.8162 81.3369 81.8202 81.375 81.8146C82.0169 81.8119 82.6474 81.6451 83.2062 81.3301C83.4434 81.2213 83.648 81.0528 83.8 80.8411C83.9327 80.583 84.0006 80.2967 83.998 80.0066C84.049 79.253 84.0625 78.5053 84.0385 77.7635L83.998 77.786Z" fill="#40A9FF"/>
<path d="M83.9621 80.7917C83.9616 80.7272 83.9446 80.6639 83.9126 80.6078C83.8694 80.5635 83.812 80.5356 83.7504 80.5291C83.6887 80.5225 83.6268 80.5376 83.5752 80.5719C83.4757 80.6419 83.3889 80.7284 83.3187 80.8276C83.0289 81.1662 82.6232 81.3852 82.1804 81.4422C81.729 81.4352 81.2777 81.4637 80.8307 81.5275C80.5073 81.6512 80.2131 81.8407 79.9669 82.0837L78.5092 83.3399C78.1718 83.636 77.7983 84.0173 77.8748 84.4569C77.9389 84.6511 78.0579 84.8226 78.2176 84.9508C78.3773 85.0789 78.5707 85.1583 78.7746 85.1792C79.5131 85.262 80.2607 85.1698 80.9567 84.91C81.6055 84.7383 82.2426 84.5255 82.8643 84.273C83.1897 84.1572 83.4796 83.9594 83.7056 83.6988C84.205 83.0303 84.0386 81.5858 83.9621 80.7917Z" fill="#3E3E54"/>
<path d="M85.4288 48.5046C84.448 48.554 83.3637 48.5046 82.6168 49.1507C82.5426 49.2002 82.4813 49.2668 82.4383 49.3449C82.3952 49.423 82.3716 49.5102 82.3694 49.5993C82.3966 49.7208 82.4592 49.8316 82.5493 49.9178L84.7494 52.4704C84.8544 52.6074 84.9805 52.727 85.1228 52.8248C85.4125 52.9678 85.7413 53.0119 86.0586 52.9505C87.2682 52.8154 88.4022 52.2965 89.2935 51.47C90.1933 50.6132 89.7749 49.2269 88.8121 48.5316C87.8493 47.8362 86.5715 48.4463 85.4288 48.5046Z" fill="url(#paint13_linear)"/>
<path d="M96.7305 11.9198C99.8168 12.1845 102.579 14.1315 104.451 16.5899C106.399 19.147 107.956 22.5431 111.105 23.216C112.522 23.521 114.002 23.1756 115.442 23.3237C116.785 23.4893 118.042 24.0685 119.039 24.9804C120.035 25.8923 120.722 27.0915 121.003 28.411C121.34 30.1561 120.927 31.9596 121.107 33.7271C121.462 37.2129 124.098 40.5282 123.113 43.8883C122.33 46.5442 119.064 48.1547 116.459 47.1408C113.688 46.0597 112.486 42.9059 110.61 40.591C109.796 39.5816 108.604 38.635 107.326 38.8728C106.691 38.9939 106.138 39.3932 105.526 39.5547C104.086 39.927 102.588 38.9176 101.855 37.6256C101.122 36.3336 100.955 34.8083 100.726 33.3458C100.393 31.2822 99.8258 29.1647 98.4761 27.581C96.8024 25.643 94.0805 24.6785 92.8162 22.4533C92.0694 21.1344 91.9389 19.5777 91.2596 18.2363C90.6567 17.0565 89.5004 16.4418 90.0088 15.0466C90.8591 12.7407 94.5934 11.7403 96.7305 11.9198Z" fill="#3E3E54"/>
<path d="M88.2631 14.9973C88.1902 15.3744 88.2089 15.7635 88.3177 16.1319C88.4265 16.5003 88.6222 16.8373 88.8885 17.1148C89.4292 17.6641 90.0333 18.1475 90.6881 18.5549C91.3409 18.9665 91.8806 19.5339 92.2583 20.2058C92.2972 20.3192 92.3618 20.4221 92.4472 20.5064C92.4915 20.5449 92.5482 20.5661 92.607 20.5661C92.6657 20.5661 92.7224 20.5449 92.7667 20.5064C92.8101 20.4465 92.8323 20.3739 92.8297 20.3C92.9197 19.0439 92.6902 17.7922 92.6902 16.5361C92.6902 15.6837 92.9466 14.5981 92.4338 13.8444C91.4485 12.3864 88.659 13.5573 88.2631 14.9973Z" fill="#3E3E54"/>
</g>
<defs>
<linearGradient id="paint0_linear" x1="98.2556" y1="42.8745" x2="81.8876" y2="37.6478" gradientUnits="userSpaceOnUse">
<stop offset="0.01"/>
<stop offset="0.13" stop-opacity="0.69"/>
<stop offset="1" stop-opacity="0"/>
</linearGradient>
<linearGradient id="paint1_linear" x1="80.5942" y1="47.9192" x2="87.4809" y2="50.7068" gradientUnits="userSpaceOnUse">
<stop stop-color="#E5C5D5"/>
<stop offset="0.42" stop-color="#EAD4D1"/>
<stop offset="1" stop-color="#F0E9CB"/>
</linearGradient>
<linearGradient id="paint2_linear" x1="85.1182" y1="106.83" x2="143.867" y2="106.83" gradientUnits="userSpaceOnUse">
<stop offset="0.02" stop-color="white" stop-opacity="0"/>
<stop offset="0.32" stop-color="white" stop-opacity="0.39"/>
<stop offset="0.68" stop-color="white" stop-opacity="0.68"/>
<stop offset="1" stop-color="white"/>
</linearGradient>
<linearGradient id="paint3_linear" x1="15402.6" y1="689.497" x2="15403" y2="599.887" gradientUnits="userSpaceOnUse">
<stop offset="0.01"/>
<stop offset="0.13" stop-opacity="0.69"/>
<stop offset="1" stop-opacity="0"/>
</linearGradient>
<linearGradient id="paint4_linear" x1="15434.6" y1="1635.36" x2="15434.6" y2="1849.43" gradientUnits="userSpaceOnUse">
<stop offset="0.01"/>
<stop offset="0.13" stop-opacity="0.69"/>
<stop offset="1" stop-opacity="0"/>
</linearGradient>
<linearGradient id="paint5_linear" x1="11158.6" y1="3795" x2="11127.2" y2="4268.98" gradientUnits="userSpaceOnUse">
<stop offset="0.02" stop-color="white" stop-opacity="0"/>
<stop offset="0.32" stop-color="white" stop-opacity="0.39"/>
<stop offset="0.68" stop-color="white" stop-opacity="0.68"/>
<stop offset="1" stop-color="white"/>
</linearGradient>
<linearGradient id="paint6_linear" x1="12431" y1="2753.04" x2="12399.9" y2="3492.26" gradientUnits="userSpaceOnUse">
<stop offset="0.01"/>
<stop offset="0.13" stop-opacity="0.69"/>
<stop offset="1" stop-opacity="0"/>
</linearGradient>
<linearGradient id="paint7_linear" x1="11240.5" y1="1831.18" x2="11238.6" y2="1537.51" gradientUnits="userSpaceOnUse">
<stop offset="0.01"/>
<stop offset="0.13" stop-opacity="0.69"/>
<stop offset="1" stop-opacity="0"/>
</linearGradient>
<linearGradient id="paint8_linear" x1="3030.62" y1="2898.55" x2="2508.32" y2="2906.64" gradientUnits="userSpaceOnUse">
<stop offset="0.01"/>
<stop offset="0.13" stop-opacity="0.69"/>
<stop offset="1" stop-opacity="0"/>
</linearGradient>
<linearGradient id="paint9_linear" x1="2071.59" y1="775.7" x2="2267.65" y2="775.7" gradientUnits="userSpaceOnUse">
<stop stop-color="#E5C5D5"/>
<stop offset="0.42" stop-color="#EAD4D1"/>
<stop offset="1" stop-color="#F0E9CB"/>
</linearGradient>
<linearGradient id="paint10_linear" x1="4099.22" y1="2540.44" x2="3201.01" y2="2511.9" gradientUnits="userSpaceOnUse">
<stop offset="0.01"/>
<stop offset="0.13" stop-opacity="0.69"/>
<stop offset="1" stop-opacity="0"/>
</linearGradient>
<linearGradient id="paint11_linear" x1="-110.56" y1="7692.9" x2="-14.9861" y2="7701.31" gradientUnits="userSpaceOnUse">
<stop stop-color="#E5C5D5"/>
<stop offset="0.42" stop-color="#EAD4D1"/>
<stop offset="1" stop-color="#F0E9CB"/>
</linearGradient>
<linearGradient id="paint12_linear" x1="1228.07" y1="4457.53" x2="1306.41" y2="4457.53" gradientUnits="userSpaceOnUse">
<stop stop-color="#E5C5D5"/>
<stop offset="0.42" stop-color="#EAD4D1"/>
<stop offset="1" stop-color="#F0E9CB"/>
</linearGradient>
<linearGradient id="paint13_linear" x1="1545.27" y1="660.004" x2="1667.94" y2="660.004" gradientUnits="userSpaceOnUse">
<stop stop-color="#E5C5D5"/>
<stop offset="0.42" stop-color="#EAD4D1"/>
<stop offset="1" stop-color="#F0E9CB"/>
</linearGradient>
<clipPath id="clip0">
<rect width="185.25" height="171" fill="white"/>
</clipPath>
</defs>
</svg>
