<svg width="814" height="875" viewBox="0 0 814 875" fill="none" xmlns="http://www.w3.org/2000/svg">
<path d="M76.4411 765.054H46.3389V878.342H76.4411V765.054Z" fill="#3F3D56"/>
<path d="M278.425 637.321C278.425 637.321 340.917 652.918 354.814 673.735C368.71 694.552 300.991 885.26 300.991 885.26L205.499 881.801L233.271 718.766L278.425 637.321Z" fill="#40A9FF"/>
<path d="M278.425 637.321C278.425 637.321 340.917 652.918 354.814 673.735C368.71 694.552 300.991 885.26 300.991 885.26L205.499 881.801L233.271 718.766L278.425 637.321Z" fill="url(#paint0_linear)"/>
<path d="M-84.125 603.465C-93.7603 615.351 -97.7067 631.053 -98.0426 646.357C-99.0502 694.238 -66.5549 737.926 -25.6628 763.062C15.2293 788.198 63.4055 797.946 110.784 805.954C141.768 811.195 175.313 815.513 203.148 801.069C213.644 795.661 223.111 787.149 226.386 775.913C232.285 755.62 216.625 735.851 201.196 721.407C159.446 682.076 111.396 650.005 59.0392 626.525C24.9485 611.305 -54.4846 566.925 -84.125 603.465Z" fill="#3F3D56"/>
<path d="M-84.125 603.465C-93.7603 615.351 -97.7067 631.053 -98.0426 646.357C-99.0502 694.238 -66.5549 737.926 -25.6628 763.062C15.2293 788.198 63.4055 797.946 110.784 805.954C141.768 811.195 175.313 815.513 203.148 801.069C213.644 795.661 223.111 787.149 226.386 775.913C232.285 755.62 216.625 735.851 201.196 721.407C159.446 682.076 111.396 650.005 59.0392 626.525C24.9485 611.305 -54.4846 566.925 -84.125 603.465Z" fill="url(#paint1_linear)"/>
<path d="M462.397 872.095L428.915 877.839L375.658 887L238.498 732.685C238.498 732.685 18.5457 751.175 -13.8447 686.439C-30.974 652.247 -29.3576 602.584 -24.0467 563.34C-21.1997 542.474 -16.9924 521.816 -11.4516 501.497C-11.4516 501.497 67.2677 545.416 164.502 561.6C261.736 577.784 462.397 872.095 462.397 872.095Z" fill="#40A9FF"/>
<path d="M428.915 877.839L375.658 887L238.498 732.685C238.498 732.685 18.5457 751.175 -13.8447 686.439C-30.974 652.247 -29.3576 602.584 -24.0467 563.34C-8.93257 580.111 71.2772 663.966 159.779 657.551C269.65 649.585 374.294 789.644 428.915 877.839Z" fill="url(#paint2_linear)"/>
<path d="M330.61 98.4468C330.052 105.285 327.196 111.734 322.507 116.748C318.711 120.614 314.604 124.161 310.227 127.356C302.051 133.872 294.516 141.151 287.724 149.095C287.724 140.899 287.724 132.576 289.991 124.694C291.296 121.097 292.396 117.429 293.287 113.708C294.462 106.916 292.573 99.8514 293.874 93.0801C294.809 89.1143 296.353 85.3169 298.451 81.8225C300.256 78.5312 302.397 75.0932 305.84 73.6047C307.357 73.0247 308.978 72.7661 310.601 72.8455C312.224 72.9249 313.812 73.3405 315.265 74.0659C324.376 78.2587 331.198 88.4052 330.61 98.4468Z" fill="#3F3D56"/>
<path d="M330.61 98.4468C330.052 105.285 327.196 111.734 322.507 116.748C318.711 120.614 314.604 124.161 310.227 127.356C302.051 133.872 294.516 141.151 287.724 149.095C287.724 140.899 287.724 132.576 289.991 124.694C291.296 121.097 292.396 117.429 293.287 113.708C294.462 106.916 292.573 99.8514 293.874 93.0801C294.809 89.1143 296.353 85.3169 298.451 81.8225C300.256 78.5312 302.397 75.0932 305.84 73.6047C307.357 73.0247 308.978 72.7661 310.601 72.8455C312.224 72.9249 313.812 73.3405 315.265 74.0659C324.376 78.2587 331.198 88.4052 330.61 98.4468Z" fill="url(#paint3_linear)"/>
<path d="M323.326 78.1329C325.992 72.6614 327.524 66.2465 325.425 60.5233C325.373 60.2244 325.261 59.9392 325.094 59.6854C324.928 59.4316 324.711 59.2145 324.457 59.0475C324.203 58.8806 323.918 58.7673 323.619 58.7146C323.32 58.662 323.013 58.6711 322.717 58.7414C311.814 58.9637 301.239 62.5035 292.405 68.8879C297.43 72.7562 301.43 77.7944 304.055 83.5625C305.566 87.1477 306.282 91.0166 306.155 94.904C306.155 95.7215 305.336 98.8451 306.029 99.2225C306.721 99.5998 309.114 96.8955 309.618 96.3714C315.114 91.0448 319.739 84.8906 323.326 78.1329Z" fill="#2B2A44"/>
<path d="M323.326 78.1329C325.992 72.6614 327.524 66.2465 325.425 60.5233C325.373 60.2244 325.261 59.9392 325.094 59.6854C324.928 59.4316 324.711 59.2145 324.457 59.0475C324.203 58.8806 323.918 58.7673 323.619 58.7146C323.32 58.662 323.013 58.6711 322.717 58.7414C311.814 58.9637 301.239 62.5035 292.405 68.8879C297.43 72.7562 301.43 77.7944 304.055 83.5625C305.566 87.1477 306.282 91.0166 306.155 94.904C306.155 95.7215 305.336 98.8451 306.029 99.2225C306.721 99.5998 309.114 96.8955 309.618 96.3714C315.114 91.0448 319.739 84.8906 323.326 78.1329Z" fill="url(#paint4_linear)"/>
<path d="M422.512 395.147L150.5 613.611L813.758 614.764L684.112 390.514L422.512 395.147Z" fill="white"/>
<path d="M469.975 410.556L558.728 409.78L554.089 440.597L459.164 436.76L469.975 410.556Z" fill="#40A9FF"/>
<path d="M726.18 267.981L645.928 506.884L377.38 511.496L402.339 473.175L409.015 462.965L483.703 461.665L632.032 459.108L700.696 261.818L726.18 267.981Z" fill="#40A9FF"/>
<path d="M530.011 471.393L503.457 469.904C501.657 469.657 499.823 469.866 498.125 470.512C496.469 471.576 495.042 472.958 493.927 474.579C489.708 479.103 484.075 482.06 477.952 482.965C471.872 483.87 465.707 484.053 459.584 483.51C452.943 483.412 446.335 482.547 439.894 480.931C435.527 479.673 431.392 477.766 427.11 476.277C419.154 473.551 410.729 472.453 402.339 473.049L408.994 462.819L483.704 461.519C485.971 461.98 488.28 462.378 490.61 462.714C499.888 463.992 509.356 463.699 518.634 464.978C523.168 465.732 528.29 467.2 530.011 471.393Z" fill="url(#paint5_linear)"/>
<path d="M537.316 459.317C537.316 459.317 533.265 468.353 529.403 466.823C525.54 465.292 501.609 455.271 501.609 455.271C499.188 458.395 496.049 460.89 492.457 462.546C488.56 464.472 484.339 465.66 480.009 466.047C464.58 467.577 421.379 459.884 421.379 459.884L242.339 472.986L202.203 436.781L205.541 338.44L207.892 269.092L272.442 412.883C272.442 412.883 461.704 421.541 491.218 435.419C520.733 449.297 537.316 459.317 537.316 459.317Z" fill="url(#paint6_linear)"/>
<path d="M492.457 462.546C488.56 464.472 484.34 465.66 480.009 466.047C464.58 467.577 421.379 459.884 421.379 459.884L242.34 472.986L202.203 436.781L205.541 338.44L244.649 425.587C244.649 425.587 433.911 434.266 463.425 448.123C475.265 453.678 485.005 458.626 492.457 462.546Z" fill="url(#paint7_linear)"/>
<path d="M210.18 271.419C210.39 273.222 210.621 275.025 210.936 276.807C213.728 293.012 228.317 377.894 231.466 397.349C234.363 415.105 216.373 447.997 209.97 458.961C208.417 461.624 206.989 464.37 205.772 467.158L172.185 540.364C162.114 562.267 144.039 579.498 121.663 588.528C99.2859 597.558 74.2991 597.704 51.8178 588.937C28.8619 579.996 10.3044 562.464 0.0921412 540.07C-10.1201 517.676 -11.1814 492.187 -2.86592 469.024C29.8603 377.789 79.6319 245.13 98.0208 228.464C125.982 203.056 200.209 187.732 210.18 271.419Z" fill="#40A9FF"/>
<path d="M204.092 245.571C179.784 240.267 152.075 250.875 137.254 264.291C118.845 280.958 69.073 413.637 36.3677 504.851C31.5984 518.107 29.862 532.261 31.286 546.274C32.7099 560.288 37.258 573.805 44.5965 585.834C23.6299 575.659 7.17112 558.101 -1.61391 536.537C-10.3989 514.973 -10.8898 490.927 -2.99191 469.024C29.7343 377.789 79.5059 245.151 97.8947 228.485C122.644 206.054 183.185 191.505 204.092 245.571Z" fill="url(#paint8_linear)"/>
<path d="M217.065 215.97C217.065 215.97 191.875 228.695 199.138 254.983C206.401 281.272 152.83 221.441 152.83 221.441C152.83 221.441 145.882 180.981 187.551 184.461C229.22 187.941 217.065 215.97 217.065 215.97Z" fill="url(#paint9_linear)"/>
<path d="M156.021 225.215C156.021 225.215 164.124 209.324 170.715 205.865C177.307 202.406 190.679 201.819 191.539 213.664C192.46 222.089 194.508 230.352 197.627 238.233C197.627 238.233 209.193 220.016 217.002 215.97C217.002 215.97 195.024 200.939 188.936 191.421C182.849 181.904 159.128 199.513 159.128 199.513C159.128 199.513 148.779 217.731 156.021 225.215Z" fill="url(#paint10_linear)"/>
<path d="M302.376 115.218C298.514 128.907 290.852 142.639 294.105 156.475C294.996 159.21 295.656 162.015 296.079 164.86C296.26 166.297 296.041 167.757 295.445 169.078C294.848 170.398 293.898 171.529 292.699 172.344C291.292 172.934 289.807 173.315 288.291 173.476C277.795 175.573 271.497 186.306 267.299 196.18C263.1 206.054 258.419 217.144 248.574 221.337C240.303 225.005 230.563 222.741 222.376 218.905C208.566 212.219 196.807 201.953 188.328 189.178C183.684 182.722 180.405 175.39 178.692 167.627C177.685 161.249 177.621 154.758 178.503 148.362C180.3 129.117 186.328 110.506 196.158 93.8558C206.085 77.1957 220.935 64.014 238.666 56.1209C243.537 53.8894 248.743 52.473 254.074 51.9282C264.696 51.1316 275.213 55.2824 283.924 61.4248C290.663 66.1626 302.607 74.7158 304.916 83.0384C307.54 92.577 305 105.994 302.376 115.218Z" fill="url(#paint11_linear)"/>
<path d="M275.381 83.5625C256.59 102.362 240.465 123.642 227.456 146.81C221.873 156.768 216.814 167.166 209.466 175.887C200.208 186.819 187.797 194.631 173.927 198.255C170.988 198.797 168.154 199.802 165.531 201.232C159.548 205.069 158.33 213.119 154.699 219.198C149.955 227.165 140.928 231.777 131.881 233.747C122.833 235.718 113.471 235.844 104.255 236.934C70.3326 241.126 47.1157 349.719 30.973 379.823C32.9043 364.666 -17.6441 323.556 28.6849 247.332C32.8832 240.393 30.7841 230.896 28.0551 223.223C24.8644 214.083 16.5726 205.488 19.4695 196.243C21.104 192.102 24.0538 188.611 27.8662 186.306C42.5605 176.013 61.9779 172.784 74.9089 160.269C74.1322 162.638 70.2906 162.365 68.8632 160.416C68.2784 159.316 67.9296 158.107 67.8393 156.865C67.7489 155.624 67.9189 154.377 68.3384 153.204C71.5921 139.725 80.9335 128.467 91.1565 119.201C101.38 109.935 113.051 102.094 122.98 92.4092C116.053 89.7259 113.681 80.4179 116.452 73.5418C119.223 66.6657 125.604 61.9488 132.112 58.4059C138.619 54.8631 145.651 52.1168 151.34 47.358C157.638 42.0752 161.836 34.7797 167.588 28.7631C176.572 19.3294 188.789 13.7531 200.755 8.57501C208.017 5.12545 215.682 2.59713 223.573 1.049C232.514 -0.185888 241.616 0.529326 250.253 3.14538C273.344 9.7909 292.237 25.9749 309.807 42.138C313.88 45.8486 317.91 49.5802 321.94 53.3537C324.04 55.45 326.412 57.8819 325.95 60.7958C325.488 63.7098 306.595 62.5149 302.649 63.9823C292.048 67.9026 283.19 75.6382 275.381 83.5625Z" fill="#3F3D56"/>
<path d="M275.381 83.5625C256.59 102.362 240.465 123.642 227.456 146.81C221.873 156.768 216.814 167.166 209.466 175.887C200.208 186.819 187.797 194.631 173.927 198.255C170.988 198.797 168.154 199.802 165.531 201.232C159.548 205.069 158.33 213.119 154.699 219.198C149.955 227.165 140.928 231.777 131.881 233.747C122.833 235.718 113.471 235.844 104.255 236.934C70.3326 241.126 47.1157 349.719 30.973 379.823C32.9043 364.666 -17.6441 323.556 28.6849 247.332C32.8832 240.393 30.7841 230.896 28.0551 223.223C24.8644 214.083 16.5726 205.488 19.4695 196.243C21.104 192.102 24.0538 188.611 27.8662 186.306C42.5605 176.013 61.9779 172.784 74.9089 160.269C74.1322 162.638 70.2906 162.365 68.8632 160.416C68.2784 159.316 67.9296 158.107 67.8393 156.865C67.7489 155.624 67.9189 154.377 68.3384 153.204C71.5921 139.725 80.9335 128.467 91.1565 119.201C101.38 109.935 113.051 102.094 122.98 92.4092C116.053 89.7259 113.681 80.4179 116.452 73.5418C119.223 66.6657 125.604 61.9488 132.112 58.4059C138.619 54.8631 145.651 52.1168 151.34 47.358C157.638 42.0752 161.836 34.7797 167.588 28.7631C176.572 19.3294 188.789 13.7531 200.755 8.57501C208.017 5.12545 215.682 2.59713 223.573 1.049C232.514 -0.185888 241.616 0.529326 250.253 3.14538C273.344 9.7909 292.237 25.9749 309.807 42.138C313.88 45.8486 317.91 49.5802 321.94 53.3537C324.04 55.45 326.412 57.8819 325.95 60.7958C325.488 63.7098 306.595 62.5149 302.649 63.9823C292.048 67.9026 283.19 75.6382 275.381 83.5625Z" fill="url(#paint12_linear)"/>
<path opacity="0.69" d="M632.032 459.108L643.22 503.027L720.764 267.226L700.696 261.818L632.032 459.108Z" fill="url(#paint13_linear)"/>
<path opacity="0.69" d="M637.825 442.84L647.397 480.491L713.879 278.379L696.665 273.767L637.825 442.84Z" fill="url(#paint14_linear)"/>
<path d="M511.266 466.047L503.163 499.945L521.678 499.17L524.386 466.802L511.266 466.047Z" fill="white"/>
<path d="M596.723 465.649L604.532 465.942L609.465 496.004H600.187L596.723 465.649Z" fill="white"/>
<path d="M579.363 465.502H591.371L596.136 495.899L581.861 495.711L579.363 465.502Z" fill="white"/>
<path d="M562.78 466.047H575.123L576.655 496.088H562.003L562.78 466.047Z" fill="white"/>
<path d="M545.608 466.424L558.14 466.236L559.106 497.451H544.244L545.608 466.424Z" fill="white"/>
<path d="M529.402 466.802L540.381 467.011L540.003 498.205H526.506L529.402 466.802Z" fill="white"/>
<path d="M570.19 371.458C570.19 371.458 578.293 420.388 581 423.092L623.824 422.316C623.824 422.316 632.221 379.173 631.15 373.387L618.429 368.775L570.19 371.458Z" fill="#40A9FF"/>
<path opacity="0.69" d="M577.915 375.777C577.915 375.777 584.485 419.319 587.193 422.023L623.824 422.316C623.824 422.316 632.22 379.173 631.15 373.387L618.429 368.775L577.915 375.777Z" fill="url(#paint15_linear)"/>
<path d="M623.824 422.316C623.824 422.316 632.22 379.173 631.15 373.387L623.824 422.316Z" fill="#40A9FF"/>
<path d="M565.488 355.903C564.739 355.585 564.134 355.003 563.787 354.268C563.262 352.654 565.32 351.417 566.978 351.123C570.821 350.478 574.769 351.096 578.23 352.884C572.214 348.403 566.827 343.136 562.213 337.224C567.407 338.331 572.326 340.47 576.676 343.514C577.966 341 579.744 338.767 581.907 336.946C584.069 335.125 586.572 333.752 589.271 332.906C594.702 331.24 600.417 330.698 606.065 331.313C606.994 331.253 607.924 331.412 608.781 331.776C609.637 332.14 610.397 332.699 610.998 333.409C612.089 335.233 610.998 337.602 609.99 339.384C610.7 337.66 611.916 336.192 613.479 335.173C615.042 334.155 616.878 333.635 618.744 333.681C616.603 337.651 614.273 341.494 611.754 345.212C615.07 342.801 619.458 342.633 623.572 342.549C624.203 342.484 624.839 342.608 625.398 342.906C626.637 343.828 625.797 345.799 624.79 346.973C620.591 351.899 614.671 355.735 612.404 361.815C611.503 365.025 610.802 368.288 610.305 371.584C610.157 372.481 609.756 373.317 609.151 373.995C608.343 374.627 607.362 375 606.338 375.064C599.599 376.154 590.72 377.161 585.493 371.92C579.608 365.672 572.873 360.281 565.488 355.903Z" fill="#40A9FF"/>
<path d="M565.488 355.903C564.739 355.585 564.134 355.003 563.787 354.268C563.262 352.654 565.32 351.417 566.978 351.123C570.821 350.478 574.769 351.096 578.23 352.884C572.214 348.403 566.827 343.136 562.213 337.224C567.407 338.331 572.326 340.47 576.676 343.514C577.966 341 579.744 338.767 581.907 336.946C584.069 335.125 586.572 333.752 589.271 332.906C594.702 331.24 600.417 330.698 606.065 331.313C606.994 331.253 607.924 331.412 608.781 331.776C609.637 332.14 610.397 332.699 610.998 333.409C612.089 335.233 610.998 337.602 609.99 339.384C610.7 337.66 611.916 336.192 613.479 335.173C615.042 334.155 616.878 333.635 618.744 333.681C616.603 337.651 614.273 341.494 611.754 345.212C615.07 342.801 619.458 342.633 623.572 342.549C624.203 342.484 624.839 342.608 625.398 342.906C626.637 343.828 625.797 345.799 624.79 346.973C620.591 351.899 614.671 355.735 612.404 361.815C611.503 365.025 610.802 368.288 610.305 371.584C610.157 372.481 609.756 373.317 609.151 373.995C608.343 374.627 607.362 375 606.338 375.064C599.599 376.154 590.72 377.161 585.493 371.92C579.608 365.672 572.873 360.281 565.488 355.903Z" fill="url(#paint16_linear)"/>
<path d="M361.174 532.691L612.342 526.926L620.444 589.335L325.299 587.029L361.174 532.691Z" fill="#DEDEE0"/>
<path opacity="0.69" d="M356.535 528.645L607.723 522.88L615.826 585.289L320.66 582.983L356.535 528.645Z" fill="url(#paint17_linear)"/>
<path d="M334.557 336.763L333.969 288.798L402.255 288.211L386.637 421.143L345.556 421.729L331.66 376.636L334.557 336.763Z" fill="#40A9FF"/>
<path d="M334.557 336.763L333.969 288.798L402.255 288.211L386.637 421.143L345.556 421.729L331.66 376.636L334.557 336.763Z" fill="url(#paint18_linear)"/>
<path d="M361.426 417.327C307.911 459.925 252.947 500.595 196.535 539.336C174.263 554.64 150.248 570.153 123.253 571.285C114.856 571.642 106.166 570.447 99.3013 565.73C88.4275 558.288 84.754 544.221 82.13 531.328C67.8766 461.267 61.3271 389.76 59.8157 318.273C59.4798 302.152 59.4379 285.674 64.6858 270.434C69.9338 255.193 81.4793 241.084 97.1602 237.269C97.1602 237.269 134.316 232.154 145.126 270.685C155.937 309.217 145.126 476.445 152.83 477.996C160.534 479.548 314.111 400.116 314.111 400.116C317.364 400.116 318.015 394.309 318.498 391.08C318.791 387.844 318.686 384.584 318.183 381.374C316.47 362.199 321.253 343.005 331.765 326.868C334.997 331.585 334.851 337.769 334.578 343.472L334.032 356.092C333.764 357.661 334.085 359.273 334.934 360.62C335.854 361.561 337.085 362.134 338.398 362.234C344.465 363.157 350.447 360.536 356.136 358.188C368.095 353.224 380.419 349.187 392.998 346.113C393.953 345.74 394.978 345.575 396.002 345.629C397.027 345.683 398.028 345.955 398.939 346.427C399.801 347.25 400.38 348.324 400.591 349.496C400.802 350.668 400.635 351.876 400.114 352.947C399.295 355.169 397.784 357.14 397.091 359.404C396.829 360.078 396.829 360.826 397.091 361.5C397.637 362.591 399.19 362.737 400.093 363.429C400.748 364.09 401.247 364.888 401.556 365.766C401.864 366.643 401.974 367.578 401.877 368.502L402.024 373.198C402.339 383.093 402.465 393.722 396.986 402.003C392.819 407.761 386.875 411.995 380.067 414.057C374.01 415.902 367.75 417 361.426 417.327Z" fill="url(#paint19_linear)"/>
<path d="M330.316 291.88H406.307V283.41L400.534 282.236L399.379 273.767L335.312 274.543L333.003 283.012L329.917 284.563L330.316 291.88Z" fill="#40A9FF"/>
<path opacity="0.69" d="M329.581 292.32H405.593V283.83L399.799 282.677L398.645 274.207L334.599 274.962L332.289 283.452L329.204 284.983L329.581 292.32Z" fill="url(#paint20_linear)"/>
<path d="M335.312 274.543L338.314 263.369L365.52 274.061L335.312 274.543Z" fill="#40A9FF"/>
<path d="M335.312 274.543L338.314 263.369L365.52 274.061L335.312 274.543Z" fill="url(#paint21_linear)"/>
<path d="M811.428 613.611H150.5V635.581H811.428V613.611Z" fill="#DEDEE0"/>
<path d="M646.306 504.956L377.527 511.266V517.807L646.306 511.497V504.956Z" fill="#40A9FF"/>
<path d="M646.306 504.956L377.527 511.266V517.807L646.306 511.497V504.956Z" fill="url(#paint22_linear)"/>
<path d="M398.225 480.114L305.042 488.185L329.351 469.695L409.014 462.965L398.225 480.114Z" fill="url(#paint23_linear)"/>
<defs>
<linearGradient id="paint0_linear" x1="344.234" y1="820.482" x2="31.9765" y2="605.088" gradientUnits="userSpaceOnUse">
<stop stop-opacity="0"/>
<stop offset="0.99"/>
</linearGradient>
<linearGradient id="paint1_linear" x1="26989.2" y1="88113.9" x2="77528.6" y2="88113.9" gradientUnits="userSpaceOnUse">
<stop stop-opacity="0"/>
<stop offset="0.99"/>
</linearGradient>
<linearGradient id="paint2_linear" x1="107634" y1="116595" x2="97385" y2="187363" gradientUnits="userSpaceOnUse">
<stop stop-opacity="0"/>
<stop offset="0.99"/>
</linearGradient>
<linearGradient id="paint3_linear" x1="12272.7" y1="8173.58" x2="11789.9" y2="8717.02" gradientUnits="userSpaceOnUse">
<stop stop-opacity="0"/>
<stop offset="0.99"/>
</linearGradient>
<linearGradient id="paint4_linear" x1="9599.7" y1="4154.98" x2="9761.66" y2="3928.8" gradientUnits="userSpaceOnUse">
<stop stop-opacity="0"/>
<stop offset="0.99"/>
</linearGradient>
<linearGradient id="paint5_linear" x1="49207.5" y1="6663.11" x2="35806.4" y2="22779.7" gradientUnits="userSpaceOnUse">
<stop stop-opacity="0"/>
<stop offset="0.99"/>
</linearGradient>
<linearGradient id="paint6_linear" x1="202.203" y1="371.039" x2="537.316" y2="371.039" gradientUnits="userSpaceOnUse">
<stop stop-color="#ECC4D7"/>
<stop offset="0.42" stop-color="#EFD4D1"/>
<stop offset="0.6" stop-color="#F0DCCE"/>
<stop offset="1" stop-color="#F2EAC9"/>
</linearGradient>
<linearGradient id="paint7_linear" x1="84518.1" y1="36812.4" x2="82533.4" y2="51162.4" gradientUnits="userSpaceOnUse">
<stop stop-opacity="0"/>
<stop offset="0.99"/>
</linearGradient>
<linearGradient id="paint8_linear" x1="40252.2" y1="96418.1" x2="-1917.2" y2="85843" gradientUnits="userSpaceOnUse">
<stop stop-opacity="0"/>
<stop offset="0.99"/>
</linearGradient>
<linearGradient id="paint9_linear" x1="170.128" y1="198.696" x2="199.608" y2="224.164" gradientUnits="userSpaceOnUse">
<stop stop-color="#ECC4D7"/>
<stop offset="0.42" stop-color="#EFD4D1"/>
<stop offset="1" stop-color="#F2EAC9"/>
</linearGradient>
<linearGradient id="paint10_linear" x1="13931.9" y1="9306.87" x2="14338.5" y2="1780.28" gradientUnits="userSpaceOnUse">
<stop stop-opacity="0"/>
<stop offset="0.99"/>
</linearGradient>
<linearGradient id="paint11_linear" x1="30210.1" y1="21232.6" x2="35653.5" y2="22169.3" gradientUnits="userSpaceOnUse">
<stop stop-color="#ECC4D7"/>
<stop offset="0.42" stop-color="#EFD4D1"/>
<stop offset="0.6" stop-color="#F0DCCE"/>
<stop offset="1" stop-color="#F2EAC9"/>
</linearGradient>
<linearGradient id="paint12_linear" x1="68495.5" y1="59120.2" x2="55788.9" y2="57203.5" gradientUnits="userSpaceOnUse">
<stop stop-opacity="0"/>
<stop offset="0.99"/>
</linearGradient>
<linearGradient id="paint13_linear" x1="586.459" y1="309.28" x2="710.58" y2="408.076" gradientUnits="userSpaceOnUse">
<stop offset="0.02" stop-color="white" stop-opacity="0"/>
<stop offset="0.58" stop-color="white" stop-opacity="0.39"/>
<stop offset="0.68" stop-color="white" stop-opacity="0.68"/>
<stop offset="1" stop-color="white"/>
</linearGradient>
<linearGradient id="paint14_linear" x1="29576.9" y1="43508" x2="35376" y2="45204" gradientUnits="userSpaceOnUse">
<stop offset="0.02" stop-color="white" stop-opacity="0"/>
<stop offset="0.58" stop-color="white" stop-opacity="0.39"/>
<stop offset="0.68" stop-color="white" stop-opacity="0.68"/>
<stop offset="1" stop-color="white"/>
</linearGradient>
<linearGradient id="paint15_linear" x1="23214.1" y1="13755.8" x2="22571.9" y2="13859.4" gradientUnits="userSpaceOnUse">
<stop offset="0.02" stop-color="white" stop-opacity="0"/>
<stop offset="0.58" stop-color="white" stop-opacity="0.39"/>
<stop offset="0.68" stop-color="white" stop-opacity="0.68"/>
<stop offset="1" stop-color="white"/>
</linearGradient>
<linearGradient id="paint16_linear" x1="26889.7" y1="10461.2" x2="27252.7" y2="11964.2" gradientUnits="userSpaceOnUse">
<stop stop-opacity="0"/>
<stop offset="0.99"/>
</linearGradient>
<linearGradient id="paint17_linear" x1="73530.7" y1="20709.1" x2="115034" y2="20709.1" gradientUnits="userSpaceOnUse">
<stop offset="0.02" stop-color="white" stop-opacity="0"/>
<stop offset="0.58" stop-color="white" stop-opacity="0.39"/>
<stop offset="0.68" stop-color="white" stop-opacity="0.68"/>
<stop offset="1" stop-color="white"/>
</linearGradient>
<linearGradient id="paint18_linear" x1="19099.4" y1="30693" x2="22609.1" y2="30878.7" gradientUnits="userSpaceOnUse">
<stop stop-opacity="0"/>
<stop offset="0.99"/>
</linearGradient>
<linearGradient id="paint19_linear" x1="54274.3" y1="85129.2" x2="110140" y2="85129.2" gradientUnits="userSpaceOnUse">
<stop stop-color="#ECC4D7"/>
<stop offset="0.42" stop-color="#EFD4D1"/>
<stop offset="0.6" stop-color="#F0DCCE"/>
<stop offset="1" stop-color="#F2EAC9"/>
</linearGradient>
<linearGradient id="paint20_linear" x1="19586.9" y1="3792.97" x2="22366.7" y2="3792.97" gradientUnits="userSpaceOnUse">
<stop offset="0.02" stop-color="white" stop-opacity="0"/>
<stop offset="0.58" stop-color="white" stop-opacity="0.39"/>
<stop offset="0.68" stop-color="white" stop-opacity="0.68"/>
<stop offset="1" stop-color="white"/>
</linearGradient>
<linearGradient id="paint21_linear" x1="8251.43" y1="2349.5" x2="8253.87" y2="2501.15" gradientUnits="userSpaceOnUse">
<stop stop-opacity="0"/>
<stop offset="0.99"/>
</linearGradient>
<linearGradient id="paint22_linear" x1="91289.4" y1="4244.03" x2="91290.7" y2="4595.5" gradientUnits="userSpaceOnUse">
<stop stop-opacity="0"/>
<stop offset="0.99"/>
</linearGradient>
<linearGradient id="paint23_linear" x1="27944.1" y1="7460.11" x2="27851" y2="14273.5" gradientUnits="userSpaceOnUse">
<stop stop-opacity="0"/>
<stop offset="0.99"/>
</linearGradient>
</defs>
</svg>
