<svg width="15" height="12" viewBox="0 0 15 12" fill="none" xmlns="http://www.w3.org/2000/svg">
<path fill-rule="evenodd" clip-rule="evenodd" d="M11.7265 4.24229V1.67711C11.7265 1.27401 11.3967 0.944199 10.9936 0.944199H0.732909C0.329809 0.944199 0 1.27401 0 1.67711V10.472C0 10.8751 0.329809 11.2049 0.732909 11.2049H10.9936C11.3967 11.2049 11.7265 10.8751 11.7265 10.472V7.90683L14.6582 10.8385V1.31065L11.7265 4.24229ZM4.39745 6.80747H7.32908V8.27328L9.52781 6.07456L7.32908 3.87583V5.34165H4.39745V3.87583L2.19872 6.07456L4.39745 8.27328V6.80747ZM1.46584 9.7391H10.2607V2.41002H1.46584V9.7391Z" fill="#262626"/>
</svg>
